<?xml version="1.0" encoding="utf-8"?>
<svg xmlns="http://www.w3.org/2000/svg" xmlns:xlink="http://www.w3.org/1999/xlink" width="600" height="400" viewBox="0 0 2400 1600">
<defs>
  <clipPath id="clip700">
    <rect x="0" y="0" width="2400" height="1600"/>
  </clipPath>
</defs>
<path clip-path="url(#clip700)" d="M0 1600 L2400 1600 L2400 0 L0 0  Z" fill="#ffffff" fill-rule="evenodd" fill-opacity="1"/>
<defs>
  <clipPath id="clip701">
    <rect x="480" y="0" width="1681" height="1600"/>
  </clipPath>
</defs>
<path clip-path="url(#clip700)" d="M186.274 1486.45 L2352.76 1486.45 L2352.76 47.2441 L186.274 47.2441  Z" fill="#ffffff" fill-rule="evenodd" fill-opacity="1"/>
<defs>
  <clipPath id="clip702">
    <rect x="186" y="47" width="2167" height="1440"/>
  </clipPath>
</defs>
<polyline clip-path="url(#clip702)" style="stroke:#000000; stroke-linecap:round; stroke-linejoin:round; stroke-width:2; stroke-opacity:0.1; fill:none" points="247.59,1486.45 247.59,47.2441 "/>
<polyline clip-path="url(#clip702)" style="stroke:#000000; stroke-linecap:round; stroke-linejoin:round; stroke-width:2; stroke-opacity:0.1; fill:none" points="758.552,1486.45 758.552,47.2441 "/>
<polyline clip-path="url(#clip702)" style="stroke:#000000; stroke-linecap:round; stroke-linejoin:round; stroke-width:2; stroke-opacity:0.1; fill:none" points="1269.51,1486.45 1269.51,47.2441 "/>
<polyline clip-path="url(#clip702)" style="stroke:#000000; stroke-linecap:round; stroke-linejoin:round; stroke-width:2; stroke-opacity:0.1; fill:none" points="1780.48,1486.45 1780.48,47.2441 "/>
<polyline clip-path="url(#clip702)" style="stroke:#000000; stroke-linecap:round; stroke-linejoin:round; stroke-width:2; stroke-opacity:0.1; fill:none" points="2291.44,1486.45 2291.44,47.2441 "/>
<polyline clip-path="url(#clip702)" style="stroke:#000000; stroke-linecap:round; stroke-linejoin:round; stroke-width:2; stroke-opacity:0.1; fill:none" points="186.274,1445.72 2352.76,1445.72 "/>
<polyline clip-path="url(#clip702)" style="stroke:#000000; stroke-linecap:round; stroke-linejoin:round; stroke-width:2; stroke-opacity:0.1; fill:none" points="186.274,1106.28 2352.76,1106.28 "/>
<polyline clip-path="url(#clip702)" style="stroke:#000000; stroke-linecap:round; stroke-linejoin:round; stroke-width:2; stroke-opacity:0.1; fill:none" points="186.274,766.846 2352.76,766.846 "/>
<polyline clip-path="url(#clip702)" style="stroke:#000000; stroke-linecap:round; stroke-linejoin:round; stroke-width:2; stroke-opacity:0.1; fill:none" points="186.274,427.411 2352.76,427.411 "/>
<polyline clip-path="url(#clip702)" style="stroke:#000000; stroke-linecap:round; stroke-linejoin:round; stroke-width:2; stroke-opacity:0.1; fill:none" points="186.274,87.9762 2352.76,87.9762 "/>
<polyline clip-path="url(#clip700)" style="stroke:#000000; stroke-linecap:round; stroke-linejoin:round; stroke-width:4; stroke-opacity:1; fill:none" points="186.274,1486.45 2352.76,1486.45 "/>
<polyline clip-path="url(#clip700)" style="stroke:#000000; stroke-linecap:round; stroke-linejoin:round; stroke-width:4; stroke-opacity:1; fill:none" points="247.59,1486.45 247.59,1467.55 "/>
<polyline clip-path="url(#clip700)" style="stroke:#000000; stroke-linecap:round; stroke-linejoin:round; stroke-width:4; stroke-opacity:1; fill:none" points="758.552,1486.45 758.552,1467.55 "/>
<polyline clip-path="url(#clip700)" style="stroke:#000000; stroke-linecap:round; stroke-linejoin:round; stroke-width:4; stroke-opacity:1; fill:none" points="1269.51,1486.45 1269.51,1467.55 "/>
<polyline clip-path="url(#clip700)" style="stroke:#000000; stroke-linecap:round; stroke-linejoin:round; stroke-width:4; stroke-opacity:1; fill:none" points="1780.48,1486.45 1780.48,1467.55 "/>
<polyline clip-path="url(#clip700)" style="stroke:#000000; stroke-linecap:round; stroke-linejoin:round; stroke-width:4; stroke-opacity:1; fill:none" points="2291.44,1486.45 2291.44,1467.55 "/>
<path clip-path="url(#clip700)" d="M194.118 1532.02 L223.793 1532.02 L223.793 1535.95 L194.118 1535.95 L194.118 1532.02 Z" fill="#000000" fill-rule="nonzero" fill-opacity="1" /><path clip-path="url(#clip700)" d="M234.696 1544.91 L242.335 1544.91 L242.335 1518.55 L234.025 1520.21 L234.025 1515.95 L242.289 1514.29 L246.965 1514.29 L246.965 1544.91 L254.603 1544.91 L254.603 1548.85 L234.696 1548.85 L234.696 1544.91 Z" fill="#000000" fill-rule="nonzero" fill-opacity="1" /><path clip-path="url(#clip700)" d="M264.048 1542.97 L268.932 1542.97 L268.932 1548.85 L264.048 1548.85 L264.048 1542.97 Z" fill="#000000" fill-rule="nonzero" fill-opacity="1" /><path clip-path="url(#clip700)" d="M289.117 1517.37 Q285.506 1517.37 283.677 1520.93 Q281.872 1524.47 281.872 1531.6 Q281.872 1538.71 283.677 1542.27 Q285.506 1545.82 289.117 1545.82 Q292.751 1545.82 294.557 1542.27 Q296.386 1538.71 296.386 1531.6 Q296.386 1524.47 294.557 1520.93 Q292.751 1517.37 289.117 1517.37 M289.117 1513.66 Q294.927 1513.66 297.983 1518.27 Q301.061 1522.85 301.061 1531.6 Q301.061 1540.33 297.983 1544.94 Q294.927 1549.52 289.117 1549.52 Q283.307 1549.52 280.228 1544.94 Q277.173 1540.33 277.173 1531.6 Q277.173 1522.85 280.228 1518.27 Q283.307 1513.66 289.117 1513.66 Z" fill="#000000" fill-rule="nonzero" fill-opacity="1" /><path clip-path="url(#clip700)" d="M705.578 1532.02 L735.254 1532.02 L735.254 1535.95 L705.578 1535.95 L705.578 1532.02 Z" fill="#000000" fill-rule="nonzero" fill-opacity="1" /><path clip-path="url(#clip700)" d="M755.346 1517.37 Q751.735 1517.37 749.906 1520.93 Q748.101 1524.47 748.101 1531.6 Q748.101 1538.71 749.906 1542.27 Q751.735 1545.82 755.346 1545.82 Q758.98 1545.82 760.786 1542.27 Q762.615 1538.71 762.615 1531.6 Q762.615 1524.47 760.786 1520.93 Q758.98 1517.37 755.346 1517.37 M755.346 1513.66 Q761.156 1513.66 764.212 1518.27 Q767.291 1522.85 767.291 1531.6 Q767.291 1540.33 764.212 1544.94 Q761.156 1549.52 755.346 1549.52 Q749.536 1549.52 746.457 1544.94 Q743.402 1540.33 743.402 1531.6 Q743.402 1522.85 746.457 1518.27 Q749.536 1513.66 755.346 1513.66 Z" fill="#000000" fill-rule="nonzero" fill-opacity="1" /><path clip-path="url(#clip700)" d="M775.508 1542.97 L780.392 1542.97 L780.392 1548.85 L775.508 1548.85 L775.508 1542.97 Z" fill="#000000" fill-rule="nonzero" fill-opacity="1" /><path clip-path="url(#clip700)" d="M790.624 1514.29 L808.98 1514.29 L808.98 1518.22 L794.906 1518.22 L794.906 1526.7 Q795.925 1526.35 796.943 1526.19 Q797.962 1526 798.98 1526 Q804.767 1526 808.147 1529.17 Q811.526 1532.34 811.526 1537.76 Q811.526 1543.34 808.054 1546.44 Q804.582 1549.52 798.263 1549.52 Q796.087 1549.52 793.818 1549.15 Q791.573 1548.78 789.166 1548.04 L789.166 1543.34 Q791.249 1544.47 793.471 1545.03 Q795.693 1545.58 798.17 1545.58 Q802.175 1545.58 804.513 1543.48 Q806.851 1541.37 806.851 1537.76 Q806.851 1534.15 804.513 1532.04 Q802.175 1529.94 798.17 1529.94 Q796.295 1529.94 794.42 1530.35 Q792.568 1530.77 790.624 1531.65 L790.624 1514.29 Z" fill="#000000" fill-rule="nonzero" fill-opacity="1" /><path clip-path="url(#clip700)" d="M1246.9 1517.37 Q1243.29 1517.37 1241.46 1520.93 Q1239.65 1524.47 1239.65 1531.6 Q1239.65 1538.71 1241.46 1542.27 Q1243.29 1545.82 1246.9 1545.82 Q1250.53 1545.82 1252.34 1542.27 Q1254.17 1538.71 1254.17 1531.6 Q1254.17 1524.47 1252.34 1520.93 Q1250.53 1517.37 1246.9 1517.37 M1246.9 1513.66 Q1252.71 1513.66 1255.77 1518.27 Q1258.84 1522.85 1258.84 1531.6 Q1258.84 1540.33 1255.77 1544.94 Q1252.71 1549.52 1246.9 1549.52 Q1241.09 1549.52 1238.01 1544.94 Q1234.95 1540.33 1234.95 1531.6 Q1234.95 1522.85 1238.01 1518.27 Q1241.09 1513.66 1246.9 1513.66 Z" fill="#000000" fill-rule="nonzero" fill-opacity="1" /><path clip-path="url(#clip700)" d="M1267.06 1542.97 L1271.95 1542.97 L1271.95 1548.85 L1267.06 1548.85 L1267.06 1542.97 Z" fill="#000000" fill-rule="nonzero" fill-opacity="1" /><path clip-path="url(#clip700)" d="M1292.13 1517.37 Q1288.52 1517.37 1286.69 1520.93 Q1284.89 1524.47 1284.89 1531.6 Q1284.89 1538.71 1286.69 1542.27 Q1288.52 1545.82 1292.13 1545.82 Q1295.76 1545.82 1297.57 1542.27 Q1299.4 1538.71 1299.4 1531.6 Q1299.4 1524.47 1297.57 1520.93 Q1295.76 1517.37 1292.13 1517.37 M1292.13 1513.66 Q1297.94 1513.66 1301 1518.27 Q1304.07 1522.85 1304.07 1531.6 Q1304.07 1540.33 1301 1544.94 Q1297.94 1549.52 1292.13 1549.52 Q1286.32 1549.52 1283.24 1544.94 Q1280.19 1540.33 1280.19 1531.6 Q1280.19 1522.85 1283.24 1518.27 Q1286.32 1513.66 1292.13 1513.66 Z" fill="#000000" fill-rule="nonzero" fill-opacity="1" /><path clip-path="url(#clip700)" d="M1758.36 1517.37 Q1754.75 1517.37 1752.92 1520.93 Q1751.11 1524.47 1751.11 1531.6 Q1751.11 1538.71 1752.92 1542.27 Q1754.75 1545.82 1758.36 1545.82 Q1761.99 1545.82 1763.8 1542.27 Q1765.63 1538.71 1765.63 1531.6 Q1765.63 1524.47 1763.8 1520.93 Q1761.99 1517.37 1758.36 1517.37 M1758.36 1513.66 Q1764.17 1513.66 1767.23 1518.27 Q1770.3 1522.85 1770.3 1531.6 Q1770.3 1540.33 1767.23 1544.94 Q1764.17 1549.52 1758.36 1549.52 Q1752.55 1549.52 1749.47 1544.94 Q1746.42 1540.33 1746.42 1531.6 Q1746.42 1522.85 1749.47 1518.27 Q1752.55 1513.66 1758.36 1513.66 Z" fill="#000000" fill-rule="nonzero" fill-opacity="1" /><path clip-path="url(#clip700)" d="M1778.52 1542.97 L1783.41 1542.97 L1783.41 1548.85 L1778.52 1548.85 L1778.52 1542.97 Z" fill="#000000" fill-rule="nonzero" fill-opacity="1" /><path clip-path="url(#clip700)" d="M1793.64 1514.29 L1811.99 1514.29 L1811.99 1518.22 L1797.92 1518.22 L1797.92 1526.7 Q1798.94 1526.35 1799.96 1526.19 Q1800.98 1526 1801.99 1526 Q1807.78 1526 1811.16 1529.17 Q1814.54 1532.34 1814.54 1537.76 Q1814.54 1543.34 1811.07 1546.44 Q1807.6 1549.52 1801.28 1549.52 Q1799.1 1549.52 1796.83 1549.15 Q1794.59 1548.78 1792.18 1548.04 L1792.18 1543.34 Q1794.26 1544.47 1796.48 1545.03 Q1798.71 1545.58 1801.18 1545.58 Q1805.19 1545.58 1807.53 1543.48 Q1809.86 1541.37 1809.86 1537.76 Q1809.86 1534.15 1807.53 1532.04 Q1805.19 1529.94 1801.18 1529.94 Q1799.31 1529.94 1797.43 1530.35 Q1795.58 1530.77 1793.64 1531.65 L1793.64 1514.29 Z" fill="#000000" fill-rule="nonzero" fill-opacity="1" /><path clip-path="url(#clip700)" d="M2258.59 1544.91 L2266.23 1544.91 L2266.23 1518.55 L2257.92 1520.21 L2257.92 1515.95 L2266.19 1514.29 L2270.86 1514.29 L2270.86 1544.91 L2278.5 1544.91 L2278.5 1548.85 L2258.59 1548.85 L2258.59 1544.91 Z" fill="#000000" fill-rule="nonzero" fill-opacity="1" /><path clip-path="url(#clip700)" d="M2287.95 1542.97 L2292.83 1542.97 L2292.83 1548.85 L2287.95 1548.85 L2287.95 1542.97 Z" fill="#000000" fill-rule="nonzero" fill-opacity="1" /><path clip-path="url(#clip700)" d="M2313.01 1517.37 Q2309.4 1517.37 2307.57 1520.93 Q2305.77 1524.47 2305.77 1531.6 Q2305.77 1538.71 2307.57 1542.27 Q2309.4 1545.82 2313.01 1545.82 Q2316.65 1545.82 2318.45 1542.27 Q2320.28 1538.71 2320.28 1531.6 Q2320.28 1524.47 2318.45 1520.93 Q2316.65 1517.37 2313.01 1517.37 M2313.01 1513.66 Q2318.82 1513.66 2321.88 1518.27 Q2324.96 1522.85 2324.96 1531.6 Q2324.96 1540.33 2321.88 1544.94 Q2318.82 1549.52 2313.01 1549.52 Q2307.2 1549.52 2304.13 1544.94 Q2301.07 1540.33 2301.07 1531.6 Q2301.07 1522.85 2304.13 1518.27 Q2307.2 1513.66 2313.01 1513.66 Z" fill="#000000" fill-rule="nonzero" fill-opacity="1" /><polyline clip-path="url(#clip700)" style="stroke:#000000; stroke-linecap:round; stroke-linejoin:round; stroke-width:4; stroke-opacity:1; fill:none" points="186.274,1486.45 186.274,47.2441 "/>
<polyline clip-path="url(#clip700)" style="stroke:#000000; stroke-linecap:round; stroke-linejoin:round; stroke-width:4; stroke-opacity:1; fill:none" points="186.274,1445.72 205.172,1445.72 "/>
<polyline clip-path="url(#clip700)" style="stroke:#000000; stroke-linecap:round; stroke-linejoin:round; stroke-width:4; stroke-opacity:1; fill:none" points="186.274,1106.28 205.172,1106.28 "/>
<polyline clip-path="url(#clip700)" style="stroke:#000000; stroke-linecap:round; stroke-linejoin:round; stroke-width:4; stroke-opacity:1; fill:none" points="186.274,766.846 205.172,766.846 "/>
<polyline clip-path="url(#clip700)" style="stroke:#000000; stroke-linecap:round; stroke-linejoin:round; stroke-width:4; stroke-opacity:1; fill:none" points="186.274,427.411 205.172,427.411 "/>
<polyline clip-path="url(#clip700)" style="stroke:#000000; stroke-linecap:round; stroke-linejoin:round; stroke-width:4; stroke-opacity:1; fill:none" points="186.274,87.9762 205.172,87.9762 "/>
<path clip-path="url(#clip700)" d="M62.9365 1431.51 Q59.3254 1431.51 57.4967 1435.08 Q55.6912 1438.62 55.6912 1445.75 Q55.6912 1452.86 57.4967 1456.42 Q59.3254 1459.96 62.9365 1459.96 Q66.5707 1459.96 68.3763 1456.42 Q70.205 1452.86 70.205 1445.75 Q70.205 1438.62 68.3763 1435.08 Q66.5707 1431.51 62.9365 1431.51 M62.9365 1427.81 Q68.7467 1427.81 71.8022 1432.42 Q74.8809 1437 74.8809 1445.75 Q74.8809 1454.48 71.8022 1459.08 Q68.7467 1463.67 62.9365 1463.67 Q57.1264 1463.67 54.0477 1459.08 Q50.9921 1454.48 50.9921 1445.75 Q50.9921 1437 54.0477 1432.42 Q57.1264 1427.81 62.9365 1427.81 Z" fill="#000000" fill-rule="nonzero" fill-opacity="1" /><path clip-path="url(#clip700)" d="M83.0984 1457.12 L87.9827 1457.12 L87.9827 1463 L83.0984 1463 L83.0984 1457.12 Z" fill="#000000" fill-rule="nonzero" fill-opacity="1" /><path clip-path="url(#clip700)" d="M108.168 1431.51 Q104.557 1431.51 102.728 1435.08 Q100.922 1438.62 100.922 1445.75 Q100.922 1452.86 102.728 1456.42 Q104.557 1459.96 108.168 1459.96 Q111.802 1459.96 113.608 1456.42 Q115.436 1452.86 115.436 1445.75 Q115.436 1438.62 113.608 1435.08 Q111.802 1431.51 108.168 1431.51 M108.168 1427.81 Q113.978 1427.81 117.033 1432.42 Q120.112 1437 120.112 1445.75 Q120.112 1454.48 117.033 1459.08 Q113.978 1463.67 108.168 1463.67 Q102.358 1463.67 99.2789 1459.08 Q96.2234 1454.48 96.2234 1445.75 Q96.2234 1437 99.2789 1432.42 Q102.358 1427.81 108.168 1427.81 Z" fill="#000000" fill-rule="nonzero" fill-opacity="1" /><path clip-path="url(#clip700)" d="M138.33 1431.51 Q134.719 1431.51 132.89 1435.08 Q131.084 1438.62 131.084 1445.75 Q131.084 1452.86 132.89 1456.42 Q134.719 1459.96 138.33 1459.96 Q141.964 1459.96 143.769 1456.42 Q145.598 1452.86 145.598 1445.75 Q145.598 1438.62 143.769 1435.08 Q141.964 1431.51 138.33 1431.51 M138.33 1427.81 Q144.14 1427.81 147.195 1432.42 Q150.274 1437 150.274 1445.75 Q150.274 1454.48 147.195 1459.08 Q144.14 1463.67 138.33 1463.67 Q132.519 1463.67 129.441 1459.08 Q126.385 1454.48 126.385 1445.75 Q126.385 1437 129.441 1432.42 Q132.519 1427.81 138.33 1427.81 Z" fill="#000000" fill-rule="nonzero" fill-opacity="1" /><path clip-path="url(#clip700)" d="M63.9319 1092.08 Q60.3208 1092.08 58.4921 1095.64 Q56.6865 1099.19 56.6865 1106.32 Q56.6865 1113.42 58.4921 1116.99 Q60.3208 1120.53 63.9319 1120.53 Q67.5661 1120.53 69.3717 1116.99 Q71.2004 1113.42 71.2004 1106.32 Q71.2004 1099.19 69.3717 1095.64 Q67.5661 1092.08 63.9319 1092.08 M63.9319 1088.38 Q69.742 1088.38 72.7976 1092.98 Q75.8763 1097.57 75.8763 1106.32 Q75.8763 1115.04 72.7976 1119.65 Q69.742 1124.23 63.9319 1124.23 Q58.1217 1124.23 55.043 1119.65 Q51.9875 1115.04 51.9875 1106.32 Q51.9875 1097.57 55.043 1092.98 Q58.1217 1088.38 63.9319 1088.38 Z" fill="#000000" fill-rule="nonzero" fill-opacity="1" /><path clip-path="url(#clip700)" d="M84.0938 1117.68 L88.978 1117.68 L88.978 1123.56 L84.0938 1123.56 L84.0938 1117.68 Z" fill="#000000" fill-rule="nonzero" fill-opacity="1" /><path clip-path="url(#clip700)" d="M103.191 1119.63 L119.51 1119.63 L119.51 1123.56 L97.566 1123.56 L97.566 1119.63 Q100.228 1116.87 104.811 1112.24 Q109.418 1107.59 110.598 1106.25 Q112.844 1103.72 113.723 1101.99 Q114.626 1100.23 114.626 1098.54 Q114.626 1095.78 112.682 1094.05 Q110.76 1092.31 107.658 1092.31 Q105.459 1092.31 103.006 1093.07 Q100.575 1093.84 97.7974 1095.39 L97.7974 1090.67 Q100.621 1089.53 103.075 1088.95 Q105.529 1088.38 107.566 1088.38 Q112.936 1088.38 116.131 1091.06 Q119.325 1093.75 119.325 1098.24 Q119.325 1100.37 118.515 1102.29 Q117.728 1104.19 115.621 1106.78 Q115.043 1107.45 111.941 1110.67 Q108.839 1113.86 103.191 1119.63 Z" fill="#000000" fill-rule="nonzero" fill-opacity="1" /><path clip-path="url(#clip700)" d="M129.371 1089 L147.728 1089 L147.728 1092.94 L133.654 1092.94 L133.654 1101.41 Q134.672 1101.06 135.691 1100.9 Q136.709 1100.71 137.728 1100.71 Q143.515 1100.71 146.894 1103.89 Q150.274 1107.06 150.274 1112.47 Q150.274 1118.05 146.802 1121.15 Q143.33 1124.23 137.01 1124.23 Q134.834 1124.23 132.566 1123.86 Q130.32 1123.49 127.913 1122.75 L127.913 1118.05 Q129.996 1119.19 132.219 1119.74 Q134.441 1120.3 136.918 1120.3 Q140.922 1120.3 143.26 1118.19 Q145.598 1116.08 145.598 1112.47 Q145.598 1108.86 143.26 1106.76 Q140.922 1104.65 136.918 1104.65 Q135.043 1104.65 133.168 1105.07 Q131.316 1105.48 129.371 1106.36 L129.371 1089 Z" fill="#000000" fill-rule="nonzero" fill-opacity="1" /><path clip-path="url(#clip700)" d="M62.9365 752.645 Q59.3254 752.645 57.4967 756.209 Q55.6912 759.751 55.6912 766.881 Q55.6912 773.987 57.4967 777.552 Q59.3254 781.094 62.9365 781.094 Q66.5707 781.094 68.3763 777.552 Q70.205 773.987 70.205 766.881 Q70.205 759.751 68.3763 756.209 Q66.5707 752.645 62.9365 752.645 M62.9365 748.941 Q68.7467 748.941 71.8022 753.547 Q74.8809 758.131 74.8809 766.881 Q74.8809 775.607 71.8022 780.214 Q68.7467 784.797 62.9365 784.797 Q57.1264 784.797 54.0477 780.214 Q50.9921 775.607 50.9921 766.881 Q50.9921 758.131 54.0477 753.547 Q57.1264 748.941 62.9365 748.941 Z" fill="#000000" fill-rule="nonzero" fill-opacity="1" /><path clip-path="url(#clip700)" d="M83.0984 778.246 L87.9827 778.246 L87.9827 784.126 L83.0984 784.126 L83.0984 778.246 Z" fill="#000000" fill-rule="nonzero" fill-opacity="1" /><path clip-path="url(#clip700)" d="M98.2141 749.566 L116.57 749.566 L116.57 753.501 L102.496 753.501 L102.496 761.973 Q103.515 761.626 104.534 761.464 Q105.552 761.279 106.571 761.279 Q112.358 761.279 115.737 764.45 Q119.117 767.621 119.117 773.038 Q119.117 778.617 115.645 781.719 Q112.172 784.797 105.853 784.797 Q103.677 784.797 101.409 784.427 Q99.1632 784.056 96.7558 783.316 L96.7558 778.617 Q98.8391 779.751 101.061 780.307 Q103.284 780.862 105.76 780.862 Q109.765 780.862 112.103 778.756 Q114.441 776.649 114.441 773.038 Q114.441 769.427 112.103 767.32 Q109.765 765.214 105.76 765.214 Q103.885 765.214 102.01 765.631 Q100.159 766.047 98.2141 766.927 L98.2141 749.566 Z" fill="#000000" fill-rule="nonzero" fill-opacity="1" /><path clip-path="url(#clip700)" d="M138.33 752.645 Q134.719 752.645 132.89 756.209 Q131.084 759.751 131.084 766.881 Q131.084 773.987 132.89 777.552 Q134.719 781.094 138.33 781.094 Q141.964 781.094 143.769 777.552 Q145.598 773.987 145.598 766.881 Q145.598 759.751 143.769 756.209 Q141.964 752.645 138.33 752.645 M138.33 748.941 Q144.14 748.941 147.195 753.547 Q150.274 758.131 150.274 766.881 Q150.274 775.607 147.195 780.214 Q144.14 784.797 138.33 784.797 Q132.519 784.797 129.441 780.214 Q126.385 775.607 126.385 766.881 Q126.385 758.131 129.441 753.547 Q132.519 748.941 138.33 748.941 Z" fill="#000000" fill-rule="nonzero" fill-opacity="1" /><path clip-path="url(#clip700)" d="M63.9319 413.21 Q60.3208 413.21 58.4921 416.775 Q56.6865 420.316 56.6865 427.446 Q56.6865 434.552 58.4921 438.117 Q60.3208 441.659 63.9319 441.659 Q67.5661 441.659 69.3717 438.117 Q71.2004 434.552 71.2004 427.446 Q71.2004 420.316 69.3717 416.775 Q67.5661 413.21 63.9319 413.21 M63.9319 409.506 Q69.742 409.506 72.7976 414.113 Q75.8763 418.696 75.8763 427.446 Q75.8763 436.173 72.7976 440.779 Q69.742 445.362 63.9319 445.362 Q58.1217 445.362 55.043 440.779 Q51.9875 436.173 51.9875 427.446 Q51.9875 418.696 55.043 414.113 Q58.1217 409.506 63.9319 409.506 Z" fill="#000000" fill-rule="nonzero" fill-opacity="1" /><path clip-path="url(#clip700)" d="M84.0938 438.811 L88.978 438.811 L88.978 444.691 L84.0938 444.691 L84.0938 438.811 Z" fill="#000000" fill-rule="nonzero" fill-opacity="1" /><path clip-path="url(#clip700)" d="M97.9826 410.131 L120.205 410.131 L120.205 412.122 L107.658 444.691 L102.774 444.691 L114.58 414.066 L97.9826 414.066 L97.9826 410.131 Z" fill="#000000" fill-rule="nonzero" fill-opacity="1" /><path clip-path="url(#clip700)" d="M129.371 410.131 L147.728 410.131 L147.728 414.066 L133.654 414.066 L133.654 422.538 Q134.672 422.191 135.691 422.029 Q136.709 421.844 137.728 421.844 Q143.515 421.844 146.894 425.015 Q150.274 428.187 150.274 433.603 Q150.274 439.182 146.802 442.284 Q143.33 445.362 137.01 445.362 Q134.834 445.362 132.566 444.992 Q130.32 444.622 127.913 443.881 L127.913 439.182 Q129.996 440.316 132.219 440.872 Q134.441 441.427 136.918 441.427 Q140.922 441.427 143.26 439.321 Q145.598 437.214 145.598 433.603 Q145.598 429.992 143.26 427.886 Q140.922 425.779 136.918 425.779 Q135.043 425.779 133.168 426.196 Q131.316 426.612 129.371 427.492 L129.371 410.131 Z" fill="#000000" fill-rule="nonzero" fill-opacity="1" /><path clip-path="url(#clip700)" d="M53.7467 101.321 L61.3856 101.321 L61.3856 74.9554 L53.0754 76.6221 L53.0754 72.3628 L61.3393 70.6962 L66.0152 70.6962 L66.0152 101.321 L73.654 101.321 L73.654 105.256 L53.7467 105.256 L53.7467 101.321 Z" fill="#000000" fill-rule="nonzero" fill-opacity="1" /><path clip-path="url(#clip700)" d="M83.0984 99.3766 L87.9827 99.3766 L87.9827 105.256 L83.0984 105.256 L83.0984 99.3766 Z" fill="#000000" fill-rule="nonzero" fill-opacity="1" /><path clip-path="url(#clip700)" d="M108.168 73.7749 Q104.557 73.7749 102.728 77.3397 Q100.922 80.8813 100.922 88.0109 Q100.922 95.1173 102.728 98.6821 Q104.557 102.224 108.168 102.224 Q111.802 102.224 113.608 98.6821 Q115.436 95.1173 115.436 88.0109 Q115.436 80.8813 113.608 77.3397 Q111.802 73.7749 108.168 73.7749 M108.168 70.0712 Q113.978 70.0712 117.033 74.6776 Q120.112 79.2609 120.112 88.0109 Q120.112 96.7377 117.033 101.344 Q113.978 105.927 108.168 105.927 Q102.358 105.927 99.2789 101.344 Q96.2234 96.7377 96.2234 88.0109 Q96.2234 79.2609 99.2789 74.6776 Q102.358 70.0712 108.168 70.0712 Z" fill="#000000" fill-rule="nonzero" fill-opacity="1" /><path clip-path="url(#clip700)" d="M138.33 73.7749 Q134.719 73.7749 132.89 77.3397 Q131.084 80.8813 131.084 88.0109 Q131.084 95.1173 132.89 98.6821 Q134.719 102.224 138.33 102.224 Q141.964 102.224 143.769 98.6821 Q145.598 95.1173 145.598 88.0109 Q145.598 80.8813 143.769 77.3397 Q141.964 73.7749 138.33 73.7749 M138.33 70.0712 Q144.14 70.0712 147.195 74.6776 Q150.274 79.2609 150.274 88.0109 Q150.274 96.7377 147.195 101.344 Q144.14 105.927 138.33 105.927 Q132.519 105.927 129.441 101.344 Q126.385 96.7377 126.385 88.0109 Q126.385 79.2609 129.441 74.6776 Q132.519 70.0712 138.33 70.0712 Z" fill="#000000" fill-rule="nonzero" fill-opacity="1" /><polyline clip-path="url(#clip702)" style="stroke:#009af9; stroke-linecap:round; stroke-linejoin:round; stroke-width:8; stroke-opacity:1; fill:none" points="247.59,1445.71 268.028,1445.71 288.467,1445.7 308.905,1445.69 329.344,1445.68 349.782,1445.66 370.221,1445.63 390.659,1445.58 411.098,1445.52 431.536,1445.41 451.975,1445.26 472.413,1445.04 492.852,1444.72 513.29,1444.27 533.729,1443.63 554.167,1442.75 574.606,1441.52 595.044,1439.85 615.483,1437.6 635.921,1434.6 656.36,1430.63 676.798,1425.46 697.237,1418.78 717.675,1410.25 738.114,1399.49 758.552,1386.06 778.991,1369.5 799.429,1349.31 819.868,1324.98 840.306,1296.02 860.745,1261.97 881.183,1222.4 901.622,1177.02 922.06,1125.63 942.499,1068.21 962.937,1004.92 983.376,936.141 1003.81,862.489 1024.25,784.833 1044.69,704.289 1065.13,622.205 1085.57,540.135 1106.01,459.794 1126.45,383.007 1146.88,311.636 1167.32,247.515 1187.76,192.364 1208.2,147.72 1228.64,114.861 1249.08,94.748 1269.51,87.9763 1289.95,94.748 1310.39,114.861 1330.83,147.72 1351.27,192.364 1371.71,247.515 1392.15,311.636 1412.58,383.007 1433.02,459.794 1453.46,540.135 1473.9,622.205 1494.34,704.289 1514.78,784.833 1535.22,862.489 1555.65,936.141 1576.09,1004.92 1596.53,1068.21 1616.97,1125.63 1637.41,1177.02 1657.85,1222.4 1678.29,1261.97 1698.72,1296.02 1719.16,1324.98 1739.6,1349.31 1760.04,1369.5 1780.48,1386.06 1800.92,1399.49 1821.35,1410.25 1841.79,1418.78 1862.23,1425.46 1882.67,1430.63 1903.11,1434.6 1923.55,1437.6 1943.99,1439.85 1964.42,1441.52 1984.86,1442.75 2005.3,1443.63 2025.74,1444.27 2046.18,1444.72 2066.62,1445.04 2087.06,1445.26 2107.49,1445.41 2127.93,1445.52 2148.37,1445.58 2168.81,1445.63 2189.25,1445.66 2209.69,1445.68 2230.12,1445.69 2250.56,1445.7 2271,1445.71 2291.44,1445.71 "/>
<polyline clip-path="url(#clip702)" style="stroke:#e26f46; stroke-linecap:round; stroke-linejoin:round; stroke-width:4; stroke-opacity:1; fill:none" points="247.59,1445.72 268.028,1439.87 288.467,1433.96 308.905,1427.92 329.344,1421.66 349.782,1415.14 370.221,1408.27 390.659,1401 411.098,1393.26 431.536,1385 451.975,1376.15 472.413,1366.65 492.852,1356.47 513.29,1345.55 533.729,1333.85 554.167,1321.34 574.606,1307.98 595.044,1293.75 615.483,1278.63 635.921,1262.63 656.36,1245.74 676.798,1227.98 697.237,1209.36 717.675,1189.92 738.114,1169.71 758.552,1148.77 778.991,1127.18 799.429,1105 819.868,1082.34 840.306,1059.29 860.745,1035.95 881.183,1012.46 901.622,988.922 922.06,965.489 942.499,942.298 962.937,919.495 983.376,897.23 1003.81,875.656 1024.25,854.925 1044.69,835.188 1065.13,816.593 1085.57,799.281 1106.01,783.388 1126.45,769.041 1146.88,756.356 1167.32,745.437 1187.76,736.375 1208.2,729.246 1228.64,724.11 1249.08,721.01 1269.51,719.974 1289.95,721.01 1310.39,724.11 1330.83,729.246 1351.27,736.375 1371.71,745.437 1392.15,756.356 1412.58,769.041 1433.02,783.388 1453.46,799.281 1473.9,816.593 1494.34,835.188 1514.78,854.925 1535.22,875.656 1555.65,897.23 1576.09,919.495 1596.53,942.298 1616.97,965.489 1637.41,988.922 1657.85,1012.46 1678.29,1035.95 1698.72,1059.29 1719.16,1082.34 1739.6,1105 1760.04,1127.18 1780.48,1148.77 1800.92,1169.71 1821.35,1189.92 1841.79,1209.36 1862.23,1227.98 1882.67,1245.74 1903.11,1262.63 1923.55,1278.63 1943.99,1293.75 1964.42,1307.98 1984.86,1321.34 2005.3,1333.85 2025.74,1345.55 2046.18,1356.47 2066.62,1366.65 2087.06,1376.15 2107.49,1385 2127.93,1393.26 2148.37,1401 2168.81,1408.27 2189.25,1415.14 2209.69,1421.66 2230.12,1427.92 2250.56,1433.96 2271,1439.87 2291.44,1445.72 "/>
<polyline clip-path="url(#clip702)" style="stroke:#3da44d; stroke-linecap:round; stroke-linejoin:round; stroke-width:4; stroke-opacity:1; fill:none" points="247.59,1445.72 268.028,1434.21 288.467,1422.68 308.905,1411.11 329.344,1399.47 349.782,1387.74 370.221,1375.91 390.659,1363.96 411.098,1351.86 431.536,1339.62 451.975,1327.2 472.413,1314.61 492.852,1301.84 513.29,1288.88 533.729,1275.73 554.167,1262.4 574.606,1248.88 595.044,1235.2 615.483,1221.35 635.921,1207.35 656.36,1193.23 676.798,1179 697.237,1164.68 717.675,1150.32 738.114,1135.93 758.552,1121.56 778.991,1107.23 799.429,1092.99 819.868,1078.88 840.306,1064.94 860.745,1051.23 881.183,1037.77 901.622,1024.63 922.06,1011.84 942.499,999.465 962.937,987.544 983.376,976.127 1003.81,965.26 1024.25,954.989 1044.69,945.359 1065.13,936.412 1085.57,928.187 1106.01,920.721 1126.45,914.049 1146.88,908.202 1167.32,903.206 1187.76,899.086 1208.2,895.861 1228.64,893.546 1249.08,892.153 1269.51,891.687 1289.95,892.153 1310.39,893.546 1330.83,895.861 1351.27,899.086 1371.71,903.206 1392.15,908.202 1412.58,914.049 1433.02,920.721 1453.46,928.187 1473.9,936.412 1494.34,945.359 1514.78,954.989 1535.22,965.26 1555.65,976.127 1576.09,987.544 1596.53,999.465 1616.97,1011.84 1637.41,1024.63 1657.85,1037.77 1678.29,1051.23 1698.72,1064.94 1719.16,1078.88 1739.6,1092.99 1760.04,1107.23 1780.48,1121.56 1800.92,1135.93 1821.35,1150.32 1841.79,1164.68 1862.23,1179 1882.67,1193.23 1903.11,1207.35 1923.55,1221.35 1943.99,1235.2 1964.42,1248.88 1984.86,1262.4 2005.3,1275.73 2025.74,1288.88 2046.18,1301.84 2066.62,1314.61 2087.06,1327.2 2107.49,1339.62 2127.93,1351.86 2148.37,1363.96 2168.81,1375.91 2189.25,1387.74 2209.69,1399.47 2230.12,1411.11 2250.56,1422.68 2271,1434.21 2291.44,1445.72 "/>
<polyline clip-path="url(#clip702)" style="stroke:#c271d2; stroke-linecap:round; stroke-linejoin:round; stroke-width:4; stroke-opacity:1; fill:none" points="247.59,1445.72 268.028,1433.78 288.467,1421.84 308.905,1409.93 329.344,1398.03 349.782,1386.17 370.221,1374.35 390.659,1362.58 411.098,1350.87 431.536,1339.22 451.975,1327.65 472.413,1316.16 492.852,1304.76 513.29,1293.47 533.729,1282.28 554.167,1271.22 574.606,1260.3 595.044,1249.51 615.483,1238.88 635.921,1228.41 656.36,1218.12 676.798,1208.01 697.237,1198.1 717.675,1188.4 738.114,1178.91 758.552,1169.66 778.991,1160.66 799.429,1151.91 819.868,1143.43 840.306,1135.22 860.745,1127.31 881.183,1119.7 901.622,1112.4 922.06,1105.42 942.499,1098.78 962.937,1092.48 983.376,1086.54 1003.81,1080.97 1024.25,1075.76 1044.69,1070.94 1065.13,1066.51 1085.57,1062.48 1106.01,1058.85 1126.45,1055.64 1146.88,1052.84 1167.32,1050.46 1187.76,1048.51 1208.2,1046.99 1228.64,1045.9 1249.08,1045.25 1269.51,1045.03 1289.95,1045.25 1310.39,1045.9 1330.83,1046.99 1351.27,1048.51 1371.71,1050.46 1392.15,1052.84 1412.58,1055.64 1433.02,1058.85 1453.46,1062.48 1473.9,1066.51 1494.34,1070.94 1514.78,1075.76 1535.22,1080.97 1555.65,1086.54 1576.09,1092.48 1596.53,1098.78 1616.97,1105.42 1637.41,1112.4 1657.85,1119.7 1678.29,1127.31 1698.72,1135.22 1719.16,1143.43 1739.6,1151.91 1760.04,1160.66 1780.48,1169.66 1800.92,1178.91 1821.35,1188.4 1841.79,1198.1 1862.23,1208.01 1882.67,1218.12 1903.11,1228.41 1923.55,1238.88 1943.99,1249.51 1964.42,1260.3 1984.86,1271.22 2005.3,1282.28 2025.74,1293.47 2046.18,1304.76 2066.62,1316.16 2087.06,1327.65 2107.49,1339.22 2127.93,1350.87 2148.37,1362.58 2168.81,1374.35 2189.25,1386.17 2209.69,1398.03 2230.12,1409.93 2250.56,1421.84 2271,1433.78 2291.44,1445.72 "/>
<polyline clip-path="url(#clip702)" style="stroke:#ac8d18; stroke-linecap:round; stroke-linejoin:round; stroke-width:4; stroke-opacity:1; fill:none" points="247.59,1445.72 268.028,1439.79 288.467,1433.87 308.905,1427.96 329.344,1422.07 349.782,1416.2 370.221,1410.36 390.659,1404.56 411.098,1398.8 431.536,1393.08 451.975,1387.42 472.413,1381.81 492.852,1376.27 513.29,1370.79 533.729,1365.39 554.167,1360.07 574.606,1354.83 595.044,1349.68 615.483,1344.62 635.921,1339.67 656.36,1334.82 676.798,1330.08 697.237,1325.46 717.675,1320.95 738.114,1316.56 758.552,1312.31 778.991,1308.18 799.429,1304.19 819.868,1300.34 840.306,1296.64 860.745,1293.08 881.183,1289.67 901.622,1286.41 922.06,1283.31 942.499,1280.38 962.937,1277.6 983.376,1275 1003.81,1272.56 1024.25,1270.29 1044.69,1268.19 1065.13,1266.27 1085.57,1264.53 1106.01,1262.96 1126.45,1261.58 1146.88,1260.38 1167.32,1259.36 1187.76,1258.52 1208.2,1257.87 1228.64,1257.41 1249.08,1257.13 1269.51,1257.03 1289.95,1257.13 1310.39,1257.41 1330.83,1257.87 1351.27,1258.52 1371.71,1259.36 1392.15,1260.38 1412.58,1261.58 1433.02,1262.96 1453.46,1264.53 1473.9,1266.27 1494.34,1268.19 1514.78,1270.29 1535.22,1272.56 1555.65,1275 1576.09,1277.6 1596.53,1280.38 1616.97,1283.31 1637.41,1286.41 1657.85,1289.67 1678.29,1293.08 1698.72,1296.64 1719.16,1300.34 1739.6,1304.19 1760.04,1308.18 1780.48,1312.31 1800.92,1316.56 1821.35,1320.95 1841.79,1325.46 1862.23,1330.08 1882.67,1334.82 1903.11,1339.67 1923.55,1344.62 1943.99,1349.68 1964.42,1354.83 1984.86,1360.07 2005.3,1365.39 2025.74,1370.79 2046.18,1376.27 2066.62,1381.81 2087.06,1387.42 2107.49,1393.08 2127.93,1398.8 2148.37,1404.56 2168.81,1410.36 2189.25,1416.2 2209.69,1422.07 2230.12,1427.96 2250.56,1433.87 2271,1439.79 2291.44,1445.72 "/>
<polyline clip-path="url(#clip702)" style="stroke:#00a9ad; stroke-linecap:round; stroke-linejoin:round; stroke-width:4; stroke-opacity:1; fill:none" points="247.59,1445.72 268.028,1442.89 288.467,1440.06 308.905,1437.25 329.344,1434.44 349.782,1431.64 370.221,1428.85 390.659,1426.08 411.098,1423.33 431.536,1420.61 451.975,1417.9 472.413,1415.23 492.852,1412.58 513.29,1409.97 533.729,1407.4 554.167,1404.86 574.606,1402.36 595.044,1399.9 615.483,1397.49 635.921,1395.13 656.36,1392.82 676.798,1390.55 697.237,1388.35 717.675,1386.2 738.114,1384.11 758.552,1382.08 778.991,1380.11 799.429,1378.21 819.868,1376.37 840.306,1374.6 860.745,1372.9 881.183,1371.28 901.622,1369.73 922.06,1368.25 942.499,1366.85 962.937,1365.53 983.376,1364.28 1003.81,1363.12 1024.25,1362.04 1044.69,1361.04 1065.13,1360.12 1085.57,1359.29 1106.01,1358.54 1126.45,1357.88 1146.88,1357.31 1167.32,1356.82 1187.76,1356.43 1208.2,1356.12 1228.64,1355.89 1249.08,1355.76 1269.51,1355.72 1289.95,1355.76 1310.39,1355.89 1330.83,1356.12 1351.27,1356.43 1371.71,1356.82 1392.15,1357.31 1412.58,1357.88 1433.02,1358.54 1453.46,1359.29 1473.9,1360.12 1494.34,1361.04 1514.78,1362.04 1535.22,1363.12 1555.65,1364.28 1576.09,1365.53 1596.53,1366.85 1616.97,1368.25 1637.41,1369.73 1657.85,1371.28 1678.29,1372.9 1698.72,1374.6 1719.16,1376.37 1739.6,1378.21 1760.04,1380.11 1780.48,1382.08 1800.92,1384.11 1821.35,1386.2 1841.79,1388.35 1862.23,1390.55 1882.67,1392.82 1903.11,1395.13 1923.55,1397.49 1943.99,1399.9 1964.42,1402.36 1984.86,1404.86 2005.3,1407.4 2025.74,1409.97 2046.18,1412.58 2066.62,1415.23 2087.06,1417.9 2107.49,1420.61 2127.93,1423.33 2148.37,1426.08 2168.81,1428.85 2189.25,1431.64 2209.69,1434.44 2230.12,1437.25 2250.56,1440.06 2271,1442.89 2291.44,1445.72 "/>
<path clip-path="url(#clip700)" d="M1905.44 458.098 L2280.54 458.098 L2280.54 95.2176 L1905.44 95.2176  Z" fill="#ffffff" fill-rule="evenodd" fill-opacity="1"/>
<polyline clip-path="url(#clip700)" style="stroke:#000000; stroke-linecap:round; stroke-linejoin:round; stroke-width:4; stroke-opacity:1; fill:none" points="1905.44,458.098 2280.54,458.098 2280.54,95.2176 1905.44,95.2176 1905.44,458.098 "/>
<polyline clip-path="url(#clip700)" style="stroke:#009af9; stroke-linecap:round; stroke-linejoin:round; stroke-width:8; stroke-opacity:1; fill:none" points="1929.52,147.058 2073.95,147.058 "/>
<path clip-path="url(#clip700)" d="M2105.43 131.051 L2105.43 138.412 L2114.2 138.412 L2114.2 141.722 L2105.43 141.722 L2105.43 155.796 Q2105.43 158.967 2106.28 159.87 Q2107.16 160.773 2109.83 160.773 L2114.2 160.773 L2114.2 164.338 L2109.83 164.338 Q2104.89 164.338 2103.02 162.509 Q2101.14 160.657 2101.14 155.796 L2101.14 141.722 L2098.02 141.722 L2098.02 138.412 L2101.14 138.412 L2101.14 131.051 L2105.43 131.051 Z" fill="#000000" fill-rule="nonzero" fill-opacity="1" /><path clip-path="url(#clip700)" d="M2120.36 142.81 L2150.03 142.81 L2150.03 146.699 L2120.36 146.699 L2120.36 142.81 M2120.36 152.254 L2150.03 152.254 L2150.03 156.189 L2120.36 156.189 L2120.36 152.254 Z" fill="#000000" fill-rule="nonzero" fill-opacity="1" /><path clip-path="url(#clip700)" d="M2170.13 132.856 Q2166.51 132.856 2164.69 136.421 Q2162.88 139.963 2162.88 147.092 Q2162.88 154.199 2164.69 157.764 Q2166.51 161.305 2170.13 161.305 Q2173.76 161.305 2175.57 157.764 Q2177.39 154.199 2177.39 147.092 Q2177.39 139.963 2175.57 136.421 Q2173.76 132.856 2170.13 132.856 M2170.13 129.153 Q2175.94 129.153 2178.99 133.759 Q2182.07 138.342 2182.07 147.092 Q2182.07 155.819 2178.99 160.426 Q2175.94 165.009 2170.13 165.009 Q2164.32 165.009 2161.24 160.426 Q2158.18 155.819 2158.18 147.092 Q2158.18 138.342 2161.24 133.759 Q2164.32 129.153 2170.13 129.153 Z" fill="#000000" fill-rule="nonzero" fill-opacity="1" /><polyline clip-path="url(#clip700)" style="stroke:#e26f46; stroke-linecap:round; stroke-linejoin:round; stroke-width:4; stroke-opacity:1; fill:none" points="1929.52,198.898 2073.95,198.898 "/>
<path clip-path="url(#clip700)" d="M2105.43 182.891 L2105.43 190.252 L2114.2 190.252 L2114.2 193.562 L2105.43 193.562 L2105.43 207.636 Q2105.43 210.807 2106.28 211.71 Q2107.16 212.613 2109.83 212.613 L2114.2 212.613 L2114.2 216.178 L2109.83 216.178 Q2104.89 216.178 2103.02 214.349 Q2101.14 212.497 2101.14 207.636 L2101.14 193.562 L2098.02 193.562 L2098.02 190.252 L2101.14 190.252 L2101.14 182.891 L2105.43 182.891 Z" fill="#000000" fill-rule="nonzero" fill-opacity="1" /><path clip-path="url(#clip700)" d="M2120.36 194.65 L2150.03 194.65 L2150.03 198.539 L2120.36 198.539 L2120.36 194.65 M2120.36 204.094 L2150.03 204.094 L2150.03 208.029 L2120.36 208.029 L2120.36 204.094 Z" fill="#000000" fill-rule="nonzero" fill-opacity="1" /><path clip-path="url(#clip700)" d="M2170.13 184.696 Q2166.51 184.696 2164.69 188.261 Q2162.88 191.803 2162.88 198.932 Q2162.88 206.039 2164.69 209.604 Q2166.51 213.145 2170.13 213.145 Q2173.76 213.145 2175.57 209.604 Q2177.39 206.039 2177.39 198.932 Q2177.39 191.803 2175.57 188.261 Q2173.76 184.696 2170.13 184.696 M2170.13 180.993 Q2175.94 180.993 2178.99 185.599 Q2182.07 190.182 2182.07 198.932 Q2182.07 207.659 2178.99 212.266 Q2175.94 216.849 2170.13 216.849 Q2164.32 216.849 2161.24 212.266 Q2158.18 207.659 2158.18 198.932 Q2158.18 190.182 2161.24 185.599 Q2164.32 180.993 2170.13 180.993 Z" fill="#000000" fill-rule="nonzero" fill-opacity="1" /><path clip-path="url(#clip700)" d="M2190.29 210.298 L2195.17 210.298 L2195.17 216.178 L2190.29 216.178 L2190.29 210.298 Z" fill="#000000" fill-rule="nonzero" fill-opacity="1" /><path clip-path="url(#clip700)" d="M2215.36 184.696 Q2211.75 184.696 2209.92 188.261 Q2208.11 191.803 2208.11 198.932 Q2208.11 206.039 2209.92 209.604 Q2211.75 213.145 2215.36 213.145 Q2218.99 213.145 2220.8 209.604 Q2222.63 206.039 2222.63 198.932 Q2222.63 191.803 2220.8 188.261 Q2218.99 184.696 2215.36 184.696 M2215.36 180.993 Q2221.17 180.993 2224.22 185.599 Q2227.3 190.182 2227.3 198.932 Q2227.3 207.659 2224.22 212.266 Q2221.17 216.849 2215.36 216.849 Q2209.55 216.849 2206.47 212.266 Q2203.41 207.659 2203.41 198.932 Q2203.41 190.182 2206.47 185.599 Q2209.55 180.993 2215.36 180.993 Z" fill="#000000" fill-rule="nonzero" fill-opacity="1" /><path clip-path="url(#clip700)" d="M2235.57 181.618 L2253.92 181.618 L2253.92 185.553 L2239.85 185.553 L2239.85 194.025 Q2240.87 193.678 2241.88 193.516 Q2242.9 193.33 2243.92 193.33 Q2249.71 193.33 2253.09 196.502 Q2256.47 199.673 2256.47 205.09 Q2256.47 210.668 2253 213.77 Q2249.52 216.849 2243.2 216.849 Q2241.03 216.849 2238.76 216.478 Q2236.51 216.108 2234.11 215.367 L2234.11 210.668 Q2236.19 211.803 2238.41 212.358 Q2240.63 212.914 2243.11 212.914 Q2247.12 212.914 2249.45 210.807 Q2251.79 208.701 2251.79 205.09 Q2251.79 201.479 2249.45 199.372 Q2247.12 197.266 2243.11 197.266 Q2241.24 197.266 2239.36 197.682 Q2237.51 198.099 2235.57 198.979 L2235.57 181.618 Z" fill="#000000" fill-rule="nonzero" fill-opacity="1" /><polyline clip-path="url(#clip700)" style="stroke:#3da44d; stroke-linecap:round; stroke-linejoin:round; stroke-width:4; stroke-opacity:1; fill:none" points="1929.52,250.738 2073.95,250.738 "/>
<path clip-path="url(#clip700)" d="M2105.43 234.731 L2105.43 242.092 L2114.2 242.092 L2114.2 245.402 L2105.43 245.402 L2105.43 259.476 Q2105.43 262.647 2106.28 263.55 Q2107.16 264.453 2109.83 264.453 L2114.2 264.453 L2114.2 268.018 L2109.83 268.018 Q2104.89 268.018 2103.02 266.189 Q2101.14 264.337 2101.14 259.476 L2101.14 245.402 L2098.02 245.402 L2098.02 242.092 L2101.14 242.092 L2101.14 234.731 L2105.43 234.731 Z" fill="#000000" fill-rule="nonzero" fill-opacity="1" /><path clip-path="url(#clip700)" d="M2120.36 246.49 L2150.03 246.49 L2150.03 250.379 L2120.36 250.379 L2120.36 246.49 M2120.36 255.934 L2150.03 255.934 L2150.03 259.869 L2120.36 259.869 L2120.36 255.934 Z" fill="#000000" fill-rule="nonzero" fill-opacity="1" /><path clip-path="url(#clip700)" d="M2170.13 236.536 Q2166.51 236.536 2164.69 240.101 Q2162.88 243.643 2162.88 250.772 Q2162.88 257.879 2164.69 261.444 Q2166.51 264.985 2170.13 264.985 Q2173.76 264.985 2175.57 261.444 Q2177.39 257.879 2177.39 250.772 Q2177.39 243.643 2175.57 240.101 Q2173.76 236.536 2170.13 236.536 M2170.13 232.833 Q2175.94 232.833 2178.99 237.439 Q2182.07 242.022 2182.07 250.772 Q2182.07 259.499 2178.99 264.106 Q2175.94 268.689 2170.13 268.689 Q2164.32 268.689 2161.24 264.106 Q2158.18 259.499 2158.18 250.772 Q2158.18 242.022 2161.24 237.439 Q2164.32 232.833 2170.13 232.833 Z" fill="#000000" fill-rule="nonzero" fill-opacity="1" /><path clip-path="url(#clip700)" d="M2190.29 262.138 L2195.17 262.138 L2195.17 268.018 L2190.29 268.018 L2190.29 262.138 Z" fill="#000000" fill-rule="nonzero" fill-opacity="1" /><path clip-path="url(#clip700)" d="M2206.17 264.082 L2213.81 264.082 L2213.81 237.717 L2205.5 239.383 L2205.5 235.124 L2213.76 233.458 L2218.44 233.458 L2218.44 264.082 L2226.07 264.082 L2226.07 268.018 L2206.17 268.018 L2206.17 264.082 Z" fill="#000000" fill-rule="nonzero" fill-opacity="1" /><polyline clip-path="url(#clip700)" style="stroke:#c271d2; stroke-linecap:round; stroke-linejoin:round; stroke-width:4; stroke-opacity:1; fill:none" points="1929.52,302.578 2073.95,302.578 "/>
<path clip-path="url(#clip700)" d="M2105.43 286.571 L2105.43 293.932 L2114.2 293.932 L2114.2 297.242 L2105.43 297.242 L2105.43 311.316 Q2105.43 314.487 2106.28 315.39 Q2107.16 316.293 2109.83 316.293 L2114.2 316.293 L2114.2 319.858 L2109.83 319.858 Q2104.89 319.858 2103.02 318.029 Q2101.14 316.177 2101.14 311.316 L2101.14 297.242 L2098.02 297.242 L2098.02 293.932 L2101.14 293.932 L2101.14 286.571 L2105.43 286.571 Z" fill="#000000" fill-rule="nonzero" fill-opacity="1" /><path clip-path="url(#clip700)" d="M2120.36 298.33 L2150.03 298.33 L2150.03 302.219 L2120.36 302.219 L2120.36 298.33 M2120.36 307.774 L2150.03 307.774 L2150.03 311.709 L2120.36 311.709 L2120.36 307.774 Z" fill="#000000" fill-rule="nonzero" fill-opacity="1" /><path clip-path="url(#clip700)" d="M2170.13 288.376 Q2166.51 288.376 2164.69 291.941 Q2162.88 295.483 2162.88 302.612 Q2162.88 309.719 2164.69 313.284 Q2166.51 316.825 2170.13 316.825 Q2173.76 316.825 2175.57 313.284 Q2177.39 309.719 2177.39 302.612 Q2177.39 295.483 2175.57 291.941 Q2173.76 288.376 2170.13 288.376 M2170.13 284.673 Q2175.94 284.673 2178.99 289.279 Q2182.07 293.862 2182.07 302.612 Q2182.07 311.339 2178.99 315.946 Q2175.94 320.529 2170.13 320.529 Q2164.32 320.529 2161.24 315.946 Q2158.18 311.339 2158.18 302.612 Q2158.18 293.862 2161.24 289.279 Q2164.32 284.673 2170.13 284.673 Z" fill="#000000" fill-rule="nonzero" fill-opacity="1" /><path clip-path="url(#clip700)" d="M2190.29 313.978 L2195.17 313.978 L2195.17 319.858 L2190.29 319.858 L2190.29 313.978 Z" fill="#000000" fill-rule="nonzero" fill-opacity="1" /><path clip-path="url(#clip700)" d="M2209.38 315.922 L2225.7 315.922 L2225.7 319.858 L2203.76 319.858 L2203.76 315.922 Q2206.42 313.168 2211.01 308.538 Q2215.61 303.885 2216.79 302.543 Q2219.04 300.02 2219.92 298.284 Q2220.82 296.524 2220.82 294.835 Q2220.82 292.08 2218.88 290.344 Q2216.95 288.608 2213.85 288.608 Q2211.65 288.608 2209.2 289.372 Q2206.77 290.135 2203.99 291.686 L2203.99 286.964 Q2206.82 285.83 2209.27 285.251 Q2211.72 284.673 2213.76 284.673 Q2219.13 284.673 2222.32 287.358 Q2225.52 290.043 2225.52 294.534 Q2225.52 296.663 2224.71 298.585 Q2223.92 300.483 2221.82 303.075 Q2221.24 303.747 2218.13 306.964 Q2215.03 310.159 2209.38 315.922 Z" fill="#000000" fill-rule="nonzero" fill-opacity="1" /><polyline clip-path="url(#clip700)" style="stroke:#ac8d18; stroke-linecap:round; stroke-linejoin:round; stroke-width:4; stroke-opacity:1; fill:none" points="1929.52,354.418 2073.95,354.418 "/>
<path clip-path="url(#clip700)" d="M2105.43 338.411 L2105.43 345.772 L2114.2 345.772 L2114.2 349.082 L2105.43 349.082 L2105.43 363.156 Q2105.43 366.327 2106.28 367.23 Q2107.16 368.133 2109.83 368.133 L2114.2 368.133 L2114.2 371.698 L2109.83 371.698 Q2104.89 371.698 2103.02 369.869 Q2101.14 368.017 2101.14 363.156 L2101.14 349.082 L2098.02 349.082 L2098.02 345.772 L2101.14 345.772 L2101.14 338.411 L2105.43 338.411 Z" fill="#000000" fill-rule="nonzero" fill-opacity="1" /><path clip-path="url(#clip700)" d="M2120.36 350.17 L2150.03 350.17 L2150.03 354.059 L2120.36 354.059 L2120.36 350.17 M2120.36 359.614 L2150.03 359.614 L2150.03 363.549 L2120.36 363.549 L2120.36 359.614 Z" fill="#000000" fill-rule="nonzero" fill-opacity="1" /><path clip-path="url(#clip700)" d="M2170.13 340.216 Q2166.51 340.216 2164.69 343.781 Q2162.88 347.323 2162.88 354.452 Q2162.88 361.559 2164.69 365.124 Q2166.51 368.665 2170.13 368.665 Q2173.76 368.665 2175.57 365.124 Q2177.39 361.559 2177.39 354.452 Q2177.39 347.323 2175.57 343.781 Q2173.76 340.216 2170.13 340.216 M2170.13 336.513 Q2175.94 336.513 2178.99 341.119 Q2182.07 345.702 2182.07 354.452 Q2182.07 363.179 2178.99 367.786 Q2175.94 372.369 2170.13 372.369 Q2164.32 372.369 2161.24 367.786 Q2158.18 363.179 2158.18 354.452 Q2158.18 345.702 2161.24 341.119 Q2164.32 336.513 2170.13 336.513 Z" fill="#000000" fill-rule="nonzero" fill-opacity="1" /><path clip-path="url(#clip700)" d="M2190.29 365.818 L2195.17 365.818 L2195.17 371.698 L2190.29 371.698 L2190.29 365.818 Z" fill="#000000" fill-rule="nonzero" fill-opacity="1" /><path clip-path="url(#clip700)" d="M2205.4 337.138 L2223.76 337.138 L2223.76 341.073 L2209.69 341.073 L2209.69 349.545 Q2210.7 349.198 2211.72 349.036 Q2212.74 348.85 2213.76 348.85 Q2219.55 348.85 2222.93 352.022 Q2226.31 355.193 2226.31 360.61 Q2226.31 366.188 2222.83 369.29 Q2219.36 372.369 2213.04 372.369 Q2210.87 372.369 2208.6 371.998 Q2206.35 371.628 2203.94 370.887 L2203.94 366.188 Q2206.03 367.323 2208.25 367.878 Q2210.47 368.434 2212.95 368.434 Q2216.95 368.434 2219.29 366.327 Q2221.63 364.221 2221.63 360.61 Q2221.63 356.999 2219.29 354.892 Q2216.95 352.786 2212.95 352.786 Q2211.07 352.786 2209.2 353.202 Q2207.35 353.619 2205.4 354.499 L2205.4 337.138 Z" fill="#000000" fill-rule="nonzero" fill-opacity="1" /><polyline clip-path="url(#clip700)" style="stroke:#00a9ad; stroke-linecap:round; stroke-linejoin:round; stroke-width:4; stroke-opacity:1; fill:none" points="1929.52,406.258 2073.95,406.258 "/>
<path clip-path="url(#clip700)" d="M2105.43 390.251 L2105.43 397.612 L2114.2 397.612 L2114.2 400.922 L2105.43 400.922 L2105.43 414.996 Q2105.43 418.167 2106.28 419.07 Q2107.16 419.973 2109.83 419.973 L2114.2 419.973 L2114.2 423.538 L2109.83 423.538 Q2104.89 423.538 2103.02 421.709 Q2101.14 419.857 2101.14 414.996 L2101.14 400.922 L2098.02 400.922 L2098.02 397.612 L2101.14 397.612 L2101.14 390.251 L2105.43 390.251 Z" fill="#000000" fill-rule="nonzero" fill-opacity="1" /><path clip-path="url(#clip700)" d="M2120.36 402.01 L2150.03 402.01 L2150.03 405.899 L2120.36 405.899 L2120.36 402.01 M2120.36 411.454 L2150.03 411.454 L2150.03 415.389 L2120.36 415.389 L2120.36 411.454 Z" fill="#000000" fill-rule="nonzero" fill-opacity="1" /><path clip-path="url(#clip700)" d="M2170.13 392.056 Q2166.51 392.056 2164.69 395.621 Q2162.88 399.163 2162.88 406.292 Q2162.88 413.399 2164.69 416.964 Q2166.51 420.505 2170.13 420.505 Q2173.76 420.505 2175.57 416.964 Q2177.39 413.399 2177.39 406.292 Q2177.39 399.163 2175.57 395.621 Q2173.76 392.056 2170.13 392.056 M2170.13 388.353 Q2175.94 388.353 2178.99 392.959 Q2182.07 397.542 2182.07 406.292 Q2182.07 415.019 2178.99 419.626 Q2175.94 424.209 2170.13 424.209 Q2164.32 424.209 2161.24 419.626 Q2158.18 415.019 2158.18 406.292 Q2158.18 397.542 2161.24 392.959 Q2164.32 388.353 2170.13 388.353 Z" fill="#000000" fill-rule="nonzero" fill-opacity="1" /><path clip-path="url(#clip700)" d="M2190.29 417.658 L2195.17 417.658 L2195.17 423.538 L2190.29 423.538 L2190.29 417.658 Z" fill="#000000" fill-rule="nonzero" fill-opacity="1" /><path clip-path="url(#clip700)" d="M2215.36 407.126 Q2212.02 407.126 2210.1 408.908 Q2208.2 410.69 2208.2 413.815 Q2208.2 416.94 2210.1 418.723 Q2212.02 420.505 2215.36 420.505 Q2218.69 420.505 2220.61 418.723 Q2222.53 416.917 2222.53 413.815 Q2222.53 410.69 2220.61 408.908 Q2218.71 407.126 2215.36 407.126 M2210.68 405.135 Q2207.67 404.394 2205.98 402.334 Q2204.32 400.274 2204.32 397.311 Q2204.32 393.167 2207.26 390.76 Q2210.22 388.353 2215.36 388.353 Q2220.52 388.353 2223.46 390.76 Q2226.4 393.167 2226.4 397.311 Q2226.4 400.274 2224.71 402.334 Q2223.04 404.394 2220.06 405.135 Q2223.44 405.922 2225.31 408.214 Q2227.21 410.505 2227.21 413.815 Q2227.21 418.839 2224.13 421.524 Q2221.07 424.209 2215.36 424.209 Q2209.64 424.209 2206.56 421.524 Q2203.51 418.839 2203.51 413.815 Q2203.51 410.505 2205.4 408.214 Q2207.3 405.922 2210.68 405.135 M2208.97 397.751 Q2208.97 400.436 2210.63 401.94 Q2212.32 403.445 2215.36 403.445 Q2218.37 403.445 2220.06 401.94 Q2221.77 400.436 2221.77 397.751 Q2221.77 395.065 2220.06 393.561 Q2218.37 392.056 2215.36 392.056 Q2212.32 392.056 2210.63 393.561 Q2208.97 395.065 2208.97 397.751 Z" fill="#000000" fill-rule="nonzero" fill-opacity="1" /></svg>
