<?xml version="1.0" encoding="utf-8"?>
<svg xmlns="http://www.w3.org/2000/svg" xmlns:xlink="http://www.w3.org/1999/xlink" width="600" height="400" viewBox="0 0 2400 1600">
<defs>
  <clipPath id="clip330">
    <rect x="0" y="0" width="2400" height="1600"/>
  </clipPath>
</defs>
<path clip-path="url(#clip330)" d="M0 1600 L2400 1600 L2400 0 L0 0  Z" fill="#ffffff" fill-rule="evenodd" fill-opacity="1"/>
<defs>
  <clipPath id="clip331">
    <rect x="480" y="0" width="1681" height="1600"/>
  </clipPath>
</defs>
<path clip-path="url(#clip330)" d="M249.542 1423.18 L2352.76 1423.18 L2352.76 123.472 L249.542 123.472  Z" fill="#ffffff" fill-rule="evenodd" fill-opacity="1"/>
<defs>
  <clipPath id="clip332">
    <rect x="249" y="123" width="2104" height="1301"/>
  </clipPath>
</defs>
<polyline clip-path="url(#clip332)" style="stroke:#000000; stroke-linecap:round; stroke-linejoin:round; stroke-width:2; stroke-opacity:0.1; fill:none" points="249.542,1423.18 249.542,123.472 "/>
<polyline clip-path="url(#clip332)" style="stroke:#000000; stroke-linecap:round; stroke-linejoin:round; stroke-width:2; stroke-opacity:0.1; fill:none" points="775.346,1423.18 775.346,123.472 "/>
<polyline clip-path="url(#clip332)" style="stroke:#000000; stroke-linecap:round; stroke-linejoin:round; stroke-width:2; stroke-opacity:0.1; fill:none" points="1301.15,1423.18 1301.15,123.472 "/>
<polyline clip-path="url(#clip332)" style="stroke:#000000; stroke-linecap:round; stroke-linejoin:round; stroke-width:2; stroke-opacity:0.1; fill:none" points="1826.95,1423.18 1826.95,123.472 "/>
<polyline clip-path="url(#clip332)" style="stroke:#000000; stroke-linecap:round; stroke-linejoin:round; stroke-width:2; stroke-opacity:0.1; fill:none" points="2352.76,1423.18 2352.76,123.472 "/>
<polyline clip-path="url(#clip332)" style="stroke:#000000; stroke-linecap:round; stroke-linejoin:round; stroke-width:2; stroke-opacity:0.1; fill:none" points="249.542,1423.18 2352.76,1423.18 "/>
<polyline clip-path="url(#clip332)" style="stroke:#000000; stroke-linecap:round; stroke-linejoin:round; stroke-width:2; stroke-opacity:0.1; fill:none" points="249.542,1034.05 2352.76,1034.05 "/>
<polyline clip-path="url(#clip332)" style="stroke:#000000; stroke-linecap:round; stroke-linejoin:round; stroke-width:2; stroke-opacity:0.1; fill:none" points="249.542,644.912 2352.76,644.912 "/>
<polyline clip-path="url(#clip332)" style="stroke:#000000; stroke-linecap:round; stroke-linejoin:round; stroke-width:2; stroke-opacity:0.1; fill:none" points="249.542,255.778 2352.76,255.778 "/>
<polyline clip-path="url(#clip330)" style="stroke:#000000; stroke-linecap:round; stroke-linejoin:round; stroke-width:4; stroke-opacity:1; fill:none" points="249.542,1423.18 2352.76,1423.18 "/>
<polyline clip-path="url(#clip330)" style="stroke:#000000; stroke-linecap:round; stroke-linejoin:round; stroke-width:4; stroke-opacity:1; fill:none" points="249.542,1423.18 249.542,1404.28 "/>
<polyline clip-path="url(#clip330)" style="stroke:#000000; stroke-linecap:round; stroke-linejoin:round; stroke-width:4; stroke-opacity:1; fill:none" points="775.346,1423.18 775.346,1404.28 "/>
<polyline clip-path="url(#clip330)" style="stroke:#000000; stroke-linecap:round; stroke-linejoin:round; stroke-width:4; stroke-opacity:1; fill:none" points="1301.15,1423.18 1301.15,1404.28 "/>
<polyline clip-path="url(#clip330)" style="stroke:#000000; stroke-linecap:round; stroke-linejoin:round; stroke-width:4; stroke-opacity:1; fill:none" points="1826.95,1423.18 1826.95,1404.28 "/>
<polyline clip-path="url(#clip330)" style="stroke:#000000; stroke-linecap:round; stroke-linejoin:round; stroke-width:4; stroke-opacity:1; fill:none" points="2352.76,1423.18 2352.76,1404.28 "/>
<path clip-path="url(#clip330)" d="M196.07 1468.75 L225.746 1468.75 L225.746 1472.69 L196.07 1472.69 L196.07 1468.75 Z" fill="#000000" fill-rule="nonzero" fill-opacity="1" /><path clip-path="url(#clip330)" d="M235.885 1451.02 L254.241 1451.02 L254.241 1454.96 L240.167 1454.96 L240.167 1463.43 Q241.186 1463.08 242.204 1462.92 Q243.223 1462.73 244.241 1462.73 Q250.028 1462.73 253.408 1465.9 Q256.787 1469.08 256.787 1474.49 Q256.787 1480.07 253.315 1483.17 Q249.843 1486.25 243.524 1486.25 Q241.348 1486.25 239.079 1485.88 Q236.834 1485.51 234.426 1484.77 L234.426 1480.07 Q236.51 1481.2 238.732 1481.76 Q240.954 1482.32 243.431 1482.32 Q247.436 1482.32 249.774 1480.21 Q252.111 1478.1 252.111 1474.49 Q252.111 1470.88 249.774 1468.77 Q247.436 1466.67 243.431 1466.67 Q241.556 1466.67 239.681 1467.08 Q237.829 1467.5 235.885 1468.38 L235.885 1451.02 Z" fill="#000000" fill-rule="nonzero" fill-opacity="1" /><path clip-path="url(#clip330)" d="M266 1479.7 L270.885 1479.7 L270.885 1485.58 L266 1485.58 L266 1479.7 Z" fill="#000000" fill-rule="nonzero" fill-opacity="1" /><path clip-path="url(#clip330)" d="M291.07 1454.1 Q287.458 1454.1 285.63 1457.66 Q283.824 1461.2 283.824 1468.33 Q283.824 1475.44 285.63 1479.01 Q287.458 1482.55 291.07 1482.55 Q294.704 1482.55 296.509 1479.01 Q298.338 1475.44 298.338 1468.33 Q298.338 1461.2 296.509 1457.66 Q294.704 1454.1 291.07 1454.1 M291.07 1450.39 Q296.88 1450.39 299.935 1455 Q303.014 1459.58 303.014 1468.33 Q303.014 1477.06 299.935 1481.67 Q296.88 1486.25 291.07 1486.25 Q285.259 1486.25 282.181 1481.67 Q279.125 1477.06 279.125 1468.33 Q279.125 1459.58 282.181 1455 Q285.259 1450.39 291.07 1450.39 Z" fill="#000000" fill-rule="nonzero" fill-opacity="1" /><path clip-path="url(#clip330)" d="M722.371 1468.75 L752.047 1468.75 L752.047 1472.69 L722.371 1472.69 L722.371 1468.75 Z" fill="#000000" fill-rule="nonzero" fill-opacity="1" /><path clip-path="url(#clip330)" d="M766.167 1481.64 L782.487 1481.64 L782.487 1485.58 L760.542 1485.58 L760.542 1481.64 Q763.204 1478.89 767.788 1474.26 Q772.394 1469.61 773.575 1468.27 Q775.82 1465.74 776.7 1464.01 Q777.602 1462.25 777.602 1460.56 Q777.602 1457.8 775.658 1456.07 Q773.737 1454.33 770.635 1454.33 Q768.436 1454.33 765.982 1455.09 Q763.552 1455.86 760.774 1457.41 L760.774 1452.69 Q763.598 1451.55 766.052 1450.97 Q768.505 1450.39 770.542 1450.39 Q775.913 1450.39 779.107 1453.08 Q782.301 1455.77 782.301 1460.26 Q782.301 1462.39 781.491 1464.31 Q780.704 1466.2 778.598 1468.8 Q778.019 1469.47 774.917 1472.69 Q771.815 1475.88 766.167 1481.64 Z" fill="#000000" fill-rule="nonzero" fill-opacity="1" /><path clip-path="url(#clip330)" d="M792.301 1479.7 L797.186 1479.7 L797.186 1485.58 L792.301 1485.58 L792.301 1479.7 Z" fill="#000000" fill-rule="nonzero" fill-opacity="1" /><path clip-path="url(#clip330)" d="M807.417 1451.02 L825.773 1451.02 L825.773 1454.96 L811.699 1454.96 L811.699 1463.43 Q812.718 1463.08 813.736 1462.92 Q814.755 1462.73 815.774 1462.73 Q821.561 1462.73 824.94 1465.9 Q828.32 1469.08 828.32 1474.49 Q828.32 1480.07 824.848 1483.17 Q821.375 1486.25 815.056 1486.25 Q812.88 1486.25 810.612 1485.88 Q808.366 1485.51 805.959 1484.77 L805.959 1480.07 Q808.042 1481.2 810.264 1481.76 Q812.487 1482.32 814.963 1482.32 Q818.968 1482.32 821.306 1480.21 Q823.644 1478.1 823.644 1474.49 Q823.644 1470.88 821.306 1468.77 Q818.968 1466.67 814.963 1466.67 Q813.088 1466.67 811.213 1467.08 Q809.362 1467.5 807.417 1468.38 L807.417 1451.02 Z" fill="#000000" fill-rule="nonzero" fill-opacity="1" /><path clip-path="url(#clip330)" d="M1278.53 1454.1 Q1274.92 1454.1 1273.09 1457.66 Q1271.29 1461.2 1271.29 1468.33 Q1271.29 1475.44 1273.09 1479.01 Q1274.92 1482.55 1278.53 1482.55 Q1282.17 1482.55 1283.97 1479.01 Q1285.8 1475.44 1285.8 1468.33 Q1285.8 1461.2 1283.97 1457.66 Q1282.17 1454.1 1278.53 1454.1 M1278.53 1450.39 Q1284.34 1450.39 1287.4 1455 Q1290.48 1459.58 1290.48 1468.33 Q1290.48 1477.06 1287.4 1481.67 Q1284.34 1486.25 1278.53 1486.25 Q1272.72 1486.25 1269.64 1481.67 Q1266.59 1477.06 1266.59 1468.33 Q1266.59 1459.58 1269.64 1455 Q1272.72 1450.39 1278.53 1450.39 Z" fill="#000000" fill-rule="nonzero" fill-opacity="1" /><path clip-path="url(#clip330)" d="M1298.7 1479.7 L1303.58 1479.7 L1303.58 1485.58 L1298.7 1485.58 L1298.7 1479.7 Z" fill="#000000" fill-rule="nonzero" fill-opacity="1" /><path clip-path="url(#clip330)" d="M1323.76 1454.1 Q1320.15 1454.1 1318.32 1457.66 Q1316.52 1461.2 1316.52 1468.33 Q1316.52 1475.44 1318.32 1479.01 Q1320.15 1482.55 1323.76 1482.55 Q1327.4 1482.55 1329.2 1479.01 Q1331.03 1475.44 1331.03 1468.33 Q1331.03 1461.2 1329.2 1457.66 Q1327.4 1454.1 1323.76 1454.1 M1323.76 1450.39 Q1329.57 1450.39 1332.63 1455 Q1335.71 1459.58 1335.71 1468.33 Q1335.71 1477.06 1332.63 1481.67 Q1329.57 1486.25 1323.76 1486.25 Q1317.95 1486.25 1314.88 1481.67 Q1311.82 1477.06 1311.82 1468.33 Q1311.82 1459.58 1314.88 1455 Q1317.95 1450.39 1323.76 1450.39 Z" fill="#000000" fill-rule="nonzero" fill-opacity="1" /><path clip-path="url(#clip330)" d="M1798.69 1481.64 L1815.01 1481.64 L1815.01 1485.58 L1793.06 1485.58 L1793.06 1481.64 Q1795.73 1478.89 1800.31 1474.26 Q1804.92 1469.61 1806.1 1468.27 Q1808.34 1465.74 1809.22 1464.01 Q1810.12 1462.25 1810.12 1460.56 Q1810.12 1457.8 1808.18 1456.07 Q1806.26 1454.33 1803.16 1454.33 Q1800.96 1454.33 1798.5 1455.09 Q1796.07 1455.86 1793.3 1457.41 L1793.3 1452.69 Q1796.12 1451.55 1798.57 1450.97 Q1801.03 1450.39 1803.06 1450.39 Q1808.43 1450.39 1811.63 1453.08 Q1814.82 1455.77 1814.82 1460.26 Q1814.82 1462.39 1814.01 1464.31 Q1813.23 1466.2 1811.12 1468.8 Q1810.54 1469.47 1807.44 1472.69 Q1804.34 1475.88 1798.69 1481.64 Z" fill="#000000" fill-rule="nonzero" fill-opacity="1" /><path clip-path="url(#clip330)" d="M1824.82 1479.7 L1829.71 1479.7 L1829.71 1485.58 L1824.82 1485.58 L1824.82 1479.7 Z" fill="#000000" fill-rule="nonzero" fill-opacity="1" /><path clip-path="url(#clip330)" d="M1839.94 1451.02 L1858.29 1451.02 L1858.29 1454.96 L1844.22 1454.96 L1844.22 1463.43 Q1845.24 1463.08 1846.26 1462.92 Q1847.28 1462.73 1848.29 1462.73 Q1854.08 1462.73 1857.46 1465.9 Q1860.84 1469.08 1860.84 1474.49 Q1860.84 1480.07 1857.37 1483.17 Q1853.9 1486.25 1847.58 1486.25 Q1845.4 1486.25 1843.13 1485.88 Q1840.89 1485.51 1838.48 1484.77 L1838.48 1480.07 Q1840.56 1481.2 1842.79 1481.76 Q1845.01 1482.32 1847.48 1482.32 Q1851.49 1482.32 1853.83 1480.21 Q1856.17 1478.1 1856.17 1474.49 Q1856.17 1470.88 1853.83 1468.77 Q1851.49 1466.67 1847.48 1466.67 Q1845.61 1466.67 1843.73 1467.08 Q1841.88 1467.5 1839.94 1468.38 L1839.94 1451.02 Z" fill="#000000" fill-rule="nonzero" fill-opacity="1" /><path clip-path="url(#clip330)" d="M2319.92 1451.02 L2338.28 1451.02 L2338.28 1454.96 L2324.2 1454.96 L2324.2 1463.43 Q2325.22 1463.08 2326.24 1462.92 Q2327.26 1462.73 2328.28 1462.73 Q2334.06 1462.73 2337.44 1465.9 Q2340.82 1469.08 2340.82 1474.49 Q2340.82 1480.07 2337.35 1483.17 Q2333.88 1486.25 2327.56 1486.25 Q2325.38 1486.25 2323.11 1485.88 Q2320.87 1485.51 2318.46 1484.77 L2318.46 1480.07 Q2320.55 1481.2 2322.77 1481.76 Q2324.99 1482.32 2327.47 1482.32 Q2331.47 1482.32 2333.81 1480.21 Q2336.15 1478.1 2336.15 1474.49 Q2336.15 1470.88 2333.81 1468.77 Q2331.47 1466.67 2327.47 1466.67 Q2325.59 1466.67 2323.72 1467.08 Q2321.86 1467.5 2319.92 1468.38 L2319.92 1451.02 Z" fill="#000000" fill-rule="nonzero" fill-opacity="1" /><path clip-path="url(#clip330)" d="M2350.04 1479.7 L2354.92 1479.7 L2354.92 1485.58 L2350.04 1485.58 L2350.04 1479.7 Z" fill="#000000" fill-rule="nonzero" fill-opacity="1" /><path clip-path="url(#clip330)" d="M2375.11 1454.1 Q2371.49 1454.1 2369.67 1457.66 Q2367.86 1461.2 2367.86 1468.33 Q2367.86 1475.44 2369.67 1479.01 Q2371.49 1482.55 2375.11 1482.55 Q2378.74 1482.55 2380.55 1479.01 Q2382.37 1475.44 2382.37 1468.33 Q2382.37 1461.2 2380.55 1457.66 Q2378.74 1454.1 2375.11 1454.1 M2375.11 1450.39 Q2380.92 1450.39 2383.97 1455 Q2387.05 1459.58 2387.05 1468.33 Q2387.05 1477.06 2383.97 1481.67 Q2380.92 1486.25 2375.11 1486.25 Q2369.3 1486.25 2366.22 1481.67 Q2363.16 1477.06 2363.16 1468.33 Q2363.16 1459.58 2366.22 1455 Q2369.3 1450.39 2375.11 1450.39 Z" fill="#000000" fill-rule="nonzero" fill-opacity="1" /><path clip-path="url(#clip330)" d="M1214.83 1532.4 L1221.04 1532.4 L1232.18 1562.31 L1243.32 1532.4 L1249.52 1532.4 L1236.16 1568.04 L1228.2 1568.04 L1214.83 1532.4 Z" fill="#000000" fill-rule="nonzero" fill-opacity="1" /><path clip-path="url(#clip330)" d="M1273.81 1550.12 Q1266.71 1550.12 1263.97 1551.75 Q1261.24 1553.37 1261.24 1557.29 Q1261.24 1560.4 1263.27 1562.25 Q1265.34 1564.07 1268.87 1564.07 Q1273.74 1564.07 1276.67 1560.63 Q1279.63 1557.16 1279.63 1551.43 L1279.63 1550.12 L1273.81 1550.12 M1285.49 1547.71 L1285.49 1568.04 L1279.63 1568.04 L1279.63 1562.63 Q1277.63 1565.88 1274.64 1567.44 Q1271.64 1568.97 1267.32 1568.97 Q1261.84 1568.97 1258.59 1565.91 Q1255.38 1562.82 1255.38 1557.67 Q1255.38 1551.65 1259.39 1548.6 Q1263.43 1545.54 1271.42 1545.54 L1279.63 1545.54 L1279.63 1544.97 Q1279.63 1540.93 1276.96 1538.73 Q1274.32 1536.5 1269.51 1536.5 Q1266.46 1536.5 1263.56 1537.23 Q1260.66 1537.97 1257.99 1539.43 L1257.99 1534.02 Q1261.2 1532.78 1264.23 1532.17 Q1267.25 1531.54 1270.12 1531.54 Q1277.85 1531.54 1281.67 1535.55 Q1285.49 1539.56 1285.49 1547.71 Z" fill="#000000" fill-rule="nonzero" fill-opacity="1" /><path clip-path="url(#clip330)" d="M1297.55 1518.52 L1303.41 1518.52 L1303.41 1568.04 L1297.55 1568.04 L1297.55 1518.52 Z" fill="#000000" fill-rule="nonzero" fill-opacity="1" /><path clip-path="url(#clip330)" d="M1315.06 1553.98 L1315.06 1532.4 L1320.91 1532.4 L1320.91 1553.75 Q1320.91 1558.81 1322.89 1561.36 Q1324.86 1563.87 1328.81 1563.87 Q1333.55 1563.87 1336.29 1560.85 Q1339.06 1557.83 1339.06 1552.61 L1339.06 1532.4 L1344.91 1532.4 L1344.91 1568.04 L1339.06 1568.04 L1339.06 1562.57 Q1336.92 1565.82 1334.09 1567.41 Q1331.29 1568.97 1327.57 1568.97 Q1321.42 1568.97 1318.24 1565.15 Q1315.06 1561.33 1315.06 1553.98 M1329.79 1531.54 L1329.79 1531.54 Z" fill="#000000" fill-rule="nonzero" fill-opacity="1" /><path clip-path="url(#clip330)" d="M1387.47 1548.76 L1387.47 1551.62 L1360.54 1551.62 Q1360.92 1557.67 1364.17 1560.85 Q1367.45 1564 1373.27 1564 Q1376.65 1564 1379.8 1563.17 Q1382.98 1562.35 1386.1 1560.69 L1386.1 1566.23 Q1382.95 1567.57 1379.64 1568.27 Q1376.33 1568.97 1372.92 1568.97 Q1364.39 1568.97 1359.4 1564 Q1354.43 1559.04 1354.43 1550.57 Q1354.43 1541.82 1359.14 1536.69 Q1363.88 1531.54 1371.9 1531.54 Q1379.1 1531.54 1383.27 1536.18 Q1387.47 1540.8 1387.47 1548.76 M1381.61 1547.04 Q1381.55 1542.23 1378.91 1539.37 Q1376.3 1536.5 1371.97 1536.5 Q1367.07 1536.5 1364.11 1539.27 Q1361.18 1542.04 1360.73 1547.07 L1381.61 1547.04 Z" fill="#000000" fill-rule="nonzero" fill-opacity="1" /><polyline clip-path="url(#clip330)" style="stroke:#000000; stroke-linecap:round; stroke-linejoin:round; stroke-width:4; stroke-opacity:1; fill:none" points="249.542,1423.18 249.542,123.472 "/>
<polyline clip-path="url(#clip330)" style="stroke:#000000; stroke-linecap:round; stroke-linejoin:round; stroke-width:4; stroke-opacity:1; fill:none" points="249.542,1423.18 268.44,1423.18 "/>
<polyline clip-path="url(#clip330)" style="stroke:#000000; stroke-linecap:round; stroke-linejoin:round; stroke-width:4; stroke-opacity:1; fill:none" points="249.542,1034.05 268.44,1034.05 "/>
<polyline clip-path="url(#clip330)" style="stroke:#000000; stroke-linecap:round; stroke-linejoin:round; stroke-width:4; stroke-opacity:1; fill:none" points="249.542,644.912 268.44,644.912 "/>
<polyline clip-path="url(#clip330)" style="stroke:#000000; stroke-linecap:round; stroke-linejoin:round; stroke-width:4; stroke-opacity:1; fill:none" points="249.542,255.778 268.44,255.778 "/>
<path clip-path="url(#clip330)" d="M126.205 1408.98 Q122.593 1408.98 120.765 1412.54 Q118.959 1416.08 118.959 1423.21 Q118.959 1430.32 120.765 1433.89 Q122.593 1437.43 126.205 1437.43 Q129.839 1437.43 131.644 1433.89 Q133.473 1430.32 133.473 1423.21 Q133.473 1416.08 131.644 1412.54 Q129.839 1408.98 126.205 1408.98 M126.205 1405.27 Q132.015 1405.27 135.07 1409.88 Q138.149 1414.46 138.149 1423.21 Q138.149 1431.94 135.07 1436.55 Q132.015 1441.13 126.205 1441.13 Q120.394 1441.13 117.316 1436.55 Q114.26 1431.94 114.26 1423.21 Q114.26 1414.46 117.316 1409.88 Q120.394 1405.27 126.205 1405.27 Z" fill="#000000" fill-rule="nonzero" fill-opacity="1" /><path clip-path="url(#clip330)" d="M146.366 1434.58 L151.251 1434.58 L151.251 1440.46 L146.366 1440.46 L146.366 1434.58 Z" fill="#000000" fill-rule="nonzero" fill-opacity="1" /><path clip-path="url(#clip330)" d="M171.436 1408.98 Q167.825 1408.98 165.996 1412.54 Q164.19 1416.08 164.19 1423.21 Q164.19 1430.32 165.996 1433.89 Q167.825 1437.43 171.436 1437.43 Q175.07 1437.43 176.876 1433.89 Q178.704 1430.32 178.704 1423.21 Q178.704 1416.08 176.876 1412.54 Q175.07 1408.98 171.436 1408.98 M171.436 1405.27 Q177.246 1405.27 180.301 1409.88 Q183.38 1414.46 183.38 1423.21 Q183.38 1431.94 180.301 1436.55 Q177.246 1441.13 171.436 1441.13 Q165.626 1441.13 162.547 1436.55 Q159.491 1431.94 159.491 1423.21 Q159.491 1414.46 162.547 1409.88 Q165.626 1405.27 171.436 1405.27 Z" fill="#000000" fill-rule="nonzero" fill-opacity="1" /><path clip-path="url(#clip330)" d="M201.598 1408.98 Q197.987 1408.98 196.158 1412.54 Q194.352 1416.08 194.352 1423.21 Q194.352 1430.32 196.158 1433.89 Q197.987 1437.43 201.598 1437.43 Q205.232 1437.43 207.037 1433.89 Q208.866 1430.32 208.866 1423.21 Q208.866 1416.08 207.037 1412.54 Q205.232 1408.98 201.598 1408.98 M201.598 1405.27 Q207.408 1405.27 210.463 1409.88 Q213.542 1414.46 213.542 1423.21 Q213.542 1431.94 210.463 1436.55 Q207.408 1441.13 201.598 1441.13 Q195.787 1441.13 192.709 1436.55 Q189.653 1431.94 189.653 1423.21 Q189.653 1414.46 192.709 1409.88 Q195.787 1405.27 201.598 1405.27 Z" fill="#000000" fill-rule="nonzero" fill-opacity="1" /><path clip-path="url(#clip330)" d="M127.2 1019.84 Q123.589 1019.84 121.76 1023.41 Q119.955 1026.95 119.955 1034.08 Q119.955 1041.19 121.76 1044.75 Q123.589 1048.29 127.2 1048.29 Q130.834 1048.29 132.64 1044.75 Q134.468 1041.19 134.468 1034.08 Q134.468 1026.95 132.64 1023.41 Q130.834 1019.84 127.2 1019.84 M127.2 1016.14 Q133.01 1016.14 136.066 1020.75 Q139.144 1025.33 139.144 1034.08 Q139.144 1042.81 136.066 1047.41 Q133.01 1052 127.2 1052 Q121.39 1052 118.311 1047.41 Q115.256 1042.81 115.256 1034.08 Q115.256 1025.33 118.311 1020.75 Q121.39 1016.14 127.2 1016.14 Z" fill="#000000" fill-rule="nonzero" fill-opacity="1" /><path clip-path="url(#clip330)" d="M147.362 1045.45 L152.246 1045.45 L152.246 1051.33 L147.362 1051.33 L147.362 1045.45 Z" fill="#000000" fill-rule="nonzero" fill-opacity="1" /><path clip-path="url(#clip330)" d="M172.431 1019.84 Q168.82 1019.84 166.991 1023.41 Q165.186 1026.95 165.186 1034.08 Q165.186 1041.19 166.991 1044.75 Q168.82 1048.29 172.431 1048.29 Q176.065 1048.29 177.871 1044.75 Q179.7 1041.19 179.7 1034.08 Q179.7 1026.95 177.871 1023.41 Q176.065 1019.84 172.431 1019.84 M172.431 1016.14 Q178.241 1016.14 181.297 1020.75 Q184.376 1025.33 184.376 1034.08 Q184.376 1042.81 181.297 1047.41 Q178.241 1052 172.431 1052 Q166.621 1052 163.542 1047.41 Q160.487 1042.81 160.487 1034.08 Q160.487 1025.33 163.542 1020.75 Q166.621 1016.14 172.431 1016.14 Z" fill="#000000" fill-rule="nonzero" fill-opacity="1" /><path clip-path="url(#clip330)" d="M192.639 1016.77 L210.996 1016.77 L210.996 1020.7 L196.922 1020.7 L196.922 1029.17 Q197.94 1028.83 198.959 1028.66 Q199.977 1028.48 200.996 1028.48 Q206.783 1028.48 210.162 1031.65 Q213.542 1034.82 213.542 1040.24 Q213.542 1045.82 210.07 1048.92 Q206.598 1052 200.278 1052 Q198.102 1052 195.834 1051.63 Q193.588 1051.26 191.181 1050.52 L191.181 1045.82 Q193.264 1046.95 195.487 1047.51 Q197.709 1048.06 200.186 1048.06 Q204.19 1048.06 206.528 1045.96 Q208.866 1043.85 208.866 1040.24 Q208.866 1036.63 206.528 1034.52 Q204.19 1032.41 200.186 1032.41 Q198.311 1032.41 196.436 1032.83 Q194.584 1033.25 192.639 1034.13 L192.639 1016.77 Z" fill="#000000" fill-rule="nonzero" fill-opacity="1" /><path clip-path="url(#clip330)" d="M126.205 630.71 Q122.593 630.71 120.765 634.275 Q118.959 637.817 118.959 644.946 Q118.959 652.053 120.765 655.618 Q122.593 659.159 126.205 659.159 Q129.839 659.159 131.644 655.618 Q133.473 652.053 133.473 644.946 Q133.473 637.817 131.644 634.275 Q129.839 630.71 126.205 630.71 M126.205 627.007 Q132.015 627.007 135.07 631.613 Q138.149 636.197 138.149 644.946 Q138.149 653.673 135.07 658.28 Q132.015 662.863 126.205 662.863 Q120.394 662.863 117.316 658.28 Q114.26 653.673 114.26 644.946 Q114.26 636.197 117.316 631.613 Q120.394 627.007 126.205 627.007 Z" fill="#000000" fill-rule="nonzero" fill-opacity="1" /><path clip-path="url(#clip330)" d="M146.366 656.312 L151.251 656.312 L151.251 662.192 L146.366 662.192 L146.366 656.312 Z" fill="#000000" fill-rule="nonzero" fill-opacity="1" /><path clip-path="url(#clip330)" d="M162.246 658.257 L169.885 658.257 L169.885 631.891 L161.575 633.558 L161.575 629.298 L169.839 627.632 L174.514 627.632 L174.514 658.257 L182.153 658.257 L182.153 662.192 L162.246 662.192 L162.246 658.257 Z" fill="#000000" fill-rule="nonzero" fill-opacity="1" /><path clip-path="url(#clip330)" d="M201.598 630.71 Q197.987 630.71 196.158 634.275 Q194.352 637.817 194.352 644.946 Q194.352 652.053 196.158 655.618 Q197.987 659.159 201.598 659.159 Q205.232 659.159 207.037 655.618 Q208.866 652.053 208.866 644.946 Q208.866 637.817 207.037 634.275 Q205.232 630.71 201.598 630.71 M201.598 627.007 Q207.408 627.007 210.463 631.613 Q213.542 636.197 213.542 644.946 Q213.542 653.673 210.463 658.28 Q207.408 662.863 201.598 662.863 Q195.787 662.863 192.709 658.28 Q189.653 653.673 189.653 644.946 Q189.653 636.197 192.709 631.613 Q195.787 627.007 201.598 627.007 Z" fill="#000000" fill-rule="nonzero" fill-opacity="1" /><path clip-path="url(#clip330)" d="M127.2 241.576 Q123.589 241.576 121.76 245.141 Q119.955 248.683 119.955 255.812 Q119.955 262.919 121.76 266.484 Q123.589 270.025 127.2 270.025 Q130.834 270.025 132.64 266.484 Q134.468 262.919 134.468 255.812 Q134.468 248.683 132.64 245.141 Q130.834 241.576 127.2 241.576 M127.2 237.873 Q133.01 237.873 136.066 242.479 Q139.144 247.062 139.144 255.812 Q139.144 264.539 136.066 269.146 Q133.01 273.729 127.2 273.729 Q121.39 273.729 118.311 269.146 Q115.256 264.539 115.256 255.812 Q115.256 247.062 118.311 242.479 Q121.39 237.873 127.2 237.873 Z" fill="#000000" fill-rule="nonzero" fill-opacity="1" /><path clip-path="url(#clip330)" d="M147.362 267.178 L152.246 267.178 L152.246 273.058 L147.362 273.058 L147.362 267.178 Z" fill="#000000" fill-rule="nonzero" fill-opacity="1" /><path clip-path="url(#clip330)" d="M163.241 269.123 L170.88 269.123 L170.88 242.757 L162.57 244.424 L162.57 240.164 L170.834 238.498 L175.51 238.498 L175.51 269.123 L183.149 269.123 L183.149 273.058 L163.241 273.058 L163.241 269.123 Z" fill="#000000" fill-rule="nonzero" fill-opacity="1" /><path clip-path="url(#clip330)" d="M192.639 238.498 L210.996 238.498 L210.996 242.433 L196.922 242.433 L196.922 250.905 Q197.94 250.558 198.959 250.396 Q199.977 250.211 200.996 250.211 Q206.783 250.211 210.162 253.382 Q213.542 256.553 213.542 261.97 Q213.542 267.548 210.07 270.65 Q206.598 273.729 200.278 273.729 Q198.102 273.729 195.834 273.359 Q193.588 272.988 191.181 272.248 L191.181 267.548 Q193.264 268.683 195.487 269.238 Q197.709 269.794 200.186 269.794 Q204.19 269.794 206.528 267.687 Q208.866 265.581 208.866 261.97 Q208.866 258.359 206.528 256.252 Q204.19 254.146 200.186 254.146 Q198.311 254.146 196.436 254.562 Q194.584 254.979 192.639 255.859 L192.639 238.498 Z" fill="#000000" fill-rule="nonzero" fill-opacity="1" /><path clip-path="url(#clip330)" d="M14.479 912.385 L19.3487 912.385 L19.3487 917.987 Q19.3487 921.138 20.6219 922.379 Q21.895 923.588 25.2052 923.588 L28.3562 923.588 L28.3562 913.944 L32.9077 913.944 L32.9077 923.588 L64.0042 923.588 L64.0042 929.477 L32.9077 929.477 L32.9077 935.079 L28.3562 935.079 L28.3562 929.477 L25.8736 929.477 Q19.9216 929.477 17.2162 926.708 Q14.479 923.939 14.479 917.923 L14.479 912.385 Z" fill="#000000" fill-rule="nonzero" fill-opacity="1" /><path clip-path="url(#clip330)" d="M33.8307 886.827 Q33.2578 887.813 33.0032 888.991 Q32.7167 890.137 32.7167 891.537 Q32.7167 896.502 35.9632 899.176 Q39.1779 901.818 45.2253 901.818 L64.0042 901.818 L64.0042 907.706 L28.3562 907.706 L28.3562 901.818 L33.8944 901.818 Q30.6479 899.972 29.0883 897.012 Q27.4968 894.052 27.4968 889.818 Q27.4968 889.214 27.5923 888.482 Q27.656 887.75 27.8151 886.858 L33.8307 886.827 Z" fill="#000000" fill-rule="nonzero" fill-opacity="1" /><path clip-path="url(#clip330)" d="M44.7161 851.624 L47.5806 851.624 L47.5806 878.551 Q53.6281 878.169 56.8109 874.923 Q59.9619 871.644 59.9619 865.82 Q59.9619 862.446 59.1344 859.295 Q58.3069 856.112 56.6518 852.993 L62.1899 852.993 Q63.5267 856.144 64.227 859.454 Q64.9272 862.764 64.9272 866.17 Q64.9272 874.7 59.9619 879.697 Q54.9967 884.662 46.5303 884.662 Q37.7774 884.662 32.6531 879.952 Q27.4968 875.209 27.4968 867.188 Q27.4968 859.995 32.1438 855.826 Q36.7589 851.624 44.7161 851.624 M42.9973 857.481 Q38.1912 857.544 35.3266 860.186 Q32.4621 862.796 32.4621 867.125 Q32.4621 872.026 35.2312 874.986 Q38.0002 877.915 43.0292 878.36 L42.9973 857.481 Z" fill="#000000" fill-rule="nonzero" fill-opacity="1" /><path clip-path="url(#clip330)" d="M46.212 838.511 Q52.6732 838.511 56.3653 835.869 Q60.0256 833.195 60.0256 828.548 Q60.0256 823.902 56.3653 821.228 Q52.6732 818.554 46.212 818.554 Q39.7508 818.554 36.0905 821.228 Q32.3984 823.902 32.3984 828.548 Q32.3984 833.195 36.0905 835.869 Q39.7508 838.511 46.212 838.511 M58.657 818.554 Q61.8398 820.4 63.3994 823.233 Q64.9272 826.034 64.9272 829.981 Q64.9272 836.442 59.771 840.516 Q54.6147 844.558 46.212 844.558 Q37.8093 844.558 32.6531 840.516 Q27.4968 836.442 27.4968 829.981 Q27.4968 826.034 29.0564 823.233 Q30.5842 820.4 33.7671 818.554 L28.3562 818.554 L28.3562 812.698 L77.5631 812.698 L77.5631 818.554 L58.657 818.554 Z" fill="#000000" fill-rule="nonzero" fill-opacity="1" /><path clip-path="url(#clip330)" d="M49.9359 801.24 L28.3562 801.24 L28.3562 795.383 L49.7131 795.383 Q54.7739 795.383 57.3202 793.41 Q59.8346 791.436 59.8346 787.49 Q59.8346 782.747 56.8109 780.01 Q53.7872 777.241 48.5673 777.241 L28.3562 777.241 L28.3562 771.384 L64.0042 771.384 L64.0042 777.241 L58.5296 777.241 Q61.7762 779.373 63.3676 782.206 Q64.9272 785.007 64.9272 788.731 Q64.9272 794.874 61.1078 798.057 Q57.2883 801.24 49.9359 801.24 M27.4968 786.503 L27.4968 786.503 Z" fill="#000000" fill-rule="nonzero" fill-opacity="1" /><path clip-path="url(#clip330)" d="M44.7161 728.83 L47.5806 728.83 L47.5806 755.757 Q53.6281 755.375 56.8109 752.128 Q59.9619 748.85 59.9619 743.025 Q59.9619 739.651 59.1344 736.5 Q58.3069 733.318 56.6518 730.198 L62.1899 730.198 Q63.5267 733.349 64.227 736.66 Q64.9272 739.97 64.9272 743.375 Q64.9272 751.905 59.9619 756.902 Q54.9967 761.868 46.5303 761.868 Q37.7774 761.868 32.6531 757.157 Q27.4968 752.415 27.4968 744.394 Q27.4968 737.201 32.1438 733.031 Q36.7589 728.83 44.7161 728.83 M42.9973 734.686 Q38.1912 734.75 35.3266 737.392 Q32.4621 740.002 32.4621 744.33 Q32.4621 749.232 35.2312 752.192 Q38.0002 755.12 43.0292 755.566 L42.9973 734.686 Z" fill="#000000" fill-rule="nonzero" fill-opacity="1" /><path clip-path="url(#clip330)" d="M42.4881 689.585 L64.0042 689.585 L64.0042 695.442 L42.679 695.442 Q37.6183 695.442 35.1038 697.415 Q32.5894 699.388 32.5894 703.335 Q32.5894 708.077 35.6131 710.815 Q38.6368 713.552 43.8567 713.552 L64.0042 713.552 L64.0042 719.44 L28.3562 719.44 L28.3562 713.552 L33.8944 713.552 Q30.6797 711.451 29.0883 708.619 Q27.4968 705.754 27.4968 702.03 Q27.4968 695.887 31.3163 692.736 Q35.1038 689.585 42.4881 689.585 Z" fill="#000000" fill-rule="nonzero" fill-opacity="1" /><path clip-path="url(#clip330)" d="M29.7248 652.25 L35.1993 652.25 Q33.8307 654.733 33.1623 657.247 Q32.4621 659.73 32.4621 662.276 Q32.4621 667.974 36.0905 671.125 Q39.6872 674.276 46.212 674.276 Q52.7369 674.276 56.3653 671.125 Q59.9619 667.974 59.9619 662.276 Q59.9619 659.73 59.2935 657.247 Q58.5933 654.733 57.2247 652.25 L62.6355 652.25 Q63.7814 654.701 64.3543 657.343 Q64.9272 659.953 64.9272 662.913 Q64.9272 670.965 59.8664 675.708 Q54.8057 680.45 46.212 680.45 Q37.491 680.45 32.4939 675.676 Q27.4968 670.87 27.4968 662.531 Q27.4968 659.825 28.0697 657.247 Q28.6108 654.669 29.7248 652.25 Z" fill="#000000" fill-rule="nonzero" fill-opacity="1" /><path clip-path="url(#clip330)" d="M67.3143 627.233 Q73.68 629.716 75.6216 632.071 Q77.5631 634.426 77.5631 638.373 L77.5631 643.052 L72.6615 643.052 L72.6615 639.614 Q72.6615 637.195 71.5157 635.859 Q70.3699 634.522 66.1048 632.898 L63.4312 631.848 L28.3562 646.266 L28.3562 640.06 L56.238 628.92 L28.3562 617.78 L28.3562 611.573 L67.3143 627.233 Z" fill="#000000" fill-rule="nonzero" fill-opacity="1" /><path clip-path="url(#clip330)" d="M1093.56 12.096 L1101.74 12.096 L1101.74 36.8875 L1131.48 36.8875 L1131.48 12.096 L1139.66 12.096 L1139.66 72.576 L1131.48 72.576 L1131.48 43.7741 L1101.74 43.7741 L1101.74 72.576 L1093.56 72.576 L1093.56 12.096 Z" fill="#000000" fill-rule="nonzero" fill-opacity="1" /><path clip-path="url(#clip330)" d="M1155.62 27.2059 L1163.07 27.2059 L1163.07 72.576 L1155.62 72.576 L1155.62 27.2059 M1155.62 9.54393 L1163.07 9.54393 L1163.07 18.9825 L1155.62 18.9825 L1155.62 9.54393 Z" fill="#000000" fill-rule="nonzero" fill-opacity="1" /><path clip-path="url(#clip330)" d="M1207.59 28.5427 L1207.59 35.5912 Q1204.43 33.9709 1201.03 33.1607 Q1197.63 32.3505 1193.98 32.3505 Q1188.43 32.3505 1185.64 34.0519 Q1182.88 35.7533 1182.88 39.156 Q1182.88 41.7486 1184.87 43.2475 Q1186.85 44.7058 1192.85 46.0426 L1195.4 46.6097 Q1203.34 48.3111 1206.66 51.4303 Q1210.02 54.509 1210.02 60.0587 Q1210.02 66.3781 1205 70.0644 Q1200.02 73.7508 1191.27 73.7508 Q1187.62 73.7508 1183.65 73.0216 Q1179.72 72.3329 1175.35 70.9151 L1175.35 63.2184 Q1179.48 65.3654 1183.49 66.4591 Q1187.5 67.5124 1191.43 67.5124 Q1196.7 67.5124 1199.53 65.73 Q1202.37 63.9071 1202.37 60.6258 Q1202.37 57.5877 1200.3 55.9673 Q1198.28 54.3469 1191.35 52.8481 L1188.76 52.2405 Q1181.83 50.7821 1178.75 47.7845 Q1175.67 44.7463 1175.67 39.4801 Q1175.67 33.0797 1180.21 29.5959 Q1184.75 26.1121 1193.09 26.1121 Q1197.22 26.1121 1200.87 26.7198 Q1204.51 27.3274 1207.59 28.5427 Z" fill="#000000" fill-rule="nonzero" fill-opacity="1" /><path clip-path="url(#clip330)" d="M1229.27 14.324 L1229.27 27.2059 L1244.62 27.2059 L1244.62 32.9987 L1229.27 32.9987 L1229.27 57.6282 Q1229.27 63.1779 1230.76 64.7578 Q1232.3 66.3376 1236.96 66.3376 L1244.62 66.3376 L1244.62 72.576 L1236.96 72.576 Q1228.33 72.576 1225.05 69.3758 Q1221.77 66.1351 1221.77 57.6282 L1221.77 32.9987 L1216.3 32.9987 L1216.3 27.2059 L1221.77 27.2059 L1221.77 14.324 L1229.27 14.324 Z" fill="#000000" fill-rule="nonzero" fill-opacity="1" /><path clip-path="url(#clip330)" d="M1272 32.4315 Q1266.01 32.4315 1262.52 37.1306 Q1259.04 41.7891 1259.04 49.9314 Q1259.04 58.0738 1262.48 62.7728 Q1265.97 67.4314 1272 67.4314 Q1277.96 67.4314 1281.44 62.7323 Q1284.93 58.0333 1284.93 49.9314 Q1284.93 41.8701 1281.44 37.1711 Q1277.96 32.4315 1272 32.4315 M1272 26.1121 Q1281.72 26.1121 1287.27 32.4315 Q1292.82 38.7509 1292.82 49.9314 Q1292.82 61.0714 1287.27 67.4314 Q1281.72 73.7508 1272 73.7508 Q1262.24 73.7508 1256.69 67.4314 Q1251.18 61.0714 1251.18 49.9314 Q1251.18 38.7509 1256.69 32.4315 Q1262.24 26.1121 1272 26.1121 Z" fill="#000000" fill-rule="nonzero" fill-opacity="1" /><path clip-path="url(#clip330)" d="M1335.03 49.3643 Q1335.03 41.2625 1331.67 36.8065 Q1328.35 32.3505 1322.31 32.3505 Q1316.32 32.3505 1312.96 36.8065 Q1309.64 41.2625 1309.64 49.3643 Q1309.64 57.4256 1312.96 61.8816 Q1316.32 66.3376 1322.31 66.3376 Q1328.35 66.3376 1331.67 61.8816 Q1335.03 57.4256 1335.03 49.3643 M1342.49 66.9452 Q1342.49 78.5308 1337.34 84.1616 Q1332.2 89.8329 1321.59 89.8329 Q1317.66 89.8329 1314.17 89.2252 Q1310.69 88.6581 1307.41 87.4428 L1307.41 80.1917 Q1310.69 81.9741 1313.89 82.8248 Q1317.09 83.6755 1320.41 83.6755 Q1327.74 83.6755 1331.39 79.8271 Q1335.03 76.0193 1335.03 68.282 L1335.03 64.5957 Q1332.73 68.6061 1329.12 70.5911 Q1325.52 72.576 1320.49 72.576 Q1312.15 72.576 1307.04 66.2161 Q1301.94 59.8562 1301.94 49.3643 Q1301.94 38.832 1307.04 32.472 Q1312.15 26.1121 1320.49 26.1121 Q1325.52 26.1121 1329.12 28.0971 Q1332.73 30.082 1335.03 34.0924 L1335.03 27.2059 L1342.49 27.2059 L1342.49 66.9452 Z" fill="#000000" fill-rule="nonzero" fill-opacity="1" /><path clip-path="url(#clip330)" d="M1384.13 34.1734 Q1382.88 33.4443 1381.38 33.1202 Q1379.92 32.7556 1378.14 32.7556 Q1371.82 32.7556 1368.41 36.8875 Q1365.05 40.9789 1365.05 48.6757 L1365.05 72.576 L1357.56 72.576 L1357.56 27.2059 L1365.05 27.2059 L1365.05 34.2544 Q1367.4 30.1225 1371.17 28.1376 Q1374.94 26.1121 1380.32 26.1121 Q1381.09 26.1121 1382.03 26.2337 Q1382.96 26.3147 1384.09 26.5172 L1384.13 34.1734 Z" fill="#000000" fill-rule="nonzero" fill-opacity="1" /><path clip-path="url(#clip330)" d="M1412.57 49.7694 Q1403.54 49.7694 1400.05 51.8354 Q1396.57 53.9013 1396.57 58.8839 Q1396.57 62.8538 1399.16 65.2034 Q1401.79 67.5124 1406.29 67.5124 Q1412.49 67.5124 1416.21 63.1374 Q1419.98 58.7219 1419.98 51.4303 L1419.98 49.7694 L1412.57 49.7694 M1427.44 46.6907 L1427.44 72.576 L1419.98 72.576 L1419.98 65.6895 Q1417.43 69.8214 1413.62 71.8063 Q1409.81 73.7508 1404.31 73.7508 Q1397.34 73.7508 1393.21 69.8619 Q1389.11 65.9325 1389.11 59.3701 Q1389.11 51.7138 1394.22 47.825 Q1399.36 43.9361 1409.53 43.9361 L1419.98 43.9361 L1419.98 43.2069 Q1419.98 38.0623 1416.58 35.2672 Q1413.22 32.4315 1407.1 32.4315 Q1403.21 32.4315 1399.53 33.3632 Q1395.84 34.295 1392.44 36.1584 L1392.44 29.2718 Q1396.53 27.692 1400.38 26.9223 Q1404.22 26.1121 1407.87 26.1121 Q1417.71 26.1121 1422.57 31.2163 Q1427.44 36.3204 1427.44 46.6907 Z" fill="#000000" fill-rule="nonzero" fill-opacity="1" /><path clip-path="url(#clip330)" d="M1478.11 35.9153 Q1480.91 30.8922 1484.8 28.5022 Q1488.69 26.1121 1493.95 26.1121 Q1501.04 26.1121 1504.89 31.0947 Q1508.74 36.0368 1508.74 45.1919 L1508.74 72.576 L1501.24 72.576 L1501.24 45.4349 Q1501.24 38.913 1498.93 35.7533 Q1496.63 32.5936 1491.89 32.5936 Q1486.09 32.5936 1482.73 36.4419 Q1479.37 40.2903 1479.37 46.9338 L1479.37 72.576 L1471.87 72.576 L1471.87 45.4349 Q1471.87 38.8725 1469.57 35.7533 Q1467.26 32.5936 1462.44 32.5936 Q1456.72 32.5936 1453.36 36.4824 Q1450 40.3308 1450 46.9338 L1450 72.576 L1442.51 72.576 L1442.51 27.2059 L1450 27.2059 L1450 34.2544 Q1452.55 30.082 1456.12 28.0971 Q1459.68 26.1121 1464.58 26.1121 Q1469.52 26.1121 1472.97 28.6237 Q1476.45 31.1352 1478.11 35.9153 Z" fill="#000000" fill-rule="nonzero" fill-opacity="1" /><path clip-path="url(#clip332)" d="M249.542 224.647 L249.542 1423.18 L270.574 1423.18 L270.574 224.647 L249.542 224.647 L249.542 224.647  Z" fill="#009af9" fill-rule="evenodd" fill-opacity="1"/>
<polyline clip-path="url(#clip332)" style="stroke:#000000; stroke-linecap:round; stroke-linejoin:round; stroke-width:4; stroke-opacity:1; fill:none" points="249.542,224.647 249.542,1423.18 270.574,1423.18 270.574,224.647 249.542,224.647 "/>
<path clip-path="url(#clip332)" d="M270.574 341.387 L270.574 1423.18 L291.606 1423.18 L291.606 341.387 L270.574 341.387 L270.574 341.387  Z" fill="#009af9" fill-rule="evenodd" fill-opacity="1"/>
<polyline clip-path="url(#clip332)" style="stroke:#000000; stroke-linecap:round; stroke-linejoin:round; stroke-width:4; stroke-opacity:1; fill:none" points="270.574,341.387 270.574,1423.18 291.606,1423.18 291.606,341.387 270.574,341.387 "/>
<path clip-path="url(#clip332)" d="M291.606 193.516 L291.606 1423.18 L312.638 1423.18 L312.638 193.516 L291.606 193.516 L291.606 193.516  Z" fill="#009af9" fill-rule="evenodd" fill-opacity="1"/>
<polyline clip-path="url(#clip332)" style="stroke:#000000; stroke-linecap:round; stroke-linejoin:round; stroke-width:4; stroke-opacity:1; fill:none" points="291.606,193.516 291.606,1423.18 312.638,1423.18 312.638,193.516 291.606,193.516 "/>
<path clip-path="url(#clip332)" d="M312.638 224.647 L312.638 1423.18 L333.671 1423.18 L333.671 224.647 L312.638 224.647 L312.638 224.647  Z" fill="#009af9" fill-rule="evenodd" fill-opacity="1"/>
<polyline clip-path="url(#clip332)" style="stroke:#000000; stroke-linecap:round; stroke-linejoin:round; stroke-width:4; stroke-opacity:1; fill:none" points="312.638,224.647 312.638,1423.18 333.671,1423.18 333.671,224.647 312.638,224.647 "/>
<path clip-path="url(#clip332)" d="M333.671 146.82 L333.671 1423.18 L354.703 1423.18 L354.703 146.82 L333.671 146.82 L333.671 146.82  Z" fill="#009af9" fill-rule="evenodd" fill-opacity="1"/>
<polyline clip-path="url(#clip332)" style="stroke:#000000; stroke-linecap:round; stroke-linejoin:round; stroke-width:4; stroke-opacity:1; fill:none" points="333.671,146.82 333.671,1423.18 354.703,1423.18 354.703,146.82 333.671,146.82 "/>
<path clip-path="url(#clip332)" d="M354.703 318.039 L354.703 1423.18 L375.735 1423.18 L375.735 318.039 L354.703 318.039 L354.703 318.039  Z" fill="#009af9" fill-rule="evenodd" fill-opacity="1"/>
<polyline clip-path="url(#clip332)" style="stroke:#000000; stroke-linecap:round; stroke-linejoin:round; stroke-width:4; stroke-opacity:1; fill:none" points="354.703,318.039 354.703,1423.18 375.735,1423.18 375.735,318.039 354.703,318.039 "/>
<path clip-path="url(#clip332)" d="M375.735 380.301 L375.735 1423.18 L396.767 1423.18 L396.767 380.301 L375.735 380.301 L375.735 380.301  Z" fill="#009af9" fill-rule="evenodd" fill-opacity="1"/>
<polyline clip-path="url(#clip332)" style="stroke:#000000; stroke-linecap:round; stroke-linejoin:round; stroke-width:4; stroke-opacity:1; fill:none" points="375.735,380.301 375.735,1423.18 396.767,1423.18 396.767,380.301 375.735,380.301 "/>
<path clip-path="url(#clip332)" d="M396.767 341.387 L396.767 1423.18 L417.799 1423.18 L417.799 341.387 L396.767 341.387 L396.767 341.387  Z" fill="#009af9" fill-rule="evenodd" fill-opacity="1"/>
<polyline clip-path="url(#clip332)" style="stroke:#000000; stroke-linecap:round; stroke-linejoin:round; stroke-width:4; stroke-opacity:1; fill:none" points="396.767,341.387 396.767,1423.18 417.799,1423.18 417.799,341.387 396.767,341.387 "/>
<path clip-path="url(#clip332)" d="M417.799 380.301 L417.799 1423.18 L438.831 1423.18 L438.831 380.301 L417.799 380.301 L417.799 380.301  Z" fill="#009af9" fill-rule="evenodd" fill-opacity="1"/>
<polyline clip-path="url(#clip332)" style="stroke:#000000; stroke-linecap:round; stroke-linejoin:round; stroke-width:4; stroke-opacity:1; fill:none" points="417.799,380.301 417.799,1423.18 438.831,1423.18 438.831,380.301 417.799,380.301 "/>
<path clip-path="url(#clip332)" d="M438.831 520.389 L438.831 1423.18 L459.863 1423.18 L459.863 520.389 L438.831 520.389 L438.831 520.389  Z" fill="#009af9" fill-rule="evenodd" fill-opacity="1"/>
<polyline clip-path="url(#clip332)" style="stroke:#000000; stroke-linecap:round; stroke-linejoin:round; stroke-width:4; stroke-opacity:1; fill:none" points="438.831,520.389 438.831,1423.18 459.863,1423.18 459.863,520.389 438.831,520.389 "/>
<path clip-path="url(#clip332)" d="M459.863 598.216 L459.863 1423.18 L480.896 1423.18 L480.896 598.216 L459.863 598.216 L459.863 598.216  Z" fill="#009af9" fill-rule="evenodd" fill-opacity="1"/>
<polyline clip-path="url(#clip332)" style="stroke:#000000; stroke-linecap:round; stroke-linejoin:round; stroke-width:4; stroke-opacity:1; fill:none" points="459.863,598.216 459.863,1423.18 480.896,1423.18 480.896,598.216 459.863,598.216 "/>
<path clip-path="url(#clip332)" d="M480.896 668.26 L480.896 1423.18 L501.928 1423.18 L501.928 668.26 L480.896 668.26 L480.896 668.26  Z" fill="#009af9" fill-rule="evenodd" fill-opacity="1"/>
<polyline clip-path="url(#clip332)" style="stroke:#000000; stroke-linecap:round; stroke-linejoin:round; stroke-width:4; stroke-opacity:1; fill:none" points="480.896,668.26 480.896,1423.18 501.928,1423.18 501.928,668.26 480.896,668.26 "/>
<path clip-path="url(#clip332)" d="M501.928 722.739 L501.928 1423.18 L522.96 1423.18 L522.96 722.739 L501.928 722.739 L501.928 722.739  Z" fill="#009af9" fill-rule="evenodd" fill-opacity="1"/>
<polyline clip-path="url(#clip332)" style="stroke:#000000; stroke-linecap:round; stroke-linejoin:round; stroke-width:4; stroke-opacity:1; fill:none" points="501.928,722.739 501.928,1423.18 522.96,1423.18 522.96,722.739 501.928,722.739 "/>
<path clip-path="url(#clip332)" d="M522.96 808.348 L522.96 1423.18 L543.992 1423.18 L543.992 808.348 L522.96 808.348 L522.96 808.348  Z" fill="#009af9" fill-rule="evenodd" fill-opacity="1"/>
<polyline clip-path="url(#clip332)" style="stroke:#000000; stroke-linecap:round; stroke-linejoin:round; stroke-width:4; stroke-opacity:1; fill:none" points="522.96,808.348 522.96,1423.18 543.992,1423.18 543.992,808.348 522.96,808.348 "/>
<path clip-path="url(#clip332)" d="M543.992 956.219 L543.992 1423.18 L565.024 1423.18 L565.024 956.219 L543.992 956.219 L543.992 956.219  Z" fill="#009af9" fill-rule="evenodd" fill-opacity="1"/>
<polyline clip-path="url(#clip332)" style="stroke:#000000; stroke-linecap:round; stroke-linejoin:round; stroke-width:4; stroke-opacity:1; fill:none" points="543.992,956.219 543.992,1423.18 565.024,1423.18 565.024,956.219 543.992,956.219 "/>
<path clip-path="url(#clip332)" d="M565.024 1010.7 L565.024 1423.18 L586.056 1423.18 L586.056 1010.7 L565.024 1010.7 L565.024 1010.7  Z" fill="#009af9" fill-rule="evenodd" fill-opacity="1"/>
<polyline clip-path="url(#clip332)" style="stroke:#000000; stroke-linecap:round; stroke-linejoin:round; stroke-width:4; stroke-opacity:1; fill:none" points="565.024,1010.7 565.024,1423.18 586.056,1423.18 586.056,1010.7 565.024,1010.7 "/>
<path clip-path="url(#clip332)" d="M586.056 1205.26 L586.056 1423.18 L607.088 1423.18 L607.088 1205.26 L586.056 1205.26 L586.056 1205.26  Z" fill="#009af9" fill-rule="evenodd" fill-opacity="1"/>
<polyline clip-path="url(#clip332)" style="stroke:#000000; stroke-linecap:round; stroke-linejoin:round; stroke-width:4; stroke-opacity:1; fill:none" points="586.056,1205.26 586.056,1423.18 607.088,1423.18 607.088,1205.26 586.056,1205.26 "/>
<path clip-path="url(#clip332)" d="M607.088 1298.66 L607.088 1423.18 L628.121 1423.18 L628.121 1298.66 L607.088 1298.66 L607.088 1298.66  Z" fill="#009af9" fill-rule="evenodd" fill-opacity="1"/>
<polyline clip-path="url(#clip332)" style="stroke:#000000; stroke-linecap:round; stroke-linejoin:round; stroke-width:4; stroke-opacity:1; fill:none" points="607.088,1298.66 607.088,1423.18 628.121,1423.18 628.121,1298.66 607.088,1298.66 "/>
<path clip-path="url(#clip332)" d="M628.121 1399.83 L628.121 1423.18 L649.153 1423.18 L649.153 1399.83 L628.121 1399.83 L628.121 1399.83  Z" fill="#009af9" fill-rule="evenodd" fill-opacity="1"/>
<polyline clip-path="url(#clip332)" style="stroke:#000000; stroke-linecap:round; stroke-linejoin:round; stroke-width:4; stroke-opacity:1; fill:none" points="628.121,1399.83 628.121,1423.18 649.153,1423.18 649.153,1399.83 628.121,1399.83 "/>
<path clip-path="url(#clip332)" d="M649.153 1329.79 L649.153 1423.18 L670.185 1423.18 L670.185 1329.79 L649.153 1329.79 L649.153 1329.79  Z" fill="#009af9" fill-rule="evenodd" fill-opacity="1"/>
<polyline clip-path="url(#clip332)" style="stroke:#000000; stroke-linecap:round; stroke-linejoin:round; stroke-width:4; stroke-opacity:1; fill:none" points="649.153,1329.79 649.153,1423.18 670.185,1423.18 670.185,1329.79 649.153,1329.79 "/>
<path clip-path="url(#clip332)" d="M670.185 1236.4 L670.185 1423.18 L691.217 1423.18 L691.217 1236.4 L670.185 1236.4 L670.185 1236.4  Z" fill="#009af9" fill-rule="evenodd" fill-opacity="1"/>
<polyline clip-path="url(#clip332)" style="stroke:#000000; stroke-linecap:round; stroke-linejoin:round; stroke-width:4; stroke-opacity:1; fill:none" points="670.185,1236.4 670.185,1423.18 691.217,1423.18 691.217,1236.4 670.185,1236.4 "/>
<path clip-path="url(#clip332)" d="M691.217 1026.26 L691.217 1423.18 L712.249 1423.18 L712.249 1026.26 L691.217 1026.26 L691.217 1026.26  Z" fill="#009af9" fill-rule="evenodd" fill-opacity="1"/>
<polyline clip-path="url(#clip332)" style="stroke:#000000; stroke-linecap:round; stroke-linejoin:round; stroke-width:4; stroke-opacity:1; fill:none" points="691.217,1026.26 691.217,1423.18 712.249,1423.18 712.249,1026.26 691.217,1026.26 "/>
<path clip-path="url(#clip332)" d="M712.249 925.088 L712.249 1423.18 L733.281 1423.18 L733.281 925.088 L712.249 925.088 L712.249 925.088  Z" fill="#009af9" fill-rule="evenodd" fill-opacity="1"/>
<polyline clip-path="url(#clip332)" style="stroke:#000000; stroke-linecap:round; stroke-linejoin:round; stroke-width:4; stroke-opacity:1; fill:none" points="712.249,925.088 712.249,1423.18 733.281,1423.18 733.281,925.088 712.249,925.088 "/>
<path clip-path="url(#clip332)" d="M733.281 971.784 L733.281 1423.18 L754.313 1423.18 L754.313 971.784 L733.281 971.784 L733.281 971.784  Z" fill="#009af9" fill-rule="evenodd" fill-opacity="1"/>
<polyline clip-path="url(#clip332)" style="stroke:#000000; stroke-linecap:round; stroke-linejoin:round; stroke-width:4; stroke-opacity:1; fill:none" points="733.281,971.784 733.281,1423.18 754.313,1423.18 754.313,971.784 733.281,971.784 "/>
<path clip-path="url(#clip332)" d="M754.313 792.783 L754.313 1423.18 L775.346 1423.18 L775.346 792.783 L754.313 792.783 L754.313 792.783  Z" fill="#009af9" fill-rule="evenodd" fill-opacity="1"/>
<polyline clip-path="url(#clip332)" style="stroke:#000000; stroke-linecap:round; stroke-linejoin:round; stroke-width:4; stroke-opacity:1; fill:none" points="754.313,792.783 754.313,1423.18 775.346,1423.18 775.346,792.783 754.313,792.783 "/>
<path clip-path="url(#clip332)" d="M775.346 621.564 L775.346 1423.18 L796.378 1423.18 L796.378 621.564 L775.346 621.564 L775.346 621.564  Z" fill="#009af9" fill-rule="evenodd" fill-opacity="1"/>
<polyline clip-path="url(#clip332)" style="stroke:#000000; stroke-linecap:round; stroke-linejoin:round; stroke-width:4; stroke-opacity:1; fill:none" points="775.346,621.564 775.346,1423.18 796.378,1423.18 796.378,621.564 775.346,621.564 "/>
<path clip-path="url(#clip332)" d="M796.378 613.781 L796.378 1423.18 L817.41 1423.18 L817.41 613.781 L796.378 613.781 L796.378 613.781  Z" fill="#009af9" fill-rule="evenodd" fill-opacity="1"/>
<polyline clip-path="url(#clip332)" style="stroke:#000000; stroke-linecap:round; stroke-linejoin:round; stroke-width:4; stroke-opacity:1; fill:none" points="796.378,613.781 796.378,1423.18 817.41,1423.18 817.41,613.781 796.378,613.781 "/>
<path clip-path="url(#clip332)" d="M817.41 512.606 L817.41 1423.18 L838.442 1423.18 L838.442 512.606 L817.41 512.606 L817.41 512.606  Z" fill="#009af9" fill-rule="evenodd" fill-opacity="1"/>
<polyline clip-path="url(#clip332)" style="stroke:#000000; stroke-linecap:round; stroke-linejoin:round; stroke-width:4; stroke-opacity:1; fill:none" points="817.41,512.606 817.41,1423.18 838.442,1423.18 838.442,512.606 817.41,512.606 "/>
<path clip-path="url(#clip332)" d="M838.442 364.735 L838.442 1423.18 L859.474 1423.18 L859.474 364.735 L838.442 364.735 L838.442 364.735  Z" fill="#009af9" fill-rule="evenodd" fill-opacity="1"/>
<polyline clip-path="url(#clip332)" style="stroke:#000000; stroke-linecap:round; stroke-linejoin:round; stroke-width:4; stroke-opacity:1; fill:none" points="838.442,364.735 838.442,1423.18 859.474,1423.18 859.474,364.735 838.442,364.735 "/>
<path clip-path="url(#clip332)" d="M859.474 302.474 L859.474 1423.18 L880.506 1423.18 L880.506 302.474 L859.474 302.474 L859.474 302.474  Z" fill="#009af9" fill-rule="evenodd" fill-opacity="1"/>
<polyline clip-path="url(#clip332)" style="stroke:#000000; stroke-linecap:round; stroke-linejoin:round; stroke-width:4; stroke-opacity:1; fill:none" points="859.474,302.474 859.474,1423.18 880.506,1423.18 880.506,302.474 859.474,302.474 "/>
<path clip-path="url(#clip332)" d="M880.506 302.474 L880.506 1423.18 L901.538 1423.18 L901.538 302.474 L880.506 302.474 L880.506 302.474  Z" fill="#009af9" fill-rule="evenodd" fill-opacity="1"/>
<polyline clip-path="url(#clip332)" style="stroke:#000000; stroke-linecap:round; stroke-linejoin:round; stroke-width:4; stroke-opacity:1; fill:none" points="880.506,302.474 880.506,1423.18 901.538,1423.18 901.538,302.474 880.506,302.474 "/>
<path clip-path="url(#clip332)" d="M901.538 372.518 L901.538 1423.18 L922.57 1423.18 L922.57 372.518 L901.538 372.518 L901.538 372.518  Z" fill="#009af9" fill-rule="evenodd" fill-opacity="1"/>
<polyline clip-path="url(#clip332)" style="stroke:#000000; stroke-linecap:round; stroke-linejoin:round; stroke-width:4; stroke-opacity:1; fill:none" points="901.538,372.518 901.538,1423.18 922.57,1423.18 922.57,372.518 901.538,372.518 "/>
<path clip-path="url(#clip332)" d="M922.57 224.647 L922.57 1423.18 L943.603 1423.18 L943.603 224.647 L922.57 224.647 L922.57 224.647  Z" fill="#009af9" fill-rule="evenodd" fill-opacity="1"/>
<polyline clip-path="url(#clip332)" style="stroke:#000000; stroke-linecap:round; stroke-linejoin:round; stroke-width:4; stroke-opacity:1; fill:none" points="922.57,224.647 922.57,1423.18 943.603,1423.18 943.603,224.647 922.57,224.647 "/>
<path clip-path="url(#clip332)" d="M943.603 177.951 L943.603 1423.18 L964.635 1423.18 L964.635 177.951 L943.603 177.951 L943.603 177.951  Z" fill="#009af9" fill-rule="evenodd" fill-opacity="1"/>
<polyline clip-path="url(#clip332)" style="stroke:#000000; stroke-linecap:round; stroke-linejoin:round; stroke-width:4; stroke-opacity:1; fill:none" points="943.603,177.951 943.603,1423.18 964.635,1423.18 964.635,177.951 943.603,177.951 "/>
<path clip-path="url(#clip332)" d="M964.635 271.343 L964.635 1423.18 L985.667 1423.18 L985.667 271.343 L964.635 271.343 L964.635 271.343  Z" fill="#009af9" fill-rule="evenodd" fill-opacity="1"/>
<polyline clip-path="url(#clip332)" style="stroke:#000000; stroke-linecap:round; stroke-linejoin:round; stroke-width:4; stroke-opacity:1; fill:none" points="964.635,271.343 964.635,1423.18 985.667,1423.18 985.667,271.343 964.635,271.343 "/>
<path clip-path="url(#clip332)" d="M985.667 131.255 L985.667 1423.18 L1006.7 1423.18 L1006.7 131.255 L985.667 131.255 L985.667 131.255  Z" fill="#009af9" fill-rule="evenodd" fill-opacity="1"/>
<polyline clip-path="url(#clip332)" style="stroke:#000000; stroke-linecap:round; stroke-linejoin:round; stroke-width:4; stroke-opacity:1; fill:none" points="985.667,131.255 985.667,1423.18 1006.7,1423.18 1006.7,131.255 985.667,131.255 "/>
<path clip-path="url(#clip332)" d="M1006.7 162.386 L1006.7 1423.18 L1027.73 1423.18 L1027.73 162.386 L1006.7 162.386 L1006.7 162.386  Z" fill="#009af9" fill-rule="evenodd" fill-opacity="1"/>
<polyline clip-path="url(#clip332)" style="stroke:#000000; stroke-linecap:round; stroke-linejoin:round; stroke-width:4; stroke-opacity:1; fill:none" points="1006.7,162.386 1006.7,1423.18 1027.73,1423.18 1027.73,162.386 1006.7,162.386 "/>
<path clip-path="url(#clip332)" d="M1027.73 364.735 L1027.73 1423.18 L1048.76 1423.18 L1048.76 364.735 L1027.73 364.735 L1027.73 364.735  Z" fill="#009af9" fill-rule="evenodd" fill-opacity="1"/>
<polyline clip-path="url(#clip332)" style="stroke:#000000; stroke-linecap:round; stroke-linejoin:round; stroke-width:4; stroke-opacity:1; fill:none" points="1027.73,364.735 1027.73,1423.18 1048.76,1423.18 1048.76,364.735 1027.73,364.735 "/>
<path clip-path="url(#clip332)" d="M1048.76 177.951 L1048.76 1423.18 L1069.8 1423.18 L1069.8 177.951 L1048.76 177.951 L1048.76 177.951  Z" fill="#009af9" fill-rule="evenodd" fill-opacity="1"/>
<polyline clip-path="url(#clip332)" style="stroke:#000000; stroke-linecap:round; stroke-linejoin:round; stroke-width:4; stroke-opacity:1; fill:none" points="1048.76,177.951 1048.76,1423.18 1069.8,1423.18 1069.8,177.951 1048.76,177.951 "/>
<path clip-path="url(#clip332)" d="M1069.8 442.562 L1069.8 1423.18 L1090.83 1423.18 L1090.83 442.562 L1069.8 442.562 L1069.8 442.562  Z" fill="#009af9" fill-rule="evenodd" fill-opacity="1"/>
<polyline clip-path="url(#clip332)" style="stroke:#000000; stroke-linecap:round; stroke-linejoin:round; stroke-width:4; stroke-opacity:1; fill:none" points="1069.8,442.562 1069.8,1423.18 1090.83,1423.18 1090.83,442.562 1069.8,442.562 "/>
<path clip-path="url(#clip332)" d="M1090.83 349.17 L1090.83 1423.18 L1111.86 1423.18 L1111.86 349.17 L1090.83 349.17 L1090.83 349.17  Z" fill="#009af9" fill-rule="evenodd" fill-opacity="1"/>
<polyline clip-path="url(#clip332)" style="stroke:#000000; stroke-linecap:round; stroke-linejoin:round; stroke-width:4; stroke-opacity:1; fill:none" points="1090.83,349.17 1090.83,1423.18 1111.86,1423.18 1111.86,349.17 1090.83,349.17 "/>
<path clip-path="url(#clip332)" d="M1111.86 504.823 L1111.86 1423.18 L1132.89 1423.18 L1132.89 504.823 L1111.86 504.823 L1111.86 504.823  Z" fill="#009af9" fill-rule="evenodd" fill-opacity="1"/>
<polyline clip-path="url(#clip332)" style="stroke:#000000; stroke-linecap:round; stroke-linejoin:round; stroke-width:4; stroke-opacity:1; fill:none" points="1111.86,504.823 1111.86,1423.18 1132.89,1423.18 1132.89,504.823 1111.86,504.823 "/>
<path clip-path="url(#clip332)" d="M1132.89 426.997 L1132.89 1423.18 L1153.92 1423.18 L1153.92 426.997 L1132.89 426.997 L1132.89 426.997  Z" fill="#009af9" fill-rule="evenodd" fill-opacity="1"/>
<polyline clip-path="url(#clip332)" style="stroke:#000000; stroke-linecap:round; stroke-linejoin:round; stroke-width:4; stroke-opacity:1; fill:none" points="1132.89,426.997 1132.89,1423.18 1153.92,1423.18 1153.92,426.997 1132.89,426.997 "/>
<path clip-path="url(#clip332)" d="M1153.92 683.825 L1153.92 1423.18 L1174.96 1423.18 L1174.96 683.825 L1153.92 683.825 L1153.92 683.825  Z" fill="#009af9" fill-rule="evenodd" fill-opacity="1"/>
<polyline clip-path="url(#clip332)" style="stroke:#000000; stroke-linecap:round; stroke-linejoin:round; stroke-width:4; stroke-opacity:1; fill:none" points="1153.92,683.825 1153.92,1423.18 1174.96,1423.18 1174.96,683.825 1153.92,683.825 "/>
<path clip-path="url(#clip332)" d="M1174.96 785 L1174.96 1423.18 L1195.99 1423.18 L1195.99 785 L1174.96 785 L1174.96 785  Z" fill="#009af9" fill-rule="evenodd" fill-opacity="1"/>
<polyline clip-path="url(#clip332)" style="stroke:#000000; stroke-linecap:round; stroke-linejoin:round; stroke-width:4; stroke-opacity:1; fill:none" points="1174.96,785 1174.96,1423.18 1195.99,1423.18 1195.99,785 1174.96,785 "/>
<path clip-path="url(#clip332)" d="M1195.99 917.306 L1195.99 1423.18 L1217.02 1423.18 L1217.02 917.306 L1195.99 917.306 L1195.99 917.306  Z" fill="#009af9" fill-rule="evenodd" fill-opacity="1"/>
<polyline clip-path="url(#clip332)" style="stroke:#000000; stroke-linecap:round; stroke-linejoin:round; stroke-width:4; stroke-opacity:1; fill:none" points="1195.99,917.306 1195.99,1423.18 1217.02,1423.18 1217.02,917.306 1195.99,917.306 "/>
<path clip-path="url(#clip332)" d="M1217.02 995.132 L1217.02 1423.18 L1238.05 1423.18 L1238.05 995.132 L1217.02 995.132 L1217.02 995.132  Z" fill="#009af9" fill-rule="evenodd" fill-opacity="1"/>
<polyline clip-path="url(#clip332)" style="stroke:#000000; stroke-linecap:round; stroke-linejoin:round; stroke-width:4; stroke-opacity:1; fill:none" points="1217.02,995.132 1217.02,1423.18 1238.05,1423.18 1238.05,995.132 1217.02,995.132 "/>
<path clip-path="url(#clip332)" d="M1238.05 1119.66 L1238.05 1423.18 L1259.08 1423.18 L1259.08 1119.66 L1238.05 1119.66 L1238.05 1119.66  Z" fill="#009af9" fill-rule="evenodd" fill-opacity="1"/>
<polyline clip-path="url(#clip332)" style="stroke:#000000; stroke-linecap:round; stroke-linejoin:round; stroke-width:4; stroke-opacity:1; fill:none" points="1238.05,1119.66 1238.05,1423.18 1259.08,1423.18 1259.08,1119.66 1238.05,1119.66 "/>
<path clip-path="url(#clip332)" d="M1259.08 1298.66 L1259.08 1423.18 L1280.12 1423.18 L1280.12 1298.66 L1259.08 1298.66 L1259.08 1298.66  Z" fill="#009af9" fill-rule="evenodd" fill-opacity="1"/>
<polyline clip-path="url(#clip332)" style="stroke:#000000; stroke-linecap:round; stroke-linejoin:round; stroke-width:4; stroke-opacity:1; fill:none" points="1259.08,1298.66 1259.08,1423.18 1280.12,1423.18 1280.12,1298.66 1259.08,1298.66 "/>
<path clip-path="url(#clip332)" d="M1280.12 1384.27 L1280.12 1423.18 L1301.15 1423.18 L1301.15 1384.27 L1280.12 1384.27 L1280.12 1384.27  Z" fill="#009af9" fill-rule="evenodd" fill-opacity="1"/>
<polyline clip-path="url(#clip332)" style="stroke:#000000; stroke-linecap:round; stroke-linejoin:round; stroke-width:4; stroke-opacity:1; fill:none" points="1280.12,1384.27 1280.12,1423.18 1301.15,1423.18 1301.15,1384.27 1280.12,1384.27 "/>
<path clip-path="url(#clip332)" d="M1301.15 1368.7 L1301.15 1423.18 L1322.18 1423.18 L1322.18 1368.7 L1301.15 1368.7 L1301.15 1368.7  Z" fill="#009af9" fill-rule="evenodd" fill-opacity="1"/>
<polyline clip-path="url(#clip332)" style="stroke:#000000; stroke-linecap:round; stroke-linejoin:round; stroke-width:4; stroke-opacity:1; fill:none" points="1301.15,1368.7 1301.15,1423.18 1322.18,1423.18 1322.18,1368.7 1301.15,1368.7 "/>
<path clip-path="url(#clip332)" d="M1322.18 1275.31 L1322.18 1423.18 L1343.21 1423.18 L1343.21 1275.31 L1322.18 1275.31 L1322.18 1275.31  Z" fill="#009af9" fill-rule="evenodd" fill-opacity="1"/>
<polyline clip-path="url(#clip332)" style="stroke:#000000; stroke-linecap:round; stroke-linejoin:round; stroke-width:4; stroke-opacity:1; fill:none" points="1322.18,1275.31 1322.18,1423.18 1343.21,1423.18 1343.21,1275.31 1322.18,1275.31 "/>
<path clip-path="url(#clip332)" d="M1343.21 1041.83 L1343.21 1423.18 L1364.25 1423.18 L1364.25 1041.83 L1343.21 1041.83 L1343.21 1041.83  Z" fill="#009af9" fill-rule="evenodd" fill-opacity="1"/>
<polyline clip-path="url(#clip332)" style="stroke:#000000; stroke-linecap:round; stroke-linejoin:round; stroke-width:4; stroke-opacity:1; fill:none" points="1343.21,1041.83 1343.21,1423.18 1364.25,1423.18 1364.25,1041.83 1343.21,1041.83 "/>
<path clip-path="url(#clip332)" d="M1364.25 925.088 L1364.25 1423.18 L1385.28 1423.18 L1385.28 925.088 L1364.25 925.088 L1364.25 925.088  Z" fill="#009af9" fill-rule="evenodd" fill-opacity="1"/>
<polyline clip-path="url(#clip332)" style="stroke:#000000; stroke-linecap:round; stroke-linejoin:round; stroke-width:4; stroke-opacity:1; fill:none" points="1364.25,925.088 1364.25,1423.18 1385.28,1423.18 1385.28,925.088 1364.25,925.088 "/>
<path clip-path="url(#clip332)" d="M1385.28 1041.83 L1385.28 1423.18 L1406.31 1423.18 L1406.31 1041.83 L1385.28 1041.83 L1385.28 1041.83  Z" fill="#009af9" fill-rule="evenodd" fill-opacity="1"/>
<polyline clip-path="url(#clip332)" style="stroke:#000000; stroke-linecap:round; stroke-linejoin:round; stroke-width:4; stroke-opacity:1; fill:none" points="1385.28,1041.83 1385.28,1423.18 1406.31,1423.18 1406.31,1041.83 1385.28,1041.83 "/>
<path clip-path="url(#clip332)" d="M1406.31 746.087 L1406.31 1423.18 L1427.34 1423.18 L1427.34 746.087 L1406.31 746.087 L1406.31 746.087  Z" fill="#009af9" fill-rule="evenodd" fill-opacity="1"/>
<polyline clip-path="url(#clip332)" style="stroke:#000000; stroke-linecap:round; stroke-linejoin:round; stroke-width:4; stroke-opacity:1; fill:none" points="1406.31,746.087 1406.31,1423.18 1427.34,1423.18 1427.34,746.087 1406.31,746.087 "/>
<path clip-path="url(#clip332)" d="M1427.34 605.998 L1427.34 1423.18 L1448.37 1423.18 L1448.37 605.998 L1427.34 605.998 L1427.34 605.998  Z" fill="#009af9" fill-rule="evenodd" fill-opacity="1"/>
<polyline clip-path="url(#clip332)" style="stroke:#000000; stroke-linecap:round; stroke-linejoin:round; stroke-width:4; stroke-opacity:1; fill:none" points="1427.34,605.998 1427.34,1423.18 1448.37,1423.18 1448.37,605.998 1427.34,605.998 "/>
<path clip-path="url(#clip332)" d="M1448.37 613.781 L1448.37 1423.18 L1469.41 1423.18 L1469.41 613.781 L1448.37 613.781 L1448.37 613.781  Z" fill="#009af9" fill-rule="evenodd" fill-opacity="1"/>
<polyline clip-path="url(#clip332)" style="stroke:#000000; stroke-linecap:round; stroke-linejoin:round; stroke-width:4; stroke-opacity:1; fill:none" points="1448.37,613.781 1448.37,1423.18 1469.41,1423.18 1469.41,613.781 1448.37,613.781 "/>
<path clip-path="url(#clip332)" d="M1469.41 644.912 L1469.41 1423.18 L1490.44 1423.18 L1490.44 644.912 L1469.41 644.912 L1469.41 644.912  Z" fill="#009af9" fill-rule="evenodd" fill-opacity="1"/>
<polyline clip-path="url(#clip332)" style="stroke:#000000; stroke-linecap:round; stroke-linejoin:round; stroke-width:4; stroke-opacity:1; fill:none" points="1469.41,644.912 1469.41,1423.18 1490.44,1423.18 1490.44,644.912 1469.41,644.912 "/>
<path clip-path="url(#clip332)" d="M1490.44 426.997 L1490.44 1423.18 L1511.47 1423.18 L1511.47 426.997 L1490.44 426.997 L1490.44 426.997  Z" fill="#009af9" fill-rule="evenodd" fill-opacity="1"/>
<polyline clip-path="url(#clip332)" style="stroke:#000000; stroke-linecap:round; stroke-linejoin:round; stroke-width:4; stroke-opacity:1; fill:none" points="1490.44,426.997 1490.44,1423.18 1511.47,1423.18 1511.47,426.997 1490.44,426.997 "/>
<path clip-path="url(#clip332)" d="M1511.47 434.779 L1511.47 1423.18 L1532.5 1423.18 L1532.5 434.779 L1511.47 434.779 L1511.47 434.779  Z" fill="#009af9" fill-rule="evenodd" fill-opacity="1"/>
<polyline clip-path="url(#clip332)" style="stroke:#000000; stroke-linecap:round; stroke-linejoin:round; stroke-width:4; stroke-opacity:1; fill:none" points="1511.47,434.779 1511.47,1423.18 1532.5,1423.18 1532.5,434.779 1511.47,434.779 "/>
<path clip-path="url(#clip332)" d="M1532.5 271.343 L1532.5 1423.18 L1553.53 1423.18 L1553.53 271.343 L1532.5 271.343 L1532.5 271.343  Z" fill="#009af9" fill-rule="evenodd" fill-opacity="1"/>
<polyline clip-path="url(#clip332)" style="stroke:#000000; stroke-linecap:round; stroke-linejoin:round; stroke-width:4; stroke-opacity:1; fill:none" points="1532.5,271.343 1532.5,1423.18 1553.53,1423.18 1553.53,271.343 1532.5,271.343 "/>
<path clip-path="url(#clip332)" d="M1553.53 271.343 L1553.53 1423.18 L1574.57 1423.18 L1574.57 271.343 L1553.53 271.343 L1553.53 271.343  Z" fill="#009af9" fill-rule="evenodd" fill-opacity="1"/>
<polyline clip-path="url(#clip332)" style="stroke:#000000; stroke-linecap:round; stroke-linejoin:round; stroke-width:4; stroke-opacity:1; fill:none" points="1553.53,271.343 1553.53,1423.18 1574.57,1423.18 1574.57,271.343 1553.53,271.343 "/>
<path clip-path="url(#clip332)" d="M1574.57 193.516 L1574.57 1423.18 L1595.6 1423.18 L1595.6 193.516 L1574.57 193.516 L1574.57 193.516  Z" fill="#009af9" fill-rule="evenodd" fill-opacity="1"/>
<polyline clip-path="url(#clip332)" style="stroke:#000000; stroke-linecap:round; stroke-linejoin:round; stroke-width:4; stroke-opacity:1; fill:none" points="1574.57,193.516 1574.57,1423.18 1595.6,1423.18 1595.6,193.516 1574.57,193.516 "/>
<path clip-path="url(#clip332)" d="M1595.6 341.387 L1595.6 1423.18 L1616.63 1423.18 L1616.63 341.387 L1595.6 341.387 L1595.6 341.387  Z" fill="#009af9" fill-rule="evenodd" fill-opacity="1"/>
<polyline clip-path="url(#clip332)" style="stroke:#000000; stroke-linecap:round; stroke-linejoin:round; stroke-width:4; stroke-opacity:1; fill:none" points="1595.6,341.387 1595.6,1423.18 1616.63,1423.18 1616.63,341.387 1595.6,341.387 "/>
<path clip-path="url(#clip332)" d="M1616.63 364.735 L1616.63 1423.18 L1637.66 1423.18 L1637.66 364.735 L1616.63 364.735 L1616.63 364.735  Z" fill="#009af9" fill-rule="evenodd" fill-opacity="1"/>
<polyline clip-path="url(#clip332)" style="stroke:#000000; stroke-linecap:round; stroke-linejoin:round; stroke-width:4; stroke-opacity:1; fill:none" points="1616.63,364.735 1616.63,1423.18 1637.66,1423.18 1637.66,364.735 1616.63,364.735 "/>
<path clip-path="url(#clip332)" d="M1637.66 286.908 L1637.66 1423.18 L1658.7 1423.18 L1658.7 286.908 L1637.66 286.908 L1637.66 286.908  Z" fill="#009af9" fill-rule="evenodd" fill-opacity="1"/>
<polyline clip-path="url(#clip332)" style="stroke:#000000; stroke-linecap:round; stroke-linejoin:round; stroke-width:4; stroke-opacity:1; fill:none" points="1637.66,286.908 1637.66,1423.18 1658.7,1423.18 1658.7,286.908 1637.66,286.908 "/>
<path clip-path="url(#clip332)" d="M1658.7 162.386 L1658.7 1423.18 L1679.73 1423.18 L1679.73 162.386 L1658.7 162.386 L1658.7 162.386  Z" fill="#009af9" fill-rule="evenodd" fill-opacity="1"/>
<polyline clip-path="url(#clip332)" style="stroke:#000000; stroke-linecap:round; stroke-linejoin:round; stroke-width:4; stroke-opacity:1; fill:none" points="1658.7,162.386 1658.7,1423.18 1679.73,1423.18 1679.73,162.386 1658.7,162.386 "/>
<path clip-path="url(#clip332)" d="M1679.73 255.778 L1679.73 1423.18 L1700.76 1423.18 L1700.76 255.778 L1679.73 255.778 L1679.73 255.778  Z" fill="#009af9" fill-rule="evenodd" fill-opacity="1"/>
<polyline clip-path="url(#clip332)" style="stroke:#000000; stroke-linecap:round; stroke-linejoin:round; stroke-width:4; stroke-opacity:1; fill:none" points="1679.73,255.778 1679.73,1423.18 1700.76,1423.18 1700.76,255.778 1679.73,255.778 "/>
<path clip-path="url(#clip332)" d="M1700.76 411.431 L1700.76 1423.18 L1721.79 1423.18 L1721.79 411.431 L1700.76 411.431 L1700.76 411.431  Z" fill="#009af9" fill-rule="evenodd" fill-opacity="1"/>
<polyline clip-path="url(#clip332)" style="stroke:#000000; stroke-linecap:round; stroke-linejoin:round; stroke-width:4; stroke-opacity:1; fill:none" points="1700.76,411.431 1700.76,1423.18 1721.79,1423.18 1721.79,411.431 1700.76,411.431 "/>
<path clip-path="url(#clip332)" d="M1721.79 279.126 L1721.79 1423.18 L1742.82 1423.18 L1742.82 279.126 L1721.79 279.126 L1721.79 279.126  Z" fill="#009af9" fill-rule="evenodd" fill-opacity="1"/>
<polyline clip-path="url(#clip332)" style="stroke:#000000; stroke-linecap:round; stroke-linejoin:round; stroke-width:4; stroke-opacity:1; fill:none" points="1721.79,279.126 1721.79,1423.18 1742.82,1423.18 1742.82,279.126 1721.79,279.126 "/>
<path clip-path="url(#clip332)" d="M1742.82 551.52 L1742.82 1423.18 L1763.86 1423.18 L1763.86 551.52 L1742.82 551.52 L1742.82 551.52  Z" fill="#009af9" fill-rule="evenodd" fill-opacity="1"/>
<polyline clip-path="url(#clip332)" style="stroke:#000000; stroke-linecap:round; stroke-linejoin:round; stroke-width:4; stroke-opacity:1; fill:none" points="1742.82,551.52 1742.82,1423.18 1763.86,1423.18 1763.86,551.52 1742.82,551.52 "/>
<path clip-path="url(#clip332)" d="M1763.86 512.606 L1763.86 1423.18 L1784.89 1423.18 L1784.89 512.606 L1763.86 512.606 L1763.86 512.606  Z" fill="#009af9" fill-rule="evenodd" fill-opacity="1"/>
<polyline clip-path="url(#clip332)" style="stroke:#000000; stroke-linecap:round; stroke-linejoin:round; stroke-width:4; stroke-opacity:1; fill:none" points="1763.86,512.606 1763.86,1423.18 1784.89,1423.18 1784.89,512.606 1763.86,512.606 "/>
<path clip-path="url(#clip332)" d="M1784.89 668.26 L1784.89 1423.18 L1805.92 1423.18 L1805.92 668.26 L1784.89 668.26 L1784.89 668.26  Z" fill="#009af9" fill-rule="evenodd" fill-opacity="1"/>
<polyline clip-path="url(#clip332)" style="stroke:#000000; stroke-linecap:round; stroke-linejoin:round; stroke-width:4; stroke-opacity:1; fill:none" points="1784.89,668.26 1784.89,1423.18 1805.92,1423.18 1805.92,668.26 1784.89,668.26 "/>
<path clip-path="url(#clip332)" d="M1805.92 637.129 L1805.92 1423.18 L1826.95 1423.18 L1826.95 637.129 L1805.92 637.129 L1805.92 637.129  Z" fill="#009af9" fill-rule="evenodd" fill-opacity="1"/>
<polyline clip-path="url(#clip332)" style="stroke:#000000; stroke-linecap:round; stroke-linejoin:round; stroke-width:4; stroke-opacity:1; fill:none" points="1805.92,637.129 1805.92,1423.18 1826.95,1423.18 1826.95,637.129 1805.92,637.129 "/>
<path clip-path="url(#clip332)" d="M1826.95 831.696 L1826.95 1423.18 L1847.98 1423.18 L1847.98 831.696 L1826.95 831.696 L1826.95 831.696  Z" fill="#009af9" fill-rule="evenodd" fill-opacity="1"/>
<polyline clip-path="url(#clip332)" style="stroke:#000000; stroke-linecap:round; stroke-linejoin:round; stroke-width:4; stroke-opacity:1; fill:none" points="1826.95,831.696 1826.95,1423.18 1847.98,1423.18 1847.98,831.696 1826.95,831.696 "/>
<path clip-path="url(#clip332)" d="M1847.98 816.131 L1847.98 1423.18 L1869.02 1423.18 L1869.02 816.131 L1847.98 816.131 L1847.98 816.131  Z" fill="#009af9" fill-rule="evenodd" fill-opacity="1"/>
<polyline clip-path="url(#clip332)" style="stroke:#000000; stroke-linecap:round; stroke-linejoin:round; stroke-width:4; stroke-opacity:1; fill:none" points="1847.98,816.131 1847.98,1423.18 1869.02,1423.18 1869.02,816.131 1847.98,816.131 "/>
<path clip-path="url(#clip332)" d="M1869.02 1065.18 L1869.02 1423.18 L1890.05 1423.18 L1890.05 1065.18 L1869.02 1065.18 L1869.02 1065.18  Z" fill="#009af9" fill-rule="evenodd" fill-opacity="1"/>
<polyline clip-path="url(#clip332)" style="stroke:#000000; stroke-linecap:round; stroke-linejoin:round; stroke-width:4; stroke-opacity:1; fill:none" points="1869.02,1065.18 1869.02,1423.18 1890.05,1423.18 1890.05,1065.18 1869.02,1065.18 "/>
<path clip-path="url(#clip332)" d="M1890.05 1119.66 L1890.05 1423.18 L1911.08 1423.18 L1911.08 1119.66 L1890.05 1119.66 L1890.05 1119.66  Z" fill="#009af9" fill-rule="evenodd" fill-opacity="1"/>
<polyline clip-path="url(#clip332)" style="stroke:#000000; stroke-linecap:round; stroke-linejoin:round; stroke-width:4; stroke-opacity:1; fill:none" points="1890.05,1119.66 1890.05,1423.18 1911.08,1423.18 1911.08,1119.66 1890.05,1119.66 "/>
<path clip-path="url(#clip332)" d="M1911.08 1251.96 L1911.08 1423.18 L1932.11 1423.18 L1932.11 1251.96 L1911.08 1251.96 L1911.08 1251.96  Z" fill="#009af9" fill-rule="evenodd" fill-opacity="1"/>
<polyline clip-path="url(#clip332)" style="stroke:#000000; stroke-linecap:round; stroke-linejoin:round; stroke-width:4; stroke-opacity:1; fill:none" points="1911.08,1251.96 1911.08,1423.18 1932.11,1423.18 1932.11,1251.96 1911.08,1251.96 "/>
<path clip-path="url(#clip332)" d="M1932.11 1314.22 L1932.11 1423.18 L1953.15 1423.18 L1953.15 1314.22 L1932.11 1314.22 L1932.11 1314.22  Z" fill="#009af9" fill-rule="evenodd" fill-opacity="1"/>
<polyline clip-path="url(#clip332)" style="stroke:#000000; stroke-linecap:round; stroke-linejoin:round; stroke-width:4; stroke-opacity:1; fill:none" points="1932.11,1314.22 1932.11,1423.18 1953.15,1423.18 1953.15,1314.22 1932.11,1314.22 "/>
<path clip-path="url(#clip332)" d="M1953.15 1392.05 L1953.15 1423.18 L1974.18 1423.18 L1974.18 1392.05 L1953.15 1392.05 L1953.15 1392.05  Z" fill="#009af9" fill-rule="evenodd" fill-opacity="1"/>
<polyline clip-path="url(#clip332)" style="stroke:#000000; stroke-linecap:round; stroke-linejoin:round; stroke-width:4; stroke-opacity:1; fill:none" points="1953.15,1392.05 1953.15,1423.18 1974.18,1423.18 1974.18,1392.05 1953.15,1392.05 "/>
<path clip-path="url(#clip332)" d="M1974.18 1306.44 L1974.18 1423.18 L1995.21 1423.18 L1995.21 1306.44 L1974.18 1306.44 L1974.18 1306.44  Z" fill="#009af9" fill-rule="evenodd" fill-opacity="1"/>
<polyline clip-path="url(#clip332)" style="stroke:#000000; stroke-linecap:round; stroke-linejoin:round; stroke-width:4; stroke-opacity:1; fill:none" points="1974.18,1306.44 1974.18,1423.18 1995.21,1423.18 1995.21,1306.44 1974.18,1306.44 "/>
<path clip-path="url(#clip332)" d="M1995.21 1158.57 L1995.21 1423.18 L2016.24 1423.18 L2016.24 1158.57 L1995.21 1158.57 L1995.21 1158.57  Z" fill="#009af9" fill-rule="evenodd" fill-opacity="1"/>
<polyline clip-path="url(#clip332)" style="stroke:#000000; stroke-linecap:round; stroke-linejoin:round; stroke-width:4; stroke-opacity:1; fill:none" points="1995.21,1158.57 1995.21,1423.18 2016.24,1423.18 2016.24,1158.57 1995.21,1158.57 "/>
<path clip-path="url(#clip332)" d="M2016.24 1049.61 L2016.24 1423.18 L2037.27 1423.18 L2037.27 1049.61 L2016.24 1049.61 L2016.24 1049.61  Z" fill="#009af9" fill-rule="evenodd" fill-opacity="1"/>
<polyline clip-path="url(#clip332)" style="stroke:#000000; stroke-linecap:round; stroke-linejoin:round; stroke-width:4; stroke-opacity:1; fill:none" points="2016.24,1049.61 2016.24,1423.18 2037.27,1423.18 2037.27,1049.61 2016.24,1049.61 "/>
<path clip-path="url(#clip332)" d="M2037.27 925.088 L2037.27 1423.18 L2058.31 1423.18 L2058.31 925.088 L2037.27 925.088 L2037.27 925.088  Z" fill="#009af9" fill-rule="evenodd" fill-opacity="1"/>
<polyline clip-path="url(#clip332)" style="stroke:#000000; stroke-linecap:round; stroke-linejoin:round; stroke-width:4; stroke-opacity:1; fill:none" points="2037.27,925.088 2037.27,1423.18 2058.31,1423.18 2058.31,925.088 2037.27,925.088 "/>
<path clip-path="url(#clip332)" d="M2058.31 870.609 L2058.31 1423.18 L2079.34 1423.18 L2079.34 870.609 L2058.31 870.609 L2058.31 870.609  Z" fill="#009af9" fill-rule="evenodd" fill-opacity="1"/>
<polyline clip-path="url(#clip332)" style="stroke:#000000; stroke-linecap:round; stroke-linejoin:round; stroke-width:4; stroke-opacity:1; fill:none" points="2058.31,870.609 2058.31,1423.18 2079.34,1423.18 2079.34,870.609 2058.31,870.609 "/>
<path clip-path="url(#clip332)" d="M2079.34 683.825 L2079.34 1423.18 L2100.37 1423.18 L2100.37 683.825 L2079.34 683.825 L2079.34 683.825  Z" fill="#009af9" fill-rule="evenodd" fill-opacity="1"/>
<polyline clip-path="url(#clip332)" style="stroke:#000000; stroke-linecap:round; stroke-linejoin:round; stroke-width:4; stroke-opacity:1; fill:none" points="2079.34,683.825 2079.34,1423.18 2100.37,1423.18 2100.37,683.825 2079.34,683.825 "/>
<path clip-path="url(#clip332)" d="M2100.37 668.26 L2100.37 1423.18 L2121.4 1423.18 L2121.4 668.26 L2100.37 668.26 L2100.37 668.26  Z" fill="#009af9" fill-rule="evenodd" fill-opacity="1"/>
<polyline clip-path="url(#clip332)" style="stroke:#000000; stroke-linecap:round; stroke-linejoin:round; stroke-width:4; stroke-opacity:1; fill:none" points="2100.37,668.26 2100.37,1423.18 2121.4,1423.18 2121.4,668.26 2100.37,668.26 "/>
<path clip-path="url(#clip332)" d="M2121.4 707.173 L2121.4 1423.18 L2142.43 1423.18 L2142.43 707.173 L2121.4 707.173 L2121.4 707.173  Z" fill="#009af9" fill-rule="evenodd" fill-opacity="1"/>
<polyline clip-path="url(#clip332)" style="stroke:#000000; stroke-linecap:round; stroke-linejoin:round; stroke-width:4; stroke-opacity:1; fill:none" points="2121.4,707.173 2121.4,1423.18 2142.43,1423.18 2142.43,707.173 2121.4,707.173 "/>
<path clip-path="url(#clip332)" d="M2142.43 465.91 L2142.43 1423.18 L2163.47 1423.18 L2163.47 465.91 L2142.43 465.91 L2142.43 465.91  Z" fill="#009af9" fill-rule="evenodd" fill-opacity="1"/>
<polyline clip-path="url(#clip332)" style="stroke:#000000; stroke-linecap:round; stroke-linejoin:round; stroke-width:4; stroke-opacity:1; fill:none" points="2142.43,465.91 2142.43,1423.18 2163.47,1423.18 2163.47,465.91 2142.43,465.91 "/>
<path clip-path="url(#clip332)" d="M2163.47 434.779 L2163.47 1423.18 L2184.5 1423.18 L2184.5 434.779 L2163.47 434.779 L2163.47 434.779  Z" fill="#009af9" fill-rule="evenodd" fill-opacity="1"/>
<polyline clip-path="url(#clip332)" style="stroke:#000000; stroke-linecap:round; stroke-linejoin:round; stroke-width:4; stroke-opacity:1; fill:none" points="2163.47,434.779 2163.47,1423.18 2184.5,1423.18 2184.5,434.779 2163.47,434.779 "/>
<path clip-path="url(#clip332)" d="M2184.5 341.387 L2184.5 1423.18 L2205.53 1423.18 L2205.53 341.387 L2184.5 341.387 L2184.5 341.387  Z" fill="#009af9" fill-rule="evenodd" fill-opacity="1"/>
<polyline clip-path="url(#clip332)" style="stroke:#000000; stroke-linecap:round; stroke-linejoin:round; stroke-width:4; stroke-opacity:1; fill:none" points="2184.5,341.387 2184.5,1423.18 2205.53,1423.18 2205.53,341.387 2184.5,341.387 "/>
<path clip-path="url(#clip332)" d="M2205.53 310.256 L2205.53 1423.18 L2226.56 1423.18 L2226.56 310.256 L2205.53 310.256 L2205.53 310.256  Z" fill="#009af9" fill-rule="evenodd" fill-opacity="1"/>
<polyline clip-path="url(#clip332)" style="stroke:#000000; stroke-linecap:round; stroke-linejoin:round; stroke-width:4; stroke-opacity:1; fill:none" points="2205.53,310.256 2205.53,1423.18 2226.56,1423.18 2226.56,310.256 2205.53,310.256 "/>
<path clip-path="url(#clip332)" d="M2226.56 434.779 L2226.56 1423.18 L2247.6 1423.18 L2247.6 434.779 L2226.56 434.779 L2226.56 434.779  Z" fill="#009af9" fill-rule="evenodd" fill-opacity="1"/>
<polyline clip-path="url(#clip332)" style="stroke:#000000; stroke-linecap:round; stroke-linejoin:round; stroke-width:4; stroke-opacity:1; fill:none" points="2226.56,434.779 2226.56,1423.18 2247.6,1423.18 2247.6,434.779 2226.56,434.779 "/>
<path clip-path="url(#clip332)" d="M2247.6 388.083 L2247.6 1423.18 L2268.63 1423.18 L2268.63 388.083 L2247.6 388.083 L2247.6 388.083  Z" fill="#009af9" fill-rule="evenodd" fill-opacity="1"/>
<polyline clip-path="url(#clip332)" style="stroke:#000000; stroke-linecap:round; stroke-linejoin:round; stroke-width:4; stroke-opacity:1; fill:none" points="2247.6,388.083 2247.6,1423.18 2268.63,1423.18 2268.63,388.083 2247.6,388.083 "/>
<path clip-path="url(#clip332)" d="M2268.63 294.691 L2268.63 1423.18 L2289.66 1423.18 L2289.66 294.691 L2268.63 294.691 L2268.63 294.691  Z" fill="#009af9" fill-rule="evenodd" fill-opacity="1"/>
<polyline clip-path="url(#clip332)" style="stroke:#000000; stroke-linecap:round; stroke-linejoin:round; stroke-width:4; stroke-opacity:1; fill:none" points="2268.63,294.691 2268.63,1423.18 2289.66,1423.18 2289.66,294.691 2268.63,294.691 "/>
<path clip-path="url(#clip332)" d="M2289.66 123.472 L2289.66 1423.18 L2310.69 1423.18 L2310.69 123.472 L2289.66 123.472 L2289.66 123.472  Z" fill="#009af9" fill-rule="evenodd" fill-opacity="1"/>
<polyline clip-path="url(#clip332)" style="stroke:#000000; stroke-linecap:round; stroke-linejoin:round; stroke-width:4; stroke-opacity:1; fill:none" points="2289.66,123.472 2289.66,1423.18 2310.69,1423.18 2310.69,123.472 2289.66,123.472 "/>
<path clip-path="url(#clip332)" d="M2310.69 349.17 L2310.69 1423.18 L2331.72 1423.18 L2331.72 349.17 L2310.69 349.17 L2310.69 349.17  Z" fill="#009af9" fill-rule="evenodd" fill-opacity="1"/>
<polyline clip-path="url(#clip332)" style="stroke:#000000; stroke-linecap:round; stroke-linejoin:round; stroke-width:4; stroke-opacity:1; fill:none" points="2310.69,349.17 2310.69,1423.18 2331.72,1423.18 2331.72,349.17 2310.69,349.17 "/>
<path clip-path="url(#clip332)" d="M2331.72 325.822 L2331.72 1423.18 L2352.76 1423.18 L2352.76 325.822 L2331.72 325.822 L2331.72 325.822  Z" fill="#009af9" fill-rule="evenodd" fill-opacity="1"/>
<polyline clip-path="url(#clip332)" style="stroke:#000000; stroke-linecap:round; stroke-linejoin:round; stroke-width:4; stroke-opacity:1; fill:none" points="2331.72,325.822 2331.72,1423.18 2352.76,1423.18 2352.76,325.822 2331.72,325.822 "/>
<circle clip-path="url(#clip332)" style="fill:#009af9; stroke:none; fill-opacity:0" cx="260.058" cy="224.647" r="2"/>
<circle clip-path="url(#clip332)" style="fill:#009af9; stroke:none; fill-opacity:0" cx="281.09" cy="341.387" r="2"/>
<circle clip-path="url(#clip332)" style="fill:#009af9; stroke:none; fill-opacity:0" cx="302.122" cy="193.516" r="2"/>
<circle clip-path="url(#clip332)" style="fill:#009af9; stroke:none; fill-opacity:0" cx="323.155" cy="224.647" r="2"/>
<circle clip-path="url(#clip332)" style="fill:#009af9; stroke:none; fill-opacity:0" cx="344.187" cy="146.82" r="2"/>
<circle clip-path="url(#clip332)" style="fill:#009af9; stroke:none; fill-opacity:0" cx="365.219" cy="318.039" r="2"/>
<circle clip-path="url(#clip332)" style="fill:#009af9; stroke:none; fill-opacity:0" cx="386.251" cy="380.301" r="2"/>
<circle clip-path="url(#clip332)" style="fill:#009af9; stroke:none; fill-opacity:0" cx="407.283" cy="341.387" r="2"/>
<circle clip-path="url(#clip332)" style="fill:#009af9; stroke:none; fill-opacity:0" cx="428.315" cy="380.301" r="2"/>
<circle clip-path="url(#clip332)" style="fill:#009af9; stroke:none; fill-opacity:0" cx="449.347" cy="520.389" r="2"/>
<circle clip-path="url(#clip332)" style="fill:#009af9; stroke:none; fill-opacity:0" cx="470.379" cy="598.216" r="2"/>
<circle clip-path="url(#clip332)" style="fill:#009af9; stroke:none; fill-opacity:0" cx="491.412" cy="668.26" r="2"/>
<circle clip-path="url(#clip332)" style="fill:#009af9; stroke:none; fill-opacity:0" cx="512.444" cy="722.739" r="2"/>
<circle clip-path="url(#clip332)" style="fill:#009af9; stroke:none; fill-opacity:0" cx="533.476" cy="808.348" r="2"/>
<circle clip-path="url(#clip332)" style="fill:#009af9; stroke:none; fill-opacity:0" cx="554.508" cy="956.219" r="2"/>
<circle clip-path="url(#clip332)" style="fill:#009af9; stroke:none; fill-opacity:0" cx="575.54" cy="1010.7" r="2"/>
<circle clip-path="url(#clip332)" style="fill:#009af9; stroke:none; fill-opacity:0" cx="596.572" cy="1205.26" r="2"/>
<circle clip-path="url(#clip332)" style="fill:#009af9; stroke:none; fill-opacity:0" cx="617.604" cy="1298.66" r="2"/>
<circle clip-path="url(#clip332)" style="fill:#009af9; stroke:none; fill-opacity:0" cx="638.637" cy="1399.83" r="2"/>
<circle clip-path="url(#clip332)" style="fill:#009af9; stroke:none; fill-opacity:0" cx="659.669" cy="1329.79" r="2"/>
<circle clip-path="url(#clip332)" style="fill:#009af9; stroke:none; fill-opacity:0" cx="680.701" cy="1236.4" r="2"/>
<circle clip-path="url(#clip332)" style="fill:#009af9; stroke:none; fill-opacity:0" cx="701.733" cy="1026.26" r="2"/>
<circle clip-path="url(#clip332)" style="fill:#009af9; stroke:none; fill-opacity:0" cx="722.765" cy="925.088" r="2"/>
<circle clip-path="url(#clip332)" style="fill:#009af9; stroke:none; fill-opacity:0" cx="743.797" cy="971.784" r="2"/>
<circle clip-path="url(#clip332)" style="fill:#009af9; stroke:none; fill-opacity:0" cx="764.829" cy="792.783" r="2"/>
<circle clip-path="url(#clip332)" style="fill:#009af9; stroke:none; fill-opacity:0" cx="785.862" cy="621.564" r="2"/>
<circle clip-path="url(#clip332)" style="fill:#009af9; stroke:none; fill-opacity:0" cx="806.894" cy="613.781" r="2"/>
<circle clip-path="url(#clip332)" style="fill:#009af9; stroke:none; fill-opacity:0" cx="827.926" cy="512.606" r="2"/>
<circle clip-path="url(#clip332)" style="fill:#009af9; stroke:none; fill-opacity:0" cx="848.958" cy="364.735" r="2"/>
<circle clip-path="url(#clip332)" style="fill:#009af9; stroke:none; fill-opacity:0" cx="869.99" cy="302.474" r="2"/>
<circle clip-path="url(#clip332)" style="fill:#009af9; stroke:none; fill-opacity:0" cx="891.022" cy="302.474" r="2"/>
<circle clip-path="url(#clip332)" style="fill:#009af9; stroke:none; fill-opacity:0" cx="912.054" cy="372.518" r="2"/>
<circle clip-path="url(#clip332)" style="fill:#009af9; stroke:none; fill-opacity:0" cx="933.087" cy="224.647" r="2"/>
<circle clip-path="url(#clip332)" style="fill:#009af9; stroke:none; fill-opacity:0" cx="954.119" cy="177.951" r="2"/>
<circle clip-path="url(#clip332)" style="fill:#009af9; stroke:none; fill-opacity:0" cx="975.151" cy="271.343" r="2"/>
<circle clip-path="url(#clip332)" style="fill:#009af9; stroke:none; fill-opacity:0" cx="996.183" cy="131.255" r="2"/>
<circle clip-path="url(#clip332)" style="fill:#009af9; stroke:none; fill-opacity:0" cx="1017.22" cy="162.386" r="2"/>
<circle clip-path="url(#clip332)" style="fill:#009af9; stroke:none; fill-opacity:0" cx="1038.25" cy="364.735" r="2"/>
<circle clip-path="url(#clip332)" style="fill:#009af9; stroke:none; fill-opacity:0" cx="1059.28" cy="177.951" r="2"/>
<circle clip-path="url(#clip332)" style="fill:#009af9; stroke:none; fill-opacity:0" cx="1080.31" cy="442.562" r="2"/>
<circle clip-path="url(#clip332)" style="fill:#009af9; stroke:none; fill-opacity:0" cx="1101.34" cy="349.17" r="2"/>
<circle clip-path="url(#clip332)" style="fill:#009af9; stroke:none; fill-opacity:0" cx="1122.38" cy="504.823" r="2"/>
<circle clip-path="url(#clip332)" style="fill:#009af9; stroke:none; fill-opacity:0" cx="1143.41" cy="426.997" r="2"/>
<circle clip-path="url(#clip332)" style="fill:#009af9; stroke:none; fill-opacity:0" cx="1164.44" cy="683.825" r="2"/>
<circle clip-path="url(#clip332)" style="fill:#009af9; stroke:none; fill-opacity:0" cx="1185.47" cy="785" r="2"/>
<circle clip-path="url(#clip332)" style="fill:#009af9; stroke:none; fill-opacity:0" cx="1206.5" cy="917.306" r="2"/>
<circle clip-path="url(#clip332)" style="fill:#009af9; stroke:none; fill-opacity:0" cx="1227.54" cy="995.132" r="2"/>
<circle clip-path="url(#clip332)" style="fill:#009af9; stroke:none; fill-opacity:0" cx="1248.57" cy="1119.66" r="2"/>
<circle clip-path="url(#clip332)" style="fill:#009af9; stroke:none; fill-opacity:0" cx="1269.6" cy="1298.66" r="2"/>
<circle clip-path="url(#clip332)" style="fill:#009af9; stroke:none; fill-opacity:0" cx="1290.63" cy="1384.27" r="2"/>
<circle clip-path="url(#clip332)" style="fill:#009af9; stroke:none; fill-opacity:0" cx="1311.67" cy="1368.7" r="2"/>
<circle clip-path="url(#clip332)" style="fill:#009af9; stroke:none; fill-opacity:0" cx="1332.7" cy="1275.31" r="2"/>
<circle clip-path="url(#clip332)" style="fill:#009af9; stroke:none; fill-opacity:0" cx="1353.73" cy="1041.83" r="2"/>
<circle clip-path="url(#clip332)" style="fill:#009af9; stroke:none; fill-opacity:0" cx="1374.76" cy="925.088" r="2"/>
<circle clip-path="url(#clip332)" style="fill:#009af9; stroke:none; fill-opacity:0" cx="1395.79" cy="1041.83" r="2"/>
<circle clip-path="url(#clip332)" style="fill:#009af9; stroke:none; fill-opacity:0" cx="1416.83" cy="746.087" r="2"/>
<circle clip-path="url(#clip332)" style="fill:#009af9; stroke:none; fill-opacity:0" cx="1437.86" cy="605.998" r="2"/>
<circle clip-path="url(#clip332)" style="fill:#009af9; stroke:none; fill-opacity:0" cx="1458.89" cy="613.781" r="2"/>
<circle clip-path="url(#clip332)" style="fill:#009af9; stroke:none; fill-opacity:0" cx="1479.92" cy="644.912" r="2"/>
<circle clip-path="url(#clip332)" style="fill:#009af9; stroke:none; fill-opacity:0" cx="1500.95" cy="426.997" r="2"/>
<circle clip-path="url(#clip332)" style="fill:#009af9; stroke:none; fill-opacity:0" cx="1521.99" cy="434.779" r="2"/>
<circle clip-path="url(#clip332)" style="fill:#009af9; stroke:none; fill-opacity:0" cx="1543.02" cy="271.343" r="2"/>
<circle clip-path="url(#clip332)" style="fill:#009af9; stroke:none; fill-opacity:0" cx="1564.05" cy="271.343" r="2"/>
<circle clip-path="url(#clip332)" style="fill:#009af9; stroke:none; fill-opacity:0" cx="1585.08" cy="193.516" r="2"/>
<circle clip-path="url(#clip332)" style="fill:#009af9; stroke:none; fill-opacity:0" cx="1606.11" cy="341.387" r="2"/>
<circle clip-path="url(#clip332)" style="fill:#009af9; stroke:none; fill-opacity:0" cx="1627.15" cy="364.735" r="2"/>
<circle clip-path="url(#clip332)" style="fill:#009af9; stroke:none; fill-opacity:0" cx="1648.18" cy="286.908" r="2"/>
<circle clip-path="url(#clip332)" style="fill:#009af9; stroke:none; fill-opacity:0" cx="1669.21" cy="162.386" r="2"/>
<circle clip-path="url(#clip332)" style="fill:#009af9; stroke:none; fill-opacity:0" cx="1690.24" cy="255.778" r="2"/>
<circle clip-path="url(#clip332)" style="fill:#009af9; stroke:none; fill-opacity:0" cx="1711.28" cy="411.431" r="2"/>
<circle clip-path="url(#clip332)" style="fill:#009af9; stroke:none; fill-opacity:0" cx="1732.31" cy="279.126" r="2"/>
<circle clip-path="url(#clip332)" style="fill:#009af9; stroke:none; fill-opacity:0" cx="1753.34" cy="551.52" r="2"/>
<circle clip-path="url(#clip332)" style="fill:#009af9; stroke:none; fill-opacity:0" cx="1774.37" cy="512.606" r="2"/>
<circle clip-path="url(#clip332)" style="fill:#009af9; stroke:none; fill-opacity:0" cx="1795.4" cy="668.26" r="2"/>
<circle clip-path="url(#clip332)" style="fill:#009af9; stroke:none; fill-opacity:0" cx="1816.44" cy="637.129" r="2"/>
<circle clip-path="url(#clip332)" style="fill:#009af9; stroke:none; fill-opacity:0" cx="1837.47" cy="831.696" r="2"/>
<circle clip-path="url(#clip332)" style="fill:#009af9; stroke:none; fill-opacity:0" cx="1858.5" cy="816.131" r="2"/>
<circle clip-path="url(#clip332)" style="fill:#009af9; stroke:none; fill-opacity:0" cx="1879.53" cy="1065.18" r="2"/>
<circle clip-path="url(#clip332)" style="fill:#009af9; stroke:none; fill-opacity:0" cx="1900.56" cy="1119.66" r="2"/>
<circle clip-path="url(#clip332)" style="fill:#009af9; stroke:none; fill-opacity:0" cx="1921.6" cy="1251.96" r="2"/>
<circle clip-path="url(#clip332)" style="fill:#009af9; stroke:none; fill-opacity:0" cx="1942.63" cy="1314.22" r="2"/>
<circle clip-path="url(#clip332)" style="fill:#009af9; stroke:none; fill-opacity:0" cx="1963.66" cy="1392.05" r="2"/>
<circle clip-path="url(#clip332)" style="fill:#009af9; stroke:none; fill-opacity:0" cx="1984.69" cy="1306.44" r="2"/>
<circle clip-path="url(#clip332)" style="fill:#009af9; stroke:none; fill-opacity:0" cx="2005.73" cy="1158.57" r="2"/>
<circle clip-path="url(#clip332)" style="fill:#009af9; stroke:none; fill-opacity:0" cx="2026.76" cy="1049.61" r="2"/>
<circle clip-path="url(#clip332)" style="fill:#009af9; stroke:none; fill-opacity:0" cx="2047.79" cy="925.088" r="2"/>
<circle clip-path="url(#clip332)" style="fill:#009af9; stroke:none; fill-opacity:0" cx="2068.82" cy="870.609" r="2"/>
<circle clip-path="url(#clip332)" style="fill:#009af9; stroke:none; fill-opacity:0" cx="2089.85" cy="683.825" r="2"/>
<circle clip-path="url(#clip332)" style="fill:#009af9; stroke:none; fill-opacity:0" cx="2110.89" cy="668.26" r="2"/>
<circle clip-path="url(#clip332)" style="fill:#009af9; stroke:none; fill-opacity:0" cx="2131.92" cy="707.173" r="2"/>
<circle clip-path="url(#clip332)" style="fill:#009af9; stroke:none; fill-opacity:0" cx="2152.95" cy="465.91" r="2"/>
<circle clip-path="url(#clip332)" style="fill:#009af9; stroke:none; fill-opacity:0" cx="2173.98" cy="434.779" r="2"/>
<circle clip-path="url(#clip332)" style="fill:#009af9; stroke:none; fill-opacity:0" cx="2195.01" cy="341.387" r="2"/>
<circle clip-path="url(#clip332)" style="fill:#009af9; stroke:none; fill-opacity:0" cx="2216.05" cy="310.256" r="2"/>
<circle clip-path="url(#clip332)" style="fill:#009af9; stroke:none; fill-opacity:0" cx="2237.08" cy="434.779" r="2"/>
<circle clip-path="url(#clip332)" style="fill:#009af9; stroke:none; fill-opacity:0" cx="2258.11" cy="388.083" r="2"/>
<circle clip-path="url(#clip332)" style="fill:#009af9; stroke:none; fill-opacity:0" cx="2279.14" cy="294.691" r="2"/>
<circle clip-path="url(#clip332)" style="fill:#009af9; stroke:none; fill-opacity:0" cx="2300.18" cy="123.472" r="2"/>
<circle clip-path="url(#clip332)" style="fill:#009af9; stroke:none; fill-opacity:0" cx="2321.21" cy="349.17" r="2"/>
<circle clip-path="url(#clip332)" style="fill:#009af9; stroke:none; fill-opacity:0" cx="2342.24" cy="325.822" r="2"/>
<polyline clip-path="url(#clip332)" style="stroke:#e26f46; stroke-linecap:round; stroke-linejoin:round; stroke-width:12; stroke-opacity:1; fill:none" points="249.605,286.696 250.106,285.898 251.108,284.325 252.607,282.017 254.601,279.04 257.082,275.477 260.047,271.431 263.485,267.023 267.39,262.393 271.751,257.695 276.556,253.099 281.794,248.784 287.45,244.943 293.511,241.773 299.961,239.477 306.783,238.26 313.959,238.325 321.472,239.871 329.302,243.089 337.429,248.158 345.832,255.244 354.489,264.494 363.379,276.035 372.478,289.969 381.763,306.375 391.211,325.3 400.797,346.766 410.495,370.76 420.283,397.242 430.134,426.138 440.023,457.346 449.924,490.732 459.813,526.138 469.664,563.378 479.451,602.247 489.15,642.518 498.736,683.95 508.183,726.287 517.469,769.268 526.568,812.624 535.458,856.087 544.115,899.388 552.518,942.265 560.645,984.465 568.475,1025.74 575.988,1065.87 583.164,1104.62 589.986,1141.81 596.436,1177.24 602.497,1210.74 608.153,1242.17 613.391,1271.39 618.196,1298.28 622.557,1322.73 626.461,1344.67 629.9,1364.02 632.864,1380.7 635.346,1394.68 637.34,1405.91 638.839,1414.36 639.841,1420 640.342,1422.83 640.511,1422.58 641.359,1417.81 643.052,1408.26 645.587,1393.99 648.956,1375.01 653.152,1351.4 658.163,1323.24 663.976,1290.65 670.577,1253.76 677.948,1212.76 686.072,1167.89 694.926,1119.41 704.488,1067.66 714.733,1013.04 725.636,955.978 737.169,896.994 749.3,836.653 762.001,775.579 775.237,714.442 788.976,653.959 803.181,594.873 817.816,537.951 832.844,483.963 848.226,433.669 863.922,387.801 879.893,347.05 896.097,312.043 912.493,283.332 929.038,261.378 945.691,246.538 962.408,239.057 979.146,239.057 995.863,246.538 1012.52,261.378 1029.06,283.332 1045.46,312.043 1061.66,347.05 1077.63,387.801 1093.33,433.669 1108.71,483.963 1123.74,537.951 1138.37,594.873 1152.58,653.959 1166.32,714.442 1179.55,775.579 1192.25,836.653 1204.39,896.994 1215.92,955.978 1226.82,1013.04 1237.07,1067.66 1246.63,1119.41 1255.48,1167.89 1263.61,1212.76 1270.98,1253.76 1277.58,1290.65 1283.39,1323.24 1288.4,1351.4 1292.6,1375.01 1295.97,1393.99 1298.5,1408.26 1300.2,1417.81 1301.04,1422.58 1301.26,1422.56 1302.13,1417.63 1303.88,1407.77 1306.5,1393.02 1309.98,1373.43 1314.31,1349.05 1319.49,1319.98 1325.49,1286.34 1332.3,1248.29 1339.91,1206.02 1348.29,1159.79 1357.42,1109.89 1367.28,1056.69 1377.83,1000.6 1389.07,942.111 1400.94,881.766 1413.43,820.178 1426.49,758.015 1440.1,695.996 1454.21,634.882 1468.8,575.464 1483.81,518.548 1499.22,464.942 1514.98,415.435 1531.05,370.782 1547.38,331.683 1563.94,298.767 1580.68,272.574 1597.55,253.542 1614.51,241.991 1631.52,238.119 1648.53,241.991 1665.49,253.542 1682.36,272.574 1699.1,298.767 1715.66,331.683 1731.99,370.782 1748.06,415.435 1763.82,464.942 1779.23,518.548 1794.25,575.464 1808.83,634.882 1822.95,695.996 1836.55,758.015 1849.62,820.178 1862.1,881.766 1873.98,942.111 1885.21,1000.6 1895.77,1056.69 1905.62,1109.89 1914.75,1159.79 1923.13,1206.02 1930.74,1248.29 1937.55,1286.34 1943.55,1319.98 1948.73,1349.05 1953.06,1373.43 1956.54,1393.02 1959.16,1407.77 1960.91,1417.63 1961.78,1422.56 1961.96,1422.81 1962.48,1419.9 1963.51,1414.07 1965.06,1405.34 1967.12,1393.74 1969.68,1379.31 1972.74,1362.08 1976.29,1342.11 1980.32,1319.48 1984.82,1294.25 1989.78,1266.52 1995.18,1236.41 2001.01,1204.04 2007.26,1169.56 2013.9,1133.12 2020.92,1094.92 2028.31,1055.14 2036.04,1014.01 2044.09,971.753 2052.44,928.62 2061.07,884.87 2069.95,840.773 2079.06,796.606 2088.39,752.651 2097.89,709.191 2107.55,666.505 2117.35,624.866 2127.25,584.537 2137.23,545.763 2147.26,508.774 2157.32,473.776 2167.39,440.949 2177.42,410.448 2187.4,382.395 2197.3,356.881 2207.1,333.965 2216.76,313.671 2226.26,295.993 2235.59,280.891 2244.7,268.294 2253.58,258.104 2262.21,250.197 2270.56,244.423 2278.61,240.615 2286.34,238.589 2293.72,238.147 2300.75,239.083 2307.39,241.183 2313.64,244.232 2319.47,248.018 2324.87,252.331 2329.83,256.968 2334.33,261.738 2338.36,266.463 2341.91,270.976 2344.97,275.13 2347.53,278.796 2349.59,281.864 2351.14,284.244 2352.17,285.869 2352.69,286.692 "/>
</svg>
