<?xml version="1.0" encoding="utf-8"?>
<svg xmlns="http://www.w3.org/2000/svg" xmlns:xlink="http://www.w3.org/1999/xlink" width="600" height="400" viewBox="0 0 2400 1600">
<defs>
  <clipPath id="clip740">
    <rect x="0" y="0" width="2400" height="1600"/>
  </clipPath>
</defs>
<path clip-path="url(#clip740)" d="M0 1600 L2400 1600 L2400 0 L0 0  Z" fill="#ffffff" fill-rule="evenodd" fill-opacity="1"/>
<defs>
  <clipPath id="clip741">
    <rect x="480" y="0" width="1681" height="1600"/>
  </clipPath>
</defs>
<path clip-path="url(#clip740)" d="M193.936 1423.18 L2352.76 1423.18 L2352.76 47.2441 L193.936 47.2441  Z" fill="#ffffff" fill-rule="evenodd" fill-opacity="1"/>
<defs>
  <clipPath id="clip742">
    <rect x="193" y="47" width="2160" height="1377"/>
  </clipPath>
</defs>
<polyline clip-path="url(#clip742)" style="stroke:#000000; stroke-linecap:round; stroke-linejoin:round; stroke-width:2; stroke-opacity:0.1; fill:none" points="255.035,1423.18 255.035,47.2441 "/>
<polyline clip-path="url(#clip742)" style="stroke:#000000; stroke-linecap:round; stroke-linejoin:round; stroke-width:2; stroke-opacity:0.1; fill:none" points="583.522,1423.18 583.522,47.2441 "/>
<polyline clip-path="url(#clip742)" style="stroke:#000000; stroke-linecap:round; stroke-linejoin:round; stroke-width:2; stroke-opacity:0.1; fill:none" points="912.01,1423.18 912.01,47.2441 "/>
<polyline clip-path="url(#clip742)" style="stroke:#000000; stroke-linecap:round; stroke-linejoin:round; stroke-width:2; stroke-opacity:0.1; fill:none" points="1240.5,1423.18 1240.5,47.2441 "/>
<polyline clip-path="url(#clip742)" style="stroke:#000000; stroke-linecap:round; stroke-linejoin:round; stroke-width:2; stroke-opacity:0.1; fill:none" points="1568.98,1423.18 1568.98,47.2441 "/>
<polyline clip-path="url(#clip742)" style="stroke:#000000; stroke-linecap:round; stroke-linejoin:round; stroke-width:2; stroke-opacity:0.1; fill:none" points="1897.47,1423.18 1897.47,47.2441 "/>
<polyline clip-path="url(#clip742)" style="stroke:#000000; stroke-linecap:round; stroke-linejoin:round; stroke-width:2; stroke-opacity:0.1; fill:none" points="2225.96,1423.18 2225.96,47.2441 "/>
<polyline clip-path="url(#clip740)" style="stroke:#000000; stroke-linecap:round; stroke-linejoin:round; stroke-width:4; stroke-opacity:1; fill:none" points="193.936,1423.18 2352.76,1423.18 "/>
<polyline clip-path="url(#clip740)" style="stroke:#000000; stroke-linecap:round; stroke-linejoin:round; stroke-width:4; stroke-opacity:1; fill:none" points="255.035,1423.18 255.035,1404.28 "/>
<polyline clip-path="url(#clip740)" style="stroke:#000000; stroke-linecap:round; stroke-linejoin:round; stroke-width:4; stroke-opacity:1; fill:none" points="583.522,1423.18 583.522,1404.28 "/>
<polyline clip-path="url(#clip740)" style="stroke:#000000; stroke-linecap:round; stroke-linejoin:round; stroke-width:4; stroke-opacity:1; fill:none" points="912.01,1423.18 912.01,1404.28 "/>
<polyline clip-path="url(#clip740)" style="stroke:#000000; stroke-linecap:round; stroke-linejoin:round; stroke-width:4; stroke-opacity:1; fill:none" points="1240.5,1423.18 1240.5,1404.28 "/>
<polyline clip-path="url(#clip740)" style="stroke:#000000; stroke-linecap:round; stroke-linejoin:round; stroke-width:4; stroke-opacity:1; fill:none" points="1568.98,1423.18 1568.98,1404.28 "/>
<polyline clip-path="url(#clip740)" style="stroke:#000000; stroke-linecap:round; stroke-linejoin:round; stroke-width:4; stroke-opacity:1; fill:none" points="1897.47,1423.18 1897.47,1404.28 "/>
<polyline clip-path="url(#clip740)" style="stroke:#000000; stroke-linecap:round; stroke-linejoin:round; stroke-width:4; stroke-opacity:1; fill:none" points="2225.96,1423.18 2225.96,1404.28 "/>
<path clip-path="url(#clip740)" d="M255.035 1454.1 Q251.424 1454.1 249.595 1457.66 Q247.789 1461.2 247.789 1468.33 Q247.789 1475.44 249.595 1479.01 Q251.424 1482.55 255.035 1482.55 Q258.669 1482.55 260.474 1479.01 Q262.303 1475.44 262.303 1468.33 Q262.303 1461.2 260.474 1457.66 Q258.669 1454.1 255.035 1454.1 M255.035 1450.39 Q260.845 1450.39 263.9 1455 Q266.979 1459.58 266.979 1468.33 Q266.979 1477.06 263.9 1481.67 Q260.845 1486.25 255.035 1486.25 Q249.225 1486.25 246.146 1481.67 Q243.09 1477.06 243.09 1468.33 Q243.09 1459.58 246.146 1455 Q249.225 1450.39 255.035 1450.39 Z" fill="#000000" fill-rule="nonzero" fill-opacity="1" /><path clip-path="url(#clip740)" d="M573.904 1481.64 L581.543 1481.64 L581.543 1455.28 L573.233 1456.95 L573.233 1452.69 L581.497 1451.02 L586.173 1451.02 L586.173 1481.64 L593.811 1481.64 L593.811 1485.58 L573.904 1485.58 L573.904 1481.64 Z" fill="#000000" fill-rule="nonzero" fill-opacity="1" /><path clip-path="url(#clip740)" d="M906.662 1481.64 L922.982 1481.64 L922.982 1485.58 L901.038 1485.58 L901.038 1481.64 Q903.7 1478.89 908.283 1474.26 Q912.889 1469.61 914.07 1468.27 Q916.315 1465.74 917.195 1464.01 Q918.098 1462.25 918.098 1460.56 Q918.098 1457.8 916.153 1456.07 Q914.232 1454.33 911.13 1454.33 Q908.931 1454.33 906.477 1455.09 Q904.047 1455.86 901.269 1457.41 L901.269 1452.69 Q904.093 1451.55 906.547 1450.97 Q909 1450.39 911.037 1450.39 Q916.408 1450.39 919.602 1453.08 Q922.797 1455.77 922.797 1460.26 Q922.797 1462.39 921.986 1464.31 Q921.199 1466.2 919.093 1468.8 Q918.514 1469.47 915.412 1472.69 Q912.311 1475.88 906.662 1481.64 Z" fill="#000000" fill-rule="nonzero" fill-opacity="1" /><path clip-path="url(#clip740)" d="M1244.74 1466.95 Q1248.1 1467.66 1249.98 1469.93 Q1251.87 1472.2 1251.87 1475.53 Q1251.87 1480.65 1248.36 1483.45 Q1244.84 1486.25 1238.36 1486.25 Q1236.18 1486.25 1233.87 1485.81 Q1231.57 1485.39 1229.12 1484.54 L1229.12 1480.02 Q1231.06 1481.16 1233.38 1481.74 Q1235.69 1482.32 1238.22 1482.32 Q1242.62 1482.32 1244.91 1480.58 Q1247.22 1478.84 1247.22 1475.53 Q1247.22 1472.48 1245.07 1470.77 Q1242.94 1469.03 1239.12 1469.03 L1235.09 1469.03 L1235.09 1465.19 L1239.31 1465.19 Q1242.75 1465.19 1244.58 1463.82 Q1246.41 1462.43 1246.41 1459.84 Q1246.41 1457.18 1244.51 1455.77 Q1242.64 1454.33 1239.12 1454.33 Q1237.2 1454.33 1235 1454.75 Q1232.8 1455.16 1230.16 1456.04 L1230.16 1451.88 Q1232.82 1451.14 1235.14 1450.77 Q1237.48 1450.39 1239.54 1450.39 Q1244.86 1450.39 1247.96 1452.83 Q1251.06 1455.23 1251.06 1459.35 Q1251.06 1462.22 1249.42 1464.21 Q1247.78 1466.18 1244.74 1466.95 Z" fill="#000000" fill-rule="nonzero" fill-opacity="1" /><path clip-path="url(#clip740)" d="M1571.99 1455.09 L1560.19 1473.54 L1571.99 1473.54 L1571.99 1455.09 M1570.77 1451.02 L1576.65 1451.02 L1576.65 1473.54 L1581.58 1473.54 L1581.58 1477.43 L1576.65 1477.43 L1576.65 1485.58 L1571.99 1485.58 L1571.99 1477.43 L1556.39 1477.43 L1556.39 1472.92 L1570.77 1451.02 Z" fill="#000000" fill-rule="nonzero" fill-opacity="1" /><path clip-path="url(#clip740)" d="M1887.75 1451.02 L1906.11 1451.02 L1906.11 1454.96 L1892.03 1454.96 L1892.03 1463.43 Q1893.05 1463.08 1894.07 1462.92 Q1895.09 1462.73 1896.11 1462.73 Q1901.89 1462.73 1905.27 1465.9 Q1908.65 1469.08 1908.65 1474.49 Q1908.65 1480.07 1905.18 1483.17 Q1901.71 1486.25 1895.39 1486.25 Q1893.21 1486.25 1890.94 1485.88 Q1888.7 1485.51 1886.29 1484.77 L1886.29 1480.07 Q1888.38 1481.2 1890.6 1481.76 Q1892.82 1482.32 1895.3 1482.32 Q1899.3 1482.32 1901.64 1480.21 Q1903.98 1478.1 1903.98 1474.49 Q1903.98 1470.88 1901.64 1468.77 Q1899.3 1466.67 1895.3 1466.67 Q1893.42 1466.67 1891.55 1467.08 Q1889.69 1467.5 1887.75 1468.38 L1887.75 1451.02 Z" fill="#000000" fill-rule="nonzero" fill-opacity="1" /><path clip-path="url(#clip740)" d="M2226.36 1466.44 Q2223.22 1466.44 2221.36 1468.59 Q2219.54 1470.74 2219.54 1474.49 Q2219.54 1478.22 2221.36 1480.39 Q2223.22 1482.55 2226.36 1482.55 Q2229.51 1482.55 2231.34 1480.39 Q2233.19 1478.22 2233.19 1474.49 Q2233.19 1470.74 2231.34 1468.59 Q2229.51 1466.44 2226.36 1466.44 M2235.65 1451.78 L2235.65 1456.04 Q2233.89 1455.21 2232.08 1454.77 Q2230.3 1454.33 2228.54 1454.33 Q2223.91 1454.33 2221.46 1457.45 Q2219.03 1460.58 2218.68 1466.9 Q2220.05 1464.89 2222.11 1463.82 Q2224.17 1462.73 2226.64 1462.73 Q2231.85 1462.73 2234.86 1465.9 Q2237.89 1469.05 2237.89 1474.49 Q2237.89 1479.82 2234.74 1483.03 Q2231.6 1486.25 2226.36 1486.25 Q2220.37 1486.25 2217.2 1481.67 Q2214.03 1477.06 2214.03 1468.33 Q2214.03 1460.14 2217.92 1455.28 Q2221.8 1450.39 2228.36 1450.39 Q2230.11 1450.39 2231.9 1450.74 Q2233.7 1451.09 2235.65 1451.78 Z" fill="#000000" fill-rule="nonzero" fill-opacity="1" /><path clip-path="url(#clip740)" d="M1272.41 1522.27 L1272.41 1532.4 L1284.47 1532.4 L1284.47 1536.95 L1272.41 1536.95 L1272.41 1556.3 Q1272.41 1560.66 1273.58 1561.9 Q1274.79 1563.14 1278.45 1563.14 L1284.47 1563.14 L1284.47 1568.04 L1278.45 1568.04 Q1271.67 1568.04 1269.1 1565.53 Q1266.52 1562.98 1266.52 1556.3 L1266.52 1536.95 L1262.22 1536.95 L1262.22 1532.4 L1266.52 1532.4 L1266.52 1522.27 L1272.41 1522.27 Z" fill="#000000" fill-rule="nonzero" fill-opacity="1" /><polyline clip-path="url(#clip742)" style="stroke:#000000; stroke-linecap:round; stroke-linejoin:round; stroke-width:2; stroke-opacity:0.1; fill:none" points="193.936,1384.24 2352.76,1384.24 "/>
<polyline clip-path="url(#clip742)" style="stroke:#000000; stroke-linecap:round; stroke-linejoin:round; stroke-width:2; stroke-opacity:0.1; fill:none" points="193.936,1059.66 2352.76,1059.66 "/>
<polyline clip-path="url(#clip742)" style="stroke:#000000; stroke-linecap:round; stroke-linejoin:round; stroke-width:2; stroke-opacity:0.1; fill:none" points="193.936,735.077 2352.76,735.077 "/>
<polyline clip-path="url(#clip742)" style="stroke:#000000; stroke-linecap:round; stroke-linejoin:round; stroke-width:2; stroke-opacity:0.1; fill:none" points="193.936,410.493 2352.76,410.493 "/>
<polyline clip-path="url(#clip742)" style="stroke:#000000; stroke-linecap:round; stroke-linejoin:round; stroke-width:2; stroke-opacity:0.1; fill:none" points="193.936,85.9089 2352.76,85.9089 "/>
<polyline clip-path="url(#clip740)" style="stroke:#000000; stroke-linecap:round; stroke-linejoin:round; stroke-width:4; stroke-opacity:1; fill:none" points="193.936,1423.18 193.936,47.2441 "/>
<polyline clip-path="url(#clip740)" style="stroke:#000000; stroke-linecap:round; stroke-linejoin:round; stroke-width:4; stroke-opacity:1; fill:none" points="193.936,1384.24 212.834,1384.24 "/>
<polyline clip-path="url(#clip740)" style="stroke:#000000; stroke-linecap:round; stroke-linejoin:round; stroke-width:4; stroke-opacity:1; fill:none" points="193.936,1059.66 212.834,1059.66 "/>
<polyline clip-path="url(#clip740)" style="stroke:#000000; stroke-linecap:round; stroke-linejoin:round; stroke-width:4; stroke-opacity:1; fill:none" points="193.936,735.077 212.834,735.077 "/>
<polyline clip-path="url(#clip740)" style="stroke:#000000; stroke-linecap:round; stroke-linejoin:round; stroke-width:4; stroke-opacity:1; fill:none" points="193.936,410.493 212.834,410.493 "/>
<polyline clip-path="url(#clip740)" style="stroke:#000000; stroke-linecap:round; stroke-linejoin:round; stroke-width:4; stroke-opacity:1; fill:none" points="193.936,85.9089 212.834,85.9089 "/>
<path clip-path="url(#clip740)" d="M50.9921 1384.7 L80.6679 1384.7 L80.6679 1388.63 L50.9921 1388.63 L50.9921 1384.7 Z" fill="#000000" fill-rule="nonzero" fill-opacity="1" /><path clip-path="url(#clip740)" d="M91.5706 1397.59 L99.2095 1397.59 L99.2095 1371.22 L90.8993 1372.89 L90.8993 1368.63 L99.1632 1366.96 L103.839 1366.96 L103.839 1397.59 L111.478 1397.59 L111.478 1401.52 L91.5706 1401.52 L91.5706 1397.59 Z" fill="#000000" fill-rule="nonzero" fill-opacity="1" /><path clip-path="url(#clip740)" d="M120.922 1395.65 L125.807 1395.65 L125.807 1401.52 L120.922 1401.52 L120.922 1395.65 Z" fill="#000000" fill-rule="nonzero" fill-opacity="1" /><path clip-path="url(#clip740)" d="M145.992 1370.04 Q142.381 1370.04 140.552 1373.61 Q138.746 1377.15 138.746 1384.28 Q138.746 1391.39 140.552 1394.95 Q142.381 1398.49 145.992 1398.49 Q149.626 1398.49 151.431 1394.95 Q153.26 1391.39 153.26 1384.28 Q153.26 1377.15 151.431 1373.61 Q149.626 1370.04 145.992 1370.04 M145.992 1366.34 Q151.802 1366.34 154.857 1370.95 Q157.936 1375.53 157.936 1384.28 Q157.936 1393.01 154.857 1397.61 Q151.802 1402.2 145.992 1402.2 Q140.181 1402.2 137.103 1397.61 Q134.047 1393.01 134.047 1384.28 Q134.047 1375.53 137.103 1370.95 Q140.181 1366.34 145.992 1366.34 Z" fill="#000000" fill-rule="nonzero" fill-opacity="1" /><path clip-path="url(#clip740)" d="M51.9875 1060.11 L81.6633 1060.11 L81.6633 1064.05 L51.9875 1064.05 L51.9875 1060.11 Z" fill="#000000" fill-rule="nonzero" fill-opacity="1" /><path clip-path="url(#clip740)" d="M101.756 1045.46 Q98.1447 1045.46 96.316 1049.02 Q94.5104 1052.57 94.5104 1059.7 Q94.5104 1066.8 96.316 1070.37 Q98.1447 1073.91 101.756 1073.91 Q105.39 1073.91 107.196 1070.37 Q109.024 1066.8 109.024 1059.7 Q109.024 1052.57 107.196 1049.02 Q105.39 1045.46 101.756 1045.46 M101.756 1041.76 Q107.566 1041.76 110.621 1046.36 Q113.7 1050.95 113.7 1059.7 Q113.7 1068.42 110.621 1073.03 Q107.566 1077.61 101.756 1077.61 Q95.9456 1077.61 92.8669 1073.03 Q89.8114 1068.42 89.8114 1059.7 Q89.8114 1050.95 92.8669 1046.36 Q95.9456 1041.76 101.756 1041.76 Z" fill="#000000" fill-rule="nonzero" fill-opacity="1" /><path clip-path="url(#clip740)" d="M121.918 1071.06 L126.802 1071.06 L126.802 1076.94 L121.918 1076.94 L121.918 1071.06 Z" fill="#000000" fill-rule="nonzero" fill-opacity="1" /><path clip-path="url(#clip740)" d="M137.033 1042.38 L155.39 1042.38 L155.39 1046.32 L141.316 1046.32 L141.316 1054.79 Q142.334 1054.44 143.353 1054.28 Q144.371 1054.09 145.39 1054.09 Q151.177 1054.09 154.556 1057.26 Q157.936 1060.44 157.936 1065.85 Q157.936 1071.43 154.464 1074.53 Q150.992 1077.61 144.672 1077.61 Q142.496 1077.61 140.228 1077.24 Q137.982 1076.87 135.575 1076.13 L135.575 1071.43 Q137.658 1072.57 139.881 1073.12 Q142.103 1073.68 144.58 1073.68 Q148.584 1073.68 150.922 1071.57 Q153.26 1069.46 153.26 1065.85 Q153.26 1062.24 150.922 1060.14 Q148.584 1058.03 144.58 1058.03 Q142.705 1058.03 140.83 1058.45 Q138.978 1058.86 137.033 1059.74 L137.033 1042.38 Z" fill="#000000" fill-rule="nonzero" fill-opacity="1" /><path clip-path="url(#clip740)" d="M100.76 720.875 Q97.1493 720.875 95.3206 724.44 Q93.515 727.982 93.515 735.111 Q93.515 742.218 95.3206 745.783 Q97.1493 749.324 100.76 749.324 Q104.395 749.324 106.2 745.783 Q108.029 742.218 108.029 735.111 Q108.029 727.982 106.2 724.44 Q104.395 720.875 100.76 720.875 M100.76 717.172 Q106.571 717.172 109.626 721.778 Q112.705 726.362 112.705 735.111 Q112.705 743.838 109.626 748.445 Q106.571 753.028 100.76 753.028 Q94.9502 753.028 91.8715 748.445 Q88.816 743.838 88.816 735.111 Q88.816 726.362 91.8715 721.778 Q94.9502 717.172 100.76 717.172 Z" fill="#000000" fill-rule="nonzero" fill-opacity="1" /><path clip-path="url(#clip740)" d="M120.922 746.477 L125.807 746.477 L125.807 752.357 L120.922 752.357 L120.922 746.477 Z" fill="#000000" fill-rule="nonzero" fill-opacity="1" /><path clip-path="url(#clip740)" d="M145.992 720.875 Q142.381 720.875 140.552 724.44 Q138.746 727.982 138.746 735.111 Q138.746 742.218 140.552 745.783 Q142.381 749.324 145.992 749.324 Q149.626 749.324 151.431 745.783 Q153.26 742.218 153.26 735.111 Q153.26 727.982 151.431 724.44 Q149.626 720.875 145.992 720.875 M145.992 717.172 Q151.802 717.172 154.857 721.778 Q157.936 726.362 157.936 735.111 Q157.936 743.838 154.857 748.445 Q151.802 753.028 145.992 753.028 Q140.181 753.028 137.103 748.445 Q134.047 743.838 134.047 735.111 Q134.047 726.362 137.103 721.778 Q140.181 717.172 145.992 717.172 Z" fill="#000000" fill-rule="nonzero" fill-opacity="1" /><path clip-path="url(#clip740)" d="M101.756 396.291 Q98.1447 396.291 96.316 399.856 Q94.5104 403.398 94.5104 410.528 Q94.5104 417.634 96.316 421.199 Q98.1447 424.74 101.756 424.74 Q105.39 424.74 107.196 421.199 Q109.024 417.634 109.024 410.528 Q109.024 403.398 107.196 399.856 Q105.39 396.291 101.756 396.291 M101.756 392.588 Q107.566 392.588 110.621 397.194 Q113.7 401.778 113.7 410.528 Q113.7 419.254 110.621 423.861 Q107.566 428.444 101.756 428.444 Q95.9456 428.444 92.8669 423.861 Q89.8114 419.254 89.8114 410.528 Q89.8114 401.778 92.8669 397.194 Q95.9456 392.588 101.756 392.588 Z" fill="#000000" fill-rule="nonzero" fill-opacity="1" /><path clip-path="url(#clip740)" d="M121.918 421.893 L126.802 421.893 L126.802 427.773 L121.918 427.773 L121.918 421.893 Z" fill="#000000" fill-rule="nonzero" fill-opacity="1" /><path clip-path="url(#clip740)" d="M137.033 393.213 L155.39 393.213 L155.39 397.148 L141.316 397.148 L141.316 405.62 Q142.334 405.273 143.353 405.111 Q144.371 404.926 145.39 404.926 Q151.177 404.926 154.556 408.097 Q157.936 411.268 157.936 416.685 Q157.936 422.264 154.464 425.365 Q150.992 428.444 144.672 428.444 Q142.496 428.444 140.228 428.074 Q137.982 427.703 135.575 426.963 L135.575 422.264 Q137.658 423.398 139.881 423.953 Q142.103 424.509 144.58 424.509 Q148.584 424.509 150.922 422.402 Q153.26 420.296 153.26 416.685 Q153.26 413.074 150.922 410.967 Q148.584 408.861 144.58 408.861 Q142.705 408.861 140.83 409.278 Q138.978 409.694 137.033 410.574 L137.033 393.213 Z" fill="#000000" fill-rule="nonzero" fill-opacity="1" /><path clip-path="url(#clip740)" d="M91.5706 99.2537 L99.2095 99.2537 L99.2095 72.8881 L90.8993 74.5548 L90.8993 70.2955 L99.1632 68.6289 L103.839 68.6289 L103.839 99.2537 L111.478 99.2537 L111.478 103.189 L91.5706 103.189 L91.5706 99.2537 Z" fill="#000000" fill-rule="nonzero" fill-opacity="1" /><path clip-path="url(#clip740)" d="M120.922 97.3093 L125.807 97.3093 L125.807 103.189 L120.922 103.189 L120.922 97.3093 Z" fill="#000000" fill-rule="nonzero" fill-opacity="1" /><path clip-path="url(#clip740)" d="M145.992 71.7076 Q142.381 71.7076 140.552 75.2724 Q138.746 78.814 138.746 85.9436 Q138.746 93.05 140.552 96.6148 Q142.381 100.156 145.992 100.156 Q149.626 100.156 151.431 96.6148 Q153.26 93.05 153.26 85.9436 Q153.26 78.814 151.431 75.2724 Q149.626 71.7076 145.992 71.7076 M145.992 68.0039 Q151.802 68.0039 154.857 72.6103 Q157.936 77.1936 157.936 85.9436 Q157.936 94.6704 154.857 99.2769 Q151.802 103.86 145.992 103.86 Q140.181 103.86 137.103 99.2769 Q134.047 94.6704 134.047 85.9436 Q134.047 77.1936 137.103 72.6103 Q140.181 68.0039 145.992 68.0039 Z" fill="#000000" fill-rule="nonzero" fill-opacity="1" /><polyline clip-path="url(#clip742)" style="stroke:#009af9; stroke-linecap:round; stroke-linejoin:round; stroke-width:4; stroke-opacity:1; fill:none" points="255.035,735.077 287.883,606.107 320.732,482.28 353.581,368.53 386.43,269.394 419.278,188.822 452.127,130.029 484.976,95.3564 517.825,86.1876 550.673,102.888 583.522,144.792 616.371,210.228 649.22,296.589 682.068,400.431 714.917,517.614 747.766,643.467 780.615,772.971 813.463,900.965 846.312,1022.35 879.161,1132.27 912.01,1226.37 944.858,1300.87 977.707,1352.82 1010.56,1380.15 1043.4,1381.75 1076.25,1357.58 1109.1,1308.59 1141.95,1236.73 1174.8,1144.87 1207.65,1036.68 1240.5,916.464 1273.35,789.016 1306.19,659.417 1339.04,532.835 1371.89,414.315 1404.74,308.583 1437.59,219.855 1470.44,151.666 1503.29,106.736 1536.14,86.8564 1568.98,92.819 1601.83,124.386 1634.68,180.3 1667.53,258.331 1700.38,355.368 1733.23,467.544 1766.08,590.384 1798.93,718.993 1831.77,848.244 1864.62,972.983 1897.47,1088.24 1930.32,1189.41 1963.17,1272.47 1996.02,1334.11 2028.87,1371.87 2061.72,1384.24 2094.56,1370.73 2127.41,1331.87 2160.26,1269.23 2193.11,1185.29 2225.96,1083.4 2258.81,967.627 2291.66,842.581 "/>
<circle clip-path="url(#clip742)" cx="255.035" cy="735.077" r="14.4" fill="#e26f46" fill-rule="evenodd" fill-opacity="1" stroke="#000000" stroke-opacity="1" stroke-width="3.2"/>
<circle clip-path="url(#clip742)" cx="287.883" cy="606.107" r="14.4" fill="#e26f46" fill-rule="evenodd" fill-opacity="1" stroke="#000000" stroke-opacity="1" stroke-width="3.2"/>
<circle clip-path="url(#clip742)" cx="320.732" cy="482.279" r="14.4" fill="#e26f46" fill-rule="evenodd" fill-opacity="1" stroke="#000000" stroke-opacity="1" stroke-width="3.2"/>
<circle clip-path="url(#clip742)" cx="353.581" cy="368.529" r="14.4" fill="#e26f46" fill-rule="evenodd" fill-opacity="1" stroke="#000000" stroke-opacity="1" stroke-width="3.2"/>
<circle clip-path="url(#clip742)" cx="386.43" cy="269.392" r="14.4" fill="#e26f46" fill-rule="evenodd" fill-opacity="1" stroke="#000000" stroke-opacity="1" stroke-width="3.2"/>
<circle clip-path="url(#clip742)" cx="419.278" cy="188.821" r="14.4" fill="#e26f46" fill-rule="evenodd" fill-opacity="1" stroke="#000000" stroke-opacity="1" stroke-width="3.2"/>
<circle clip-path="url(#clip742)" cx="452.127" cy="130.027" r="14.4" fill="#e26f46" fill-rule="evenodd" fill-opacity="1" stroke="#000000" stroke-opacity="1" stroke-width="3.2"/>
<circle clip-path="url(#clip742)" cx="484.976" cy="95.3544" r="14.4" fill="#e26f46" fill-rule="evenodd" fill-opacity="1" stroke="#000000" stroke-opacity="1" stroke-width="3.2"/>
<circle clip-path="url(#clip742)" cx="517.825" cy="86.1857" r="14.4" fill="#e26f46" fill-rule="evenodd" fill-opacity="1" stroke="#000000" stroke-opacity="1" stroke-width="3.2"/>
<circle clip-path="url(#clip742)" cx="550.673" cy="102.886" r="14.4" fill="#e26f46" fill-rule="evenodd" fill-opacity="1" stroke="#000000" stroke-opacity="1" stroke-width="3.2"/>
<circle clip-path="url(#clip742)" cx="583.522" cy="144.79" r="14.4" fill="#e26f46" fill-rule="evenodd" fill-opacity="1" stroke="#000000" stroke-opacity="1" stroke-width="3.2"/>
<circle clip-path="url(#clip742)" cx="616.371" cy="210.227" r="14.4" fill="#e26f46" fill-rule="evenodd" fill-opacity="1" stroke="#000000" stroke-opacity="1" stroke-width="3.2"/>
<circle clip-path="url(#clip742)" cx="649.22" cy="296.588" r="14.4" fill="#e26f46" fill-rule="evenodd" fill-opacity="1" stroke="#000000" stroke-opacity="1" stroke-width="3.2"/>
<circle clip-path="url(#clip742)" cx="682.068" cy="400.43" r="14.4" fill="#e26f46" fill-rule="evenodd" fill-opacity="1" stroke="#000000" stroke-opacity="1" stroke-width="3.2"/>
<circle clip-path="url(#clip742)" cx="714.917" cy="517.613" r="14.4" fill="#e26f46" fill-rule="evenodd" fill-opacity="1" stroke="#000000" stroke-opacity="1" stroke-width="3.2"/>
<circle clip-path="url(#clip742)" cx="747.766" cy="643.466" r="14.4" fill="#e26f46" fill-rule="evenodd" fill-opacity="1" stroke="#000000" stroke-opacity="1" stroke-width="3.2"/>
<circle clip-path="url(#clip742)" cx="780.615" cy="772.971" r="14.4" fill="#e26f46" fill-rule="evenodd" fill-opacity="1" stroke="#000000" stroke-opacity="1" stroke-width="3.2"/>
<circle clip-path="url(#clip742)" cx="813.463" cy="900.966" r="14.4" fill="#e26f46" fill-rule="evenodd" fill-opacity="1" stroke="#000000" stroke-opacity="1" stroke-width="3.2"/>
<circle clip-path="url(#clip742)" cx="846.312" cy="1022.35" r="14.4" fill="#e26f46" fill-rule="evenodd" fill-opacity="1" stroke="#000000" stroke-opacity="1" stroke-width="3.2"/>
<circle clip-path="url(#clip742)" cx="879.161" cy="1132.28" r="14.4" fill="#e26f46" fill-rule="evenodd" fill-opacity="1" stroke="#000000" stroke-opacity="1" stroke-width="3.2"/>
<circle clip-path="url(#clip742)" cx="912.01" cy="1226.37" r="14.4" fill="#e26f46" fill-rule="evenodd" fill-opacity="1" stroke="#000000" stroke-opacity="1" stroke-width="3.2"/>
<circle clip-path="url(#clip742)" cx="944.858" cy="1300.88" r="14.4" fill="#e26f46" fill-rule="evenodd" fill-opacity="1" stroke="#000000" stroke-opacity="1" stroke-width="3.2"/>
<circle clip-path="url(#clip742)" cx="977.707" cy="1352.83" r="14.4" fill="#e26f46" fill-rule="evenodd" fill-opacity="1" stroke="#000000" stroke-opacity="1" stroke-width="3.2"/>
<circle clip-path="url(#clip742)" cx="1010.56" cy="1380.15" r="14.4" fill="#e26f46" fill-rule="evenodd" fill-opacity="1" stroke="#000000" stroke-opacity="1" stroke-width="3.2"/>
<circle clip-path="url(#clip742)" cx="1043.4" cy="1381.75" r="14.4" fill="#e26f46" fill-rule="evenodd" fill-opacity="1" stroke="#000000" stroke-opacity="1" stroke-width="3.2"/>
<circle clip-path="url(#clip742)" cx="1076.25" cy="1357.58" r="14.4" fill="#e26f46" fill-rule="evenodd" fill-opacity="1" stroke="#000000" stroke-opacity="1" stroke-width="3.2"/>
<circle clip-path="url(#clip742)" cx="1109.1" cy="1308.59" r="14.4" fill="#e26f46" fill-rule="evenodd" fill-opacity="1" stroke="#000000" stroke-opacity="1" stroke-width="3.2"/>
<circle clip-path="url(#clip742)" cx="1141.95" cy="1236.73" r="14.4" fill="#e26f46" fill-rule="evenodd" fill-opacity="1" stroke="#000000" stroke-opacity="1" stroke-width="3.2"/>
<circle clip-path="url(#clip742)" cx="1174.8" cy="1144.87" r="14.4" fill="#e26f46" fill-rule="evenodd" fill-opacity="1" stroke="#000000" stroke-opacity="1" stroke-width="3.2"/>
<circle clip-path="url(#clip742)" cx="1207.65" cy="1036.68" r="14.4" fill="#e26f46" fill-rule="evenodd" fill-opacity="1" stroke="#000000" stroke-opacity="1" stroke-width="3.2"/>
<circle clip-path="url(#clip742)" cx="1240.5" cy="916.464" r="14.4" fill="#e26f46" fill-rule="evenodd" fill-opacity="1" stroke="#000000" stroke-opacity="1" stroke-width="3.2"/>
<circle clip-path="url(#clip742)" cx="1273.35" cy="789.016" r="14.4" fill="#e26f46" fill-rule="evenodd" fill-opacity="1" stroke="#000000" stroke-opacity="1" stroke-width="3.2"/>
<circle clip-path="url(#clip742)" cx="1306.19" cy="659.417" r="14.4" fill="#e26f46" fill-rule="evenodd" fill-opacity="1" stroke="#000000" stroke-opacity="1" stroke-width="3.2"/>
<circle clip-path="url(#clip742)" cx="1339.04" cy="532.834" r="14.4" fill="#e26f46" fill-rule="evenodd" fill-opacity="1" stroke="#000000" stroke-opacity="1" stroke-width="3.2"/>
<circle clip-path="url(#clip742)" cx="1371.89" cy="414.314" r="14.4" fill="#e26f46" fill-rule="evenodd" fill-opacity="1" stroke="#000000" stroke-opacity="1" stroke-width="3.2"/>
<circle clip-path="url(#clip742)" cx="1404.74" cy="308.582" r="14.4" fill="#e26f46" fill-rule="evenodd" fill-opacity="1" stroke="#000000" stroke-opacity="1" stroke-width="3.2"/>
<circle clip-path="url(#clip742)" cx="1437.59" cy="219.853" r="14.4" fill="#e26f46" fill-rule="evenodd" fill-opacity="1" stroke="#000000" stroke-opacity="1" stroke-width="3.2"/>
<circle clip-path="url(#clip742)" cx="1470.44" cy="151.664" r="14.4" fill="#e26f46" fill-rule="evenodd" fill-opacity="1" stroke="#000000" stroke-opacity="1" stroke-width="3.2"/>
<circle clip-path="url(#clip742)" cx="1503.29" cy="106.734" r="14.4" fill="#e26f46" fill-rule="evenodd" fill-opacity="1" stroke="#000000" stroke-opacity="1" stroke-width="3.2"/>
<circle clip-path="url(#clip742)" cx="1536.14" cy="86.8545" r="14.4" fill="#e26f46" fill-rule="evenodd" fill-opacity="1" stroke="#000000" stroke-opacity="1" stroke-width="3.2"/>
<circle clip-path="url(#clip742)" cx="1568.98" cy="92.8172" r="14.4" fill="#e26f46" fill-rule="evenodd" fill-opacity="1" stroke="#000000" stroke-opacity="1" stroke-width="3.2"/>
<circle clip-path="url(#clip742)" cx="1601.83" cy="124.385" r="14.4" fill="#e26f46" fill-rule="evenodd" fill-opacity="1" stroke="#000000" stroke-opacity="1" stroke-width="3.2"/>
<circle clip-path="url(#clip742)" cx="1634.68" cy="180.299" r="14.4" fill="#e26f46" fill-rule="evenodd" fill-opacity="1" stroke="#000000" stroke-opacity="1" stroke-width="3.2"/>
<circle clip-path="url(#clip742)" cx="1667.53" cy="258.33" r="14.4" fill="#e26f46" fill-rule="evenodd" fill-opacity="1" stroke="#000000" stroke-opacity="1" stroke-width="3.2"/>
<circle clip-path="url(#clip742)" cx="1700.38" cy="355.367" r="14.4" fill="#e26f46" fill-rule="evenodd" fill-opacity="1" stroke="#000000" stroke-opacity="1" stroke-width="3.2"/>
<circle clip-path="url(#clip742)" cx="1733.23" cy="467.543" r="14.4" fill="#e26f46" fill-rule="evenodd" fill-opacity="1" stroke="#000000" stroke-opacity="1" stroke-width="3.2"/>
<circle clip-path="url(#clip742)" cx="1766.08" cy="590.384" r="14.4" fill="#e26f46" fill-rule="evenodd" fill-opacity="1" stroke="#000000" stroke-opacity="1" stroke-width="3.2"/>
<circle clip-path="url(#clip742)" cx="1798.93" cy="718.993" r="14.4" fill="#e26f46" fill-rule="evenodd" fill-opacity="1" stroke="#000000" stroke-opacity="1" stroke-width="3.2"/>
<circle clip-path="url(#clip742)" cx="1831.77" cy="848.244" r="14.4" fill="#e26f46" fill-rule="evenodd" fill-opacity="1" stroke="#000000" stroke-opacity="1" stroke-width="3.2"/>
<circle clip-path="url(#clip742)" cx="1864.62" cy="972.983" r="14.4" fill="#e26f46" fill-rule="evenodd" fill-opacity="1" stroke="#000000" stroke-opacity="1" stroke-width="3.2"/>
<circle clip-path="url(#clip742)" cx="1897.47" cy="1088.24" r="14.4" fill="#e26f46" fill-rule="evenodd" fill-opacity="1" stroke="#000000" stroke-opacity="1" stroke-width="3.2"/>
<circle clip-path="url(#clip742)" cx="1930.32" cy="1189.41" r="14.4" fill="#e26f46" fill-rule="evenodd" fill-opacity="1" stroke="#000000" stroke-opacity="1" stroke-width="3.2"/>
<circle clip-path="url(#clip742)" cx="1963.17" cy="1272.48" r="14.4" fill="#e26f46" fill-rule="evenodd" fill-opacity="1" stroke="#000000" stroke-opacity="1" stroke-width="3.2"/>
<circle clip-path="url(#clip742)" cx="1996.02" cy="1334.11" r="14.4" fill="#e26f46" fill-rule="evenodd" fill-opacity="1" stroke="#000000" stroke-opacity="1" stroke-width="3.2"/>
<circle clip-path="url(#clip742)" cx="2028.87" cy="1371.87" r="14.4" fill="#e26f46" fill-rule="evenodd" fill-opacity="1" stroke="#000000" stroke-opacity="1" stroke-width="3.2"/>
<circle clip-path="url(#clip742)" cx="2061.72" cy="1384.24" r="14.4" fill="#e26f46" fill-rule="evenodd" fill-opacity="1" stroke="#000000" stroke-opacity="1" stroke-width="3.2"/>
<circle clip-path="url(#clip742)" cx="2094.56" cy="1370.73" r="14.4" fill="#e26f46" fill-rule="evenodd" fill-opacity="1" stroke="#000000" stroke-opacity="1" stroke-width="3.2"/>
<circle clip-path="url(#clip742)" cx="2127.41" cy="1331.88" r="14.4" fill="#e26f46" fill-rule="evenodd" fill-opacity="1" stroke="#000000" stroke-opacity="1" stroke-width="3.2"/>
<circle clip-path="url(#clip742)" cx="2160.26" cy="1269.23" r="14.4" fill="#e26f46" fill-rule="evenodd" fill-opacity="1" stroke="#000000" stroke-opacity="1" stroke-width="3.2"/>
<circle clip-path="url(#clip742)" cx="2193.11" cy="1185.29" r="14.4" fill="#e26f46" fill-rule="evenodd" fill-opacity="1" stroke="#000000" stroke-opacity="1" stroke-width="3.2"/>
<circle clip-path="url(#clip742)" cx="2225.96" cy="1083.4" r="14.4" fill="#e26f46" fill-rule="evenodd" fill-opacity="1" stroke="#000000" stroke-opacity="1" stroke-width="3.2"/>
<circle clip-path="url(#clip742)" cx="2258.81" cy="967.628" r="14.4" fill="#e26f46" fill-rule="evenodd" fill-opacity="1" stroke="#000000" stroke-opacity="1" stroke-width="3.2"/>
<circle clip-path="url(#clip742)" cx="2291.66" cy="842.582" r="14.4" fill="#e26f46" fill-rule="evenodd" fill-opacity="1" stroke="#000000" stroke-opacity="1" stroke-width="3.2"/>
<path clip-path="url(#clip740)" d="M1836.93 248.629 L2280.8 248.629 L2280.8 93.1086 L1836.93 93.1086  Z" fill="#ffffff" fill-rule="evenodd" fill-opacity="1"/>
<polyline clip-path="url(#clip740)" style="stroke:#000000; stroke-linecap:round; stroke-linejoin:round; stroke-width:4; stroke-opacity:1; fill:none" points="1836.93,248.629 2280.8,248.629 2280.8,93.1086 1836.93,93.1086 1836.93,248.629 "/>
<polyline clip-path="url(#clip740)" style="stroke:#009af9; stroke-linecap:round; stroke-linejoin:round; stroke-width:4; stroke-opacity:1; fill:none" points="1860.92,144.949 2004.84,144.949 "/>
<path clip-path="url(#clip740)" d="M2028.82 151.997 L2028.82 136.303 L2033.08 136.303 L2033.08 151.835 Q2033.08 155.516 2034.52 157.368 Q2035.95 159.196 2038.82 159.196 Q2042.27 159.196 2044.26 156.997 Q2046.28 154.798 2046.28 151.002 L2046.28 136.303 L2050.54 136.303 L2050.54 162.229 L2046.28 162.229 L2046.28 158.247 Q2044.73 160.608 2042.67 161.766 Q2040.63 162.9 2037.92 162.9 Q2033.45 162.9 2031.14 160.122 Q2028.82 157.344 2028.82 151.997 M2039.54 135.678 L2039.54 135.678 Z" fill="#000000" fill-rule="nonzero" fill-opacity="1" /><path clip-path="url(#clip740)" d="M2069.54 126.257 Q2066.44 131.581 2064.93 136.789 Q2063.43 141.997 2063.43 147.344 Q2063.43 152.692 2064.93 157.946 Q2066.46 163.178 2069.54 168.479 L2065.84 168.479 Q2062.36 163.039 2060.63 157.784 Q2058.92 152.53 2058.92 147.344 Q2058.92 142.182 2060.63 136.951 Q2062.34 131.72 2065.84 126.257 L2069.54 126.257 Z" fill="#000000" fill-rule="nonzero" fill-opacity="1" /><path clip-path="url(#clip740)" d="M2082.02 128.942 L2082.02 136.303 L2090.79 136.303 L2090.79 139.613 L2082.02 139.613 L2082.02 153.687 Q2082.02 156.858 2082.87 157.761 Q2083.75 158.664 2086.42 158.664 L2090.79 158.664 L2090.79 162.229 L2086.42 162.229 Q2081.49 162.229 2079.61 160.4 Q2077.74 158.548 2077.74 153.687 L2077.74 139.613 L2074.61 139.613 L2074.61 136.303 L2077.74 136.303 L2077.74 128.942 L2082.02 128.942 Z" fill="#000000" fill-rule="nonzero" fill-opacity="1" /><path clip-path="url(#clip740)" d="M2095.72 126.257 L2099.42 126.257 Q2102.9 131.72 2104.61 136.951 Q2106.35 142.182 2106.35 147.344 Q2106.35 152.53 2104.61 157.784 Q2102.9 163.039 2099.42 168.479 L2095.72 168.479 Q2098.8 163.178 2100.3 157.946 Q2101.83 152.692 2101.83 147.344 Q2101.83 141.997 2100.3 136.789 Q2098.8 131.581 2095.72 126.257 Z" fill="#000000" fill-rule="nonzero" fill-opacity="1" /><circle clip-path="url(#clip740)" cx="1932.88" cy="196.789" r="20.48" fill="#e26f46" fill-rule="evenodd" fill-opacity="1" stroke="#000000" stroke-opacity="1" stroke-width="4.55111"/>
<path clip-path="url(#clip740)" d="M2044.66 184.115 L2038.31 201.314 L2051.02 201.314 L2044.66 184.115 M2042.02 179.509 L2047.32 179.509 L2060.49 214.069 L2055.63 214.069 L2052.48 205.203 L2036.9 205.203 L2033.75 214.069 L2028.82 214.069 L2042.02 179.509 Z" fill="#000000" fill-rule="nonzero" fill-opacity="1" /><path clip-path="url(#clip740)" d="M2086.9 198.421 L2086.9 214.069 L2082.64 214.069 L2082.64 198.559 Q2082.64 194.879 2081.21 193.05 Q2079.77 191.222 2076.9 191.222 Q2073.45 191.222 2071.46 193.421 Q2069.47 195.62 2069.47 199.416 L2069.47 214.069 L2065.19 214.069 L2065.19 188.143 L2069.47 188.143 L2069.47 192.171 Q2071 189.833 2073.06 188.675 Q2075.14 187.518 2077.85 187.518 Q2082.32 187.518 2084.61 190.296 Q2086.9 193.05 2086.9 198.421 Z" fill="#000000" fill-rule="nonzero" fill-opacity="1" /><path clip-path="url(#clip740)" d="M2107.18 201.036 Q2102.02 201.036 2100.03 202.217 Q2098.04 203.397 2098.04 206.245 Q2098.04 208.513 2099.52 209.856 Q2101.02 211.175 2103.59 211.175 Q2107.13 211.175 2109.26 208.675 Q2111.42 206.152 2111.42 201.985 L2111.42 201.036 L2107.18 201.036 M2115.67 199.277 L2115.67 214.069 L2111.42 214.069 L2111.42 210.133 Q2109.96 212.495 2107.78 213.629 Q2105.61 214.74 2102.46 214.74 Q2098.48 214.74 2096.11 212.518 Q2093.78 210.272 2093.78 206.522 Q2093.78 202.147 2096.69 199.925 Q2099.63 197.703 2105.44 197.703 L2111.42 197.703 L2111.42 197.286 Q2111.42 194.347 2109.47 192.749 Q2107.55 191.129 2104.05 191.129 Q2101.83 191.129 2099.73 191.661 Q2097.62 192.194 2095.67 193.259 L2095.67 189.323 Q2098.01 188.421 2100.21 187.981 Q2102.41 187.518 2104.49 187.518 Q2110.12 187.518 2112.9 190.434 Q2115.67 193.351 2115.67 199.277 Z" fill="#000000" fill-rule="nonzero" fill-opacity="1" /><path clip-path="url(#clip740)" d="M2124.45 178.05 L2128.71 178.05 L2128.71 214.069 L2124.45 214.069 L2124.45 178.05 Z" fill="#000000" fill-rule="nonzero" fill-opacity="1" /><path clip-path="url(#clip740)" d="M2148.41 216.476 Q2146.6 221.106 2144.89 222.518 Q2143.17 223.93 2140.3 223.93 L2136.9 223.93 L2136.9 220.365 L2139.4 220.365 Q2141.16 220.365 2142.13 219.532 Q2143.11 218.698 2144.29 215.596 L2145.05 213.652 L2134.56 188.143 L2139.08 188.143 L2147.18 208.421 L2155.28 188.143 L2159.79 188.143 L2148.41 216.476 Z" fill="#000000" fill-rule="nonzero" fill-opacity="1" /><path clip-path="url(#clip740)" d="M2169.89 180.782 L2169.89 188.143 L2178.66 188.143 L2178.66 191.453 L2169.89 191.453 L2169.89 205.527 Q2169.89 208.698 2170.74 209.601 Q2171.62 210.504 2174.29 210.504 L2178.66 210.504 L2178.66 214.069 L2174.29 214.069 Q2169.36 214.069 2167.48 212.24 Q2165.61 210.388 2165.61 205.527 L2165.61 191.453 L2162.48 191.453 L2162.48 188.143 L2165.61 188.143 L2165.61 180.782 L2169.89 180.782 Z" fill="#000000" fill-rule="nonzero" fill-opacity="1" /><path clip-path="url(#clip740)" d="M2184.26 188.143 L2188.52 188.143 L2188.52 214.069 L2184.26 214.069 L2184.26 188.143 M2184.26 178.05 L2188.52 178.05 L2188.52 183.444 L2184.26 183.444 L2184.26 178.05 Z" fill="#000000" fill-rule="nonzero" fill-opacity="1" /><path clip-path="url(#clip740)" d="M2216.09 189.138 L2216.09 193.12 Q2214.29 192.124 2212.46 191.638 Q2210.65 191.129 2208.8 191.129 Q2204.66 191.129 2202.36 193.768 Q2200.07 196.384 2200.07 201.129 Q2200.07 205.874 2202.36 208.513 Q2204.66 211.129 2208.8 211.129 Q2210.65 211.129 2212.46 210.643 Q2214.29 210.133 2216.09 209.138 L2216.09 213.073 Q2214.31 213.907 2212.39 214.323 Q2210.49 214.74 2208.34 214.74 Q2202.48 214.74 2199.03 211.059 Q2195.58 207.379 2195.58 201.129 Q2195.58 194.786 2199.05 191.152 Q2202.55 187.518 2208.61 187.518 Q2210.58 187.518 2212.46 187.935 Q2214.33 188.328 2216.09 189.138 Z" fill="#000000" fill-rule="nonzero" fill-opacity="1" /><path clip-path="url(#clip740)" d="M2235.28 201.036 Q2230.12 201.036 2228.13 202.217 Q2226.14 203.397 2226.14 206.245 Q2226.14 208.513 2227.62 209.856 Q2229.12 211.175 2231.69 211.175 Q2235.23 211.175 2237.36 208.675 Q2239.52 206.152 2239.52 201.985 L2239.52 201.036 L2235.28 201.036 M2243.78 199.277 L2243.78 214.069 L2239.52 214.069 L2239.52 210.133 Q2238.06 212.495 2235.88 213.629 Q2233.71 214.74 2230.56 214.74 Q2226.58 214.74 2224.22 212.518 Q2221.88 210.272 2221.88 206.522 Q2221.88 202.147 2224.79 199.925 Q2227.73 197.703 2233.54 197.703 L2239.52 197.703 L2239.52 197.286 Q2239.52 194.347 2237.57 192.749 Q2235.65 191.129 2232.16 191.129 Q2229.93 191.129 2227.83 191.661 Q2225.72 192.194 2223.78 193.259 L2223.78 189.323 Q2226.11 188.421 2228.31 187.981 Q2230.51 187.518 2232.6 187.518 Q2238.22 187.518 2241 190.434 Q2243.78 193.351 2243.78 199.277 Z" fill="#000000" fill-rule="nonzero" fill-opacity="1" /><path clip-path="url(#clip740)" d="M2252.55 178.05 L2256.81 178.05 L2256.81 214.069 L2252.55 214.069 L2252.55 178.05 Z" fill="#000000" fill-rule="nonzero" fill-opacity="1" /></svg>
