<?xml version="1.0" encoding="utf-8"?>
<svg xmlns="http://www.w3.org/2000/svg" xmlns:xlink="http://www.w3.org/1999/xlink" width="600" height="400" viewBox="0 0 2400 1600">
<defs>
  <clipPath id="clip220">
    <rect x="0" y="0" width="2400" height="1600"/>
  </clipPath>
</defs>
<path clip-path="url(#clip220)" d="M0 1600 L2400 1600 L2400 0 L0 0  Z" fill="#ffffff" fill-rule="evenodd" fill-opacity="1"/>
<defs>
  <clipPath id="clip221">
    <rect x="480" y="0" width="1681" height="1600"/>
  </clipPath>
</defs>
<path clip-path="url(#clip220)" d="M256.209 1423.18 L2352.76 1423.18 L2352.76 123.472 L256.209 123.472  Z" fill="#ffffff" fill-rule="evenodd" fill-opacity="1"/>
<defs>
  <clipPath id="clip222">
    <rect x="256" y="123" width="2098" height="1301"/>
  </clipPath>
</defs>
<polyline clip-path="url(#clip222)" style="stroke:#000000; stroke-linecap:round; stroke-linejoin:round; stroke-width:2; stroke-opacity:0.1; fill:none" points="315.545,1423.18 315.545,123.472 "/>
<polyline clip-path="url(#clip222)" style="stroke:#000000; stroke-linecap:round; stroke-linejoin:round; stroke-width:2; stroke-opacity:0.1; fill:none" points="810.013,1423.18 810.013,123.472 "/>
<polyline clip-path="url(#clip222)" style="stroke:#000000; stroke-linecap:round; stroke-linejoin:round; stroke-width:2; stroke-opacity:0.1; fill:none" points="1304.48,1423.18 1304.48,123.472 "/>
<polyline clip-path="url(#clip222)" style="stroke:#000000; stroke-linecap:round; stroke-linejoin:round; stroke-width:2; stroke-opacity:0.1; fill:none" points="1798.95,1423.18 1798.95,123.472 "/>
<polyline clip-path="url(#clip222)" style="stroke:#000000; stroke-linecap:round; stroke-linejoin:round; stroke-width:2; stroke-opacity:0.1; fill:none" points="2293.42,1423.18 2293.42,123.472 "/>
<polyline clip-path="url(#clip222)" style="stroke:#000000; stroke-linecap:round; stroke-linejoin:round; stroke-width:2; stroke-opacity:0.1; fill:none" points="256.209,1136.8 2352.76,1136.8 "/>
<polyline clip-path="url(#clip222)" style="stroke:#000000; stroke-linecap:round; stroke-linejoin:round; stroke-width:2; stroke-opacity:0.1; fill:none" points="256.209,811.271 2352.76,811.271 "/>
<polyline clip-path="url(#clip222)" style="stroke:#000000; stroke-linecap:round; stroke-linejoin:round; stroke-width:2; stroke-opacity:0.1; fill:none" points="256.209,485.741 2352.76,485.741 "/>
<polyline clip-path="url(#clip222)" style="stroke:#000000; stroke-linecap:round; stroke-linejoin:round; stroke-width:2; stroke-opacity:0.1; fill:none" points="256.209,160.21 2352.76,160.21 "/>
<polyline clip-path="url(#clip220)" style="stroke:#000000; stroke-linecap:round; stroke-linejoin:round; stroke-width:4; stroke-opacity:1; fill:none" points="256.209,1423.18 2352.76,1423.18 "/>
<polyline clip-path="url(#clip220)" style="stroke:#000000; stroke-linecap:round; stroke-linejoin:round; stroke-width:4; stroke-opacity:1; fill:none" points="315.545,1423.18 315.545,1404.28 "/>
<polyline clip-path="url(#clip220)" style="stroke:#000000; stroke-linecap:round; stroke-linejoin:round; stroke-width:4; stroke-opacity:1; fill:none" points="810.013,1423.18 810.013,1404.28 "/>
<polyline clip-path="url(#clip220)" style="stroke:#000000; stroke-linecap:round; stroke-linejoin:round; stroke-width:4; stroke-opacity:1; fill:none" points="1304.48,1423.18 1304.48,1404.28 "/>
<polyline clip-path="url(#clip220)" style="stroke:#000000; stroke-linecap:round; stroke-linejoin:round; stroke-width:4; stroke-opacity:1; fill:none" points="1798.95,1423.18 1798.95,1404.28 "/>
<polyline clip-path="url(#clip220)" style="stroke:#000000; stroke-linecap:round; stroke-linejoin:round; stroke-width:4; stroke-opacity:1; fill:none" points="2293.42,1423.18 2293.42,1404.28 "/>
<path clip-path="url(#clip220)" d="M262.073 1468.75 L291.748 1468.75 L291.748 1472.69 L262.073 1472.69 L262.073 1468.75 Z" fill="#000000" fill-rule="nonzero" fill-opacity="1" /><path clip-path="url(#clip220)" d="M302.651 1481.64 L310.29 1481.64 L310.29 1455.28 L301.98 1456.95 L301.98 1452.69 L310.244 1451.02 L314.92 1451.02 L314.92 1481.64 L322.558 1481.64 L322.558 1485.58 L302.651 1485.58 L302.651 1481.64 Z" fill="#000000" fill-rule="nonzero" fill-opacity="1" /><path clip-path="url(#clip220)" d="M332.003 1479.7 L336.887 1479.7 L336.887 1485.58 L332.003 1485.58 L332.003 1479.7 Z" fill="#000000" fill-rule="nonzero" fill-opacity="1" /><path clip-path="url(#clip220)" d="M357.072 1454.1 Q353.461 1454.1 351.632 1457.66 Q349.827 1461.2 349.827 1468.33 Q349.827 1475.44 351.632 1479.01 Q353.461 1482.55 357.072 1482.55 Q360.706 1482.55 362.512 1479.01 Q364.341 1475.44 364.341 1468.33 Q364.341 1461.2 362.512 1457.66 Q360.706 1454.1 357.072 1454.1 M357.072 1450.39 Q362.882 1450.39 365.938 1455 Q369.016 1459.58 369.016 1468.33 Q369.016 1477.06 365.938 1481.67 Q362.882 1486.25 357.072 1486.25 Q351.262 1486.25 348.183 1481.67 Q345.128 1477.06 345.128 1468.33 Q345.128 1459.58 348.183 1455 Q351.262 1450.39 357.072 1450.39 Z" fill="#000000" fill-rule="nonzero" fill-opacity="1" /><path clip-path="url(#clip220)" d="M757.039 1468.75 L786.715 1468.75 L786.715 1472.69 L757.039 1472.69 L757.039 1468.75 Z" fill="#000000" fill-rule="nonzero" fill-opacity="1" /><path clip-path="url(#clip220)" d="M806.807 1454.1 Q803.196 1454.1 801.368 1457.66 Q799.562 1461.2 799.562 1468.33 Q799.562 1475.44 801.368 1479.01 Q803.196 1482.55 806.807 1482.55 Q810.442 1482.55 812.247 1479.01 Q814.076 1475.44 814.076 1468.33 Q814.076 1461.2 812.247 1457.66 Q810.442 1454.1 806.807 1454.1 M806.807 1450.39 Q812.618 1450.39 815.673 1455 Q818.752 1459.58 818.752 1468.33 Q818.752 1477.06 815.673 1481.67 Q812.618 1486.25 806.807 1486.25 Q800.997 1486.25 797.919 1481.67 Q794.863 1477.06 794.863 1468.33 Q794.863 1459.58 797.919 1455 Q800.997 1450.39 806.807 1450.39 Z" fill="#000000" fill-rule="nonzero" fill-opacity="1" /><path clip-path="url(#clip220)" d="M826.969 1479.7 L831.854 1479.7 L831.854 1485.58 L826.969 1485.58 L826.969 1479.7 Z" fill="#000000" fill-rule="nonzero" fill-opacity="1" /><path clip-path="url(#clip220)" d="M842.085 1451.02 L860.441 1451.02 L860.441 1454.96 L846.367 1454.96 L846.367 1463.43 Q847.386 1463.08 848.404 1462.92 Q849.423 1462.73 850.441 1462.73 Q856.228 1462.73 859.608 1465.9 Q862.988 1469.08 862.988 1474.49 Q862.988 1480.07 859.515 1483.17 Q856.043 1486.25 849.724 1486.25 Q847.548 1486.25 845.279 1485.88 Q843.034 1485.51 840.627 1484.77 L840.627 1480.07 Q842.71 1481.2 844.932 1481.76 Q847.154 1482.32 849.631 1482.32 Q853.636 1482.32 855.974 1480.21 Q858.312 1478.1 858.312 1474.49 Q858.312 1470.88 855.974 1468.77 Q853.636 1466.67 849.631 1466.67 Q847.756 1466.67 845.881 1467.08 Q844.029 1467.5 842.085 1468.38 L842.085 1451.02 Z" fill="#000000" fill-rule="nonzero" fill-opacity="1" /><path clip-path="url(#clip220)" d="M1281.87 1454.1 Q1278.26 1454.1 1276.43 1457.66 Q1274.62 1461.2 1274.62 1468.33 Q1274.62 1475.44 1276.43 1479.01 Q1278.26 1482.55 1281.87 1482.55 Q1285.5 1482.55 1287.31 1479.01 Q1289.14 1475.44 1289.14 1468.33 Q1289.14 1461.2 1287.31 1457.66 Q1285.5 1454.1 1281.87 1454.1 M1281.87 1450.39 Q1287.68 1450.39 1290.73 1455 Q1293.81 1459.58 1293.81 1468.33 Q1293.81 1477.06 1290.73 1481.67 Q1287.68 1486.25 1281.87 1486.25 Q1276.06 1486.25 1272.98 1481.67 Q1269.92 1477.06 1269.92 1468.33 Q1269.92 1459.58 1272.98 1455 Q1276.06 1450.39 1281.87 1450.39 Z" fill="#000000" fill-rule="nonzero" fill-opacity="1" /><path clip-path="url(#clip220)" d="M1302.03 1479.7 L1306.91 1479.7 L1306.91 1485.58 L1302.03 1485.58 L1302.03 1479.7 Z" fill="#000000" fill-rule="nonzero" fill-opacity="1" /><path clip-path="url(#clip220)" d="M1327.1 1454.1 Q1323.49 1454.1 1321.66 1457.66 Q1319.85 1461.2 1319.85 1468.33 Q1319.85 1475.44 1321.66 1479.01 Q1323.49 1482.55 1327.1 1482.55 Q1330.73 1482.55 1332.54 1479.01 Q1334.37 1475.44 1334.37 1468.33 Q1334.37 1461.2 1332.54 1457.66 Q1330.73 1454.1 1327.1 1454.1 M1327.1 1450.39 Q1332.91 1450.39 1335.96 1455 Q1339.04 1459.58 1339.04 1468.33 Q1339.04 1477.06 1335.96 1481.67 Q1332.91 1486.25 1327.1 1486.25 Q1321.29 1486.25 1318.21 1481.67 Q1315.15 1477.06 1315.15 1468.33 Q1315.15 1459.58 1318.21 1455 Q1321.29 1450.39 1327.1 1450.39 Z" fill="#000000" fill-rule="nonzero" fill-opacity="1" /><path clip-path="url(#clip220)" d="M1776.83 1454.1 Q1773.22 1454.1 1771.39 1457.66 Q1769.59 1461.2 1769.59 1468.33 Q1769.59 1475.44 1771.39 1479.01 Q1773.22 1482.55 1776.83 1482.55 Q1780.47 1482.55 1782.27 1479.01 Q1784.1 1475.44 1784.1 1468.33 Q1784.1 1461.2 1782.27 1457.66 Q1780.47 1454.1 1776.83 1454.1 M1776.83 1450.39 Q1782.64 1450.39 1785.7 1455 Q1788.78 1459.58 1788.78 1468.33 Q1788.78 1477.06 1785.7 1481.67 Q1782.64 1486.25 1776.83 1486.25 Q1771.02 1486.25 1767.94 1481.67 Q1764.89 1477.06 1764.89 1468.33 Q1764.89 1459.58 1767.94 1455 Q1771.02 1450.39 1776.83 1450.39 Z" fill="#000000" fill-rule="nonzero" fill-opacity="1" /><path clip-path="url(#clip220)" d="M1797 1479.7 L1801.88 1479.7 L1801.88 1485.58 L1797 1485.58 L1797 1479.7 Z" fill="#000000" fill-rule="nonzero" fill-opacity="1" /><path clip-path="url(#clip220)" d="M1812.11 1451.02 L1830.47 1451.02 L1830.47 1454.96 L1816.39 1454.96 L1816.39 1463.43 Q1817.41 1463.08 1818.43 1462.92 Q1819.45 1462.73 1820.47 1462.73 Q1826.25 1462.73 1829.63 1465.9 Q1833.01 1469.08 1833.01 1474.49 Q1833.01 1480.07 1829.54 1483.17 Q1826.07 1486.25 1819.75 1486.25 Q1817.57 1486.25 1815.31 1485.88 Q1813.06 1485.51 1810.65 1484.77 L1810.65 1480.07 Q1812.74 1481.2 1814.96 1481.76 Q1817.18 1482.32 1819.66 1482.32 Q1823.66 1482.32 1826 1480.21 Q1828.34 1478.1 1828.34 1474.49 Q1828.34 1470.88 1826 1468.77 Q1823.66 1466.67 1819.66 1466.67 Q1817.78 1466.67 1815.91 1467.08 Q1814.06 1467.5 1812.11 1468.38 L1812.11 1451.02 Z" fill="#000000" fill-rule="nonzero" fill-opacity="1" /><path clip-path="url(#clip220)" d="M2260.57 1481.64 L2268.21 1481.64 L2268.21 1455.28 L2259.9 1456.95 L2259.9 1452.69 L2268.17 1451.02 L2272.84 1451.02 L2272.84 1481.64 L2280.48 1481.64 L2280.48 1485.58 L2260.57 1485.58 L2260.57 1481.64 Z" fill="#000000" fill-rule="nonzero" fill-opacity="1" /><path clip-path="url(#clip220)" d="M2289.92 1479.7 L2294.81 1479.7 L2294.81 1485.58 L2289.92 1485.58 L2289.92 1479.7 Z" fill="#000000" fill-rule="nonzero" fill-opacity="1" /><path clip-path="url(#clip220)" d="M2314.99 1454.1 Q2311.38 1454.1 2309.55 1457.66 Q2307.75 1461.2 2307.75 1468.33 Q2307.75 1475.44 2309.55 1479.01 Q2311.38 1482.55 2314.99 1482.55 Q2318.63 1482.55 2320.43 1479.01 Q2322.26 1475.44 2322.26 1468.33 Q2322.26 1461.2 2320.43 1457.66 Q2318.63 1454.1 2314.99 1454.1 M2314.99 1450.39 Q2320.8 1450.39 2323.86 1455 Q2326.94 1459.58 2326.94 1468.33 Q2326.94 1477.06 2323.86 1481.67 Q2320.8 1486.25 2314.99 1486.25 Q2309.18 1486.25 2306.11 1481.67 Q2303.05 1477.06 2303.05 1468.33 Q2303.05 1459.58 2306.11 1455 Q2309.18 1450.39 2314.99 1450.39 Z" fill="#000000" fill-rule="nonzero" fill-opacity="1" /><path clip-path="url(#clip220)" d="M1321.1 1532.4 L1308.21 1549.74 L1321.77 1568.04 L1314.86 1568.04 L1304.48 1554.04 L1294.11 1568.04 L1287.2 1568.04 L1301.04 1549.39 L1288.38 1532.4 L1295.28 1532.4 L1304.74 1545.1 L1314.19 1532.4 L1321.1 1532.4 Z" fill="#000000" fill-rule="nonzero" fill-opacity="1" /><polyline clip-path="url(#clip220)" style="stroke:#000000; stroke-linecap:round; stroke-linejoin:round; stroke-width:4; stroke-opacity:1; fill:none" points="256.209,1423.18 256.209,123.472 "/>
<polyline clip-path="url(#clip220)" style="stroke:#000000; stroke-linecap:round; stroke-linejoin:round; stroke-width:4; stroke-opacity:1; fill:none" points="256.209,1136.8 275.106,1136.8 "/>
<polyline clip-path="url(#clip220)" style="stroke:#000000; stroke-linecap:round; stroke-linejoin:round; stroke-width:4; stroke-opacity:1; fill:none" points="256.209,811.271 275.106,811.271 "/>
<polyline clip-path="url(#clip220)" style="stroke:#000000; stroke-linecap:round; stroke-linejoin:round; stroke-width:4; stroke-opacity:1; fill:none" points="256.209,485.741 275.106,485.741 "/>
<polyline clip-path="url(#clip220)" style="stroke:#000000; stroke-linecap:round; stroke-linejoin:round; stroke-width:4; stroke-opacity:1; fill:none" points="256.209,160.21 275.106,160.21 "/>
<path clip-path="url(#clip220)" d="M114.26 1137.25 L143.936 1137.25 L143.936 1141.19 L114.26 1141.19 L114.26 1137.25 Z" fill="#000000" fill-rule="nonzero" fill-opacity="1" /><path clip-path="url(#clip220)" d="M164.028 1122.6 Q160.417 1122.6 158.589 1126.16 Q156.783 1129.71 156.783 1136.84 Q156.783 1143.94 158.589 1147.51 Q160.417 1151.05 164.028 1151.05 Q167.663 1151.05 169.468 1147.51 Q171.297 1143.94 171.297 1136.84 Q171.297 1129.71 169.468 1126.16 Q167.663 1122.6 164.028 1122.6 M164.028 1118.9 Q169.839 1118.9 172.894 1123.5 Q175.973 1128.09 175.973 1136.84 Q175.973 1145.56 172.894 1150.17 Q169.839 1154.75 164.028 1154.75 Q158.218 1154.75 155.14 1150.17 Q152.084 1145.56 152.084 1136.84 Q152.084 1128.09 155.14 1123.5 Q158.218 1118.9 164.028 1118.9 Z" fill="#000000" fill-rule="nonzero" fill-opacity="1" /><path clip-path="url(#clip220)" d="M184.19 1148.2 L189.075 1148.2 L189.075 1154.08 L184.19 1154.08 L184.19 1148.2 Z" fill="#000000" fill-rule="nonzero" fill-opacity="1" /><path clip-path="url(#clip220)" d="M199.306 1119.52 L217.662 1119.52 L217.662 1123.46 L203.588 1123.46 L203.588 1131.93 Q204.607 1131.58 205.625 1131.42 Q206.644 1131.23 207.662 1131.23 Q213.449 1131.23 216.829 1134.41 Q220.209 1137.58 220.209 1142.99 Q220.209 1148.57 216.736 1151.67 Q213.264 1154.75 206.945 1154.75 Q204.769 1154.75 202.5 1154.38 Q200.255 1154.01 197.848 1153.27 L197.848 1148.57 Q199.931 1149.71 202.153 1150.26 Q204.375 1150.82 206.852 1150.82 Q210.857 1150.82 213.195 1148.71 Q215.533 1146.6 215.533 1142.99 Q215.533 1139.38 213.195 1137.28 Q210.857 1135.17 206.852 1135.17 Q204.977 1135.17 203.102 1135.59 Q201.25 1136 199.306 1136.88 L199.306 1119.52 Z" fill="#000000" fill-rule="nonzero" fill-opacity="1" /><path clip-path="url(#clip220)" d="M163.033 797.07 Q159.422 797.07 157.593 800.635 Q155.788 804.176 155.788 811.306 Q155.788 818.412 157.593 821.977 Q159.422 825.519 163.033 825.519 Q166.667 825.519 168.473 821.977 Q170.302 818.412 170.302 811.306 Q170.302 804.176 168.473 800.635 Q166.667 797.07 163.033 797.07 M163.033 793.366 Q168.843 793.366 171.899 797.973 Q174.977 802.556 174.977 811.306 Q174.977 820.033 171.899 824.639 Q168.843 829.222 163.033 829.222 Q157.223 829.222 154.144 824.639 Q151.089 820.033 151.089 811.306 Q151.089 802.556 154.144 797.973 Q157.223 793.366 163.033 793.366 Z" fill="#000000" fill-rule="nonzero" fill-opacity="1" /><path clip-path="url(#clip220)" d="M183.195 822.672 L188.079 822.672 L188.079 828.551 L183.195 828.551 L183.195 822.672 Z" fill="#000000" fill-rule="nonzero" fill-opacity="1" /><path clip-path="url(#clip220)" d="M208.264 797.07 Q204.653 797.07 202.824 800.635 Q201.019 804.176 201.019 811.306 Q201.019 818.412 202.824 821.977 Q204.653 825.519 208.264 825.519 Q211.899 825.519 213.704 821.977 Q215.533 818.412 215.533 811.306 Q215.533 804.176 213.704 800.635 Q211.899 797.07 208.264 797.07 M208.264 793.366 Q214.074 793.366 217.13 797.973 Q220.209 802.556 220.209 811.306 Q220.209 820.033 217.13 824.639 Q214.074 829.222 208.264 829.222 Q202.454 829.222 199.375 824.639 Q196.32 820.033 196.32 811.306 Q196.32 802.556 199.375 797.973 Q202.454 793.366 208.264 793.366 Z" fill="#000000" fill-rule="nonzero" fill-opacity="1" /><path clip-path="url(#clip220)" d="M164.028 471.539 Q160.417 471.539 158.589 475.104 Q156.783 478.646 156.783 485.776 Q156.783 492.882 158.589 496.447 Q160.417 499.988 164.028 499.988 Q167.663 499.988 169.468 496.447 Q171.297 492.882 171.297 485.776 Q171.297 478.646 169.468 475.104 Q167.663 471.539 164.028 471.539 M164.028 467.836 Q169.839 467.836 172.894 472.442 Q175.973 477.026 175.973 485.776 Q175.973 494.502 172.894 499.109 Q169.839 503.692 164.028 503.692 Q158.218 503.692 155.14 499.109 Q152.084 494.502 152.084 485.776 Q152.084 477.026 155.14 472.442 Q158.218 467.836 164.028 467.836 Z" fill="#000000" fill-rule="nonzero" fill-opacity="1" /><path clip-path="url(#clip220)" d="M184.19 497.141 L189.075 497.141 L189.075 503.021 L184.19 503.021 L184.19 497.141 Z" fill="#000000" fill-rule="nonzero" fill-opacity="1" /><path clip-path="url(#clip220)" d="M199.306 468.461 L217.662 468.461 L217.662 472.396 L203.588 472.396 L203.588 480.868 Q204.607 480.521 205.625 480.359 Q206.644 480.174 207.662 480.174 Q213.449 480.174 216.829 483.345 Q220.209 486.516 220.209 491.933 Q220.209 497.512 216.736 500.613 Q213.264 503.692 206.945 503.692 Q204.769 503.692 202.5 503.322 Q200.255 502.951 197.848 502.211 L197.848 497.512 Q199.931 498.646 202.153 499.201 Q204.375 499.757 206.852 499.757 Q210.857 499.757 213.195 497.65 Q215.533 495.544 215.533 491.933 Q215.533 488.322 213.195 486.215 Q210.857 484.109 206.852 484.109 Q204.977 484.109 203.102 484.526 Q201.25 484.942 199.306 485.822 L199.306 468.461 Z" fill="#000000" fill-rule="nonzero" fill-opacity="1" /><path clip-path="url(#clip220)" d="M153.843 173.555 L161.482 173.555 L161.482 147.19 L153.172 148.856 L153.172 144.597 L161.436 142.93 L166.112 142.93 L166.112 173.555 L173.751 173.555 L173.751 177.49 L153.843 177.49 L153.843 173.555 Z" fill="#000000" fill-rule="nonzero" fill-opacity="1" /><path clip-path="url(#clip220)" d="M183.195 171.611 L188.079 171.611 L188.079 177.49 L183.195 177.49 L183.195 171.611 Z" fill="#000000" fill-rule="nonzero" fill-opacity="1" /><path clip-path="url(#clip220)" d="M208.264 146.009 Q204.653 146.009 202.824 149.574 Q201.019 153.116 201.019 160.245 Q201.019 167.352 202.824 170.916 Q204.653 174.458 208.264 174.458 Q211.899 174.458 213.704 170.916 Q215.533 167.352 215.533 160.245 Q215.533 153.116 213.704 149.574 Q211.899 146.009 208.264 146.009 M208.264 142.305 Q214.074 142.305 217.13 146.912 Q220.209 151.495 220.209 160.245 Q220.209 168.972 217.13 173.578 Q214.074 178.162 208.264 178.162 Q202.454 178.162 199.375 173.578 Q196.32 168.972 196.32 160.245 Q196.32 151.495 199.375 146.912 Q202.454 142.305 208.264 142.305 Z" fill="#000000" fill-rule="nonzero" fill-opacity="1" /><path clip-path="url(#clip220)" d="M49.9359 833.132 L28.3562 833.132 L28.3562 827.275 L49.7131 827.275 Q54.7739 827.275 57.3202 825.302 Q59.8346 823.329 59.8346 819.382 Q59.8346 814.639 56.8109 811.902 Q53.7872 809.133 48.5673 809.133 L28.3562 809.133 L28.3562 803.277 L64.0042 803.277 L64.0042 809.133 L58.5296 809.133 Q61.7762 811.266 63.3676 814.098 Q64.9272 816.899 64.9272 820.623 Q64.9272 826.766 61.1078 829.949 Q57.2883 833.132 49.9359 833.132 M27.4968 818.395 L27.4968 818.395 Z" fill="#000000" fill-rule="nonzero" fill-opacity="1" /><path clip-path="url(#clip220)" d="M14.5426 777.145 Q21.8632 781.41 29.0246 783.479 Q36.186 785.548 43.5384 785.548 Q50.8908 785.548 58.1159 783.479 Q65.3091 781.379 72.5979 777.145 L72.5979 782.238 Q65.1182 787.012 57.8931 789.399 Q50.668 791.755 43.5384 791.755 Q36.4406 791.755 29.2474 789.399 Q22.0542 787.044 14.5426 782.238 L14.5426 777.145 Z" fill="#000000" fill-rule="nonzero" fill-opacity="1" /><path clip-path="url(#clip220)" d="M28.3562 736.15 L45.7028 749.041 L64.0042 735.482 L64.0042 742.389 L49.9996 752.765 L64.0042 763.141 L64.0042 770.048 L45.3526 756.202 L28.3562 768.87 L28.3562 761.963 L41.0558 752.51 L28.3562 743.057 L28.3562 736.15 Z" fill="#000000" fill-rule="nonzero" fill-opacity="1" /><path clip-path="url(#clip220)" d="M14.5426 728.129 L14.5426 723.037 Q22.0542 718.263 29.2474 715.907 Q36.4406 713.52 43.5384 713.52 Q50.668 713.52 57.8931 715.907 Q65.1182 718.263 72.5979 723.037 L72.5979 728.129 Q65.3091 723.896 58.1159 721.827 Q50.8908 719.727 43.5384 719.727 Q36.186 719.727 29.0246 721.827 Q21.8632 723.896 14.5426 728.129 Z" fill="#000000" fill-rule="nonzero" fill-opacity="1" /><path clip-path="url(#clip220)" d="M1180.69 14.0809 L1180.69 22.0612 Q1176.03 19.8332 1171.9 18.7395 Q1167.76 17.6457 1163.92 17.6457 Q1157.23 17.6457 1153.59 20.2383 Q1149.98 22.8309 1149.98 27.611 Q1149.98 31.6214 1152.37 33.6873 Q1154.8 35.7128 1161.53 36.9686 L1166.47 37.9813 Q1175.62 39.7232 1179.96 44.1387 Q1184.33 48.5136 1184.33 55.8863 Q1184.33 64.6767 1178.42 69.2137 Q1172.54 73.7508 1161.16 73.7508 Q1156.87 73.7508 1152.01 72.7785 Q1147.19 71.8063 1142 69.9024 L1142 61.4765 Q1146.98 64.2716 1151.76 65.6895 Q1156.54 67.1073 1161.16 67.1073 Q1168.17 67.1073 1171.98 64.3527 Q1175.79 61.598 1175.79 56.4939 Q1175.79 52.0379 1173.03 49.5264 Q1170.32 47.0148 1164.08 45.759 L1159.1 44.7868 Q1149.94 42.9639 1145.85 39.075 Q1141.76 35.1862 1141.76 28.2591 Q1141.76 20.2383 1147.39 15.6203 Q1153.06 11.0023 1162.98 11.0023 Q1167.24 11.0023 1171.65 11.7719 Q1176.07 12.5416 1180.69 14.0809 Z" fill="#000000" fill-rule="nonzero" fill-opacity="1" /><path clip-path="url(#clip220)" d="M1214.35 32.4315 Q1208.35 32.4315 1204.87 37.1306 Q1201.39 41.7891 1201.39 49.9314 Q1201.39 58.0738 1204.83 62.7728 Q1208.31 67.4314 1214.35 67.4314 Q1220.3 67.4314 1223.79 62.7323 Q1227.27 58.0333 1227.27 49.9314 Q1227.27 41.8701 1223.79 37.1711 Q1220.3 32.4315 1214.35 32.4315 M1214.35 26.1121 Q1224.07 26.1121 1229.62 32.4315 Q1235.17 38.7509 1235.17 49.9314 Q1235.17 61.0714 1229.62 67.4314 Q1224.07 73.7508 1214.35 73.7508 Q1204.59 73.7508 1199.04 67.4314 Q1193.53 61.0714 1193.53 49.9314 Q1193.53 38.7509 1199.04 32.4315 Q1204.59 26.1121 1214.35 26.1121 Z" fill="#000000" fill-rule="nonzero" fill-opacity="1" /><path clip-path="url(#clip220)" d="M1247.53 9.54393 L1254.98 9.54393 L1254.98 72.576 L1247.53 72.576 L1247.53 9.54393 Z" fill="#000000" fill-rule="nonzero" fill-opacity="1" /><path clip-path="url(#clip220)" d="M1269.81 54.671 L1269.81 27.2059 L1277.26 27.2059 L1277.26 54.3874 Q1277.26 60.8284 1279.77 64.0691 Q1282.28 67.2693 1287.31 67.2693 Q1293.34 67.2693 1296.83 63.421 Q1300.35 59.5726 1300.35 52.9291 L1300.35 27.2059 L1307.8 27.2059 L1307.8 72.576 L1300.35 72.576 L1300.35 65.6084 Q1297.64 69.7404 1294.03 71.7658 Q1290.47 73.7508 1285.73 73.7508 Q1277.91 73.7508 1273.86 68.8897 Q1269.81 64.0286 1269.81 54.671 M1288.56 26.1121 L1288.56 26.1121 Z" fill="#000000" fill-rule="nonzero" fill-opacity="1" /><path clip-path="url(#clip220)" d="M1330.53 14.324 L1330.53 27.2059 L1345.88 27.2059 L1345.88 32.9987 L1330.53 32.9987 L1330.53 57.6282 Q1330.53 63.1779 1332.03 64.7578 Q1333.57 66.3376 1338.23 66.3376 L1345.88 66.3376 L1345.88 72.576 L1338.23 72.576 Q1329.6 72.576 1326.32 69.3758 Q1323.04 66.1351 1323.04 57.6282 L1323.04 32.9987 L1317.57 32.9987 L1317.57 27.2059 L1323.04 27.2059 L1323.04 14.324 L1330.53 14.324 Z" fill="#000000" fill-rule="nonzero" fill-opacity="1" /><path clip-path="url(#clip220)" d="M1355.69 27.2059 L1363.14 27.2059 L1363.14 72.576 L1355.69 72.576 L1355.69 27.2059 M1355.69 9.54393 L1363.14 9.54393 L1363.14 18.9825 L1355.69 18.9825 L1355.69 9.54393 Z" fill="#000000" fill-rule="nonzero" fill-opacity="1" /><path clip-path="url(#clip220)" d="M1396.32 32.4315 Q1390.32 32.4315 1386.84 37.1306 Q1383.35 41.7891 1383.35 49.9314 Q1383.35 58.0738 1386.8 62.7728 Q1390.28 67.4314 1396.32 67.4314 Q1402.27 67.4314 1405.75 62.7323 Q1409.24 58.0333 1409.24 49.9314 Q1409.24 41.8701 1405.75 37.1711 Q1402.27 32.4315 1396.32 32.4315 M1396.32 26.1121 Q1406.04 26.1121 1411.59 32.4315 Q1417.14 38.7509 1417.14 49.9314 Q1417.14 61.0714 1411.59 67.4314 Q1406.04 73.7508 1396.32 73.7508 Q1386.55 73.7508 1381 67.4314 Q1375.49 61.0714 1375.49 49.9314 Q1375.49 38.7509 1381 32.4315 Q1386.55 26.1121 1396.32 26.1121 Z" fill="#000000" fill-rule="nonzero" fill-opacity="1" /><path clip-path="url(#clip220)" d="M1467.21 45.1919 L1467.21 72.576 L1459.75 72.576 L1459.75 45.4349 Q1459.75 38.994 1457.24 35.7938 Q1454.73 32.5936 1449.71 32.5936 Q1443.67 32.5936 1440.19 36.4419 Q1436.7 40.2903 1436.7 46.9338 L1436.7 72.576 L1429.21 72.576 L1429.21 27.2059 L1436.7 27.2059 L1436.7 34.2544 Q1439.38 30.163 1442.98 28.1376 Q1446.63 26.1121 1451.37 26.1121 Q1459.19 26.1121 1463.2 30.9732 Q1467.21 35.7938 1467.21 45.1919 Z" fill="#000000" fill-rule="nonzero" fill-opacity="1" /><polyline clip-path="url(#clip222)" style="stroke:#009af9; stroke-linecap:round; stroke-linejoin:round; stroke-width:4; stroke-opacity:1; fill:none" points="315.545,160.256 315.548,160.623 315.555,161.357 315.564,162.458 315.577,163.926 315.593,165.761 315.613,167.962 315.636,170.531 315.661,173.466 315.691,176.769 315.723,180.437 315.759,184.473 315.798,188.874 315.84,193.642 315.885,198.775 315.934,204.274 315.985,210.137 316.04,216.365 316.099,222.956 316.16,229.91 316.225,237.226 316.293,244.903 316.364,252.939 316.439,261.333 316.516,270.083 316.597,279.187 316.681,288.644 316.769,298.451 316.86,308.605 316.953,319.104 317.051,329.943 317.151,341.12 317.254,352.631 317.361,364.471 317.471,376.636 317.585,389.12 317.701,401.919 317.821,415.025 317.944,428.434 318.07,442.138 318.199,456.13 318.332,470.402 318.468,484.945 318.607,499.751 318.749,514.811 318.895,530.115 319.044,545.652 319.196,561.411 319.351,577.38 319.51,593.549 319.671,609.903 319.836,626.431 320.004,643.117 320.176,659.949 320.35,676.911 320.528,693.987 320.709,711.163 320.894,728.423 321.081,745.749 321.272,763.124 321.466,780.532 321.663,797.955 321.863,815.374 322.067,832.771 322.274,850.129 322.484,867.427 322.697,884.649 322.913,901.775 323.133,918.786 323.356,935.663 323.582,952.389 323.811,968.944 324.044,985.311 324.28,1001.47 324.519,1017.41 324.761,1033.1 325.006,1048.54 325.255,1063.71 325.507,1078.59 325.762,1093.16 326.02,1107.42 326.281,1121.35 326.546,1134.93 326.814,1148.16 327.085,1161.03 327.359,1173.53 327.636,1185.64 327.917,1197.37 328.201,1208.7 328.488,1219.64 328.778,1230.16 329.071,1240.29 329.368,1250 329.667,1259.31 329.97,1268.21 330.277,1276.71 330.586,1284.8 330.899,1292.49 331.214,1299.79 331.533,1306.7 331.855,1313.23 332.181,1319.39 332.509,1325.18 332.841,1330.62 333.176,1335.71 333.514,1340.47 333.855,1344.9 334.199,1349.02 334.547,1352.84 334.897,1356.37 335.251,1359.63 335.608,1362.63 335.969,1365.37 336.332,1367.88 336.699,1370.17 337.068,1372.24 337.441,1374.12 337.817,1375.81 338.197,1377.32 338.579,1378.68 338.965,1379.88 339.354,1380.95 339.745,1381.89 340.141,1382.71 340.539,1383.42 340.94,1384.03 341.345,1384.55 341.752,1384.99 342.163,1385.36 342.577,1385.66 342.994,1385.89 343.415,1386.08 343.838,1386.22 344.265,1386.31 344.695,1386.37 345.127,1386.4 345.563,1386.39 346.003,1386.36 346.445,1386.31 346.89,1386.24 347.339,1386.15 347.791,1386.05 348.245,1385.94 348.703,1385.81 349.165,1385.68 349.629,1385.54 350.096,1385.4 350.567,1385.25 351.04,1385.1 351.517,1384.94 351.997,1384.78 352.48,1384.62 352.966,1384.46 353.455,1384.29 353.948,1384.13 354.443,1383.97 354.941,1383.8 355.443,1383.64 355.948,1383.48 356.456,1383.31 356.967,1383.15 357.481,1382.99 357.998,1382.82 358.518,1382.66 359.042,1382.5 359.568,1382.34 360.098,1382.18 360.63,1382.03 361.166,1381.87 361.705,1381.71 362.247,1381.56 362.792,1381.4 363.34,1381.25 363.891,1381.09 364.446,1380.94 365.003,1380.79 365.563,1380.63 366.127,1380.48 366.693,1380.33 367.263,1380.18 367.836,1380.03 368.411,1379.88 368.99,1379.74 369.572,1379.59 370.157,1379.44 370.745,1379.3 371.336,1379.15 371.93,1379.01 372.528,1378.86 373.128,1378.72 373.731,1378.57 374.338,1378.43 374.947,1378.29 375.559,1378.15 376.175,1378.01 376.793,1377.87 377.415,1377.73 378.04,1377.59 378.667,1377.45 379.298,1377.31 379.931,1377.17 380.568,1377.03 381.208,1376.9 381.851,1376.76 382.497,1376.62 383.145,1376.49 383.797,1376.35 384.452,1376.22 385.11,1376.09 385.771,1375.95 386.435,1375.82 387.101,1375.69 387.771,1375.55 388.444,1375.42 389.12,1375.29 389.799,1375.16 390.481,1375.03 391.166,1374.9 391.854,1374.77 392.544,1374.64 393.238,1374.51 393.935,1374.38 394.635,1374.26 395.338,1374.13 396.043,1374 396.752,1373.87 397.464,1373.75 398.179,1373.62 398.896,1373.49 399.617,1373.37 400.34,1373.24 401.067,1373.12 401.796,1373 402.529,1372.87 403.264,1372.75 404.003,1372.63 404.744,1372.5 405.488,1372.38 406.235,1372.26 406.986,1372.14 407.739,1372.01 408.495,1371.89 409.254,1371.77 410.015,1371.65 410.78,1371.53 411.548,1371.41 412.319,1371.29 413.092,1371.17 413.869,1371.06 414.648,1370.94 415.43,1370.82 416.216,1370.7 417.004,1370.58 417.795,1370.47 418.589,1370.35 419.386,1370.23 420.186,1370.12 420.988,1370 421.794,1369.88 422.602,1369.77 423.414,1369.65 424.228,1369.54 425.045,1369.42 425.865,1369.31 426.688,1369.2 427.513,1369.08 428.342,1368.97 429.173,1368.86 430.008,1368.74 430.845,1368.63 431.685,1368.52 432.528,1368.41 433.374,1368.29 434.222,1368.18 435.074,1368.07 435.928,1367.96 436.785,1367.85 437.645,1367.74 438.508,1367.63 439.374,1367.52 440.242,1367.41 441.114,1367.3 441.988,1367.19 442.865,1367.08 443.745,1366.97 444.628,1366.86 445.513,1366.75 446.401,1366.65 447.292,1366.54 448.186,1366.43 449.083,1366.32 449.982,1366.22 450.885,1366.11 451.79,1366 452.698,1365.9 453.608,1365.79 454.522,1365.68 455.438,1365.58 456.357,1365.47 457.279,1365.37 458.203,1365.26 459.131,1365.16 460.061,1365.05 460.994,1364.95 461.929,1364.84 462.868,1364.74 463.809,1364.63 464.753,1364.53 465.7,1364.43 466.649,1364.32 467.601,1364.22 468.556,1364.12 469.514,1364.02 470.474,1363.91 471.437,1363.81 472.403,1363.71 473.372,1363.61 474.343,1363.5 475.317,1363.4 476.293,1363.3 477.273,1363.2 478.255,1363.1 479.24,1363 480.227,1362.9 481.218,1362.8 482.211,1362.7 483.206,1362.6 484.205,1362.5 485.206,1362.4 486.209,1362.3 487.216,1362.2 488.225,1362.1 489.236,1362 490.251,1361.9 491.268,1361.8 492.287,1361.7 493.31,1361.61 494.335,1361.51 495.363,1361.41 496.393,1361.31 497.426,1361.21 498.461,1361.12 499.5,1361.02 500.541,1360.92 501.584,1360.83 502.63,1360.73 503.679,1360.63 504.731,1360.54 505.785,1360.44 506.841,1360.34 507.9,1360.25 508.962,1360.15 510.027,1360.06 511.094,1359.96 512.164,1359.87 513.236,1359.77 514.311,1359.67 515.388,1359.58 516.468,1359.49 517.551,1359.39 518.636,1359.3 519.724,1359.2 520.814,1359.11 521.907,1359.01 523.002,1358.92 524.1,1358.83 525.201,1358.73 526.304,1358.64 527.41,1358.55 528.518,1358.45 529.629,1358.36 530.742,1358.27 531.858,1358.17 532.976,1358.08 534.097,1357.99 535.22,1357.9 536.346,1357.8 537.475,1357.71 538.606,1357.62 539.739,1357.53 540.875,1357.44 542.014,1357.34 543.155,1357.25 544.298,1357.16 545.444,1357.07 546.593,1356.98 547.743,1356.89 548.897,1356.8 550.053,1356.71 551.211,1356.62 552.372,1356.52 553.535,1356.43 554.701,1356.34 555.869,1356.25 557.04,1356.16 558.213,1356.07 559.388,1355.98 560.566,1355.89 561.747,1355.81 562.93,1355.72 564.115,1355.63 565.302,1355.54 566.493,1355.45 567.685,1355.36 568.88,1355.27 570.077,1355.18 571.277,1355.09 572.479,1355 573.684,1354.92 574.891,1354.83 576.1,1354.74 577.312,1354.65 578.526,1354.56 579.743,1354.48 580.961,1354.39 582.183,1354.3 583.406,1354.21 584.632,1354.13 585.86,1354.04 587.091,1353.95 588.324,1353.86 589.559,1353.78 590.797,1353.69 592.037,1353.6 593.28,1353.52 594.524,1353.43 595.771,1353.34 597.021,1353.26 598.272,1353.17 599.526,1353.09 600.783,1353 602.041,1352.91 603.302,1352.83 604.565,1352.74 605.831,1352.66 607.098,1352.57 608.369,1352.48 609.641,1352.4 610.915,1352.31 612.192,1352.23 613.471,1352.14 614.753,1352.06 616.037,1351.97 617.322,1351.89 618.611,1351.8 619.901,1351.72 621.194,1351.63 622.489,1351.55 623.786,1351.47 625.085,1351.38 626.387,1351.3 627.69,1351.21 628.996,1351.13 630.305,1351.04 631.615,1350.96 632.928,1350.88 634.243,1350.79 635.56,1350.71 636.879,1350.63 638.2,1350.54 639.524,1350.46 640.85,1350.38 642.178,1350.29 643.508,1350.21 644.84,1350.13 646.174,1350.04 647.511,1349.96 648.85,1349.88 650.191,1349.79 651.534,1349.71 652.879,1349.63 654.226,1349.55 655.576,1349.46 656.927,1349.38 658.281,1349.3 659.637,1349.22 660.995,1349.13 662.355,1349.05 663.717,1348.97 665.081,1348.89 666.447,1348.81 667.816,1348.72 669.186,1348.64 670.559,1348.56 671.933,1348.48 673.31,1348.4 674.689,1348.32 676.07,1348.24 677.453,1348.15 678.838,1348.07 680.225,1347.99 681.614,1347.91 683.005,1347.83 684.398,1347.75 685.793,1347.67 687.19,1347.59 688.59,1347.51 689.991,1347.42 691.394,1347.34 692.799,1347.26 694.206,1347.18 695.616,1347.1 697.027,1347.02 698.44,1346.94 699.855,1346.86 701.273,1346.78 702.692,1346.7 704.113,1346.62 705.536,1346.54 706.961,1346.46 708.388,1346.38 709.817,1346.3 711.248,1346.22 712.681,1346.14 714.116,1346.06 715.552,1345.98 716.991,1345.9 718.432,1345.82 719.874,1345.74 721.319,1345.66 722.765,1345.59 724.213,1345.51 725.663,1345.43 727.115,1345.35 728.569,1345.27 730.025,1345.19 731.483,1345.11 732.942,1345.03 734.404,1344.95 735.867,1344.87 737.332,1344.79 738.799,1344.72 740.268,1344.64 741.739,1344.56 743.212,1344.48 744.686,1344.4 746.162,1344.32 747.64,1344.24 749.12,1344.17 750.602,1344.09 752.085,1344.01 753.571,1343.93 755.058,1343.85 756.547,1343.78 758.038,1343.7 759.53,1343.62 761.024,1343.54 762.52,1343.46 764.018,1343.39 765.518,1343.31 767.019,1343.23 768.523,1343.15 770.027,1343.07 771.534,1343 773.043,1342.92 774.553,1342.84 776.065,1342.76 777.578,1342.69 779.094,1342.61 780.611,1342.53 782.129,1342.45 783.65,1342.38 785.172,1342.3 786.696,1342.22 788.222,1342.15 789.749,1342.07 791.278,1341.99 792.808,1341.91 794.341,1341.84 795.875,1341.76 797.41,1341.68 798.948,1341.61 800.487,1341.53 802.027,1341.45 803.57,1341.38 805.114,1341.3 806.659,1341.22 808.206,1341.15 809.755,1341.07 811.306,1340.99 812.858,1340.92 814.411,1340.84 815.966,1340.76 817.523,1340.69 819.082,1340.61 820.642,1340.53 822.203,1340.46 823.767,1340.38 825.331,1340.3 826.898,1340.23 828.466,1340.15 830.035,1340.08 831.606,1340 833.179,1339.92 834.753,1339.85 836.329,1339.77 837.906,1339.69 839.484,1339.62 841.065,1339.54 842.646,1339.47 844.23,1339.39 845.814,1339.32 847.401,1339.24 848.989,1339.16 850.578,1339.09 852.169,1339.01 853.761,1338.94 855.354,1338.86 856.95,1338.78 858.546,1338.71 860.144,1338.63 861.744,1338.56 863.345,1338.48 864.947,1338.41 866.551,1338.33 868.157,1338.26 869.763,1338.18 871.372,1338.11 872.981,1338.03 874.592,1337.95 876.205,1337.88 877.818,1337.8 879.434,1337.73 881.05,1337.65 882.668,1337.58 884.288,1337.5 885.908,1337.43 887.531,1337.35 889.154,1337.28 890.779,1337.2 892.405,1337.13 894.033,1337.05 895.662,1336.98 897.292,1336.9 898.923,1336.83 900.556,1336.75 902.191,1336.68 903.826,1336.6 905.463,1336.53 907.101,1336.45 908.741,1336.38 910.381,1336.3 912.023,1336.23 913.667,1336.15 915.311,1336.08 916.957,1336 918.604,1335.93 920.253,1335.85 921.903,1335.78 923.553,1335.7 925.206,1335.63 926.859,1335.55 928.514,1335.48 930.17,1335.4 931.827,1335.33 933.485,1335.26 935.145,1335.18 936.805,1335.11 938.467,1335.03 940.131,1334.96 941.795,1334.88 943.46,1334.81 945.127,1334.73 946.795,1334.66 948.464,1334.58 950.134,1334.51 951.806,1334.44 953.478,1334.36 955.152,1334.29 956.827,1334.21 958.503,1334.14 960.18,1334.06 961.858,1333.99 963.538,1333.91 965.218,1333.84 966.9,1333.77 968.582,1333.69 970.266,1333.62 971.951,1333.54 973.637,1333.47 975.324,1333.39 977.012,1333.32 978.702,1333.25 980.392,1333.17 982.083,1333.1 983.776,1333.02 985.469,1332.95 987.164,1332.87 988.859,1332.8 990.556,1332.73 992.253,1332.65 993.952,1332.58 995.652,1332.5 997.352,1332.43 999.054,1332.35 1000.76,1332.28 1002.46,1332.21 1004.16,1332.13 1005.87,1332.06 1007.58,1331.98 1009.28,1331.91 1010.99,1331.83 1012.7,1331.76 1014.41,1331.69 1016.12,1331.61 1017.84,1331.54 1019.55,1331.46 1021.26,1331.39 1022.98,1331.32 1024.7,1331.24 1026.41,1331.17 1028.13,1331.09 1029.85,1331.02 1031.57,1330.94 1033.29,1330.87 1035.01,1330.8 1036.73,1330.72 1038.46,1330.65 1040.18,1330.57 1041.91,1330.5 1043.63,1330.43 1045.36,1330.35 1047.09,1330.28 1048.81,1330.2 1050.54,1330.13 1052.27,1330.06 1054,1329.98 1055.74,1329.91 1057.47,1329.83 1059.2,1329.76 1060.94,1329.68 1062.67,1329.61 1064.41,1329.54 1066.14,1329.46 1067.88,1329.39 1069.62,1329.31 1071.36,1329.24 1073.1,1329.17 1074.84,1329.09 1076.58,1329.02 1078.32,1328.94 1080.06,1328.87 1081.81,1328.79 1083.55,1328.72 1085.3,1328.65 1087.04,1328.57 1088.79,1328.5 1090.53,1328.42 1092.28,1328.35 1094.03,1328.27 1095.78,1328.2 1097.53,1328.13 1099.28,1328.05 1101.03,1327.98 1102.78,1327.9 1104.53,1327.83 1106.29,1327.76 1108.04,1327.68 1109.8,1327.61 1111.55,1327.53 1113.31,1327.46 1115.06,1327.38 1116.82,1327.31 1118.58,1327.23 1120.33,1327.16 1122.09,1327.09 1123.85,1327.01 1125.61,1326.94 1127.37,1326.86 1129.13,1326.79 1130.89,1326.71 1132.66,1326.64 1134.42,1326.56 1136.18,1326.49 1137.95,1326.42 1139.71,1326.34 1141.48,1326.27 1143.24,1326.19 1145.01,1326.12 1146.77,1326.04 1148.54,1325.97 1150.31,1325.89 1152.08,1325.82 1153.85,1325.75 1155.61,1325.67 1157.38,1325.6 1159.15,1325.52 1160.92,1325.45 1162.7,1325.37 1164.47,1325.3 1166.24,1325.22 1168.01,1325.15 1169.78,1325.07 1171.56,1325 1173.33,1324.92 1175.1,1324.85 1176.88,1324.77 1178.65,1324.7 1180.43,1324.62 1182.2,1324.55 1183.98,1324.47 1185.76,1324.4 1187.53,1324.32 1189.31,1324.25 1191.09,1324.17 1192.87,1324.1 1194.65,1324.02 1196.42,1323.95 1198.2,1323.87 1199.98,1323.8 1201.76,1323.72 1203.54,1323.65 1205.32,1323.57 1207.1,1323.5 1208.89,1323.42 1210.67,1323.35 1212.45,1323.27 1214.23,1323.2 1216.01,1323.12 1217.8,1323.05 1219.58,1322.97 1221.36,1322.9 1223.15,1322.82 1224.93,1322.75 1226.71,1322.67 1228.5,1322.59 1230.28,1322.52 1232.07,1322.44 1233.85,1322.37 1235.64,1322.29 1237.42,1322.22 1239.21,1322.14 1240.99,1322.07 1242.78,1321.99 1244.57,1321.91 1246.35,1321.84 1248.14,1321.76 1249.93,1321.69 1251.71,1321.61 1253.5,1321.54 1255.29,1321.46 1257.07,1321.38 1258.86,1321.31 1260.65,1321.23 1262.44,1321.16 1264.23,1321.08 1266.01,1321 1267.8,1320.93 1269.59,1320.85 1271.38,1320.78 1273.17,1320.7 1274.96,1320.62 1276.75,1320.55 1278.54,1320.47 1280.32,1320.39 1282.11,1320.32 1283.9,1320.24 1285.69,1320.17 1287.48,1320.09 1289.27,1320.01 1291.06,1319.94 1292.85,1319.86 1294.64,1319.78 1296.43,1319.71 1298.22,1319.63 1300.01,1319.55 1301.8,1319.48 1303.59,1319.4 1305.38,1319.32 1307.17,1319.25 1308.96,1319.17 1310.75,1319.09 1312.54,1319.02 1314.33,1318.94 1316.11,1318.86 1317.9,1318.78 1319.69,1318.71 1321.48,1318.63 1323.27,1318.55 1325.06,1318.48 1326.85,1318.4 1328.64,1318.32 1330.43,1318.24 1332.22,1318.17 1334.01,1318.09 1335.8,1318.01 1337.58,1317.93 1339.37,1317.86 1341.16,1317.78 1342.95,1317.7 1344.74,1317.62 1346.53,1317.55 1348.31,1317.47 1350.1,1317.39 1351.89,1317.31 1353.68,1317.24 1355.46,1317.16 1357.25,1317.08 1359.04,1317 1360.83,1316.92 1362.61,1316.85 1364.4,1316.77 1366.19,1316.69 1367.97,1316.61 1369.76,1316.53 1371.54,1316.45 1373.33,1316.38 1375.11,1316.3 1376.9,1316.22 1378.68,1316.14 1380.47,1316.06 1382.25,1315.98 1384.04,1315.91 1385.82,1315.83 1387.6,1315.75 1389.39,1315.67 1391.17,1315.59 1392.95,1315.51 1394.73,1315.43 1396.52,1315.35 1398.3,1315.27 1400.08,1315.2 1401.86,1315.12 1403.64,1315.04 1405.42,1314.96 1407.2,1314.88 1408.98,1314.8 1410.76,1314.72 1412.54,1314.64 1414.32,1314.56 1416.1,1314.48 1417.88,1314.4 1419.65,1314.32 1421.43,1314.24 1423.21,1314.16 1424.98,1314.08 1426.76,1314 1428.54,1313.92 1430.31,1313.84 1432.09,1313.76 1433.86,1313.68 1435.63,1313.6 1437.41,1313.52 1439.18,1313.44 1440.95,1313.36 1442.73,1313.28 1444.5,1313.2 1446.27,1313.12 1448.04,1313.04 1449.81,1312.96 1451.58,1312.88 1453.35,1312.8 1455.12,1312.72 1456.89,1312.64 1458.66,1312.56 1460.42,1312.47 1462.19,1312.39 1463.96,1312.31 1465.72,1312.23 1467.49,1312.15 1469.25,1312.07 1471.02,1311.99 1472.78,1311.91 1474.54,1311.82 1476.31,1311.74 1478.07,1311.66 1479.83,1311.58 1481.59,1311.5 1483.35,1311.42 1485.11,1311.33 1486.87,1311.25 1488.63,1311.17 1490.39,1311.09 1492.15,1311.01 1493.9,1310.92 1495.66,1310.84 1497.41,1310.76 1499.17,1310.68 1500.92,1310.59 1502.68,1310.51 1504.43,1310.43 1506.18,1310.35 1507.93,1310.26 1509.69,1310.18 1511.44,1310.1 1513.19,1310.02 1514.93,1309.93 1516.68,1309.85 1518.43,1309.77 1520.18,1309.68 1521.92,1309.6 1523.67,1309.52 1525.41,1309.43 1527.16,1309.35 1528.9,1309.27 1530.64,1309.18 1532.39,1309.1 1534.13,1309.01 1535.87,1308.93 1537.61,1308.85 1539.35,1308.76 1541.08,1308.68 1542.82,1308.59 1544.56,1308.51 1546.29,1308.43 1548.03,1308.34 1549.76,1308.26 1551.5,1308.17 1553.23,1308.09 1554.96,1308 1556.69,1307.92 1558.42,1307.83 1560.15,1307.75 1561.88,1307.66 1563.61,1307.58 1565.33,1307.49 1567.06,1307.41 1568.78,1307.32 1570.51,1307.24 1572.23,1307.15 1573.95,1307.06 1575.67,1306.98 1577.4,1306.89 1579.12,1306.81 1580.83,1306.72 1582.55,1306.63 1584.27,1306.55 1585.98,1306.46 1587.7,1306.38 1589.41,1306.29 1591.13,1306.2 1592.84,1306.12 1594.55,1306.03 1596.26,1305.94 1597.97,1305.86 1599.68,1305.77 1601.39,1305.68 1603.09,1305.59 1604.8,1305.51 1606.5,1305.42 1608.21,1305.33 1609.91,1305.25 1611.61,1305.16 1613.31,1305.07 1615.01,1304.98 1616.71,1304.89 1618.41,1304.81 1620.11,1304.72 1621.8,1304.63 1623.5,1304.54 1625.19,1304.45 1626.88,1304.36 1628.57,1304.28 1630.26,1304.19 1631.95,1304.1 1633.64,1304.01 1635.33,1303.92 1637.01,1303.83 1638.7,1303.74 1640.38,1303.65 1642.06,1303.56 1643.75,1303.47 1645.43,1303.38 1647.11,1303.29 1648.78,1303.2 1650.46,1303.11 1652.14,1303.02 1653.81,1302.93 1655.49,1302.84 1657.16,1302.75 1658.83,1302.66 1660.5,1302.57 1662.17,1302.48 1663.84,1302.39 1665.5,1302.3 1667.17,1302.21 1668.83,1302.12 1670.5,1302.03 1672.16,1301.94 1673.82,1301.84 1675.48,1301.75 1677.14,1301.66 1678.79,1301.57 1680.45,1301.48 1682.11,1301.39 1683.76,1301.29 1685.41,1301.2 1687.06,1301.11 1688.71,1301.02 1690.36,1300.92 1692.01,1300.83 1693.65,1300.74 1695.3,1300.65 1696.94,1300.55 1698.58,1300.46 1700.22,1300.37 1701.86,1300.27 1703.5,1300.18 1705.14,1300.09 1706.77,1299.99 1708.41,1299.9 1710.04,1299.8 1711.67,1299.71 1713.3,1299.62 1714.93,1299.52 1716.56,1299.43 1718.19,1299.33 1719.81,1299.24 1721.43,1299.14 1723.06,1299.05 1724.68,1298.95 1726.3,1298.86 1727.91,1298.76 1729.53,1298.67 1731.15,1298.57 1732.76,1298.48 1734.37,1298.38 1735.98,1298.28 1737.59,1298.19 1739.2,1298.09 1740.81,1297.99 1742.41,1297.9 1744.02,1297.8 1745.62,1297.7 1747.22,1297.61 1748.82,1297.51 1750.42,1297.41 1752.01,1297.32 1753.61,1297.22 1755.2,1297.12 1756.8,1297.02 1758.39,1296.92 1759.98,1296.83 1761.56,1296.73 1763.15,1296.63 1764.73,1296.53 1766.32,1296.43 1767.9,1296.33 1769.48,1296.24 1771.06,1296.14 1772.64,1296.04 1774.21,1295.94 1775.79,1295.84 1777.36,1295.74 1778.93,1295.64 1780.5,1295.54 1782.07,1295.44 1783.63,1295.34 1785.2,1295.24 1786.76,1295.14 1788.32,1295.04 1789.88,1294.94 1791.44,1294.83 1793,1294.73 1794.55,1294.63 1796.11,1294.53 1797.66,1294.43 1799.21,1294.33 1800.76,1294.22 1802.31,1294.12 1803.85,1294.02 1805.39,1293.92 1806.94,1293.82 1808.48,1293.71 1810.02,1293.61 1811.55,1293.51 1813.09,1293.4 1814.62,1293.3 1816.16,1293.2 1817.69,1293.09 1819.22,1292.99 1820.74,1292.88 1822.27,1292.78 1823.79,1292.68 1825.31,1292.57 1826.84,1292.47 1828.35,1292.36 1829.87,1292.26 1831.39,1292.15 1832.9,1292.05 1834.41,1291.94 1835.92,1291.83 1837.43,1291.73 1838.94,1291.62 1840.44,1291.52 1841.95,1291.41 1843.45,1291.3 1844.95,1291.19 1846.44,1291.09 1847.94,1290.98 1849.43,1290.87 1850.93,1290.77 1852.42,1290.66 1853.91,1290.55 1855.39,1290.44 1856.88,1290.33 1858.36,1290.22 1859.84,1290.12 1861.32,1290.01 1862.8,1289.9 1864.28,1289.79 1865.75,1289.68 1867.23,1289.57 1868.7,1289.46 1870.17,1289.35 1871.63,1289.24 1873.1,1289.13 1874.56,1289.02 1876.02,1288.91 1877.48,1288.79 1878.94,1288.68 1880.4,1288.57 1881.85,1288.46 1883.3,1288.35 1884.75,1288.24 1886.2,1288.12 1887.65,1288.01 1889.09,1287.9 1890.53,1287.78 1891.97,1287.67 1893.41,1287.56 1894.85,1287.44 1896.28,1287.33 1897.72,1287.22 1899.15,1287.1 1900.58,1286.99 1902,1286.87 1903.43,1286.76 1904.85,1286.64 1906.27,1286.53 1907.69,1286.41 1909.11,1286.3 1910.52,1286.18 1911.94,1286.06 1913.35,1285.95 1914.76,1285.83 1916.17,1285.71 1917.57,1285.6 1918.97,1285.48 1920.38,1285.36 1921.77,1285.24 1923.17,1285.12 1924.57,1285.01 1925.96,1284.89 1927.35,1284.77 1928.74,1284.65 1930.13,1284.53 1931.51,1284.41 1932.89,1284.29 1934.28,1284.17 1935.65,1284.05 1937.03,1283.93 1938.41,1283.81 1939.78,1283.69 1941.15,1283.57 1942.52,1283.44 1943.88,1283.32 1945.25,1283.2 1946.61,1283.08 1947.97,1282.96 1949.33,1282.83 1950.68,1282.71 1952.04,1282.59 1953.39,1282.46 1954.74,1282.34 1956.09,1282.21 1957.43,1282.09 1958.77,1281.97 1960.11,1281.84 1961.45,1281.71 1962.79,1281.59 1964.12,1281.46 1965.46,1281.34 1966.79,1281.21 1968.11,1281.08 1969.44,1280.96 1970.76,1280.83 1972.09,1280.7 1973.4,1280.57 1974.72,1280.45 1976.04,1280.32 1977.35,1280.19 1978.66,1280.06 1979.97,1279.93 1981.27,1279.8 1982.58,1279.67 1983.88,1279.54 1985.18,1279.41 1986.48,1279.28 1987.77,1279.15 1989.06,1279.02 1990.35,1278.89 1991.64,1278.75 1992.93,1278.62 1994.21,1278.49 1995.49,1278.36 1996.77,1278.22 1998.05,1278.09 1999.32,1277.96 2000.6,1277.82 2001.87,1277.69 2003.13,1277.55 2004.4,1277.42 2005.66,1277.28 2006.92,1277.15 2008.18,1277.01 2009.44,1276.87 2010.69,1276.74 2011.94,1276.6 2013.19,1276.46 2014.44,1276.32 2015.68,1276.19 2016.93,1276.05 2018.17,1275.91 2019.41,1275.77 2020.64,1275.63 2021.87,1275.49 2023.1,1275.35 2024.33,1275.21 2025.56,1275.07 2026.78,1274.93 2028,1274.78 2029.22,1274.64 2030.44,1274.5 2031.65,1274.36 2032.86,1274.21 2034.07,1274.07 2035.28,1273.93 2036.49,1273.78 2037.69,1273.64 2038.89,1273.49 2040.08,1273.35 2041.28,1273.2 2042.47,1273.06 2043.66,1272.91 2044.85,1272.76 2046.04,1272.61 2047.22,1272.47 2048.4,1272.32 2049.58,1272.17 2050.75,1272.02 2051.92,1271.87 2053.1,1271.72 2054.26,1271.57 2055.43,1271.42 2056.59,1271.27 2057.75,1271.12 2058.91,1270.97 2060.07,1270.81 2061.22,1270.66 2062.37,1270.51 2063.52,1270.36 2064.67,1270.2 2065.81,1270.05 2066.95,1269.89 2068.09,1269.74 2069.23,1269.58 2070.36,1269.43 2071.49,1269.27 2072.62,1269.11 2073.74,1268.95 2074.87,1268.8 2075.99,1268.64 2077.11,1268.48 2078.22,1268.32 2079.34,1268.16 2080.45,1268 2081.55,1267.84 2082.66,1267.68 2083.76,1267.52 2084.86,1267.35 2085.96,1267.19 2087.06,1267.03 2088.15,1266.86 2089.24,1266.7 2090.33,1266.53 2091.41,1266.37 2092.5,1266.2 2093.58,1266.04 2094.65,1265.87 2095.73,1265.7 2096.8,1265.54 2097.87,1265.37 2098.94,1265.2 2100,1265.03 2101.06,1264.86 2102.12,1264.69 2103.18,1264.52 2104.23,1264.35 2105.29,1264.18 2106.33,1264 2107.38,1263.83 2108.42,1263.66 2109.46,1263.48 2110.5,1263.31 2111.54,1263.13 2112.57,1262.96 2113.6,1262.78 2114.63,1262.6 2115.65,1262.42 2116.68,1262.25 2117.7,1262.07 2118.71,1261.89 2119.73,1261.71 2120.74,1261.53 2121.75,1261.35 2122.76,1261.16 2123.76,1260.98 2124.76,1260.8 2125.76,1260.62 2126.75,1260.43 2127.75,1260.25 2128.74,1260.06 2129.72,1259.87 2130.71,1259.69 2131.69,1259.5 2132.67,1259.31 2133.65,1259.12 2134.62,1258.93 2135.59,1258.74 2136.56,1258.55 2137.53,1258.36 2138.49,1258.17 2139.45,1257.98 2140.41,1257.78 2141.36,1257.59 2142.32,1257.39 2143.26,1257.2 2144.21,1257 2145.16,1256.8 2146.1,1256.61 2147.04,1256.41 2147.97,1256.21 2148.9,1256.01 2149.83,1255.81 2150.76,1255.61 2151.69,1255.4 2152.61,1255.2 2153.53,1255 2154.44,1254.79 2155.36,1254.59 2156.27,1254.38 2157.17,1254.17 2158.08,1253.97 2158.98,1253.76 2159.88,1253.55 2160.78,1253.34 2161.67,1253.13 2162.56,1252.92 2163.45,1252.7 2164.34,1252.49 2165.22,1252.28 2166.1,1252.06 2166.98,1251.85 2167.85,1251.63 2168.72,1251.41 2169.59,1251.19 2170.46,1250.97 2171.32,1250.75 2172.18,1250.53 2173.04,1250.31 2173.89,1250.09 2174.74,1249.86 2175.59,1249.64 2176.44,1249.41 2177.28,1249.19 2178.12,1248.96 2178.96,1248.73 2179.79,1248.5 2180.62,1248.27 2181.45,1248.04 2182.28,1247.8 2183.1,1247.57 2183.92,1247.34 2184.74,1247.1 2185.55,1246.87 2186.36,1246.63 2187.17,1246.39 2187.98,1246.15 2188.78,1245.91 2189.58,1245.67 2190.38,1245.42 2191.17,1245.18 2191.96,1244.94 2192.75,1244.69 2193.53,1244.44 2194.32,1244.19 2195.1,1243.94 2195.87,1243.69 2196.65,1243.44 2197.42,1243.19 2198.18,1242.94 2198.95,1242.68 2199.71,1242.42 2200.47,1242.17 2201.23,1241.91 2201.98,1241.65 2202.73,1241.39 2203.48,1241.13 2204.22,1240.86 2204.96,1240.6 2205.7,1240.33 2206.44,1240.06 2207.17,1239.8 2207.9,1239.53 2208.62,1239.25 2209.35,1238.98 2210.07,1238.71 2210.79,1238.43 2211.5,1238.16 2212.21,1237.88 2212.92,1237.6 2213.63,1237.32 2214.33,1237.04 2215.03,1236.75 2215.73,1236.47 2216.42,1236.18 2217.11,1235.89 2217.8,1235.6 2218.48,1235.31 2219.17,1235.02 2219.84,1234.73 2220.52,1234.43 2221.19,1234.13 2221.86,1233.84 2222.53,1233.54 2223.19,1233.23 2223.85,1232.93 2224.51,1232.63 2225.17,1232.32 2225.82,1232.01 2226.47,1231.7 2227.11,1231.39 2227.76,1231.08 2228.4,1230.76 2229.03,1230.45 2229.67,1230.13 2230.3,1229.81 2230.93,1229.49 2231.55,1229.16 2232.17,1228.84 2232.79,1228.51 2233.41,1228.18 2234.02,1227.85 2234.63,1227.52 2235.23,1227.19 2235.84,1226.85 2236.44,1226.51 2237.03,1226.17 2237.63,1225.83 2238.22,1225.49 2238.81,1225.14 2239.39,1224.79 2239.97,1224.44 2240.55,1224.09 2241.13,1223.73 2241.7,1223.38 2242.27,1223.02 2242.84,1222.66 2243.4,1222.3 2243.96,1221.93 2244.52,1221.56 2245.07,1221.2 2245.62,1220.82 2246.17,1220.45 2246.72,1220.07 2247.26,1219.7 2247.8,1219.32 2248.33,1218.93 2248.87,1218.55 2249.4,1218.16 2249.92,1217.77 2250.45,1217.38 2250.97,1216.98 2251.48,1216.58 2252,1216.19 2252.51,1215.78 2253.02,1215.38 2253.52,1214.97 2254.02,1214.56 2254.52,1214.15 2255.02,1213.73 2255.51,1213.31 2256,1212.89 2256.48,1212.47 2256.97,1212.04 2257.45,1211.62 2257.92,1211.18 2258.4,1210.75 2258.87,1210.31 2259.34,1209.87 2259.8,1209.43 2260.26,1208.99 2260.72,1208.54 2261.17,1208.09 2261.63,1207.63 2262.07,1207.17 2262.52,1206.71 2262.96,1206.25 2263.4,1205.78 2263.84,1205.31 2264.27,1204.84 2264.7,1204.37 2265.13,1203.89 2265.55,1203.41 2265.97,1202.92 2266.39,1202.43 2266.8,1201.94 2267.21,1201.45 2267.62,1200.95 2268.02,1200.45 2268.43,1199.94 2268.82,1199.44 2269.22,1198.93 2269.61,1198.41 2270,1197.89 2270.39,1197.37 2270.77,1196.85 2271.15,1196.32 2271.52,1195.79 2271.9,1195.26 2272.27,1194.72 2272.63,1194.18 2273,1193.64 2273.36,1193.09 2273.71,1192.54 2274.07,1191.98 2274.42,1191.43 2274.77,1190.87 2275.11,1190.3 2275.45,1189.74 2275.79,1189.17 2276.12,1188.59 2276.46,1188.01 2276.78,1187.43 2277.11,1186.85 2277.43,1186.26 2277.75,1185.67 2278.07,1185.08 2278.38,1184.48 2278.69,1183.89 2278.99,1183.28 2279.3,1182.68 2279.6,1182.07 2279.89,1181.46 2280.19,1180.85 2280.48,1180.23 2280.76,1179.61 2281.05,1178.99 2281.33,1178.36 2281.61,1177.74 2281.88,1177.11 2282.15,1176.48 2282.42,1175.84 2282.68,1175.21 2282.94,1174.57 2283.2,1173.93 2283.46,1173.29 2283.71,1172.65 2283.96,1172 2284.2,1171.36 2284.45,1170.71 2284.68,1170.06 2284.92,1169.41 2285.15,1168.76 2285.38,1168.11 2285.61,1167.46 2285.83,1166.81 2286.05,1166.16 2286.27,1165.51 2286.48,1164.86 2286.69,1164.21 2286.9,1163.56 2287.1,1162.91 2287.3,1162.27 2287.5,1161.62 2287.69,1160.98 2287.88,1160.34 2288.07,1159.7 2288.26,1159.06 2288.44,1158.42 2288.61,1157.79 2288.79,1157.16 2288.96,1156.54 2289.13,1155.92 2289.29,1155.3 2289.45,1154.69 2289.61,1154.08 2289.77,1153.48 2289.92,1152.88 2290.07,1152.29 2290.22,1151.7 2290.36,1151.12 2290.5,1150.55 2290.63,1149.98 2290.77,1149.42 2290.89,1148.87 2291.02,1148.33 2291.14,1147.8 2291.26,1147.27 2291.38,1146.75 2291.49,1146.25 2291.6,1145.75 2291.71,1145.26 2291.81,1144.79 2291.91,1144.32 2292.01,1143.86 2292.11,1143.42 2292.2,1142.99 2292.28,1142.57 2292.37,1142.16 2292.45,1141.77 2292.53,1141.39 2292.6,1141.02 2292.67,1140.67 2292.74,1140.33 2292.8,1140 2292.87,1139.69 2292.92,1139.39 2292.98,1139.11 2293.03,1138.84 2293.08,1138.59 2293.12,1138.36 2293.17,1138.14 2293.21,1137.93 2293.24,1137.75 2293.27,1137.58 2293.3,1137.42 2293.33,1137.29 2293.35,1137.17 2293.37,1137.06 2293.39,1136.98 2293.4,1136.91 2293.41,1136.86 2293.42,1136.82 2293.42,1136.8 "/>
</svg>
