<?xml version="1.0" encoding="utf-8"?>
<svg xmlns="http://www.w3.org/2000/svg" xmlns:xlink="http://www.w3.org/1999/xlink" width="600" height="400" viewBox="0 0 2400 1600">
<defs>
  <clipPath id="clip280">
    <rect x="0" y="0" width="2400" height="1600"/>
  </clipPath>
</defs>
<path clip-path="url(#clip280)" d="M0 1600 L2400 1600 L2400 0 L0 0  Z" fill="#ffffff" fill-rule="evenodd" fill-opacity="1"/>
<defs>
  <clipPath id="clip281">
    <rect x="480" y="0" width="1681" height="1600"/>
  </clipPath>
</defs>
<path clip-path="url(#clip280)" d="M154.029 1423.18 L2352.76 1423.18 L2352.76 47.2441 L154.029 47.2441  Z" fill="#ffffff" fill-rule="evenodd" fill-opacity="1"/>
<defs>
  <clipPath id="clip282">
    <rect x="154" y="47" width="2200" height="1377"/>
  </clipPath>
</defs>
<polyline clip-path="url(#clip282)" style="stroke:#000000; stroke-linecap:round; stroke-linejoin:round; stroke-width:2; stroke-opacity:0.1; fill:none" points="216.225,1423.18 216.225,47.2441 "/>
<polyline clip-path="url(#clip282)" style="stroke:#000000; stroke-linecap:round; stroke-linejoin:round; stroke-width:2; stroke-opacity:0.1; fill:none" points="734.809,1423.18 734.809,47.2441 "/>
<polyline clip-path="url(#clip282)" style="stroke:#000000; stroke-linecap:round; stroke-linejoin:round; stroke-width:2; stroke-opacity:0.1; fill:none" points="1253.39,1423.18 1253.39,47.2441 "/>
<polyline clip-path="url(#clip282)" style="stroke:#000000; stroke-linecap:round; stroke-linejoin:round; stroke-width:2; stroke-opacity:0.1; fill:none" points="1771.98,1423.18 1771.98,47.2441 "/>
<polyline clip-path="url(#clip282)" style="stroke:#000000; stroke-linecap:round; stroke-linejoin:round; stroke-width:2; stroke-opacity:0.1; fill:none" points="2290.56,1423.18 2290.56,47.2441 "/>
<polyline clip-path="url(#clip282)" style="stroke:#000000; stroke-linecap:round; stroke-linejoin:round; stroke-width:2; stroke-opacity:0.1; fill:none" points="154.029,1247.69 2352.76,1247.69 "/>
<polyline clip-path="url(#clip282)" style="stroke:#000000; stroke-linecap:round; stroke-linejoin:round; stroke-width:2; stroke-opacity:0.1; fill:none" points="154.029,945.447 2352.76,945.447 "/>
<polyline clip-path="url(#clip282)" style="stroke:#000000; stroke-linecap:round; stroke-linejoin:round; stroke-width:2; stroke-opacity:0.1; fill:none" points="154.029,643.204 2352.76,643.204 "/>
<polyline clip-path="url(#clip282)" style="stroke:#000000; stroke-linecap:round; stroke-linejoin:round; stroke-width:2; stroke-opacity:0.1; fill:none" points="154.029,340.96 2352.76,340.96 "/>
<polyline clip-path="url(#clip280)" style="stroke:#000000; stroke-linecap:round; stroke-linejoin:round; stroke-width:4; stroke-opacity:1; fill:none" points="154.029,1423.18 2352.76,1423.18 "/>
<polyline clip-path="url(#clip280)" style="stroke:#000000; stroke-linecap:round; stroke-linejoin:round; stroke-width:4; stroke-opacity:1; fill:none" points="216.225,1423.18 216.225,1404.28 "/>
<polyline clip-path="url(#clip280)" style="stroke:#000000; stroke-linecap:round; stroke-linejoin:round; stroke-width:4; stroke-opacity:1; fill:none" points="734.809,1423.18 734.809,1404.28 "/>
<polyline clip-path="url(#clip280)" style="stroke:#000000; stroke-linecap:round; stroke-linejoin:round; stroke-width:4; stroke-opacity:1; fill:none" points="1253.39,1423.18 1253.39,1404.28 "/>
<polyline clip-path="url(#clip280)" style="stroke:#000000; stroke-linecap:round; stroke-linejoin:round; stroke-width:4; stroke-opacity:1; fill:none" points="1771.98,1423.18 1771.98,1404.28 "/>
<polyline clip-path="url(#clip280)" style="stroke:#000000; stroke-linecap:round; stroke-linejoin:round; stroke-width:4; stroke-opacity:1; fill:none" points="2290.56,1423.18 2290.56,1404.28 "/>
<path clip-path="url(#clip280)" d="M178.528 1454.1 Q174.917 1454.1 173.089 1457.66 Q171.283 1461.2 171.283 1468.33 Q171.283 1475.44 173.089 1479.01 Q174.917 1482.55 178.528 1482.55 Q182.163 1482.55 183.968 1479.01 Q185.797 1475.44 185.797 1468.33 Q185.797 1461.2 183.968 1457.66 Q182.163 1454.1 178.528 1454.1 M178.528 1450.39 Q184.339 1450.39 187.394 1455 Q190.473 1459.58 190.473 1468.33 Q190.473 1477.06 187.394 1481.67 Q184.339 1486.25 178.528 1486.25 Q172.718 1486.25 169.64 1481.67 Q166.584 1477.06 166.584 1468.33 Q166.584 1459.58 169.64 1455 Q172.718 1450.39 178.528 1450.39 Z" fill="#000000" fill-rule="nonzero" fill-opacity="1" /><path clip-path="url(#clip280)" d="M198.69 1479.7 L203.575 1479.7 L203.575 1485.58 L198.69 1485.58 L198.69 1479.7 Z" fill="#000000" fill-rule="nonzero" fill-opacity="1" /><path clip-path="url(#clip280)" d="M223.76 1454.1 Q220.149 1454.1 218.32 1457.66 Q216.514 1461.2 216.514 1468.33 Q216.514 1475.44 218.32 1479.01 Q220.149 1482.55 223.76 1482.55 Q227.394 1482.55 229.199 1479.01 Q231.028 1475.44 231.028 1468.33 Q231.028 1461.2 229.199 1457.66 Q227.394 1454.1 223.76 1454.1 M223.76 1450.39 Q229.57 1450.39 232.625 1455 Q235.704 1459.58 235.704 1468.33 Q235.704 1477.06 232.625 1481.67 Q229.57 1486.25 223.76 1486.25 Q217.949 1486.25 214.871 1481.67 Q211.815 1477.06 211.815 1468.33 Q211.815 1459.58 214.871 1455 Q217.949 1450.39 223.76 1450.39 Z" fill="#000000" fill-rule="nonzero" fill-opacity="1" /><path clip-path="url(#clip280)" d="M253.921 1454.1 Q250.31 1454.1 248.482 1457.66 Q246.676 1461.2 246.676 1468.33 Q246.676 1475.44 248.482 1479.01 Q250.31 1482.55 253.921 1482.55 Q257.556 1482.55 259.361 1479.01 Q261.19 1475.44 261.19 1468.33 Q261.19 1461.2 259.361 1457.66 Q257.556 1454.1 253.921 1454.1 M253.921 1450.39 Q259.732 1450.39 262.787 1455 Q265.866 1459.58 265.866 1468.33 Q265.866 1477.06 262.787 1481.67 Q259.732 1486.25 253.921 1486.25 Q248.111 1486.25 245.033 1481.67 Q241.977 1477.06 241.977 1468.33 Q241.977 1459.58 245.033 1455 Q248.111 1450.39 253.921 1450.39 Z" fill="#000000" fill-rule="nonzero" fill-opacity="1" /><path clip-path="url(#clip280)" d="M697.61 1454.1 Q693.999 1454.1 692.17 1457.66 Q690.364 1461.2 690.364 1468.33 Q690.364 1475.44 692.17 1479.01 Q693.999 1482.55 697.61 1482.55 Q701.244 1482.55 703.05 1479.01 Q704.878 1475.44 704.878 1468.33 Q704.878 1461.2 703.05 1457.66 Q701.244 1454.1 697.61 1454.1 M697.61 1450.39 Q703.42 1450.39 706.475 1455 Q709.554 1459.58 709.554 1468.33 Q709.554 1477.06 706.475 1481.67 Q703.42 1486.25 697.61 1486.25 Q691.8 1486.25 688.721 1481.67 Q685.665 1477.06 685.665 1468.33 Q685.665 1459.58 688.721 1455 Q691.8 1450.39 697.61 1450.39 Z" fill="#000000" fill-rule="nonzero" fill-opacity="1" /><path clip-path="url(#clip280)" d="M717.772 1479.7 L722.656 1479.7 L722.656 1485.58 L717.772 1485.58 L717.772 1479.7 Z" fill="#000000" fill-rule="nonzero" fill-opacity="1" /><path clip-path="url(#clip280)" d="M736.869 1481.64 L753.188 1481.64 L753.188 1485.58 L731.244 1485.58 L731.244 1481.64 Q733.906 1478.89 738.489 1474.26 Q743.096 1469.61 744.276 1468.27 Q746.522 1465.74 747.401 1464.01 Q748.304 1462.25 748.304 1460.56 Q748.304 1457.8 746.36 1456.07 Q744.438 1454.33 741.336 1454.33 Q739.137 1454.33 736.684 1455.09 Q734.253 1455.86 731.475 1457.41 L731.475 1452.69 Q734.299 1451.55 736.753 1450.97 Q739.207 1450.39 741.244 1450.39 Q746.614 1450.39 749.809 1453.08 Q753.003 1455.77 753.003 1460.26 Q753.003 1462.39 752.193 1464.31 Q751.406 1466.2 749.299 1468.8 Q748.721 1469.47 745.619 1472.69 Q742.517 1475.88 736.869 1481.64 Z" fill="#000000" fill-rule="nonzero" fill-opacity="1" /><path clip-path="url(#clip280)" d="M763.049 1451.02 L781.406 1451.02 L781.406 1454.96 L767.332 1454.96 L767.332 1463.43 Q768.35 1463.08 769.369 1462.92 Q770.387 1462.73 771.406 1462.73 Q777.193 1462.73 780.572 1465.9 Q783.952 1469.08 783.952 1474.49 Q783.952 1480.07 780.48 1483.17 Q777.007 1486.25 770.688 1486.25 Q768.512 1486.25 766.244 1485.88 Q763.998 1485.51 761.591 1484.77 L761.591 1480.07 Q763.674 1481.2 765.896 1481.76 Q768.119 1482.32 770.595 1482.32 Q774.6 1482.32 776.938 1480.21 Q779.276 1478.1 779.276 1474.49 Q779.276 1470.88 776.938 1468.77 Q774.6 1466.67 770.595 1466.67 Q768.721 1466.67 766.846 1467.08 Q764.994 1467.5 763.049 1468.38 L763.049 1451.02 Z" fill="#000000" fill-rule="nonzero" fill-opacity="1" /><path clip-path="url(#clip280)" d="M1215.7 1454.1 Q1212.08 1454.1 1210.26 1457.66 Q1208.45 1461.2 1208.45 1468.33 Q1208.45 1475.44 1210.26 1479.01 Q1212.08 1482.55 1215.7 1482.55 Q1219.33 1482.55 1221.14 1479.01 Q1222.96 1475.44 1222.96 1468.33 Q1222.96 1461.2 1221.14 1457.66 Q1219.33 1454.1 1215.7 1454.1 M1215.7 1450.39 Q1221.51 1450.39 1224.56 1455 Q1227.64 1459.58 1227.64 1468.33 Q1227.64 1477.06 1224.56 1481.67 Q1221.51 1486.25 1215.7 1486.25 Q1209.89 1486.25 1206.81 1481.67 Q1203.75 1477.06 1203.75 1468.33 Q1203.75 1459.58 1206.81 1455 Q1209.89 1450.39 1215.7 1450.39 Z" fill="#000000" fill-rule="nonzero" fill-opacity="1" /><path clip-path="url(#clip280)" d="M1235.86 1479.7 L1240.74 1479.7 L1240.74 1485.58 L1235.86 1485.58 L1235.86 1479.7 Z" fill="#000000" fill-rule="nonzero" fill-opacity="1" /><path clip-path="url(#clip280)" d="M1250.97 1451.02 L1269.33 1451.02 L1269.33 1454.96 L1255.26 1454.96 L1255.26 1463.43 Q1256.27 1463.08 1257.29 1462.92 Q1258.31 1462.73 1259.33 1462.73 Q1265.12 1462.73 1268.5 1465.9 Q1271.88 1469.08 1271.88 1474.49 Q1271.88 1480.07 1268.4 1483.17 Q1264.93 1486.25 1258.61 1486.25 Q1256.44 1486.25 1254.17 1485.88 Q1251.92 1485.51 1249.52 1484.77 L1249.52 1480.07 Q1251.6 1481.2 1253.82 1481.76 Q1256.04 1482.32 1258.52 1482.32 Q1262.52 1482.32 1264.86 1480.21 Q1267.2 1478.1 1267.2 1474.49 Q1267.2 1470.88 1264.86 1468.77 Q1262.52 1466.67 1258.52 1466.67 Q1256.64 1466.67 1254.77 1467.08 Q1252.92 1467.5 1250.97 1468.38 L1250.97 1451.02 Z" fill="#000000" fill-rule="nonzero" fill-opacity="1" /><path clip-path="url(#clip280)" d="M1291.09 1454.1 Q1287.48 1454.1 1285.65 1457.66 Q1283.84 1461.2 1283.84 1468.33 Q1283.84 1475.44 1285.65 1479.01 Q1287.48 1482.55 1291.09 1482.55 Q1294.72 1482.55 1296.53 1479.01 Q1298.36 1475.44 1298.36 1468.33 Q1298.36 1461.2 1296.53 1457.66 Q1294.72 1454.1 1291.09 1454.1 M1291.09 1450.39 Q1296.9 1450.39 1299.95 1455 Q1303.03 1459.58 1303.03 1468.33 Q1303.03 1477.06 1299.95 1481.67 Q1296.9 1486.25 1291.09 1486.25 Q1285.28 1486.25 1282.2 1481.67 Q1279.14 1477.06 1279.14 1468.33 Q1279.14 1459.58 1282.2 1455 Q1285.28 1450.39 1291.09 1450.39 Z" fill="#000000" fill-rule="nonzero" fill-opacity="1" /><path clip-path="url(#clip280)" d="M1734.78 1454.1 Q1731.17 1454.1 1729.34 1457.66 Q1727.53 1461.2 1727.53 1468.33 Q1727.53 1475.44 1729.34 1479.01 Q1731.17 1482.55 1734.78 1482.55 Q1738.41 1482.55 1740.22 1479.01 Q1742.05 1475.44 1742.05 1468.33 Q1742.05 1461.2 1740.22 1457.66 Q1738.41 1454.1 1734.78 1454.1 M1734.78 1450.39 Q1740.59 1450.39 1743.64 1455 Q1746.72 1459.58 1746.72 1468.33 Q1746.72 1477.06 1743.64 1481.67 Q1740.59 1486.25 1734.78 1486.25 Q1728.97 1486.25 1725.89 1481.67 Q1722.83 1477.06 1722.83 1468.33 Q1722.83 1459.58 1725.89 1455 Q1728.97 1450.39 1734.78 1450.39 Z" fill="#000000" fill-rule="nonzero" fill-opacity="1" /><path clip-path="url(#clip280)" d="M1754.94 1479.7 L1759.82 1479.7 L1759.82 1485.58 L1754.94 1485.58 L1754.94 1479.7 Z" fill="#000000" fill-rule="nonzero" fill-opacity="1" /><path clip-path="url(#clip280)" d="M1768.83 1451.02 L1791.05 1451.02 L1791.05 1453.01 L1778.5 1485.58 L1773.62 1485.58 L1785.43 1454.96 L1768.83 1454.96 L1768.83 1451.02 Z" fill="#000000" fill-rule="nonzero" fill-opacity="1" /><path clip-path="url(#clip280)" d="M1800.22 1451.02 L1818.57 1451.02 L1818.57 1454.96 L1804.5 1454.96 L1804.5 1463.43 Q1805.52 1463.08 1806.54 1462.92 Q1807.55 1462.73 1808.57 1462.73 Q1814.36 1462.73 1817.74 1465.9 Q1821.12 1469.08 1821.12 1474.49 Q1821.12 1480.07 1817.65 1483.17 Q1814.17 1486.25 1807.86 1486.25 Q1805.68 1486.25 1803.41 1485.88 Q1801.17 1485.51 1798.76 1484.77 L1798.76 1480.07 Q1800.84 1481.2 1803.06 1481.76 Q1805.29 1482.32 1807.76 1482.32 Q1811.77 1482.32 1814.11 1480.21 Q1816.44 1478.1 1816.44 1474.49 Q1816.44 1470.88 1814.11 1468.77 Q1811.77 1466.67 1807.76 1466.67 Q1805.89 1466.67 1804.01 1467.08 Q1802.16 1467.5 1800.22 1468.38 L1800.22 1451.02 Z" fill="#000000" fill-rule="nonzero" fill-opacity="1" /><path clip-path="url(#clip280)" d="M2242.63 1481.64 L2250.27 1481.64 L2250.27 1455.28 L2241.96 1456.95 L2241.96 1452.69 L2250.22 1451.02 L2254.9 1451.02 L2254.9 1481.64 L2262.54 1481.64 L2262.54 1485.58 L2242.63 1485.58 L2242.63 1481.64 Z" fill="#000000" fill-rule="nonzero" fill-opacity="1" /><path clip-path="url(#clip280)" d="M2271.98 1479.7 L2276.87 1479.7 L2276.87 1485.58 L2271.98 1485.58 L2271.98 1479.7 Z" fill="#000000" fill-rule="nonzero" fill-opacity="1" /><path clip-path="url(#clip280)" d="M2297.05 1454.1 Q2293.44 1454.1 2291.61 1457.66 Q2289.81 1461.2 2289.81 1468.33 Q2289.81 1475.44 2291.61 1479.01 Q2293.44 1482.55 2297.05 1482.55 Q2300.69 1482.55 2302.49 1479.01 Q2304.32 1475.44 2304.32 1468.33 Q2304.32 1461.2 2302.49 1457.66 Q2300.69 1454.1 2297.05 1454.1 M2297.05 1450.39 Q2302.86 1450.39 2305.92 1455 Q2309 1459.58 2309 1468.33 Q2309 1477.06 2305.92 1481.67 Q2302.86 1486.25 2297.05 1486.25 Q2291.24 1486.25 2288.16 1481.67 Q2285.11 1477.06 2285.11 1468.33 Q2285.11 1459.58 2288.16 1455 Q2291.24 1450.39 2297.05 1450.39 Z" fill="#000000" fill-rule="nonzero" fill-opacity="1" /><path clip-path="url(#clip280)" d="M2327.21 1454.1 Q2323.6 1454.1 2321.77 1457.66 Q2319.97 1461.2 2319.97 1468.33 Q2319.97 1475.44 2321.77 1479.01 Q2323.6 1482.55 2327.21 1482.55 Q2330.85 1482.55 2332.65 1479.01 Q2334.48 1475.44 2334.48 1468.33 Q2334.48 1461.2 2332.65 1457.66 Q2330.85 1454.1 2327.21 1454.1 M2327.21 1450.39 Q2333.02 1450.39 2336.08 1455 Q2339.16 1459.58 2339.16 1468.33 Q2339.16 1477.06 2336.08 1481.67 Q2333.02 1486.25 2327.21 1486.25 Q2321.4 1486.25 2318.33 1481.67 Q2315.27 1477.06 2315.27 1468.33 Q2315.27 1459.58 2318.33 1455 Q2321.4 1450.39 2327.21 1450.39 Z" fill="#000000" fill-rule="nonzero" fill-opacity="1" /><path clip-path="url(#clip280)" d="M1270.01 1532.4 L1257.12 1549.74 L1270.68 1568.04 L1263.77 1568.04 L1253.39 1554.04 L1243.02 1568.04 L1236.11 1568.04 L1249.95 1549.39 L1237.29 1532.4 L1244.19 1532.4 L1253.65 1545.1 L1263.1 1532.4 L1270.01 1532.4 Z" fill="#000000" fill-rule="nonzero" fill-opacity="1" /><polyline clip-path="url(#clip280)" style="stroke:#000000; stroke-linecap:round; stroke-linejoin:round; stroke-width:4; stroke-opacity:1; fill:none" points="154.029,1423.18 154.029,47.2441 "/>
<polyline clip-path="url(#clip280)" style="stroke:#000000; stroke-linecap:round; stroke-linejoin:round; stroke-width:4; stroke-opacity:1; fill:none" points="154.029,1247.69 172.926,1247.69 "/>
<polyline clip-path="url(#clip280)" style="stroke:#000000; stroke-linecap:round; stroke-linejoin:round; stroke-width:4; stroke-opacity:1; fill:none" points="154.029,945.447 172.926,945.447 "/>
<polyline clip-path="url(#clip280)" style="stroke:#000000; stroke-linecap:round; stroke-linejoin:round; stroke-width:4; stroke-opacity:1; fill:none" points="154.029,643.204 172.926,643.204 "/>
<polyline clip-path="url(#clip280)" style="stroke:#000000; stroke-linecap:round; stroke-linejoin:round; stroke-width:4; stroke-opacity:1; fill:none" points="154.029,340.96 172.926,340.96 "/>
<path clip-path="url(#clip280)" d="M51.6634 1261.04 L59.3023 1261.04 L59.3023 1234.67 L50.9921 1236.34 L50.9921 1232.08 L59.256 1230.41 L63.9319 1230.41 L63.9319 1261.04 L71.5707 1261.04 L71.5707 1264.97 L51.6634 1264.97 L51.6634 1261.04 Z" fill="#000000" fill-rule="nonzero" fill-opacity="1" /><path clip-path="url(#clip280)" d="M81.0151 1259.09 L85.8993 1259.09 L85.8993 1264.97 L81.0151 1264.97 L81.0151 1259.09 Z" fill="#000000" fill-rule="nonzero" fill-opacity="1" /><path clip-path="url(#clip280)" d="M106.084 1233.49 Q102.473 1233.49 100.645 1237.05 Q98.8391 1240.6 98.8391 1247.72 Q98.8391 1254.83 100.645 1258.4 Q102.473 1261.94 106.084 1261.94 Q109.719 1261.94 111.524 1258.4 Q113.353 1254.83 113.353 1247.72 Q113.353 1240.6 111.524 1237.05 Q109.719 1233.49 106.084 1233.49 M106.084 1229.79 Q111.895 1229.79 114.95 1234.39 Q118.029 1238.97 118.029 1247.72 Q118.029 1256.45 114.95 1261.06 Q111.895 1265.64 106.084 1265.64 Q100.274 1265.64 97.1956 1261.06 Q94.14 1256.45 94.14 1247.72 Q94.14 1238.97 97.1956 1234.39 Q100.274 1229.79 106.084 1229.79 Z" fill="#000000" fill-rule="nonzero" fill-opacity="1" /><path clip-path="url(#clip280)" d="M52.8903 958.792 L60.5291 958.792 L60.5291 932.426 L52.219 934.093 L52.219 929.834 L60.4828 928.167 L65.1587 928.167 L65.1587 958.792 L72.7976 958.792 L72.7976 962.727 L52.8903 962.727 L52.8903 958.792 Z" fill="#000000" fill-rule="nonzero" fill-opacity="1" /><path clip-path="url(#clip280)" d="M82.242 956.847 L87.1262 956.847 L87.1262 962.727 L82.242 962.727 L82.242 956.847 Z" fill="#000000" fill-rule="nonzero" fill-opacity="1" /><path clip-path="url(#clip280)" d="M98.1215 958.792 L105.76 958.792 L105.76 932.426 L97.4502 934.093 L97.4502 929.834 L105.714 928.167 L110.39 928.167 L110.39 958.792 L118.029 958.792 L118.029 962.727 L98.1215 962.727 L98.1215 958.792 Z" fill="#000000" fill-rule="nonzero" fill-opacity="1" /><path clip-path="url(#clip280)" d="M53.2606 656.549 L60.8995 656.549 L60.8995 630.183 L52.5893 631.85 L52.5893 627.59 L60.8532 625.924 L65.5291 625.924 L65.5291 656.549 L73.1679 656.549 L73.1679 660.484 L53.2606 660.484 L53.2606 656.549 Z" fill="#000000" fill-rule="nonzero" fill-opacity="1" /><path clip-path="url(#clip280)" d="M82.6123 654.604 L87.4966 654.604 L87.4966 660.484 L82.6123 660.484 L82.6123 654.604 Z" fill="#000000" fill-rule="nonzero" fill-opacity="1" /><path clip-path="url(#clip280)" d="M101.709 656.549 L118.029 656.549 L118.029 660.484 L96.0845 660.484 L96.0845 656.549 Q98.7465 653.794 103.33 649.164 Q107.936 644.512 109.117 643.169 Q111.362 640.646 112.242 638.91 Q113.145 637.151 113.145 635.461 Q113.145 632.706 111.2 630.97 Q109.279 629.234 106.177 629.234 Q103.978 629.234 101.524 629.998 Q99.0937 630.762 96.316 632.313 L96.316 627.59 Q99.14 626.456 101.594 625.877 Q104.047 625.299 106.084 625.299 Q111.455 625.299 114.649 627.984 Q117.844 630.669 117.844 635.16 Q117.844 637.289 117.033 639.211 Q116.246 641.109 114.14 643.701 Q113.561 644.373 110.459 647.59 Q107.358 650.785 101.709 656.549 Z" fill="#000000" fill-rule="nonzero" fill-opacity="1" /><path clip-path="url(#clip280)" d="M52.3116 354.305 L59.9504 354.305 L59.9504 327.94 L51.6403 329.606 L51.6403 325.347 L59.9041 323.68 L64.58 323.68 L64.58 354.305 L72.2189 354.305 L72.2189 358.24 L52.3116 358.24 L52.3116 354.305 Z" fill="#000000" fill-rule="nonzero" fill-opacity="1" /><path clip-path="url(#clip280)" d="M81.6633 352.361 L86.5475 352.361 L86.5475 358.24 L81.6633 358.24 L81.6633 352.361 Z" fill="#000000" fill-rule="nonzero" fill-opacity="1" /><path clip-path="url(#clip280)" d="M110.899 339.606 Q114.256 340.324 116.131 342.592 Q118.029 344.861 118.029 348.194 Q118.029 353.31 114.51 356.111 Q110.992 358.912 104.51 358.912 Q102.334 358.912 100.02 358.472 Q97.728 358.055 95.2743 357.199 L95.2743 352.685 Q97.2187 353.819 99.5335 354.398 Q101.848 354.977 104.371 354.977 Q108.77 354.977 111.061 353.24 Q113.376 351.504 113.376 348.194 Q113.376 345.139 111.223 343.426 Q109.094 341.69 105.274 341.69 L101.246 341.69 L101.246 337.847 L105.459 337.847 Q108.908 337.847 110.737 336.481 Q112.566 335.092 112.566 332.5 Q112.566 329.838 110.668 328.426 Q108.793 326.991 105.274 326.991 Q103.353 326.991 101.154 327.407 Q98.9548 327.824 96.316 328.704 L96.316 324.537 Q98.978 323.796 101.293 323.426 Q103.631 323.055 105.691 323.055 Q111.015 323.055 114.117 325.486 Q117.219 327.893 117.219 332.014 Q117.219 334.884 115.575 336.875 Q113.932 338.842 110.899 339.606 Z" fill="#000000" fill-rule="nonzero" fill-opacity="1" /><polyline clip-path="url(#clip282)" style="stroke:#009af9; stroke-linecap:round; stroke-linejoin:round; stroke-width:4; stroke-opacity:1; fill:none" points="216.257,1384.24 216.513,1383.99 217.025,1383.5 217.792,1382.76 218.815,1381.78 220.093,1380.55 221.626,1379.08 223.414,1377.37 225.456,1375.42 227.752,1373.23 230.3,1370.81 233.101,1368.15 236.154,1365.26 239.458,1362.15 243.011,1358.81 246.815,1355.25 250.866,1351.47 255.165,1347.48 259.71,1343.27 264.501,1338.86 269.535,1334.25 274.812,1329.45 280.331,1324.45 286.09,1319.26 292.087,1313.89 298.321,1308.34 304.792,1302.62 311.496,1296.74 318.432,1290.7 325.6,1284.5 332.996,1278.15 340.619,1271.66 348.468,1265.04 356.54,1258.28 364.833,1251.41 373.345,1244.42 382.075,1237.32 391.019,1230.11 400.176,1222.82 409.544,1215.43 419.12,1207.96 428.902,1200.43 438.887,1192.82 449.073,1185.16 459.458,1177.44 470.039,1169.68 480.813,1161.89 491.777,1154.06 502.929,1146.22 514.267,1138.36 525.787,1130.49 537.486,1122.63 549.362,1114.77 561.412,1106.93 573.633,1099.12 586.021,1091.33 598.574,1083.59 611.288,1075.89 624.161,1068.24 637.189,1060.65 650.37,1053.13 663.699,1045.69 677.173,1038.32 690.79,1031.04 704.545,1023.86 718.436,1016.78 732.459,1009.8 746.61,1002.94 760.887,996.203 775.285,989.588 789.801,983.105 804.431,976.759 819.172,970.557 834.02,964.503 848.972,958.602 864.024,952.86 879.171,947.282 894.411,941.872 909.739,936.635 925.153,931.575 940.647,926.696 956.218,922.003 971.863,917.498 987.577,913.186 1003.36,909.069 1019.2,905.151 1035.1,901.435 1051.05,897.923 1067.05,894.618 1083.1,891.522 1099.19,888.638 1115.32,885.966 1131.49,883.508 1147.68,881.267 1163.9,879.242 1180.14,877.435 1196.4,875.847 1212.67,874.478 1228.96,873.329 1245.25,872.399 1261.54,871.688 1277.83,871.196 1294.11,870.922 1310.38,870.865 1326.64,871.025 1342.89,871.401 1359.11,871.99 1375.3,872.791 1391.46,873.802 1407.59,875.022 1423.68,876.447 1439.73,878.076 1455.73,879.906 1471.69,881.934 1487.59,884.158 1503.43,886.573 1519.21,889.176 1534.92,891.965 1550.57,894.935 1566.14,898.083 1581.63,901.404 1597.05,904.895 1612.37,908.551 1627.61,912.367 1642.76,916.339 1657.81,920.463 1672.76,924.733 1687.61,929.144 1702.35,933.692 1716.98,938.371 1731.5,943.176 1745.9,948.101 1760.17,953.141 1774.33,958.29 1788.35,963.543 1802.24,968.894 1816,974.336 1829.61,979.865 1843.09,985.473 1856.42,991.155 1869.6,996.906 1882.62,1002.72 1895.5,1008.59 1908.21,1014.5 1920.76,1020.46 1933.15,1026.46 1945.37,1032.49 1957.42,1038.54 1969.3,1044.61 1981,1050.69 1992.52,1056.77 2003.86,1062.86 2015.01,1068.94 2025.97,1075 2036.75,1081.05 2047.33,1087.06 2057.71,1093.05 2067.9,1099 2077.88,1104.9 2087.66,1110.76 2097.24,1116.56 2106.61,1122.29 2115.77,1127.96 2124.71,1133.56 2133.44,1139.08 2141.95,1144.51 2150.24,1149.85 2158.32,1155.1 2166.17,1160.25 2173.79,1165.29 2181.18,1170.22 2188.35,1175.04 2195.29,1179.73 2201.99,1184.31 2208.46,1188.75 2214.7,1193.06 2220.7,1197.23 2226.45,1201.26 2231.97,1205.14 2237.25,1208.87 2242.28,1212.45 2247.07,1215.88 2251.62,1219.14 2255.92,1222.24 2259.97,1225.17 2263.77,1227.94 2267.33,1230.53 2270.63,1232.94 2273.68,1235.19 2276.48,1237.25 2279.03,1239.13 2281.33,1240.83 2283.37,1242.34 2285.16,1243.67 2286.69,1244.81 2287.97,1245.76 2288.99,1246.52 2289.76,1247.09 2290.27,1247.48 2290.53,1247.67 "/>
<polyline clip-path="url(#clip282)" style="stroke:#e26f46; stroke-linecap:round; stroke-linejoin:round; stroke-width:4; stroke-opacity:1; fill:none" points="216.258,86.1857 216.522,86.5699 217.049,87.3382 217.84,88.4898 218.894,90.0239 220.212,91.9394 221.792,94.2348 223.634,96.9083 225.739,99.958 228.105,103.381 230.731,107.176 233.618,111.339 236.763,115.868 240.168,120.758 243.83,126.006 247.749,131.608 251.923,137.561 256.352,143.858 261.035,150.497 265.97,157.471 271.157,164.776 276.593,172.406 282.277,180.355 288.208,188.618 294.385,197.188 300.806,206.059 307.469,215.224 314.373,224.676 321.515,234.409 328.894,244.416 336.509,254.689 344.356,265.22 352.435,276.001 360.743,287.026 369.278,298.286 378.038,309.772 387.02,321.476 396.223,333.391 405.643,345.507 415.28,357.815 425.129,370.308 435.189,382.976 445.457,395.809 455.931,408.8 466.607,421.939 477.483,435.217 488.557,448.624 499.825,462.151 511.285,475.79 522.934,489.53 534.768,503.362 546.785,517.278 558.982,531.267 571.356,545.321 583.903,559.43 596.62,573.584 609.504,587.775 622.552,601.994 635.76,616.231 649.125,630.477 662.644,644.723 676.314,658.96 690.13,673.181 704.089,687.374 718.188,701.533 732.423,715.649 746.791,729.713 761.287,743.717 775.909,757.653 790.652,771.512 805.512,785.288 820.487,798.973 835.571,812.558 850.762,826.037 866.056,839.402 881.447,852.646 896.934,865.764 912.511,878.747 928.175,891.589 943.921,904.285 959.746,916.828 975.646,929.213 991.616,941.433 1007.65,953.483 1023.75,965.359 1039.91,977.055 1056.12,988.566 1072.39,999.888 1088.69,1011.02 1105.04,1021.95 1121.43,1032.68 1137.85,1043.2 1154.3,1053.52 1170.78,1063.62 1187.28,1073.51 1203.79,1083.19 1220.32,1092.64 1236.85,1101.87 1253.39,1110.88 1269.93,1119.66 1286.47,1128.21 1302.99,1136.54 1319.51,1144.63 1336,1152.5 1352.48,1160.13 1368.93,1167.53 1385.35,1174.7 1401.74,1181.64 1418.09,1188.35 1434.4,1194.82 1450.66,1201.06 1466.87,1207.08 1483.03,1212.86 1499.13,1218.42 1515.17,1223.75 1531.14,1228.86 1547.04,1233.74 1562.86,1238.4 1578.61,1242.85 1594.27,1247.08 1609.85,1251.09 1625.34,1254.89 1640.73,1258.49 1656.02,1261.88 1671.21,1265.07 1686.3,1268.05 1701.27,1270.85 1716.13,1273.45 1730.88,1275.86 1745.5,1278.09 1759.99,1280.14 1774.36,1282.01 1788.6,1283.71 1802.7,1285.24 1816.65,1286.61 1830.47,1287.82 1844.14,1288.88 1857.66,1289.78 1871.02,1290.54 1884.23,1291.16 1897.28,1291.64 1910.17,1292 1922.88,1292.22 1935.43,1292.33 1947.8,1292.32 1960,1292.2 1972.02,1291.97 1983.85,1291.64 1995.5,1291.22 2006.96,1290.71 2018.23,1290.11 2029.3,1289.43 2040.18,1288.67 2050.85,1287.85 2061.33,1286.96 2071.6,1286.01 2081.66,1285 2091.51,1283.95 2101.14,1282.85 2110.56,1281.7 2119.76,1280.53 2128.75,1279.32 2137.51,1278.09 2146.04,1276.83 2154.35,1275.56 2162.43,1274.28 2170.28,1272.98 2177.89,1271.69 2185.27,1270.39 2192.41,1269.1 2199.32,1267.82 2205.98,1266.55 2212.4,1265.29 2218.58,1264.06 2224.51,1262.85 2230.19,1261.67 2235.63,1260.51 2240.81,1259.39 2245.75,1258.31 2250.43,1257.27 2254.86,1256.27 2259.04,1255.31 2262.95,1254.4 2266.62,1253.54 2270.02,1252.73 2273.17,1251.98 2276.05,1251.28 2278.68,1250.64 2281.05,1250.06 2283.15,1249.54 2284.99,1249.09 2286.57,1248.69 2287.89,1248.36 2288.94,1248.1 2289.74,1247.9 2290.26,1247.77 2290.53,1247.7 "/>
<path clip-path="url(#clip280)" d="M2007.79 248.629 L2279.47 248.629 L2279.47 93.1086 L2007.79 93.1086  Z" fill="#ffffff" fill-rule="evenodd" fill-opacity="1"/>
<polyline clip-path="url(#clip280)" style="stroke:#000000; stroke-linecap:round; stroke-linejoin:round; stroke-width:4; stroke-opacity:1; fill:none" points="2007.79,248.629 2279.47,248.629 2279.47,93.1086 2007.79,93.1086 2007.79,248.629 "/>
<polyline clip-path="url(#clip280)" style="stroke:#009af9; stroke-linecap:round; stroke-linejoin:round; stroke-width:4; stroke-opacity:1; fill:none" points="2032.22,144.949 2178.8,144.949 "/>
<path clip-path="url(#clip280)" d="M2203.23 151.997 L2203.23 136.303 L2207.49 136.303 L2207.49 151.835 Q2207.49 155.516 2208.92 157.368 Q2210.36 159.196 2213.23 159.196 Q2216.68 159.196 2218.67 156.997 Q2220.68 154.798 2220.68 151.002 L2220.68 136.303 L2224.94 136.303 L2224.94 162.229 L2220.68 162.229 L2220.68 158.247 Q2219.13 160.608 2217.07 161.766 Q2215.03 162.9 2212.33 162.9 Q2207.86 162.9 2205.54 160.122 Q2203.23 157.344 2203.23 151.997 M2213.95 135.678 L2213.95 135.678 Z" fill="#000000" fill-rule="nonzero" fill-opacity="1" /><path clip-path="url(#clip280)" d="M2235.13 158.293 L2242.77 158.293 L2242.77 131.928 L2234.46 133.595 L2234.46 129.335 L2242.72 127.669 L2247.4 127.669 L2247.4 158.293 L2255.03 158.293 L2255.03 162.229 L2235.13 162.229 L2235.13 158.293 Z" fill="#000000" fill-rule="nonzero" fill-opacity="1" /><polyline clip-path="url(#clip280)" style="stroke:#e26f46; stroke-linecap:round; stroke-linejoin:round; stroke-width:4; stroke-opacity:1; fill:none" points="2032.22,196.789 2178.8,196.789 "/>
<path clip-path="url(#clip280)" d="M2203.23 203.837 L2203.23 188.143 L2207.49 188.143 L2207.49 203.675 Q2207.49 207.356 2208.92 209.208 Q2210.36 211.036 2213.23 211.036 Q2216.68 211.036 2218.67 208.837 Q2220.68 206.638 2220.68 202.842 L2220.68 188.143 L2224.94 188.143 L2224.94 214.069 L2220.68 214.069 L2220.68 210.087 Q2219.13 212.448 2217.07 213.606 Q2215.03 214.74 2212.33 214.74 Q2207.86 214.74 2205.54 211.962 Q2203.23 209.184 2203.23 203.837 M2213.95 187.518 L2213.95 187.518 Z" fill="#000000" fill-rule="nonzero" fill-opacity="1" /><path clip-path="url(#clip280)" d="M2238.34 210.133 L2254.66 210.133 L2254.66 214.069 L2232.72 214.069 L2232.72 210.133 Q2235.38 207.379 2239.97 202.749 Q2244.57 198.096 2245.75 196.754 Q2248 194.231 2248.88 192.495 Q2249.78 190.735 2249.78 189.046 Q2249.78 186.291 2247.84 184.555 Q2245.91 182.819 2242.81 182.819 Q2240.61 182.819 2238.16 183.583 Q2235.73 184.347 2232.95 185.897 L2232.95 181.175 Q2235.78 180.041 2238.23 179.462 Q2240.68 178.884 2242.72 178.884 Q2248.09 178.884 2251.28 181.569 Q2254.48 184.254 2254.48 188.745 Q2254.48 190.874 2253.67 192.796 Q2252.88 194.694 2250.78 197.286 Q2250.2 197.958 2247.09 201.175 Q2243.99 204.37 2238.34 210.133 Z" fill="#000000" fill-rule="nonzero" fill-opacity="1" /></svg>
