<?xml version="1.0" encoding="utf-8"?>
<svg xmlns="http://www.w3.org/2000/svg" xmlns:xlink="http://www.w3.org/1999/xlink" width="600" height="400" viewBox="0 0 2400 1600">
<defs>
  <clipPath id="clip440">
    <rect x="0" y="0" width="2400" height="1600"/>
  </clipPath>
</defs>
<path clip-path="url(#clip440)" d="M0 1600 L2400 1600 L2400 0 L0 0  Z" fill="#ffffff" fill-rule="evenodd" fill-opacity="1"/>
<defs>
  <clipPath id="clip441">
    <rect x="480" y="0" width="1681" height="1600"/>
  </clipPath>
</defs>
<path clip-path="url(#clip440)" d="M277.431 1486.45 L2352.76 1486.45 L2352.76 123.472 L277.431 123.472  Z" fill="#ffffff" fill-rule="evenodd" fill-opacity="1"/>
<defs>
  <clipPath id="clip442">
    <rect x="277" y="123" width="2076" height="1364"/>
  </clipPath>
</defs>
<polyline clip-path="url(#clip442)" style="stroke:#000000; stroke-linecap:round; stroke-linejoin:round; stroke-width:2; stroke-opacity:0.1; fill:none" points="335.078,1486.45 335.078,123.472 "/>
<polyline clip-path="url(#clip442)" style="stroke:#000000; stroke-linecap:round; stroke-linejoin:round; stroke-width:2; stroke-opacity:0.1; fill:none" points="879.229,1486.45 879.229,123.472 "/>
<polyline clip-path="url(#clip442)" style="stroke:#000000; stroke-linecap:round; stroke-linejoin:round; stroke-width:2; stroke-opacity:0.1; fill:none" points="1423.38,1486.45 1423.38,123.472 "/>
<polyline clip-path="url(#clip442)" style="stroke:#000000; stroke-linecap:round; stroke-linejoin:round; stroke-width:2; stroke-opacity:0.1; fill:none" points="1967.53,1486.45 1967.53,123.472 "/>
<polyline clip-path="url(#clip440)" style="stroke:#000000; stroke-linecap:round; stroke-linejoin:round; stroke-width:4; stroke-opacity:1; fill:none" points="277.431,1486.45 2352.76,1486.45 "/>
<polyline clip-path="url(#clip440)" style="stroke:#000000; stroke-linecap:round; stroke-linejoin:round; stroke-width:4; stroke-opacity:1; fill:none" points="335.078,1486.45 335.078,1467.55 "/>
<polyline clip-path="url(#clip440)" style="stroke:#000000; stroke-linecap:round; stroke-linejoin:round; stroke-width:4; stroke-opacity:1; fill:none" points="879.229,1486.45 879.229,1467.55 "/>
<polyline clip-path="url(#clip440)" style="stroke:#000000; stroke-linecap:round; stroke-linejoin:round; stroke-width:4; stroke-opacity:1; fill:none" points="1423.38,1486.45 1423.38,1467.55 "/>
<polyline clip-path="url(#clip440)" style="stroke:#000000; stroke-linecap:round; stroke-linejoin:round; stroke-width:4; stroke-opacity:1; fill:none" points="1967.53,1486.45 1967.53,1467.55 "/>
<path clip-path="url(#clip440)" d="M335.078 1517.37 Q331.467 1517.37 329.638 1520.93 Q327.833 1524.47 327.833 1531.6 Q327.833 1538.71 329.638 1542.27 Q331.467 1545.82 335.078 1545.82 Q338.712 1545.82 340.518 1542.27 Q342.347 1538.71 342.347 1531.6 Q342.347 1524.47 340.518 1520.93 Q338.712 1517.37 335.078 1517.37 M335.078 1513.66 Q340.888 1513.66 343.944 1518.27 Q347.023 1522.85 347.023 1531.6 Q347.023 1540.33 343.944 1544.94 Q340.888 1549.52 335.078 1549.52 Q329.268 1549.52 326.189 1544.94 Q323.134 1540.33 323.134 1531.6 Q323.134 1522.85 326.189 1518.27 Q329.268 1513.66 335.078 1513.66 Z" fill="#000000" fill-rule="nonzero" fill-opacity="1" /><path clip-path="url(#clip440)" d="M838.847 1514.29 L857.203 1514.29 L857.203 1518.22 L843.129 1518.22 L843.129 1526.7 Q844.148 1526.35 845.166 1526.19 Q846.185 1526 847.204 1526 Q852.991 1526 856.37 1529.17 Q859.75 1532.34 859.75 1537.76 Q859.75 1543.34 856.278 1546.44 Q852.805 1549.52 846.486 1549.52 Q844.31 1549.52 842.042 1549.15 Q839.796 1548.78 837.389 1548.04 L837.389 1543.34 Q839.472 1544.47 841.694 1545.03 Q843.916 1545.58 846.393 1545.58 Q850.398 1545.58 852.736 1543.48 Q855.074 1541.37 855.074 1537.76 Q855.074 1534.15 852.736 1532.04 Q850.398 1529.94 846.393 1529.94 Q844.518 1529.94 842.643 1530.35 Q840.792 1530.77 838.847 1531.65 L838.847 1514.29 Z" fill="#000000" fill-rule="nonzero" fill-opacity="1" /><path clip-path="url(#clip440)" d="M878.963 1517.37 Q875.352 1517.37 873.523 1520.93 Q871.717 1524.47 871.717 1531.6 Q871.717 1538.71 873.523 1542.27 Q875.352 1545.82 878.963 1545.82 Q882.597 1545.82 884.402 1542.27 Q886.231 1538.71 886.231 1531.6 Q886.231 1524.47 884.402 1520.93 Q882.597 1517.37 878.963 1517.37 M878.963 1513.66 Q884.773 1513.66 887.828 1518.27 Q890.907 1522.85 890.907 1531.6 Q890.907 1540.33 887.828 1544.94 Q884.773 1549.52 878.963 1549.52 Q873.152 1549.52 870.074 1544.94 Q867.018 1540.33 867.018 1531.6 Q867.018 1522.85 870.074 1518.27 Q873.152 1513.66 878.963 1513.66 Z" fill="#000000" fill-rule="nonzero" fill-opacity="1" /><path clip-path="url(#clip440)" d="M909.124 1517.37 Q905.513 1517.37 903.685 1520.93 Q901.879 1524.47 901.879 1531.6 Q901.879 1538.71 903.685 1542.27 Q905.513 1545.82 909.124 1545.82 Q912.759 1545.82 914.564 1542.27 Q916.393 1538.71 916.393 1531.6 Q916.393 1524.47 914.564 1520.93 Q912.759 1517.37 909.124 1517.37 M909.124 1513.66 Q914.935 1513.66 917.99 1518.27 Q921.069 1522.85 921.069 1531.6 Q921.069 1540.33 917.99 1544.94 Q914.935 1549.52 909.124 1549.52 Q903.314 1549.52 900.236 1544.94 Q897.18 1540.33 897.18 1531.6 Q897.18 1522.85 900.236 1518.27 Q903.314 1513.66 909.124 1513.66 Z" fill="#000000" fill-rule="nonzero" fill-opacity="1" /><path clip-path="url(#clip440)" d="M1367.91 1544.91 L1375.54 1544.91 L1375.54 1518.55 L1367.23 1520.21 L1367.23 1515.95 L1375.5 1514.29 L1380.17 1514.29 L1380.17 1544.91 L1387.81 1544.91 L1387.81 1548.85 L1367.91 1548.85 L1367.91 1544.91 Z" fill="#000000" fill-rule="nonzero" fill-opacity="1" /><path clip-path="url(#clip440)" d="M1407.26 1517.37 Q1403.65 1517.37 1401.82 1520.93 Q1400.01 1524.47 1400.01 1531.6 Q1400.01 1538.71 1401.82 1542.27 Q1403.65 1545.82 1407.26 1545.82 Q1410.89 1545.82 1412.7 1542.27 Q1414.53 1538.71 1414.53 1531.6 Q1414.53 1524.47 1412.7 1520.93 Q1410.89 1517.37 1407.26 1517.37 M1407.26 1513.66 Q1413.07 1513.66 1416.12 1518.27 Q1419.2 1522.85 1419.2 1531.6 Q1419.2 1540.33 1416.12 1544.94 Q1413.07 1549.52 1407.26 1549.52 Q1401.45 1549.52 1398.37 1544.94 Q1395.31 1540.33 1395.31 1531.6 Q1395.31 1522.85 1398.37 1518.27 Q1401.45 1513.66 1407.26 1513.66 Z" fill="#000000" fill-rule="nonzero" fill-opacity="1" /><path clip-path="url(#clip440)" d="M1437.42 1517.37 Q1433.81 1517.37 1431.98 1520.93 Q1430.17 1524.47 1430.17 1531.6 Q1430.17 1538.71 1431.98 1542.27 Q1433.81 1545.82 1437.42 1545.82 Q1441.05 1545.82 1442.86 1542.27 Q1444.69 1538.71 1444.69 1531.6 Q1444.69 1524.47 1442.86 1520.93 Q1441.05 1517.37 1437.42 1517.37 M1437.42 1513.66 Q1443.23 1513.66 1446.28 1518.27 Q1449.36 1522.85 1449.36 1531.6 Q1449.36 1540.33 1446.28 1544.94 Q1443.23 1549.52 1437.42 1549.52 Q1431.61 1549.52 1428.53 1544.94 Q1425.47 1540.33 1425.47 1531.6 Q1425.47 1522.85 1428.53 1518.27 Q1431.61 1513.66 1437.42 1513.66 Z" fill="#000000" fill-rule="nonzero" fill-opacity="1" /><path clip-path="url(#clip440)" d="M1467.58 1517.37 Q1463.97 1517.37 1462.14 1520.93 Q1460.34 1524.47 1460.34 1531.6 Q1460.34 1538.71 1462.14 1542.27 Q1463.97 1545.82 1467.58 1545.82 Q1471.21 1545.82 1473.02 1542.27 Q1474.85 1538.71 1474.85 1531.6 Q1474.85 1524.47 1473.02 1520.93 Q1471.21 1517.37 1467.58 1517.37 M1467.58 1513.66 Q1473.39 1513.66 1476.45 1518.27 Q1479.52 1522.85 1479.52 1531.6 Q1479.52 1540.33 1476.45 1544.94 Q1473.39 1549.52 1467.58 1549.52 Q1461.77 1549.52 1458.69 1544.94 Q1455.64 1540.33 1455.64 1531.6 Q1455.64 1522.85 1458.69 1518.27 Q1461.77 1513.66 1467.58 1513.66 Z" fill="#000000" fill-rule="nonzero" fill-opacity="1" /><path clip-path="url(#clip440)" d="M1912.06 1544.91 L1919.69 1544.91 L1919.69 1518.55 L1911.38 1520.21 L1911.38 1515.95 L1919.65 1514.29 L1924.32 1514.29 L1924.32 1544.91 L1931.96 1544.91 L1931.96 1548.85 L1912.06 1548.85 L1912.06 1544.91 Z" fill="#000000" fill-rule="nonzero" fill-opacity="1" /><path clip-path="url(#clip440)" d="M1941.45 1514.29 L1959.81 1514.29 L1959.81 1518.22 L1945.74 1518.22 L1945.74 1526.7 Q1946.75 1526.35 1947.77 1526.19 Q1948.79 1526 1949.81 1526 Q1955.6 1526 1958.98 1529.17 Q1962.36 1532.34 1962.36 1537.76 Q1962.36 1543.34 1958.88 1546.44 Q1955.41 1549.52 1949.09 1549.52 Q1946.92 1549.52 1944.65 1549.15 Q1942.4 1548.78 1940 1548.04 L1940 1543.34 Q1942.08 1544.47 1944.3 1545.03 Q1946.52 1545.58 1949 1545.58 Q1953 1545.58 1955.34 1543.48 Q1957.68 1541.37 1957.68 1537.76 Q1957.68 1534.15 1955.34 1532.04 Q1953 1529.94 1949 1529.94 Q1947.12 1529.94 1945.25 1530.35 Q1943.4 1530.77 1941.45 1531.65 L1941.45 1514.29 Z" fill="#000000" fill-rule="nonzero" fill-opacity="1" /><path clip-path="url(#clip440)" d="M1981.57 1517.37 Q1977.96 1517.37 1976.13 1520.93 Q1974.32 1524.47 1974.32 1531.6 Q1974.32 1538.71 1976.13 1542.27 Q1977.96 1545.82 1981.57 1545.82 Q1985.2 1545.82 1987.01 1542.27 Q1988.84 1538.71 1988.84 1531.6 Q1988.84 1524.47 1987.01 1520.93 Q1985.2 1517.37 1981.57 1517.37 M1981.57 1513.66 Q1987.38 1513.66 1990.43 1518.27 Q1993.51 1522.85 1993.51 1531.6 Q1993.51 1540.33 1990.43 1544.94 Q1987.38 1549.52 1981.57 1549.52 Q1975.76 1549.52 1972.68 1544.94 Q1969.62 1540.33 1969.62 1531.6 Q1969.62 1522.85 1972.68 1518.27 Q1975.76 1513.66 1981.57 1513.66 Z" fill="#000000" fill-rule="nonzero" fill-opacity="1" /><path clip-path="url(#clip440)" d="M2011.73 1517.37 Q2008.12 1517.37 2006.29 1520.93 Q2004.49 1524.47 2004.49 1531.6 Q2004.49 1538.71 2006.29 1542.27 Q2008.12 1545.82 2011.73 1545.82 Q2015.37 1545.82 2017.17 1542.27 Q2019 1538.71 2019 1531.6 Q2019 1524.47 2017.17 1520.93 Q2015.37 1517.37 2011.73 1517.37 M2011.73 1513.66 Q2017.54 1513.66 2020.6 1518.27 Q2023.68 1522.85 2023.68 1531.6 Q2023.68 1540.33 2020.6 1544.94 Q2017.54 1549.52 2011.73 1549.52 Q2005.92 1549.52 2002.84 1544.94 Q1999.79 1540.33 1999.79 1531.6 Q1999.79 1522.85 2002.84 1518.27 Q2005.92 1513.66 2011.73 1513.66 Z" fill="#000000" fill-rule="nonzero" fill-opacity="1" /><polyline clip-path="url(#clip442)" style="stroke:#000000; stroke-linecap:round; stroke-linejoin:round; stroke-width:2; stroke-opacity:0.1; fill:none" points="277.431,1447.95 2352.76,1447.95 "/>
<polyline clip-path="url(#clip442)" style="stroke:#000000; stroke-linecap:round; stroke-linejoin:round; stroke-width:2; stroke-opacity:0.1; fill:none" points="277.431,1137.4 2352.76,1137.4 "/>
<polyline clip-path="url(#clip442)" style="stroke:#000000; stroke-linecap:round; stroke-linejoin:round; stroke-width:2; stroke-opacity:0.1; fill:none" points="277.431,826.846 2352.76,826.846 "/>
<polyline clip-path="url(#clip442)" style="stroke:#000000; stroke-linecap:round; stroke-linejoin:round; stroke-width:2; stroke-opacity:0.1; fill:none" points="277.431,516.294 2352.76,516.294 "/>
<polyline clip-path="url(#clip442)" style="stroke:#000000; stroke-linecap:round; stroke-linejoin:round; stroke-width:2; stroke-opacity:0.1; fill:none" points="277.431,205.742 2352.76,205.742 "/>
<polyline clip-path="url(#clip440)" style="stroke:#000000; stroke-linecap:round; stroke-linejoin:round; stroke-width:4; stroke-opacity:1; fill:none" points="277.431,1486.45 277.431,123.472 "/>
<polyline clip-path="url(#clip440)" style="stroke:#000000; stroke-linecap:round; stroke-linejoin:round; stroke-width:4; stroke-opacity:1; fill:none" points="277.431,1447.95 296.329,1447.95 "/>
<polyline clip-path="url(#clip440)" style="stroke:#000000; stroke-linecap:round; stroke-linejoin:round; stroke-width:4; stroke-opacity:1; fill:none" points="277.431,1137.4 296.329,1137.4 "/>
<polyline clip-path="url(#clip440)" style="stroke:#000000; stroke-linecap:round; stroke-linejoin:round; stroke-width:4; stroke-opacity:1; fill:none" points="277.431,826.846 296.329,826.846 "/>
<polyline clip-path="url(#clip440)" style="stroke:#000000; stroke-linecap:round; stroke-linejoin:round; stroke-width:4; stroke-opacity:1; fill:none" points="277.431,516.294 296.329,516.294 "/>
<polyline clip-path="url(#clip440)" style="stroke:#000000; stroke-linecap:round; stroke-linejoin:round; stroke-width:4; stroke-opacity:1; fill:none" points="277.431,205.742 296.329,205.742 "/>
<path clip-path="url(#clip440)" d="M229.487 1433.75 Q225.875 1433.75 224.047 1437.31 Q222.241 1440.86 222.241 1447.99 Q222.241 1455.09 224.047 1458.66 Q225.875 1462.2 229.487 1462.2 Q233.121 1462.2 234.926 1458.66 Q236.755 1455.09 236.755 1447.99 Q236.755 1440.86 234.926 1437.31 Q233.121 1433.75 229.487 1433.75 M229.487 1430.05 Q235.297 1430.05 238.352 1434.65 Q241.431 1439.24 241.431 1447.99 Q241.431 1456.71 238.352 1461.32 Q235.297 1465.9 229.487 1465.9 Q223.676 1465.9 220.598 1461.32 Q217.542 1456.71 217.542 1447.99 Q217.542 1439.24 220.598 1434.65 Q223.676 1430.05 229.487 1430.05 Z" fill="#000000" fill-rule="nonzero" fill-opacity="1" /><path clip-path="url(#clip440)" d="M57.7745 1157.19 L74.0939 1157.19 L74.0939 1161.13 L52.1495 1161.13 L52.1495 1157.19 Q54.8115 1154.44 59.3949 1149.81 Q64.0013 1145.15 65.1819 1143.81 Q67.4272 1141.29 68.3068 1139.55 Q69.2096 1137.79 69.2096 1136.1 Q69.2096 1133.35 67.2652 1131.61 Q65.3439 1129.88 62.2421 1129.88 Q60.043 1129.88 57.5893 1130.64 Q55.1588 1131.4 52.381 1132.96 L52.381 1128.23 Q55.2051 1127.1 57.6588 1126.52 Q60.1124 1125.94 62.1495 1125.94 Q67.5198 1125.94 70.7142 1128.63 Q73.9087 1131.31 73.9087 1135.8 Q73.9087 1137.93 73.0985 1139.85 Q72.3115 1141.75 70.205 1144.34 Q69.6263 1145.02 66.5245 1148.23 Q63.4226 1151.43 57.7745 1157.19 Z" fill="#000000" fill-rule="nonzero" fill-opacity="1" /><path clip-path="url(#clip440)" d="M83.9086 1155.25 L88.7928 1155.25 L88.7928 1161.13 L83.9086 1161.13 L83.9086 1155.25 Z" fill="#000000" fill-rule="nonzero" fill-opacity="1" /><path clip-path="url(#clip440)" d="M108.978 1129.65 Q105.367 1129.65 103.538 1133.21 Q101.733 1136.75 101.733 1143.88 Q101.733 1150.99 103.538 1154.55 Q105.367 1158.09 108.978 1158.09 Q112.612 1158.09 114.418 1154.55 Q116.246 1150.99 116.246 1143.88 Q116.246 1136.75 114.418 1133.21 Q112.612 1129.65 108.978 1129.65 M108.978 1125.94 Q114.788 1125.94 117.844 1130.55 Q120.922 1135.13 120.922 1143.88 Q120.922 1152.61 117.844 1157.21 Q114.788 1161.8 108.978 1161.8 Q103.168 1161.8 100.089 1157.21 Q97.0335 1152.61 97.0335 1143.88 Q97.0335 1135.13 100.089 1130.55 Q103.168 1125.94 108.978 1125.94 Z" fill="#000000" fill-rule="nonzero" fill-opacity="1" /><path clip-path="url(#clip440)" d="M157.311 1135.66 L146.732 1146.29 L157.311 1156.87 L154.556 1159.67 L143.931 1149.04 L133.306 1159.67 L130.575 1156.87 L141.131 1146.29 L130.575 1135.66 L133.306 1132.86 L143.931 1143.49 L154.556 1132.86 L157.311 1135.66 Z" fill="#000000" fill-rule="nonzero" fill-opacity="1" /><path clip-path="url(#clip440)" d="M169.672 1157.19 L177.311 1157.19 L177.311 1130.83 L169.001 1132.49 L169.001 1128.23 L177.265 1126.57 L181.94 1126.57 L181.94 1157.19 L189.579 1157.19 L189.579 1161.13 L169.672 1161.13 L169.672 1157.19 Z" fill="#000000" fill-rule="nonzero" fill-opacity="1" /><path clip-path="url(#clip440)" d="M209.024 1129.65 Q205.413 1129.65 203.584 1133.21 Q201.778 1136.75 201.778 1143.88 Q201.778 1150.99 203.584 1154.55 Q205.413 1158.09 209.024 1158.09 Q212.658 1158.09 214.463 1154.55 Q216.292 1150.99 216.292 1143.88 Q216.292 1136.75 214.463 1133.21 Q212.658 1129.65 209.024 1129.65 M209.024 1125.94 Q214.834 1125.94 217.889 1130.55 Q220.968 1135.13 220.968 1143.88 Q220.968 1152.61 217.889 1157.21 Q214.834 1161.8 209.024 1161.8 Q203.214 1161.8 200.135 1157.21 Q197.079 1152.61 197.079 1143.88 Q197.079 1135.13 200.135 1130.55 Q203.214 1125.94 209.024 1125.94 Z" fill="#000000" fill-rule="nonzero" fill-opacity="1" /><path clip-path="url(#clip440)" d="M233.645 1108.95 L224.053 1123.94 L233.645 1123.94 L233.645 1108.95 M232.648 1105.64 L237.425 1105.64 L237.425 1123.94 L241.431 1123.94 L241.431 1127.1 L237.425 1127.1 L237.425 1133.72 L233.645 1133.72 L233.645 1127.1 L220.968 1127.1 L220.968 1123.43 L232.648 1105.64 Z" fill="#000000" fill-rule="nonzero" fill-opacity="1" /><path clip-path="url(#clip440)" d="M66.5939 820.088 L54.7884 838.537 L66.5939 838.537 L66.5939 820.088 M65.367 816.014 L71.2466 816.014 L71.2466 838.537 L76.1772 838.537 L76.1772 842.426 L71.2466 842.426 L71.2466 850.574 L66.5939 850.574 L66.5939 842.426 L50.9921 842.426 L50.9921 837.912 L65.367 816.014 Z" fill="#000000" fill-rule="nonzero" fill-opacity="1" /><path clip-path="url(#clip440)" d="M83.9086 844.694 L88.7928 844.694 L88.7928 850.574 L83.9086 850.574 L83.9086 844.694 Z" fill="#000000" fill-rule="nonzero" fill-opacity="1" /><path clip-path="url(#clip440)" d="M108.978 819.093 Q105.367 819.093 103.538 822.658 Q101.733 826.199 101.733 833.329 Q101.733 840.435 103.538 844 Q105.367 847.542 108.978 847.542 Q112.612 847.542 114.418 844 Q116.246 840.435 116.246 833.329 Q116.246 826.199 114.418 822.658 Q112.612 819.093 108.978 819.093 M108.978 815.389 Q114.788 815.389 117.844 819.995 Q120.922 824.579 120.922 833.329 Q120.922 842.056 117.844 846.662 Q114.788 851.245 108.978 851.245 Q103.168 851.245 100.089 846.662 Q97.0335 842.056 97.0335 833.329 Q97.0335 824.579 100.089 819.995 Q103.168 815.389 108.978 815.389 Z" fill="#000000" fill-rule="nonzero" fill-opacity="1" /><path clip-path="url(#clip440)" d="M157.311 825.111 L146.732 835.736 L157.311 846.315 L154.556 849.116 L143.931 838.491 L133.306 849.116 L130.575 846.315 L141.131 835.736 L130.575 825.111 L133.306 822.31 L143.931 832.935 L154.556 822.31 L157.311 825.111 Z" fill="#000000" fill-rule="nonzero" fill-opacity="1" /><path clip-path="url(#clip440)" d="M169.672 846.639 L177.311 846.639 L177.311 820.273 L169.001 821.94 L169.001 817.681 L177.265 816.014 L181.94 816.014 L181.94 846.639 L189.579 846.639 L189.579 850.574 L169.672 850.574 L169.672 846.639 Z" fill="#000000" fill-rule="nonzero" fill-opacity="1" /><path clip-path="url(#clip440)" d="M209.024 819.093 Q205.413 819.093 203.584 822.658 Q201.778 826.199 201.778 833.329 Q201.778 840.435 203.584 844 Q205.413 847.542 209.024 847.542 Q212.658 847.542 214.463 844 Q216.292 840.435 216.292 833.329 Q216.292 826.199 214.463 822.658 Q212.658 819.093 209.024 819.093 M209.024 815.389 Q214.834 815.389 217.889 819.995 Q220.968 824.579 220.968 833.329 Q220.968 842.056 217.889 846.662 Q214.834 851.245 209.024 851.245 Q203.214 851.245 200.135 846.662 Q197.079 842.056 197.079 833.329 Q197.079 824.579 200.135 819.995 Q203.214 815.389 209.024 815.389 Z" fill="#000000" fill-rule="nonzero" fill-opacity="1" /><path clip-path="url(#clip440)" d="M233.645 798.394 L224.053 813.384 L233.645 813.384 L233.645 798.394 M232.648 795.084 L237.425 795.084 L237.425 813.384 L241.431 813.384 L241.431 816.543 L237.425 816.543 L237.425 823.164 L233.645 823.164 L233.645 816.543 L220.968 816.543 L220.968 812.876 L232.648 795.084 Z" fill="#000000" fill-rule="nonzero" fill-opacity="1" /><path clip-path="url(#clip440)" d="M64.3254 520.878 Q61.1773 520.878 59.3254 523.031 Q57.4967 525.184 57.4967 528.934 Q57.4967 532.661 59.3254 534.836 Q61.1773 536.989 64.3254 536.989 Q67.4735 536.989 69.3022 534.836 Q71.1541 532.661 71.1541 528.934 Q71.1541 525.184 69.3022 523.031 Q67.4735 520.878 64.3254 520.878 M73.6077 506.226 L73.6077 510.485 Q71.8485 509.651 70.0429 509.212 Q68.2606 508.772 66.5013 508.772 Q61.8717 508.772 59.418 511.897 Q56.9875 515.022 56.6402 521.341 Q58.006 519.327 60.0662 518.263 Q62.1263 517.175 64.6032 517.175 Q69.8115 517.175 72.8207 520.346 Q75.8531 523.494 75.8531 528.934 Q75.8531 534.258 72.705 537.475 Q69.5568 540.693 64.3254 540.693 Q58.33 540.693 55.1588 536.11 Q51.9875 531.503 51.9875 522.776 Q51.9875 514.582 55.8764 509.721 Q59.7652 504.837 66.3161 504.837 Q68.0754 504.837 69.8578 505.184 Q71.6633 505.531 73.6077 506.226 Z" fill="#000000" fill-rule="nonzero" fill-opacity="1" /><path clip-path="url(#clip440)" d="M83.9086 534.142 L88.7928 534.142 L88.7928 540.022 L83.9086 540.022 L83.9086 534.142 Z" fill="#000000" fill-rule="nonzero" fill-opacity="1" /><path clip-path="url(#clip440)" d="M108.978 508.54 Q105.367 508.54 103.538 512.105 Q101.733 515.647 101.733 522.776 Q101.733 529.883 103.538 533.448 Q105.367 536.989 108.978 536.989 Q112.612 536.989 114.418 533.448 Q116.246 529.883 116.246 522.776 Q116.246 515.647 114.418 512.105 Q112.612 508.54 108.978 508.54 M108.978 504.837 Q114.788 504.837 117.844 509.443 Q120.922 514.026 120.922 522.776 Q120.922 531.503 117.844 536.11 Q114.788 540.693 108.978 540.693 Q103.168 540.693 100.089 536.11 Q97.0335 531.503 97.0335 522.776 Q97.0335 514.026 100.089 509.443 Q103.168 504.837 108.978 504.837 Z" fill="#000000" fill-rule="nonzero" fill-opacity="1" /><path clip-path="url(#clip440)" d="M157.311 514.559 L146.732 525.184 L157.311 535.762 L154.556 538.563 L143.931 527.938 L133.306 538.563 L130.575 535.762 L141.131 525.184 L130.575 514.559 L133.306 511.758 L143.931 522.383 L154.556 511.758 L157.311 514.559 Z" fill="#000000" fill-rule="nonzero" fill-opacity="1" /><path clip-path="url(#clip440)" d="M169.672 536.086 L177.311 536.086 L177.311 509.721 L169.001 511.388 L169.001 507.128 L177.265 505.462 L181.94 505.462 L181.94 536.086 L189.579 536.086 L189.579 540.022 L169.672 540.022 L169.672 536.086 Z" fill="#000000" fill-rule="nonzero" fill-opacity="1" /><path clip-path="url(#clip440)" d="M209.024 508.54 Q205.413 508.54 203.584 512.105 Q201.778 515.647 201.778 522.776 Q201.778 529.883 203.584 533.448 Q205.413 536.989 209.024 536.989 Q212.658 536.989 214.463 533.448 Q216.292 529.883 216.292 522.776 Q216.292 515.647 214.463 512.105 Q212.658 508.54 209.024 508.54 M209.024 504.837 Q214.834 504.837 217.889 509.443 Q220.968 514.026 220.968 522.776 Q220.968 531.503 217.889 536.11 Q214.834 540.693 209.024 540.693 Q203.214 540.693 200.135 536.11 Q197.079 531.503 197.079 522.776 Q197.079 514.026 200.135 509.443 Q203.214 504.837 209.024 504.837 Z" fill="#000000" fill-rule="nonzero" fill-opacity="1" /><path clip-path="url(#clip440)" d="M233.645 487.841 L224.053 502.831 L233.645 502.831 L233.645 487.841 M232.648 484.531 L237.425 484.531 L237.425 502.831 L241.431 502.831 L241.431 505.991 L237.425 505.991 L237.425 512.611 L233.645 512.611 L233.645 505.991 L220.968 505.991 L220.968 502.323 L232.648 484.531 Z" fill="#000000" fill-rule="nonzero" fill-opacity="1" /><path clip-path="url(#clip440)" d="M63.7467 213.057 Q60.4134 213.057 58.4921 214.84 Q56.5939 216.622 56.5939 219.747 Q56.5939 222.872 58.4921 224.654 Q60.4134 226.437 63.7467 226.437 Q67.08 226.437 69.0013 224.654 Q70.9226 222.849 70.9226 219.747 Q70.9226 216.622 69.0013 214.84 Q67.1032 213.057 63.7467 213.057 M59.0708 211.067 Q56.0615 210.326 54.3717 208.266 Q52.7051 206.206 52.7051 203.243 Q52.7051 199.099 55.6449 196.692 Q58.6078 194.284 63.7467 194.284 Q68.9087 194.284 71.8485 196.692 Q74.7883 199.099 74.7883 203.243 Q74.7883 206.206 73.0985 208.266 Q71.4318 210.326 68.4457 211.067 Q71.8253 211.854 73.7003 214.145 Q75.5985 216.437 75.5985 219.747 Q75.5985 224.77 72.5198 227.455 Q69.4642 230.141 63.7467 230.141 Q58.0291 230.141 54.9504 227.455 Q51.8949 224.77 51.8949 219.747 Q51.8949 216.437 53.793 214.145 Q55.6912 211.854 59.0708 211.067 M57.3578 203.682 Q57.3578 206.368 59.0245 207.872 Q60.7143 209.377 63.7467 209.377 Q66.7559 209.377 68.4457 207.872 Q70.1587 206.368 70.1587 203.682 Q70.1587 200.997 68.4457 199.493 Q66.7559 197.988 63.7467 197.988 Q60.7143 197.988 59.0245 199.493 Q57.3578 200.997 57.3578 203.682 Z" fill="#000000" fill-rule="nonzero" fill-opacity="1" /><path clip-path="url(#clip440)" d="M83.9086 223.59 L88.7928 223.59 L88.7928 229.469 L83.9086 229.469 L83.9086 223.59 Z" fill="#000000" fill-rule="nonzero" fill-opacity="1" /><path clip-path="url(#clip440)" d="M108.978 197.988 Q105.367 197.988 103.538 201.553 Q101.733 205.094 101.733 212.224 Q101.733 219.33 103.538 222.895 Q105.367 226.437 108.978 226.437 Q112.612 226.437 114.418 222.895 Q116.246 219.33 116.246 212.224 Q116.246 205.094 114.418 201.553 Q112.612 197.988 108.978 197.988 M108.978 194.284 Q114.788 194.284 117.844 198.891 Q120.922 203.474 120.922 212.224 Q120.922 220.951 117.844 225.557 Q114.788 230.141 108.978 230.141 Q103.168 230.141 100.089 225.557 Q97.0335 220.951 97.0335 212.224 Q97.0335 203.474 100.089 198.891 Q103.168 194.284 108.978 194.284 Z" fill="#000000" fill-rule="nonzero" fill-opacity="1" /><path clip-path="url(#clip440)" d="M157.311 204.006 L146.732 214.631 L157.311 225.21 L154.556 228.011 L143.931 217.386 L133.306 228.011 L130.575 225.21 L141.131 214.631 L130.575 204.006 L133.306 201.206 L143.931 211.83 L154.556 201.206 L157.311 204.006 Z" fill="#000000" fill-rule="nonzero" fill-opacity="1" /><path clip-path="url(#clip440)" d="M169.672 225.534 L177.311 225.534 L177.311 199.169 L169.001 200.835 L169.001 196.576 L177.265 194.909 L181.94 194.909 L181.94 225.534 L189.579 225.534 L189.579 229.469 L169.672 229.469 L169.672 225.534 Z" fill="#000000" fill-rule="nonzero" fill-opacity="1" /><path clip-path="url(#clip440)" d="M209.024 197.988 Q205.413 197.988 203.584 201.553 Q201.778 205.094 201.778 212.224 Q201.778 219.33 203.584 222.895 Q205.413 226.437 209.024 226.437 Q212.658 226.437 214.463 222.895 Q216.292 219.33 216.292 212.224 Q216.292 205.094 214.463 201.553 Q212.658 197.988 209.024 197.988 M209.024 194.284 Q214.834 194.284 217.889 198.891 Q220.968 203.474 220.968 212.224 Q220.968 220.951 217.889 225.557 Q214.834 230.141 209.024 230.141 Q203.214 230.141 200.135 225.557 Q197.079 220.951 197.079 212.224 Q197.079 203.474 200.135 198.891 Q203.214 194.284 209.024 194.284 Z" fill="#000000" fill-rule="nonzero" fill-opacity="1" /><path clip-path="url(#clip440)" d="M233.645 177.289 L224.053 192.279 L233.645 192.279 L233.645 177.289 M232.648 173.979 L237.425 173.979 L237.425 192.279 L241.431 192.279 L241.431 195.439 L237.425 195.439 L237.425 202.059 L233.645 202.059 L233.645 195.439 L220.968 195.439 L220.968 191.771 L232.648 173.979 Z" fill="#000000" fill-rule="nonzero" fill-opacity="1" /><path clip-path="url(#clip440)" d="M1070.4 12.096 L1108.64 12.096 L1108.64 18.9825 L1078.58 18.9825 L1078.58 36.8875 L1107.38 36.8875 L1107.38 43.7741 L1078.58 43.7741 L1078.58 65.6895 L1109.37 65.6895 L1109.37 72.576 L1070.4 72.576 L1070.4 12.096 Z" fill="#000000" fill-rule="nonzero" fill-opacity="1" /><path clip-path="url(#clip440)" d="M1122.49 27.2059 L1129.95 27.2059 L1129.95 72.576 L1122.49 72.576 L1122.49 27.2059 M1122.49 9.54393 L1129.95 9.54393 L1129.95 18.9825 L1122.49 18.9825 L1122.49 9.54393 Z" fill="#000000" fill-rule="nonzero" fill-opacity="1" /><path clip-path="url(#clip440)" d="M1175.4 49.3643 Q1175.4 41.2625 1172.04 36.8065 Q1168.71 32.3505 1162.68 32.3505 Q1156.68 32.3505 1153.32 36.8065 Q1150 41.2625 1150 49.3643 Q1150 57.4256 1153.32 61.8816 Q1156.68 66.3376 1162.68 66.3376 Q1168.71 66.3376 1172.04 61.8816 Q1175.4 57.4256 1175.4 49.3643 M1182.85 66.9452 Q1182.85 78.5308 1177.71 84.1616 Q1172.56 89.8329 1161.95 89.8329 Q1158.02 89.8329 1154.54 89.2252 Q1151.05 88.6581 1147.77 87.4428 L1147.77 80.1917 Q1151.05 81.9741 1154.25 82.8248 Q1157.45 83.6755 1160.77 83.6755 Q1168.11 83.6755 1171.75 79.8271 Q1175.4 76.0193 1175.4 68.282 L1175.4 64.5957 Q1173.09 68.6061 1169.48 70.5911 Q1165.88 72.576 1160.86 72.576 Q1152.51 72.576 1147.41 66.2161 Q1142.3 59.8562 1142.3 49.3643 Q1142.3 38.832 1147.41 32.472 Q1152.51 26.1121 1160.86 26.1121 Q1165.88 26.1121 1169.48 28.0971 Q1173.09 30.082 1175.4 34.0924 L1175.4 27.2059 L1182.85 27.2059 L1182.85 66.9452 Z" fill="#000000" fill-rule="nonzero" fill-opacity="1" /><path clip-path="url(#clip440)" d="M1237.01 48.0275 L1237.01 51.6733 L1202.74 51.6733 Q1203.23 59.3701 1207.36 63.421 Q1211.53 67.4314 1218.95 67.4314 Q1223.24 67.4314 1227.25 66.3781 Q1231.3 65.3249 1235.27 63.2184 L1235.27 70.267 Q1231.26 71.9684 1227.05 72.8596 Q1222.83 73.7508 1218.5 73.7508 Q1207.64 73.7508 1201.28 67.4314 Q1194.96 61.1119 1194.96 50.3365 Q1194.96 39.1965 1200.96 32.6746 Q1207 26.1121 1217.2 26.1121 Q1226.36 26.1121 1231.67 32.0264 Q1237.01 37.9003 1237.01 48.0275 M1229.56 45.84 Q1229.48 39.7232 1226.12 36.0774 Q1222.79 32.4315 1217.28 32.4315 Q1211.05 32.4315 1207.28 35.9558 Q1203.55 39.4801 1202.98 45.8805 L1229.56 45.84 Z" fill="#000000" fill-rule="nonzero" fill-opacity="1" /><path clip-path="url(#clip440)" d="M1286.96 45.1919 L1286.96 72.576 L1279.51 72.576 L1279.51 45.4349 Q1279.51 38.994 1276.99 35.7938 Q1274.48 32.5936 1269.46 32.5936 Q1263.42 32.5936 1259.94 36.4419 Q1256.46 40.2903 1256.46 46.9338 L1256.46 72.576 L1248.96 72.576 L1248.96 27.2059 L1256.46 27.2059 L1256.46 34.2544 Q1259.13 30.163 1262.74 28.1376 Q1266.38 26.1121 1271.12 26.1121 Q1278.94 26.1121 1282.95 30.9732 Q1286.96 35.7938 1286.96 45.1919 Z" fill="#000000" fill-rule="nonzero" fill-opacity="1" /><path clip-path="url(#clip440)" d="M1296.48 27.2059 L1304.38 27.2059 L1318.56 65.2844 L1332.74 27.2059 L1340.63 27.2059 L1323.62 72.576 L1313.49 72.576 L1296.48 27.2059 Z" fill="#000000" fill-rule="nonzero" fill-opacity="1" /><path clip-path="url(#clip440)" d="M1371.54 49.7694 Q1362.51 49.7694 1359.03 51.8354 Q1355.54 53.9013 1355.54 58.8839 Q1355.54 62.8538 1358.13 65.2034 Q1360.77 67.5124 1365.26 67.5124 Q1371.46 67.5124 1375.19 63.1374 Q1378.96 58.7219 1378.96 51.4303 L1378.96 49.7694 L1371.54 49.7694 M1386.41 46.6907 L1386.41 72.576 L1378.96 72.576 L1378.96 65.6895 Q1376.4 69.8214 1372.6 71.8063 Q1368.79 73.7508 1363.28 73.7508 Q1356.31 73.7508 1352.18 69.8619 Q1348.09 65.9325 1348.09 59.3701 Q1348.09 51.7138 1353.19 47.825 Q1358.34 43.9361 1368.5 43.9361 L1378.96 43.9361 L1378.96 43.2069 Q1378.96 38.0623 1375.55 35.2672 Q1372.19 32.4315 1366.07 32.4315 Q1362.19 32.4315 1358.5 33.3632 Q1354.81 34.295 1351.41 36.1584 L1351.41 29.2718 Q1355.5 27.692 1359.35 26.9223 Q1363.2 26.1121 1366.84 26.1121 Q1376.69 26.1121 1381.55 31.2163 Q1386.41 36.3204 1386.41 46.6907 Z" fill="#000000" fill-rule="nonzero" fill-opacity="1" /><path clip-path="url(#clip440)" d="M1401.76 9.54393 L1409.22 9.54393 L1409.22 72.576 L1401.76 72.576 L1401.76 9.54393 Z" fill="#000000" fill-rule="nonzero" fill-opacity="1" /><path clip-path="url(#clip440)" d="M1424.04 54.671 L1424.04 27.2059 L1431.5 27.2059 L1431.5 54.3874 Q1431.5 60.8284 1434.01 64.0691 Q1436.52 67.2693 1441.54 67.2693 Q1447.58 67.2693 1451.06 63.421 Q1454.59 59.5726 1454.59 52.9291 L1454.59 27.2059 L1462.04 27.2059 L1462.04 72.576 L1454.59 72.576 L1454.59 65.6084 Q1451.87 69.7404 1448.27 71.7658 Q1444.7 73.7508 1439.96 73.7508 Q1432.14 73.7508 1428.09 68.8897 Q1424.04 64.0286 1424.04 54.671 M1442.8 26.1121 L1442.8 26.1121 Z" fill="#000000" fill-rule="nonzero" fill-opacity="1" /><path clip-path="url(#clip440)" d="M1516.2 48.0275 L1516.2 51.6733 L1481.93 51.6733 Q1482.42 59.3701 1486.55 63.421 Q1490.72 67.4314 1498.13 67.4314 Q1502.43 67.4314 1506.44 66.3781 Q1510.49 65.3249 1514.46 63.2184 L1514.46 70.267 Q1510.45 71.9684 1506.24 72.8596 Q1502.02 73.7508 1497.69 73.7508 Q1486.83 73.7508 1480.47 67.4314 Q1474.15 61.1119 1474.15 50.3365 Q1474.15 39.1965 1480.15 32.6746 Q1486.18 26.1121 1496.39 26.1121 Q1505.55 26.1121 1510.85 32.0264 Q1516.2 37.9003 1516.2 48.0275 M1508.75 45.84 Q1508.67 39.7232 1505.3 36.0774 Q1501.98 32.4315 1496.47 32.4315 Q1490.23 32.4315 1486.47 35.9558 Q1482.74 39.4801 1482.17 45.8805 L1508.75 45.84 Z" fill="#000000" fill-rule="nonzero" fill-opacity="1" /><path clip-path="url(#clip440)" d="M1557.36 28.5427 L1557.36 35.5912 Q1554.2 33.9709 1550.8 33.1607 Q1547.39 32.3505 1543.75 32.3505 Q1538.2 32.3505 1535.4 34.0519 Q1532.65 35.7533 1532.65 39.156 Q1532.65 41.7486 1534.63 43.2475 Q1536.62 44.7058 1542.61 46.0426 L1545.16 46.6097 Q1553.1 48.3111 1556.43 51.4303 Q1559.79 54.509 1559.79 60.0587 Q1559.79 66.3781 1554.77 70.0644 Q1549.78 73.7508 1541.03 73.7508 Q1537.39 73.7508 1533.42 73.0216 Q1529.49 72.3329 1525.11 70.9151 L1525.11 63.2184 Q1529.24 65.3654 1533.25 66.4591 Q1537.27 67.5124 1541.19 67.5124 Q1546.46 67.5124 1549.3 65.73 Q1552.13 63.9071 1552.13 60.6258 Q1552.13 57.5877 1550.07 55.9673 Q1548.04 54.3469 1541.11 52.8481 L1538.52 52.2405 Q1531.59 50.7821 1528.52 47.7845 Q1525.44 44.7463 1525.44 39.4801 Q1525.44 33.0797 1529.97 29.5959 Q1534.51 26.1121 1542.86 26.1121 Q1546.99 26.1121 1550.63 26.7198 Q1554.28 27.3274 1557.36 28.5427 Z" fill="#000000" fill-rule="nonzero" fill-opacity="1" /><polyline clip-path="url(#clip442)" style="stroke:#009af9; stroke-linecap:round; stroke-linejoin:round; stroke-width:4; stroke-opacity:1; fill:none" points="336.167,1447.87 337.255,1447.72 338.343,1447.56 339.431,1447.4 340.52,1447.23 341.608,1447.07 342.696,1446.9 343.785,1446.74 344.873,1446.57 345.961,1446.4 347.05,1446.23 348.138,1446.06 349.226,1445.88 350.314,1445.71 351.403,1445.53 352.491,1445.35 353.579,1445.17 354.668,1444.99 355.756,1444.81 356.844,1444.63 357.933,1444.44 359.021,1444.26 360.109,1444.07 361.197,1443.88 362.286,1443.69 363.374,1443.5 364.462,1443.31 365.551,1443.12 366.639,1442.93 367.727,1442.73 368.816,1442.54 369.904,1442.34 370.992,1442.14 372.08,1441.94 373.169,1441.75 374.257,1441.55 375.345,1441.34 376.434,1441.14 377.522,1440.94 378.61,1440.74 379.699,1440.53 380.787,1440.32 381.875,1440.12 382.963,1439.91 384.052,1439.7 385.14,1439.49 386.228,1439.28 387.317,1439.07 388.405,1438.86 389.493,1438.65 390.582,1438.43 391.67,1438.22 392.758,1438.01 393.846,1437.79 394.935,1437.57 396.023,1437.36 397.111,1437.14 398.2,1436.92 399.288,1436.7 400.376,1436.48 401.465,1436.26 402.553,1436.04 403.641,1435.81 404.73,1435.59 405.818,1435.37 406.906,1435.14 407.994,1434.91 409.083,1434.69 410.171,1434.46 411.259,1434.23 412.348,1434.01 413.436,1433.78 414.524,1433.55 415.613,1433.32 416.701,1433.08 417.789,1432.85 418.877,1432.62 419.966,1432.39 421.054,1432.15 422.142,1431.92 423.231,1431.68 424.319,1431.45 425.407,1431.21 426.496,1430.97 427.584,1430.74 428.672,1430.5 429.76,1430.26 430.849,1430.02 431.937,1429.78 433.025,1429.54 434.114,1429.3 435.202,1429.05 436.29,1428.81 437.379,1428.57 438.467,1428.32 439.555,1428.08 440.643,1427.84 441.732,1427.59 442.82,1427.34 443.908,1427.1 444.997,1426.85 446.085,1426.6 447.173,1426.35 448.262,1426.1 449.35,1425.85 450.438,1425.6 451.526,1425.35 452.615,1425.1 453.703,1424.85 454.791,1424.6 455.88,1424.34 456.968,1424.09 458.056,1423.84 459.145,1423.58 460.233,1423.33 461.321,1423.07 462.409,1422.81 463.498,1422.56 464.586,1422.3 465.674,1422.04 466.763,1421.78 467.851,1421.53 468.939,1421.27 470.028,1421.01 471.116,1420.75 472.204,1420.48 473.292,1420.22 474.381,1419.96 475.469,1419.7 476.557,1419.44 477.646,1419.17 478.734,1418.91 479.822,1418.64 480.911,1418.38 481.999,1418.11 483.087,1417.85 484.175,1417.58 485.264,1417.31 486.352,1417.05 487.44,1416.78 488.529,1416.51 489.617,1416.24 490.705,1415.97 491.794,1415.7 492.882,1415.43 493.97,1415.16 495.059,1414.89 496.147,1414.62 497.235,1414.34 498.323,1414.07 499.412,1413.8 500.5,1413.53 501.588,1413.25 502.677,1412.98 503.765,1412.7 504.853,1412.43 505.942,1412.15 507.03,1411.87 508.118,1411.6 509.206,1411.32 510.295,1411.04 511.383,1410.76 512.471,1410.49 513.56,1410.21 514.648,1409.93 515.736,1409.65 516.825,1409.37 517.913,1409.09 519.001,1408.8 520.089,1408.52 521.178,1408.24 522.266,1407.96 523.354,1407.68 524.443,1407.39 525.531,1407.11 526.619,1406.82 527.708,1406.54 528.796,1406.25 529.884,1405.97 530.972,1405.68 532.061,1405.4 533.149,1405.11 534.237,1404.82 535.326,1404.54 536.414,1404.25 537.502,1403.96 538.591,1403.67 539.679,1403.38 540.767,1403.09 541.855,1402.8 542.944,1402.51 544.032,1402.22 545.12,1401.93 546.209,1401.64 547.297,1401.35 548.385,1401.05 549.474,1400.76 550.562,1400.47 551.65,1400.17 552.738,1399.88 553.827,1399.59 554.915,1399.29 556.003,1399 557.092,1398.7 558.18,1398.4 559.268,1398.11 560.357,1397.81 561.445,1397.51 562.533,1397.22 563.621,1396.92 564.71,1396.62 565.798,1396.32 566.886,1396.02 567.975,1395.72 569.063,1395.42 570.151,1395.12 571.24,1394.82 572.328,1394.52 573.416,1394.22 574.504,1393.92 575.593,1393.62 576.681,1393.31 577.769,1393.01 578.858,1392.71 579.946,1392.41 581.034,1392.1 582.123,1391.8 583.211,1391.49 584.299,1391.19 585.387,1390.88 586.476,1390.58 587.564,1390.27 588.652,1389.96 589.741,1389.66 590.829,1389.35 591.917,1389.04 593.006,1388.74 594.094,1388.43 595.182,1388.12 596.271,1387.81 597.359,1387.5 598.447,1387.19 599.535,1386.88 600.624,1386.57 601.712,1386.26 602.8,1385.95 603.889,1385.64 604.977,1385.33 606.065,1385.01 607.154,1384.7 608.242,1384.39 609.33,1384.08 610.418,1383.76 611.507,1383.45 612.595,1383.14 613.683,1382.82 614.772,1382.51 615.86,1382.19 616.948,1381.88 618.037,1381.56 619.125,1381.24 620.213,1380.93 621.301,1380.61 622.39,1380.29 623.478,1379.98 624.566,1379.66 625.655,1379.34 626.743,1379.02 627.831,1378.7 628.92,1378.38 630.008,1378.07 631.096,1377.75 632.184,1377.43 633.273,1377.11 634.361,1376.78 635.449,1376.46 636.538,1376.14 637.626,1375.82 638.714,1375.5 639.803,1375.18 640.891,1374.85 641.979,1374.53 643.067,1374.21 644.156,1373.88 645.244,1373.56 646.332,1373.24 647.421,1372.91 648.509,1372.59 649.597,1372.26 650.686,1371.94 651.774,1371.61 652.862,1371.28 653.95,1370.96 655.039,1370.63 656.127,1370.3 657.215,1369.98 658.304,1369.65 659.392,1369.32 660.48,1368.99 661.569,1368.66 662.657,1368.33 663.745,1368.01 664.833,1367.68 665.922,1367.35 667.01,1367.02 668.098,1366.69 669.187,1366.35 670.275,1366.02 671.363,1365.69 672.452,1365.36 673.54,1365.03 674.628,1364.7 675.716,1364.36 676.805,1364.03 677.893,1363.7 678.981,1363.36 680.07,1363.03 681.158,1362.7 682.246,1362.36 683.335,1362.03 684.423,1361.69 685.511,1361.36 686.6,1361.02 687.688,1360.69 688.776,1360.35 689.864,1360.01 690.953,1359.68 692.041,1359.34 693.129,1359 694.218,1358.66 695.306,1358.33 696.394,1357.99 697.483,1357.65 698.571,1357.31 699.659,1356.97 700.747,1356.63 701.836,1356.29 702.924,1355.95 704.012,1355.61 705.101,1355.27 706.189,1354.93 707.277,1354.59 708.366,1354.25 709.454,1353.91 710.542,1353.57 711.63,1353.22 712.719,1352.88 713.807,1352.54 714.895,1352.2 715.984,1351.85 717.072,1351.51 718.16,1351.16 719.249,1350.82 720.337,1350.48 721.425,1350.13 722.513,1349.79 723.602,1349.44 724.69,1349.1 725.778,1348.75 726.867,1348.4 727.955,1348.06 729.043,1347.71 730.132,1347.36 731.22,1347.02 732.308,1346.67 733.396,1346.32 734.485,1345.97 735.573,1345.63 736.661,1345.28 737.75,1344.93 738.838,1344.58 739.926,1344.23 741.015,1343.88 742.103,1343.53 743.191,1343.18 744.279,1342.83 745.368,1342.48 746.456,1342.13 747.544,1341.78 748.633,1341.42 749.721,1341.07 750.809,1340.72 751.898,1340.37 752.986,1340.02 754.074,1339.66 755.162,1339.31 756.251,1338.96 757.339,1338.6 758.427,1338.25 759.516,1337.9 760.604,1337.54 761.692,1337.19 762.781,1336.83 763.869,1336.48 764.957,1336.12 766.045,1335.76 767.134,1335.41 768.222,1335.05 769.31,1334.7 770.399,1334.34 771.487,1333.98 772.575,1333.62 773.664,1333.27 774.752,1332.91 775.84,1332.55 776.928,1332.19 778.017,1331.83 779.105,1331.48 780.193,1331.12 781.282,1330.76 782.37,1330.4 783.458,1330.04 784.547,1329.68 785.635,1329.32 786.723,1328.96 787.812,1328.6 788.9,1328.23 789.988,1327.87 791.076,1327.51 792.165,1327.15 793.253,1326.79 794.341,1326.43 795.43,1326.06 796.518,1325.7 797.606,1325.34 798.695,1324.97 799.783,1324.61 800.871,1324.25 801.959,1323.88 803.048,1323.52 804.136,1323.15 805.224,1322.79 806.313,1322.42 807.401,1322.06 808.489,1321.69 809.578,1321.33 810.666,1320.96 811.754,1320.59 812.842,1320.23 813.931,1319.86 815.019,1319.49 816.107,1319.13 817.196,1318.76 818.284,1318.39 819.372,1318.02 820.461,1317.65 821.549,1317.29 822.637,1316.92 823.725,1316.55 824.814,1316.18 825.902,1315.81 826.99,1315.44 828.079,1315.07 829.167,1314.7 830.255,1314.33 831.344,1313.96 832.432,1313.59 833.52,1313.22 834.608,1312.85 835.697,1312.47 836.785,1312.1 837.873,1311.73 838.962,1311.36 840.05,1310.99 841.138,1310.61 842.227,1310.24 843.315,1309.87 844.403,1309.49 845.491,1309.12 846.58,1308.75 847.668,1308.37 848.756,1308 849.845,1307.62 850.933,1307.25 852.021,1306.87 853.11,1306.5 854.198,1306.12 855.286,1305.75 856.374,1305.37 857.463,1304.99 858.551,1304.62 859.639,1304.24 860.728,1303.86 861.816,1303.49 862.904,1303.11 863.993,1302.73 865.081,1302.35 866.169,1301.97 867.257,1301.6 868.346,1301.22 869.434,1300.84 870.522,1300.46 871.611,1300.08 872.699,1299.7 873.787,1299.32 874.876,1298.94 875.964,1298.56 877.052,1298.18 878.141,1297.8 879.229,1297.42 880.317,1297.04 881.405,1296.66 882.494,1296.28 883.582,1295.89 884.67,1295.51 885.759,1295.13 886.847,1294.75 887.935,1294.36 889.024,1293.98 890.112,1293.6 891.2,1293.21 892.288,1292.83 893.377,1292.45 894.465,1292.06 895.553,1291.68 896.642,1291.3 897.73,1290.91 898.818,1290.53 899.907,1290.14 900.995,1289.76 902.083,1289.37 903.171,1288.98 904.26,1288.6 905.348,1288.21 906.436,1287.83 907.525,1287.44 908.613,1287.05 909.701,1286.67 910.79,1286.28 911.878,1285.89 912.966,1285.5 914.054,1285.11 915.143,1284.73 916.231,1284.34 917.319,1283.95 918.408,1283.56 919.496,1283.17 920.584,1282.78 921.673,1282.39 922.761,1282 923.849,1281.61 924.937,1281.22 926.026,1280.83 927.114,1280.44 928.202,1280.05 929.291,1279.66 930.379,1279.27 931.467,1278.88 932.556,1278.49 933.644,1278.1 934.732,1277.7 935.82,1277.31 936.909,1276.92 937.997,1276.53 939.085,1276.13 940.174,1275.74 941.262,1275.35 942.35,1274.95 943.439,1274.56 944.527,1274.17 945.615,1273.77 946.703,1273.38 947.792,1272.98 948.88,1272.59 949.968,1272.19 951.057,1271.8 952.145,1271.4 953.233,1271.01 954.322,1270.61 955.41,1270.22 956.498,1269.82 957.586,1269.42 958.675,1269.03 959.763,1268.63 960.851,1268.23 961.94,1267.84 963.028,1267.44 964.116,1267.04 965.205,1266.64 966.293,1266.25 967.381,1265.85 968.469,1265.45 969.558,1265.05 970.646,1264.65 971.734,1264.25 972.823,1263.85 973.911,1263.45 974.999,1263.05 976.088,1262.65 977.176,1262.25 978.264,1261.85 979.353,1261.45 980.441,1261.05 981.529,1260.64 982.617,1260.24 983.706,1259.84 984.794,1259.43 985.882,1259.03 986.971,1258.62 988.059,1258.22 989.147,1257.81 990.236,1257.4 991.324,1256.99 992.412,1256.58 993.5,1256.17 994.589,1255.75 995.677,1255.34 996.765,1254.92 997.854,1254.5 998.942,1254.08 1000.03,1253.66 1001.12,1253.24 1002.21,1252.82 1003.3,1252.39 1004.38,1251.97 1005.47,1251.54 1006.56,1251.11 1007.65,1250.68 1008.74,1250.25 1009.82,1249.82 1010.91,1249.38 1012,1248.95 1013.09,1248.51 1014.18,1248.07 1015.27,1247.63 1016.35,1247.19 1017.44,1246.75 1018.53,1246.3 1019.62,1245.86 1020.71,1245.41 1021.8,1244.96 1022.88,1244.51 1023.97,1244.06 1025.06,1243.61 1026.15,1243.16 1027.24,1242.71 1028.33,1242.25 1029.41,1241.8 1030.5,1241.34 1031.59,1240.88 1032.68,1240.42 1033.77,1239.96 1034.86,1239.5 1035.94,1239.04 1037.03,1238.57 1038.12,1238.11 1039.21,1237.64 1040.3,1237.18 1041.39,1236.71 1042.47,1236.24 1043.56,1235.77 1044.65,1235.3 1045.74,1234.82 1046.83,1234.35 1047.92,1233.88 1049,1233.4 1050.09,1232.92 1051.18,1232.45 1052.27,1231.97 1053.36,1231.49 1054.45,1231.01 1055.53,1230.53 1056.62,1230.04 1057.71,1229.56 1058.8,1229.08 1059.89,1228.59 1060.98,1228.1 1062.06,1227.62 1063.15,1227.13 1064.24,1226.64 1065.33,1226.15 1066.42,1225.66 1067.5,1225.16 1068.59,1224.67 1069.68,1224.18 1070.77,1223.68 1071.86,1223.19 1072.95,1222.69 1074.03,1222.19 1075.12,1221.69 1076.21,1221.19 1077.3,1220.69 1078.39,1220.19 1079.48,1219.69 1080.56,1219.18 1081.65,1218.68 1082.74,1218.17 1083.83,1217.67 1084.92,1217.16 1086.01,1216.65 1087.09,1216.14 1088.18,1215.63 1089.27,1215.12 1090.36,1214.61 1091.45,1214.09 1092.54,1213.58 1093.62,1213.07 1094.71,1212.55 1095.8,1212.03 1096.89,1211.52 1097.98,1211 1099.07,1210.48 1100.15,1209.96 1101.24,1209.44 1102.33,1208.92 1103.42,1208.39 1104.51,1207.87 1105.6,1207.34 1106.68,1206.82 1107.77,1206.29 1108.86,1205.77 1109.95,1205.24 1111.04,1204.71 1112.13,1204.18 1113.21,1203.65 1114.3,1203.12 1115.39,1202.58 1116.48,1202.05 1117.57,1201.52 1118.66,1200.98 1119.74,1200.45 1120.83,1199.91 1121.92,1199.37 1123.01,1198.83 1124.1,1198.29 1125.18,1197.75 1126.27,1197.21 1127.36,1196.67 1128.45,1196.13 1129.54,1195.58 1130.63,1195.04 1131.71,1194.49 1132.8,1193.95 1133.89,1193.4 1134.98,1192.85 1136.07,1192.3 1137.16,1191.75 1138.24,1191.2 1139.33,1190.65 1140.42,1190.1 1141.51,1189.54 1142.6,1188.99 1143.69,1188.43 1144.77,1187.88 1145.86,1187.32 1146.95,1186.76 1148.04,1186.21 1149.13,1185.65 1150.22,1185.09 1151.3,1184.53 1152.39,1183.96 1153.48,1183.4 1154.57,1182.84 1155.66,1182.27 1156.75,1181.71 1157.83,1181.14 1158.92,1180.58 1160.01,1180.01 1161.1,1179.44 1162.19,1178.87 1163.28,1178.3 1164.36,1177.73 1165.45,1177.16 1166.54,1176.58 1167.63,1176.01 1168.72,1175.44 1169.81,1174.86 1170.89,1174.29 1171.98,1173.71 1173.07,1173.13 1174.16,1172.55 1175.25,1171.97 1176.34,1171.39 1177.42,1170.81 1178.51,1170.23 1179.6,1169.65 1180.69,1169.06 1181.78,1168.48 1182.86,1167.9 1183.95,1167.31 1185.04,1166.72 1186.13,1166.13 1187.22,1165.55 1188.31,1164.96 1189.39,1164.37 1190.48,1163.78 1191.57,1163.18 1192.66,1162.59 1193.75,1162 1194.84,1161.4 1195.92,1160.81 1197.01,1160.21 1198.1,1159.62 1199.19,1159.02 1200.28,1158.42 1201.37,1157.82 1202.45,1157.22 1203.54,1156.62 1204.63,1156.02 1205.72,1155.42 1206.81,1154.81 1207.9,1154.21 1208.98,1153.6 1210.07,1153 1211.16,1152.39 1212.25,1151.79 1213.34,1151.18 1214.43,1150.57 1215.51,1149.96 1216.6,1149.35 1217.69,1148.74 1218.78,1148.12 1219.87,1147.51 1220.96,1146.9 1222.04,1146.28 1223.13,1145.67 1224.22,1145.05 1225.31,1144.43 1226.4,1143.82 1227.49,1143.2 1228.57,1142.58 1229.66,1141.96 1230.75,1141.34 1231.84,1140.71 1232.93,1140.09 1234.01,1139.47 1235.1,1138.84 1236.19,1138.22 1237.28,1137.59 1238.37,1136.97 1239.46,1136.34 1240.54,1135.71 1241.63,1135.08 1242.72,1134.45 1243.81,1133.82 1244.9,1133.19 1245.99,1132.56 1247.07,1131.92 1248.16,1131.29 1249.25,1130.65 1250.34,1130.02 1251.43,1129.38 1252.52,1128.74 1253.6,1128.11 1254.69,1127.47 1255.78,1126.83 1256.87,1126.19 1257.96,1125.55 1259.05,1124.9 1260.13,1124.26 1261.22,1123.62 1262.31,1122.97 1263.4,1122.33 1264.49,1121.68 1265.58,1121.03 1266.66,1120.39 1267.75,1119.74 1268.84,1119.09 1269.93,1118.44 1271.02,1117.79 1272.11,1117.14 1273.19,1116.48 1274.28,1115.83 1275.37,1115.18 1276.46,1114.52 1277.55,1113.87 1278.64,1113.21 1279.72,1112.55 1280.81,1111.89 1281.9,1111.23 1282.99,1110.57 1284.08,1109.91 1285.17,1109.25 1286.25,1108.59 1287.34,1107.93 1288.43,1107.26 1289.52,1106.6 1290.61,1105.93 1291.69,1105.27 1292.78,1104.6 1293.87,1103.93 1294.96,1103.27 1296.05,1102.6 1297.14,1101.93 1298.22,1101.25 1299.31,1100.58 1300.4,1099.91 1301.49,1099.24 1302.58,1098.56 1303.67,1097.89 1304.75,1097.21 1305.84,1096.54 1306.93,1095.86 1308.02,1095.18 1309.11,1094.5 1310.2,1093.82 1311.28,1093.14 1312.37,1092.46 1313.46,1091.78 1314.55,1091.1 1315.64,1090.41 1316.73,1089.73 1317.81,1089.04 1318.9,1088.36 1319.99,1087.67 1321.08,1086.98 1322.17,1086.3 1323.26,1085.61 1324.34,1084.92 1325.43,1084.23 1326.52,1083.53 1327.61,1082.84 1328.7,1082.15 1329.79,1081.45 1330.87,1080.76 1331.96,1080.06 1333.05,1079.37 1334.14,1078.67 1335.23,1077.97 1336.32,1077.27 1337.4,1076.58 1338.49,1075.88 1339.58,1075.17 1340.67,1074.47 1341.76,1073.77 1342.85,1073.07 1343.93,1072.36 1345.02,1071.66 1346.11,1070.95 1347.2,1070.25 1348.29,1069.54 1349.37,1068.83 1350.46,1068.12 1351.55,1067.41 1352.64,1066.7 1353.73,1065.99 1354.82,1065.28 1355.9,1064.57 1356.99,1063.85 1358.08,1063.14 1359.17,1062.42 1360.26,1061.71 1361.35,1060.99 1362.43,1060.27 1363.52,1059.55 1364.61,1058.83 1365.7,1058.11 1366.79,1057.39 1367.88,1056.67 1368.96,1055.95 1370.05,1055.23 1371.14,1054.5 1372.23,1053.78 1373.32,1053.05 1374.41,1052.33 1375.49,1051.6 1376.58,1050.87 1377.67,1050.14 1378.76,1049.41 1379.85,1048.68 1380.94,1047.95 1382.02,1047.22 1383.11,1046.49 1384.2,1045.76 1385.29,1045.02 1386.38,1044.29 1387.47,1043.55 1388.55,1042.82 1389.64,1042.08 1390.73,1041.34 1391.82,1040.6 1392.91,1039.86 1394,1039.12 1395.08,1038.38 1396.17,1037.64 1397.26,1036.9 1398.35,1036.15 1399.44,1035.41 1400.53,1034.66 1401.61,1033.92 1402.7,1033.17 1403.79,1032.42 1404.88,1031.68 1405.97,1030.93 1407.05,1030.18 1408.14,1029.43 1409.23,1028.68 1410.32,1027.92 1411.41,1027.17 1412.5,1026.42 1413.58,1025.66 1414.67,1024.91 1415.76,1024.15 1416.85,1023.39 1417.94,1022.64 1419.03,1021.88 1420.11,1021.12 1421.2,1020.36 1422.29,1019.6 1423.38,1018.84 1424.47,1018.08 1425.56,1017.31 1426.64,1016.55 1427.73,1015.78 1428.82,1015.02 1429.91,1014.25 1431,1013.49 1432.09,1012.72 1433.17,1011.95 1434.26,1011.18 1435.35,1010.41 1436.44,1009.64 1437.53,1008.87 1438.62,1008.1 1439.7,1007.32 1440.79,1006.55 1441.88,1005.77 1442.97,1005 1444.06,1004.22 1445.15,1003.44 1446.23,1002.67 1447.32,1001.89 1448.41,1001.11 1449.5,1000.33 1450.59,999.548 1451.68,998.766 1452.76,997.984 1453.85,997.2 1454.94,996.416 1456.03,995.632 1457.12,994.846 1458.21,994.059 1459.29,993.272 1460.38,992.484 1461.47,991.696 1462.56,990.906 1463.65,990.116 1464.73,989.325 1465.82,988.533 1466.91,987.74 1468,986.947 1469.09,986.152 1470.18,985.357 1471.26,984.562 1472.35,983.765 1473.44,982.968 1474.53,982.17 1475.62,981.371 1476.71,980.571 1477.79,979.771 1478.88,978.969 1479.97,978.167 1481.06,977.365 1482.15,976.561 1483.24,975.757 1484.32,974.952 1485.41,974.146 1486.5,973.339 1487.59,972.532 1488.68,971.723 1489.77,970.914 1490.85,970.105 1491.94,969.294 1493.03,968.483 1494.12,967.671 1495.21,966.858 1496.3,966.044 1497.38,965.23 1498.47,964.414 1499.56,963.598 1500.65,962.782 1501.74,961.964 1502.83,961.146 1503.91,960.327 1505,959.507 1506.09,958.686 1507.18,957.865 1508.27,957.042 1509.36,956.219 1510.44,955.396 1511.53,954.571 1512.62,953.746 1513.71,952.92 1514.8,952.093 1515.88,951.265 1516.97,950.437 1518.06,949.608 1519.15,948.778 1520.24,947.947 1521.33,947.115 1522.41,946.283 1523.5,945.45 1524.59,944.616 1525.68,943.781 1526.77,942.946 1527.86,942.11 1528.94,941.273 1530.03,940.435 1531.12,939.596 1532.21,938.757 1533.3,937.917 1534.39,937.076 1535.47,936.235 1536.56,935.392 1537.65,934.549 1538.74,933.705 1539.83,932.86 1540.92,932.015 1542,931.168 1543.09,930.321 1544.18,929.474 1545.27,928.625 1546.36,927.776 1547.45,926.925 1548.53,926.074 1549.62,925.223 1550.71,924.37 1551.8,923.517 1552.89,922.663 1553.98,921.808 1555.06,920.953 1556.15,920.096 1557.24,919.239 1558.33,918.381 1559.42,917.522 1560.51,916.663 1561.59,915.803 1562.68,914.942 1563.77,914.08 1564.86,913.217 1565.95,912.354 1567.04,911.49 1568.12,910.625 1569.21,909.759 1570.3,908.893 1571.39,908.026 1572.48,907.158 1573.56,906.289 1574.65,905.419 1575.74,904.549 1576.83,903.678 1577.92,902.806 1579.01,901.933 1580.09,901.06 1581.18,900.186 1582.27,899.311 1583.36,898.435 1584.45,897.559 1585.54,896.681 1586.62,895.803 1587.71,894.924 1588.8,894.045 1589.89,893.164 1590.98,892.283 1592.07,891.401 1593.15,890.519 1594.24,889.635 1595.33,888.751 1596.42,887.866 1597.51,886.98 1598.6,886.094 1599.68,885.206 1600.77,884.318 1601.86,883.429 1602.95,882.54 1604.04,881.649 1605.13,880.758 1606.21,879.866 1607.3,878.973 1608.39,878.08 1609.48,877.185 1610.57,876.29 1611.66,875.394 1612.74,874.498 1613.83,873.6 1614.92,872.702 1616.01,871.803 1617.1,870.903 1618.19,870.003 1619.27,869.102 1620.36,868.2 1621.45,867.297 1622.54,866.393 1623.63,865.489 1624.72,864.584 1625.8,863.678 1626.89,862.771 1627.98,861.864 1629.07,860.955 1630.16,860.046 1631.24,859.137 1632.33,858.226 1633.42,857.315 1634.51,856.403 1635.6,855.49 1636.69,854.576 1637.77,853.662 1638.86,852.747 1639.95,851.831 1641.04,850.914 1642.13,849.996 1643.22,849.078 1644.3,848.159 1645.39,847.239 1646.48,846.319 1647.57,845.397 1648.66,844.475 1649.75,843.552 1650.83,842.628 1651.92,841.704 1653.01,840.779 1654.1,839.853 1655.19,838.926 1656.28,837.998 1657.36,837.07 1658.45,836.141 1659.54,835.211 1660.63,834.28 1661.72,833.349 1662.81,832.417 1663.89,831.484 1664.98,830.55 1666.07,829.616 1667.16,828.68 1668.25,827.744 1669.34,826.807 1670.42,825.87 1671.51,824.932 1672.6,823.992 1673.69,823.052 1674.78,822.112 1675.87,821.17 1676.95,820.228 1678.04,819.285 1679.13,818.341 1680.22,817.397 1681.31,816.452 1682.4,815.505 1683.48,814.559 1684.57,813.611 1685.66,812.663 1686.75,811.713 1687.84,810.763 1688.92,809.813 1690.01,808.861 1691.1,807.909 1692.19,806.956 1693.28,806.002 1694.37,805.048 1695.45,804.092 1696.54,803.136 1697.63,802.179 1698.72,801.221 1699.81,800.263 1700.9,799.304 1701.98,798.344 1703.07,797.383 1704.16,796.422 1705.25,795.459 1706.34,794.496 1707.43,793.532 1708.51,792.568 1709.6,791.602 1710.69,790.636 1711.78,789.669 1712.87,788.702 1713.96,787.733 1715.04,786.764 1716.13,785.794 1717.22,784.823 1718.31,783.852 1719.4,782.879 1720.49,781.906 1721.57,780.932 1722.66,779.958 1723.75,778.982 1724.84,778.006 1725.93,777.029 1727.02,776.051 1728.1,775.073 1729.19,774.094 1730.28,773.114 1731.37,772.133 1732.46,771.151 1733.55,770.169 1734.63,769.186 1735.72,768.202 1736.81,767.217 1737.9,766.232 1738.99,765.246 1740.08,764.259 1741.16,763.271 1742.25,762.282 1743.34,761.293 1744.43,760.303 1745.52,759.312 1746.6,758.321 1747.69,757.328 1748.78,756.335 1749.87,755.341 1750.96,754.346 1752.05,753.351 1753.13,752.355 1754.22,751.358 1755.31,750.36 1756.4,749.362 1757.49,748.362 1758.58,747.362 1759.66,746.361 1760.75,745.36 1761.84,744.357 1762.93,743.354 1764.02,742.35 1765.11,741.345 1766.19,740.34 1767.28,739.334 1768.37,738.327 1769.46,737.319 1770.55,736.31 1771.64,735.301 1772.72,734.291 1773.81,733.28 1774.9,732.268 1775.99,731.256 1777.08,730.243 1778.17,729.229 1779.25,728.214 1780.34,727.199 1781.43,726.182 1782.52,725.165 1783.61,724.148 1784.7,723.129 1785.78,722.11 1786.87,721.09 1787.96,720.069 1789.05,719.047 1790.14,718.025 1791.23,717.001 1792.31,715.977 1793.4,714.953 1794.49,713.927 1795.58,712.901 1796.67,711.874 1797.75,710.846 1798.84,709.818 1799.93,708.788 1801.02,707.758 1802.11,706.727 1803.2,705.695 1804.28,704.663 1805.37,703.63 1806.46,702.596 1807.55,701.561 1808.64,700.526 1809.73,699.489 1810.81,698.452 1811.9,697.414 1812.99,696.376 1814.08,695.336 1815.17,694.296 1816.26,693.255 1817.34,692.214 1818.43,691.171 1819.52,690.128 1820.61,689.084 1821.7,688.039 1822.79,686.994 1823.87,685.947 1824.96,684.9 1826.05,683.853 1827.14,682.804 1828.23,681.755 1829.32,680.704 1830.4,679.654 1831.49,678.602 1832.58,677.549 1833.67,676.496 1834.76,675.442 1835.85,674.387 1836.93,673.332 1838.02,672.276 1839.11,671.218 1840.2,670.161 1841.29,669.102 1842.38,668.043 1843.46,666.982 1844.55,665.922 1845.64,664.86 1846.73,663.797 1847.82,662.734 1848.91,661.67 1849.99,660.605 1851.08,659.54 1852.17,658.474 1853.26,657.406 1854.35,656.339 1855.43,655.27 1856.52,654.201 1857.61,653.13 1858.7,652.06 1859.79,650.988 1860.88,649.915 1861.96,648.842 1863.05,647.768 1864.14,646.693 1865.23,645.618 1866.32,644.541 1867.41,643.464 1868.49,642.387 1869.58,641.308 1870.67,640.229 1871.76,639.148 1872.85,638.067 1873.94,636.986 1875.02,635.903 1876.11,634.82 1877.2,633.736 1878.29,632.651 1879.38,631.566 1880.47,630.479 1881.55,629.392 1882.64,628.304 1883.73,627.216 1884.82,626.126 1885.91,625.036 1887,623.945 1888.08,622.854 1889.17,621.761 1890.26,620.668 1891.35,619.574 1892.44,618.479 1893.53,617.384 1894.61,616.287 1895.7,615.19 1896.79,614.092 1897.88,612.994 1898.97,611.894 1900.06,610.794 1901.14,609.693 1902.23,608.591 1903.32,607.489 1904.41,606.386 1905.5,605.282 1906.59,604.177 1907.67,603.071 1908.76,601.965 1909.85,600.858 1910.94,599.75 1912.03,598.641 1913.11,597.532 1914.2,596.422 1915.29,595.311 1916.38,594.199 1917.47,593.087 1918.56,591.974 1919.64,590.86 1920.73,589.745 1921.82,588.629 1922.91,587.513 1924,586.396 1925.09,585.278 1926.17,584.159 1927.26,583.04 1928.35,581.92 1929.44,580.799 1930.53,579.677 1931.62,578.555 1932.7,577.431 1933.79,576.307 1934.88,575.183 1935.97,574.057 1937.06,572.931 1938.15,571.804 1939.23,570.676 1940.32,569.547 1941.41,568.418 1942.5,567.288 1943.59,566.157 1944.68,565.025 1945.76,563.893 1946.85,562.759 1947.94,561.625 1949.03,560.491 1950.12,559.355 1951.21,558.219 1952.29,557.082 1953.38,555.944 1954.47,554.805 1955.56,553.666 1956.65,552.526 1957.74,551.385 1958.82,550.243 1959.91,549.101 1961,547.957 1962.09,546.813 1963.18,545.669 1964.27,544.523 1965.35,543.377 1966.44,542.23 1967.53,541.082 1968.62,539.933 1969.71,538.784 1970.79,537.634 1971.88,536.483 1972.97,535.331 1974.06,534.179 1975.15,533.025 1976.24,531.871 1977.32,530.717 1978.41,529.561 1979.5,528.405 1980.59,527.248 1981.68,526.09 1982.77,524.931 1983.85,523.772 1984.94,522.612 1986.03,521.451 1987.12,520.289 1988.21,519.127 1989.3,517.964 1990.38,516.8 1991.47,515.635 1992.56,514.469 1993.65,513.303 1994.74,512.136 1995.83,510.968 1996.91,509.8 1998,508.63 1999.09,507.46 2000.18,506.289 2001.27,505.118 2002.36,503.945 2003.44,502.772 2004.53,501.598 2005.62,500.423 2006.71,499.248 2007.8,498.071 2008.89,496.894 2009.97,495.716 2011.06,494.538 2012.15,493.359 2013.24,492.178 2014.33,490.998 2015.42,489.816 2016.5,488.633 2017.59,487.45 2018.68,486.266 2019.77,485.082 2020.86,483.896 2021.95,482.71 2023.03,481.523 2024.12,480.335 2025.21,479.146 2026.3,477.957 2027.39,476.767 2028.47,475.576 2029.56,474.384 2030.65,473.192 2031.74,471.999 2032.83,470.805 2033.92,469.61 2035,468.415 2036.09,467.218 2037.18,466.021 2038.27,464.824 2039.36,463.625 2040.45,462.426 2041.53,461.226 2042.62,460.025 2043.71,458.823 2044.8,457.621 2045.89,456.417 2046.98,455.214 2048.06,454.009 2049.15,452.803 2050.24,451.597 2051.33,450.39 2052.42,449.182 2053.51,447.974 2054.59,446.764 2055.68,445.554 2056.77,444.344 2057.86,443.132 2058.95,441.92 2060.04,440.706 2061.12,439.492 2062.21,438.278 2063.3,437.062 2064.39,435.846 2065.48,434.629 2066.57,433.411 2067.65,432.193 2068.74,430.973 2069.83,429.753 2070.92,428.533 2072.01,427.311 2073.1,426.089 2074.18,424.865 2075.27,423.641 2076.36,422.417 2077.45,421.191 2078.54,419.965 2079.62,418.738 2080.71,417.51 2081.8,416.282 2082.89,415.053 2083.98,413.823 2085.07,412.592 2086.15,411.36 2087.24,410.128 2088.33,408.895 2089.42,407.661 2090.51,406.426 2091.6,405.191 2092.68,403.954 2093.77,402.717 2094.86,401.48 2095.95,400.241 2097.04,399.002 2098.13,397.762 2099.21,396.521 2100.3,395.279 2101.39,394.037 2102.48,392.794 2103.57,391.55 2104.66,390.305 2105.74,389.06 2106.83,387.814 2107.92,386.567 2109.01,385.319 2110.1,384.071 2111.19,382.821 2112.27,381.571 2113.36,380.321 2114.45,379.069 2115.54,377.817 2116.63,376.564 2117.72,375.31 2118.8,374.055 2119.89,372.8 2120.98,371.544 2122.07,370.287 2123.16,369.029 2124.25,367.77 2125.33,366.511 2126.42,365.251 2127.51,363.99 2128.6,362.729 2129.69,361.467 2130.78,360.203 2131.86,358.94 2132.95,357.675 2134.04,356.41 2135.13,355.143 2136.22,353.877 2137.3,352.609 2138.39,351.34 2139.48,350.071 2140.57,348.801 2141.66,347.53 2142.75,346.259 2143.83,344.987 2144.92,343.714 2146.01,342.44 2147.1,341.165 2148.19,339.89 2149.28,338.614 2150.36,337.337 2151.45,336.059 2152.54,334.781 2153.63,333.501 2154.72,332.221 2155.81,330.941 2156.89,329.659 2157.98,328.377 2159.07,327.094 2160.16,325.81 2161.25,324.525 2162.34,323.24 2163.42,321.954 2164.51,320.667 2165.6,319.379 2166.69,318.091 2167.78,316.802 2168.87,315.512 2169.95,314.221 2171.04,312.93 2172.13,311.637 2173.22,310.344 2174.31,309.051 2175.4,307.756 2176.48,306.461 2177.57,305.165 2178.66,303.868 2179.75,302.57 2180.84,301.272 2181.93,299.972 2183.01,298.673 2184.1,297.372 2185.19,296.07 2186.28,294.768 2187.37,293.465 2188.46,292.161 2189.54,290.857 2190.63,289.552 2191.72,288.245 2192.81,286.939 2193.9,285.631 2194.98,284.323 2196.07,283.013 2197.16,281.704 2198.25,280.393 2199.34,279.081 2200.43,277.769 2201.51,276.456 2202.6,275.142 2203.69,273.828 2204.78,272.513 2205.87,271.197 2206.96,269.88 2208.04,268.562 2209.13,267.244 2210.22,265.925 2211.31,264.605 2212.4,263.284 2213.49,261.963 2214.57,260.64 2215.66,259.318 2216.75,257.994 2217.84,256.669 2218.93,255.344 2220.02,254.018 2221.1,252.691 2222.19,251.364 2223.28,250.035 2224.37,248.706 2225.46,247.376 2226.55,246.046 2227.63,244.714 2228.72,243.382 2229.81,242.049 2230.9,240.715 2231.99,239.381 2233.08,238.046 2234.16,236.71 2235.25,235.373 2236.34,234.035 2237.43,232.697 2238.52,231.358 2239.61,230.018 2240.69,228.677 2241.78,227.336 2242.87,225.994 2243.96,224.651 2245.05,223.307 2246.14,221.963 2247.22,220.618 2248.31,219.272 2249.4,217.925 2250.49,216.577 2251.58,215.229 2252.66,213.88 2253.75,212.53 2254.84,211.18 2255.93,209.828 2257.02,208.476 2258.11,207.123 2259.19,205.769 2260.28,204.415 2261.37,203.06 2262.46,201.704 2263.55,200.347 2264.64,198.99 2265.72,197.631 2266.81,196.272 2267.9,194.913 2268.99,193.552 2270.08,192.191 2271.17,190.828 2272.25,189.466 2273.34,188.102 2274.43,186.738 2275.52,185.372 2276.61,184.006 2277.7,182.64 2278.78,181.272 2279.87,179.904 2280.96,178.535 2282.05,177.165 2283.14,175.795 2284.23,174.423 2285.31,173.051 2286.4,171.678 2287.49,170.305 2288.58,168.93 2289.67,167.555 2290.76,166.179 2291.84,164.803 2292.93,163.425 2294.02,162.047 "/>
</svg>
